<svg width="149" height="122" viewBox="0 0 149 122" fill="none" xmlns="http://www.w3.org/2000/svg">
<rect x="73.8932" y="11.238" width="1.65875" height="110.651" fill="#1C2340"/>
<path opacity="0.79" d="M0 62.237C0 62.237 21.3705 10.0572 74.0052 11.2942C64.9028 22.8443 43.1367 53.1618 42.3455 67.1869C34.0351 59.9686 22.9538 58.11 15.8303 58.11C8.70679 58.11 0 62.237 0 62.237Z" fill="#0CCAD0"/>
<rect x="73.0639" width="2.48813" height="12.9669" rx="1.23714" fill="#1C2340"/>
<path d="M149 61.8281C149 61.8281 130.4 12.329 75.1929 11.5043C88.6487 43.0571 107.842 68.0159 107.842 68.0159C113.591 61.4286 121.869 57.8719 130.401 58.3227C145.042 58.9399 149 61.8281 149 61.8281Z" fill="#0CCAD0"/>
<path d="M41.5534 67.1895C41.5534 67.1895 47.6908 23.8799 73.4114 11.5034C75.719 11.41 77.9984 12.0579 79.9411 13.3594C82.1173 14.8031 104.082 31.303 107.642 67.1895C97.1548 54.4023 73.2123 53.371 58.9653 56.2583C44.7183 59.1456 41.5534 67.1895 41.5534 67.1895Z" fill="#16EBD5"/>
</svg>
