<svg width="296" height="17" viewBox="0 0 296 17" fill="none" xmlns="http://www.w3.org/2000/svg">
<path fill-rule="evenodd" clip-rule="evenodd" d="M11.5822 4.21135C11.5822 6.53722 9.69673 8.4227 7.37087 8.4227C5.045 8.4227 3.15952 6.53722 3.15952 4.21135C3.15952 1.88549 5.045 0 7.37087 0C9.69673 0 11.5822 1.88549 11.5822 4.21135ZM9.76933 9.47554H10.3188L10.3228 9.47253C11.5828 9.47528 12.7806 10.0208 13.6097 10.9696L11.0658 13.5134L10.8061 13.7731L10.767 14.1381L10.5434 16.1435C10.5185 16.3809 10.5476 16.6209 10.6286 16.8454H1.57926C0.708068 16.8449 0.00165818 16.1393 0 15.2682V13.8995C0 11.457 1.97944 9.47665 4.42192 9.47554H4.9714C6.49364 10.1777 8.24709 10.1777 9.76933 9.47554ZM11.8098 14.2564L11.5862 16.2618C11.5681 16.4204 11.6233 16.5786 11.7361 16.6915C11.849 16.8044 12.0072 16.8596 12.1658 16.8414L14.1712 16.6178L18.7084 12.0806L16.3441 9.72622L11.8098 14.2564ZM19.5818 7.60149L20.8291 8.84685L20.8281 8.84785C21.134 9.15659 21.134 9.65412 20.8281 9.96285L19.4524 11.3386L17.0911 8.98021L17.2264 8.84484L18.4698 7.60149C18.7773 7.29542 19.2743 7.29542 19.5818 7.60149Z" fill="#1C2340"/>
<path d="M293.824 8.31942L289.044 3.54255C288.692 3.19022 288.692 2.61944 289.044 2.26711C289.399 1.9176 289.968 1.9176 290.323 2.26711L295.737 7.6817C296.077 8.02331 296.089 8.57153 295.763 8.92706L290.327 14.3747C289.975 14.7278 289.403 14.7285 289.05 14.3762C288.697 14.024 288.696 13.4523 289.048 13.0993L293.824 8.31942Z" fill="#1C2340"/>
</svg>
