<svg width="296" height="22" viewBox="0 0 296 22" fill="none" xmlns="http://www.w3.org/2000/svg">
<path fill-rule="evenodd" clip-rule="evenodd" d="M21.0568 8.00959C20.0096 8.41079 19.3182 9.41603 19.3181 10.5374C19.3207 11.6598 20.0119 12.6655 21.0588 13.0702C20.7919 14.1762 20.3519 15.233 19.7552 16.2017C18.7329 15.7507 17.5385 15.9742 16.7483 16.7644C15.9582 17.5545 15.7347 18.7489 16.1856 19.7713C15.2174 20.3689 14.1605 20.8089 13.0542 21.0748C12.6489 20.0354 11.6475 19.3511 10.5319 19.3511C9.41628 19.3511 8.4149 20.0354 8.00959 21.0748C6.90365 20.8079 5.84681 20.368 4.87815 19.7713C5.32911 18.7489 5.1056 17.5545 4.31546 16.7644C3.52532 15.9742 2.33091 15.7507 1.30853 16.2017C0.710895 15.2335 0.270905 14.1765 0.00501351 13.0702C1.05148 12.6678 1.74158 11.6619 1.74047 10.5407C1.73936 9.4195 1.04726 8.415 0 8.0146C0.266907 6.91153 0.703254 5.85652 1.29349 4.88717C1.64004 5.04377 2.01617 5.12413 2.39646 5.12281C3.31361 5.12289 4.16844 4.65862 4.6677 3.88928C5.16697 3.11993 5.24278 2.15012 4.86912 1.31254C5.8355 0.71214 6.89114 0.269104 7.99655 0C8.39799 1.04686 9.40318 1.73796 10.5244 1.73796C11.6456 1.73796 12.6507 1.04686 13.0522 0C14.1565 0.265975 15.2115 0.705981 16.1776 1.30351C15.804 2.1411 15.8798 3.1109 16.379 3.88025C16.8783 4.6496 17.7331 5.11386 18.6503 5.11378C19.0303 5.11242 19.4059 5.03218 19.7532 4.87815C20.3509 5.84633 20.7909 6.90332 21.0568 8.00959ZM6.19069 10.5324C6.19069 12.9552 8.15473 14.9192 10.5775 14.9192V14.9182C11.7409 14.9185 12.8567 14.4565 13.6794 13.634C14.5021 12.8115 14.9643 11.6958 14.9643 10.5324C14.9643 8.10961 13.0003 6.14557 10.5775 6.14557C8.15473 6.14557 6.19069 8.10961 6.19069 10.5324Z" fill="#1C2340"/>
<path d="M293.824 10.3339L289.044 5.55698C288.692 5.20465 288.692 4.63387 289.044 4.28154C289.399 3.93203 289.968 3.93203 290.323 4.28154L295.737 9.69614C296.077 10.0377 296.089 10.586 295.763 10.9415L290.327 16.3892C289.975 16.7422 289.403 16.7429 289.05 16.3907C288.697 16.0385 288.696 15.4668 289.048 15.1137L293.824 10.3339Z" fill="#1C2340"/>
</svg>
