<svg width="227" height="190" viewBox="0 0 227 190" fill="none" xmlns="http://www.w3.org/2000/svg">
<rect y="167.979" width="226.329" height="0.121" fill="#EBEBEB"/>
<rect x="186.014" y="175.774" width="16.045" height="0.121" fill="#EBEBEB"/>
<rect x="145.814" y="177.091" width="4.21" height="0.121" fill="#EBEBEB"/>
<rect x="179.017" y="171.278" width="9.296" height="0.121" fill="#EBEBEB"/>
<rect x="25.413" y="172.092" width="20.923" height="0.121" fill="#EBEBEB"/>
<rect x="47.287" y="172.092" width="3.066" height="0.121" fill="#EBEBEB"/>
<rect x="58.548" y="174.136" width="45.382" height="0.121" fill="#EBEBEB"/>
<path fill-rule="evenodd" clip-rule="evenodd" d="M21.271 137H114.811C115.545 137 116.249 136.708 116.768 136.189C117.286 135.67 117.578 134.966 117.577 134.232V2.766C117.577 1.23838 116.339 0 114.811 0H21.271C19.7547 0.00268399 18.5232 1.22571 18.51 2.742V134.234C18.51 135.76 19.7453 136.997 21.271 137ZM18.631 2.745C18.631 1.28616 19.8122 0.102758 21.271 0.1L114.811 0.097C116.271 0.0997515 117.453 1.28235 117.456 2.742V134.235C117.453 135.695 116.271 136.877 114.811 136.88H21.271C19.8122 136.877 18.631 135.694 18.631 134.235V2.745Z" fill="#EBEBEB"/>
<path fill-rule="evenodd" clip-rule="evenodd" d="M110.166 137H203.711C205.236 136.994 206.468 135.757 206.467 134.232V2.742C206.454 1.22765 205.225 0.00541815 203.711 0H110.166C108.649 0.00265454 107.416 1.2249 107.4 2.742V134.234C107.403 135.76 108.64 136.997 110.166 137ZM107.521 2.745C107.524 1.28535 108.706 0.102751 110.166 0.1L203.711 0.097C205.171 0.0997515 206.353 1.28235 206.356 2.742V134.235C206.353 135.695 205.171 136.877 203.711 136.88H110.166C108.706 136.877 107.524 135.695 107.521 134.235V2.745Z" fill="#EBEBEB"/>
<circle cx="116.174" cy="90.1235" r="21.349" transform="rotate(-9.22 116.174 90.1235)" fill="#F0F0F0"/>
<path d="M113.94 107.231C117.975 104 129.926 103.84 135.575 108.684C141.224 113.528 148.975 121.439 151.726 122.408C154.477 123.377 163.619 119.826 170.997 119.017C178.375 118.208 181.277 125.799 184.019 129.999C186.761 134.199 189.672 134.359 190.966 139.848C192.26 145.337 194.677 149.377 198.392 153.897C202.107 158.417 212.925 164.555 214.054 167.98H94.883L93.594 121.279C96.801 118.048 109.881 110.462 113.94 107.231Z" fill="#EBEBEB"/>
<path d="M34.526 125.799C37.026 123.27 45.126 121.599 49.762 111.591C54.398 101.583 69.624 80.7469 75.437 77.8649C81.25 74.9829 87.679 62.3649 90.004 60.5649C92.329 58.7649 95.333 63.6309 96.137 66.5379C98.23 73.9299 108.248 94.9599 114.206 98.9949C120.164 103.03 120.581 111.75 122.243 116.759C123.905 121.768 134.092 124.67 136.408 131.127C138.724 137.584 164.508 167.978 164.508 167.978H10.658C18.322 162.408 24.881 135.541 34.526 125.799Z" fill="#F5F5F5"/>
<path d="M85.593 62.018C85.593 64.503 84.842 76.018 82.255 78.818C79.668 81.618 81.95 75.374 77.58 78.818C73.21 82.262 71.28 89.364 63.953 91.844C56.626 94.324 57.282 88.075 60.833 84.519C64.384 80.963 68.584 74.719 71.927 72.893C75.27 71.067 85.593 54.374 85.593 62.018Z" fill="#F0F0F0"/>
<path d="M72.181 116.267C75.664 111.452 60.017 117.023 55.281 115.298C50.545 113.573 54.206 111.209 47.312 117.236C40.418 123.263 28.477 129.08 34.935 131.125C41.393 133.17 65.696 125.205 72.181 116.267Z" fill="#F0F0F0"/>
<path d="M151.128 118.066C148.454 114.866 145.397 108.866 141.439 107.81C137.481 106.754 134.822 106.11 135.626 108.537C136.43 110.964 155.294 123.036 151.128 118.066Z" fill="#F0F0F0"/>
<path d="M191.508 136.294C190.82 134.051 188.708 134.114 186.853 130.558C184.998 127.002 182.253 120.952 177.726 120.709C173.199 120.466 166.041 122.245 172.077 126.764C178.113 131.283 193.901 144.123 191.508 136.294Z" fill="#F0F0F0"/>
<path d="M180.065 26.378H88.026C76.4 26.378 109.017 23.956 126.941 19.92C144.865 15.884 146.318 14.591 152.292 18.951C158.266 23.311 176.029 13.622 184.592 19.435C193.155 25.248 195.402 26.378 180.065 26.378Z" fill="#FAFAFA"/>
<path d="M68.378 43.9971C79.859 43.9971 101.77 43.0621 92.978 39.1911C84.186 35.3201 77.684 43.0661 73.848 39.7771C70.012 36.4881 63.801 36.0271 58.648 39.1911C53.495 42.3551 55.024 37.4331 48.809 39.1911C40.089 41.6571 12.166 43.9971 35.933 43.9971H68.378Z" fill="#FAFAFA"/>
<path d="M154.147 88.1359C162.915 88.1359 179.647 87.4189 172.933 84.4689C166.219 81.5189 161.258 87.4189 158.333 84.9149C155.408 82.4109 150.66 82.0519 146.707 84.4689C142.754 86.8859 143.941 83.1269 139.193 84.4689C132.551 86.3489 111.222 88.1359 129.364 88.1359H154.147Z" fill="#FAFAFA"/>
<rect x="96.465" y="39" width="1" height="71" fill="#1C2340"/>
<path opacity="0.79" d="M47.167 71.665C47.167 71.665 61.482 38.131 96.739 38.926C90.639 46.349 76.062 65.833 75.532 74.846C69.965 70.207 62.542 69.014 57.771 69.014C53 69.014 47.167 71.665 47.167 71.665Z" fill="#7F47FA"/>
<rect x="96.465" y="32" width="1" height="8" rx="0.5" fill="#1C2340"/>
<path d="M146.971 71.4011C146.971 71.4011 134.512 39.5901 97.531 39.0601C103.414 51.9595 110.752 64.1445 119.401 75.3781C123.252 71.1447 128.796 68.8588 134.511 69.1481C144.323 69.5451 146.971 71.4011 146.971 71.4011Z" fill="#7F47FA"/>
<path d="M75.002 74.8469C75.002 74.8469 79.111 47.0119 96.342 39.0599C97.8878 38.9999 99.4147 39.4164 100.716 40.2529C102.174 41.1809 116.887 51.7839 119.272 74.8469C112.247 66.6289 96.209 65.9659 86.666 67.8219C77.123 69.6779 75.002 74.8469 75.002 74.8469Z" fill="#8550FB"/>
<ellipse cx="113.165" cy="184.373" rx="85.983" ry="5.484" fill="#F5F5F5"/>
<path d="M107.173 183.336C113.243 183.336 118.165 173.589 118.165 161.565C118.165 149.541 113.243 139.794 107.173 139.794H93.095V183.335L107.173 183.336Z" fill="#263238"/>
<ellipse cx="94.145" cy="161.566" rx="10.992" ry="21.771" fill="#263238"/>
<path d="M179.063 183.336C185.133 183.336 190.05 173.589 190.05 161.565C190.05 149.541 185.15 139.794 179.063 139.794H164.963V183.335L179.063 183.336Z" fill="#263238"/>
<ellipse cx="164.908" cy="161.566" rx="10.992" ry="21.771" fill="#263238"/>
<path d="M42.311 172.373L34.784 170.517C32.2053 169.886 30.038 168.146 28.864 165.765C28.3504 164.727 27.6415 163.797 26.776 163.028L24.925 161.381C22.7817 159.472 21.677 156.656 21.951 153.8L22.968 143.142C23.316 139.487 25.8487 136.411 29.368 135.367L34.75 133.778L54.166 132.393L42.311 172.373Z" fill="#7F47FA"/>
<path d="M58.728 183.336C64.798 183.336 69.72 173.589 69.72 161.565C69.72 149.541 64.801 139.795 58.728 139.795H44.631V183.336H58.728Z" fill="#263238"/>
<ellipse cx="44.578" cy="161.566" rx="10.992" ry="21.771" fill="#263238"/>
<ellipse cx="44.578" cy="161.565" rx="7.712" ry="17.207" fill="#7F47FA"/>
<path d="M156.11 172.373L175.09 129.956C175.09 129.956 146.69 108.815 110.66 108.815C52.26 108.815 54.267 116.687 34.725 133.778L43.256 139.795C58.433 139.795 59.698 163.852 62.125 170.62C62.4963 171.671 63.4901 172.374 64.605 172.374H156.11" fill="#7F47FA"/>
<path d="M129.854 183.336C135.924 183.336 140.841 173.589 140.841 161.565C140.841 149.541 135.924 139.794 129.854 139.794H115.754V183.335L129.854 183.336Z" fill="#263238"/>
<ellipse cx="116.86" cy="161.566" rx="10.992" ry="21.771" fill="#263238"/>
<ellipse cx="116.873" cy="161.565" rx="7.712" ry="17.207" fill="#7F47FA"/>
<path d="M128.895 168.87C127.146 160.925 118.785 139.804 108.762 139.804L97.901 129.941H159.201C163.445 129.941 182.294 132.547 192.976 139.78C201.604 145.622 202.665 154.492 203.905 167.451C203.957 168.783 203.447 170.075 202.498 171.012C201.55 171.948 200.251 172.442 198.92 172.373C174.359 172.373 144.634 172.465 133.812 172.499C131.524 172.595 129.477 171.085 128.895 168.87Z" fill="#7F47FA"/>
<path opacity="0.8" d="M160.582 129.953H120.625C118.748 129.96 116.99 129.037 115.931 127.487C111.121 120.803 104.958 115.207 97.842 111.063C138.244 111.063 160.582 129.953 160.582 129.953Z" fill="white"/>
<path opacity="0.8" d="M106.925 113.044C111.769 116.551 117.282 121.987 120.378 127.388C120.683 127.912 120.687 128.559 120.388 129.087C120.089 129.615 119.532 129.944 118.925 129.951H53.434C46.487 129.951 48.793 112.651 85.082 111.351C88.502 111.051 96.476 111.046 100.882 111.065C103.054 111.076 105.168 111.768 106.925 113.044Z" fill="white"/>
<path d="M140.046 162.944L161.037 164.528C161.716 164.58 162.239 165.147 162.237 165.828V167.281C162.237 167.999 161.655 168.581 160.937 168.581H139.959C139.241 168.581 138.659 167.999 138.659 167.281V164.263C138.653 163.899 138.799 163.55 139.063 163.299C139.327 163.048 139.683 162.919 140.046 162.944Z" fill="#263238"/>
<path d="M202.543 163.232L196.778 164.395C196.17 164.516 195.732 165.049 195.732 165.669V167.243C195.732 167.961 196.314 168.543 197.032 168.543H203.132C203.504 168.543 203.858 168.385 204.105 168.107C204.352 167.829 204.469 167.459 204.425 167.09L204.1 164.358C204.059 163.993 203.865 163.663 203.567 163.449C203.269 163.235 202.894 163.157 202.535 163.234L202.543 163.232Z" fill="#263238"/>
<path opacity="0.8" d="M157.921 138.516L128.613 137.092C128.613 137.092 128.313 142.285 139.174 143.392C145.8 143.998 152.43 142.274 157.921 138.516Z" fill="white"/>
<path opacity="0.3" d="M22.962 143.137C23.0441 142.285 23.2482 141.45 23.568 140.657L25.554 140.599C25.554 140.599 25.646 148.219 22.768 147.74C22.6875 147.727 22.6082 147.708 22.531 147.682L22.962 143.137Z" fill="black"/>
<path opacity="0.8" d="M190.088 138.051C191.077 138.582 192.039 139.162 192.97 139.79C194.386 140.738 195.679 141.858 196.821 143.123C196.411 143.24 195.996 143.333 195.576 143.404C189.07 144.523 184.342 138.516 184.342 138.516L190.088 138.051Z" fill="white"/>
<path d="M162.175 146.703H182.914C183.641 146.707 184.349 146.933 184.944 147.352L188.568 149.895C189.399 150.471 189.953 151.368 190.094 152.37L191.019 159.235C191.159 160.135 190.895 161.05 190.297 161.737C189.7 162.425 188.83 162.813 187.919 162.8H165.745C164.393 162.782 163.161 162.018 162.545 160.814L158.403 152.738C157.793 151.614 157.895 150.237 158.665 149.216L159.702 147.884C160.298 147.127 161.212 146.691 162.175 146.703Z" fill="#263238"/>
<path opacity="0.1" d="M64.084 163.45H104.646C104.918 163.449 105.178 163.562 105.362 163.762C105.546 163.962 105.638 164.23 105.615 164.501L105.407 166.86C105.362 167.361 104.941 167.744 104.438 167.742H63.871C63.5991 167.743 63.3394 167.63 63.1551 167.43C62.9708 167.23 62.879 166.962 62.902 166.691L63.11 164.327C63.1577 163.826 63.5809 163.445 64.084 163.45Z" fill="black"/>
<path d="M77.108 111.063L79.535 110.593L74.57 132.393H72.244L77.108 111.063Z" fill="#7F47FA"/>
<path d="M85.507 134.844H77.199L76.986 135.716C76.8541 136.105 76.9231 136.534 77.1703 136.861C77.4176 137.189 77.811 137.373 78.221 137.353H83.245C84.209 137.308 85.0341 136.647 85.289 135.716L85.507 134.844Z" fill="#263238"/>
<path d="M59.321 134.844H51.021L50.808 135.716C50.676 136.105 50.7451 136.534 50.9923 136.861C51.2395 137.189 51.6329 137.373 52.043 137.353H57.065C58.0289 137.308 58.8541 136.647 59.109 135.716L59.321 134.844Z" fill="#263238"/>
<path opacity="0.1" d="M73.754 160.63C73.6035 160.63 73.4807 160.51 73.478 160.359L72.868 131.816C72.8678 131.664 72.9869 131.538 73.139 131.53C73.2895 131.53 73.4123 131.651 73.415 131.801L74.015 160.349C74.0151 160.5 73.8953 160.625 73.744 160.63H73.754Z" fill="black"/>
<rect x="102.465" y="109" width="54" height="81" fill="white"/>
<rect x="149.465" y="154" width="28" height="21" fill="white"/>
<path fill-rule="evenodd" clip-rule="evenodd" d="M142.948 144.465V162.83C143.031 172.999 148.219 182.446 156.756 187.971V189.904H101.524V109.818H156.756V141.576C153.095 142.904 149.287 143.785 145.415 144.2L142.948 144.465ZM134.663 140.196H152.614V137.434H134.663V140.196ZM152.614 133.296H134.663V130.53H152.614V133.296ZM144.324 113.96H113.951V122.245H144.324V113.96ZM117.689 139.791C117.15 140.33 116.276 140.33 115.737 139.791L111.594 135.649L113.546 133.697L116.712 136.863L126.782 126.793L128.734 128.745L117.689 139.791ZM117.689 166.026L128.735 154.98L126.782 153.028L116.712 163.098L113.546 159.932L111.594 161.884L115.737 166.026C116.276 166.565 117.15 166.565 117.689 166.026ZM105.666 127.768C105.667 127.006 106.285 126.388 107.047 126.388H123.283L120.524 129.149H108.424V142.957H122.236V139.149L124.998 136.387V144.338C124.997 145.1 124.379 145.718 123.617 145.718H107.047C106.285 145.718 105.667 145.1 105.666 144.338V127.768ZM107.047 171.954H123.616H123.617C123.984 171.954 124.336 171.808 124.595 171.548C124.854 171.288 124.999 170.936 124.998 170.569V162.618L122.236 165.384V169.192H108.424V155.384H120.524L123.283 152.618H107.047C106.68 152.618 106.328 152.764 106.069 153.024C105.81 153.284 105.665 153.637 105.666 154.004V170.573C105.666 171.336 106.284 171.954 107.047 171.954ZM140.186 184.381H130.524V181.618H140.19L140.186 184.381ZM124.998 178.858H140.186V176.096H124.998V178.858ZM140.186 166.431H131.902V163.669H140.187L140.186 166.431ZM131.902 159.531H140.186L140.187 156.765H131.902V159.531Z" fill="url(#paint0_linear_0_6305)"/>
<path fill-rule="evenodd" clip-rule="evenodd" d="M145.71 146.942C151.974 146.279 158.06 144.46 163.66 141.576C169.26 144.46 175.346 146.28 181.61 146.942V162.829C181.424 174.252 174.322 184.418 163.66 188.523C152.998 184.418 145.896 174.252 145.71 162.829V146.942ZM151.642 166.03L158.542 172.93C159.081 173.469 159.955 173.469 160.494 172.93L175.683 157.741L173.731 155.789L159.518 170.004L153.59 164.076L151.642 166.03Z" fill="url(#paint1_linear_0_6305)"/>
<rect x="116.465" y="117" width="25" height="2" fill="url(#paint2_linear_0_6305)"/>
<path d="M89.178 181.437L86.315 181.393L85.491 174.756L88.354 174.8L89.178 181.437Z" fill="#FF8B7B"/>
<path d="M71.752 181.369L69.136 179.911L71.088 173.754L73.704 175.212L71.752 181.369Z" fill="#FF8B7B"/>
<path d="M68.889 179.567L71.922 181.292C72.0243 181.347 72.073 181.467 72.038 181.578L71.273 184.073C71.235 184.196 71.1425 184.294 71.0223 184.34C70.9022 184.385 70.7678 184.373 70.658 184.306C69.689 183.739 69.011 183.274 67.78 182.577C67.024 182.151 64.699 180.935 63.657 180.344C62.615 179.753 63.057 178.639 63.541 178.789C65.0848 179.375 66.7381 179.616 68.385 179.496C68.5559 179.455 68.7358 179.481 68.889 179.567Z" fill="#263238"/>
<path d="M86.257 181.064L89.382 181.112C89.5001 181.112 89.6015 181.196 89.624 181.312L90.147 183.865C90.1687 183.987 90.1344 184.112 90.0535 184.206C89.9726 184.3 89.8538 184.352 89.73 184.349C88.601 184.315 86.974 184.223 85.559 184.199C83.902 184.175 82.468 184.243 80.526 184.199C79.354 184.199 79.073 182.988 79.557 182.886C81.805 182.431 83.631 182.402 85.583 181.244C85.7874 181.125 86.0202 181.062 86.257 181.064Z" fill="#263238"/>
<path d="M84.9039 97.5089C83.2632 98.8516 81.5525 100.106 79.7789 101.268C78.8879 101.844 77.9789 102.416 77.0179 102.939C76.0103 103.51 74.9513 103.985 73.8549 104.358C73.5271 104.463 73.1932 104.547 72.8549 104.61C72.6709 104.644 72.4549 104.668 72.2549 104.688C72.0243 104.707 71.7925 104.707 71.5619 104.688C71.0542 104.647 70.56 104.504 70.1089 104.267C69.6773 104.037 69.2926 103.728 68.9749 103.356C68.4852 102.768 68.1254 102.083 67.9189 101.346C67.7516 100.751 67.6398 100.141 67.5849 99.5249C67.4388 97.3209 67.6499 95.1077 68.2099 92.9709L70.3369 93.2709C70.3272 95.1955 70.5155 97.116 70.8989 99.0019C70.99 99.4007 71.1182 99.7901 71.2819 100.165C71.3772 100.417 71.528 100.644 71.7229 100.829C71.7809 100.868 71.8049 100.863 71.8099 100.829C71.8149 100.795 71.8099 100.805 71.8099 100.795C72.0554 100.741 72.2954 100.665 72.5269 100.567C73.3528 100.211 74.1484 99.7879 74.9059 99.3029C75.7199 98.8189 76.5389 98.2519 77.3279 97.6799C78.9459 96.5459 80.5789 95.3259 82.1339 94.1239L84.9039 97.5089Z" fill="#FF8B7B"/>
<path d="M85.777 96.1909C84.477 99.1319 79.45 102.174 76.665 103.458C75.841 103.836 75.948 104.94 75.459 104.458C75.459 104.458 73.313 100.52 73.313 99.7149C73.313 98.9099 74.025 99.3899 74.606 98.8479C76.699 96.9099 81.078 92.6479 83.806 92.1819C87.385 91.5549 86.997 93.4489 85.777 96.1909Z" fill="url(#paint3_linear_0_6305)"/>
<path d="M73.612 99.1939C73.336 98.7869 72.193 99.8529 71.829 100.294C71.465 100.735 72.464 102.358 72.764 103.201C73.064 104.044 72.473 104.94 73.394 105.071C73.878 105.139 75.259 104.96 75.526 104.587C76.151 103.792 74.276 100.173 73.612 99.1939Z" fill="#263238"/>
<path opacity="0.2" d="M80.186 101.52C82.531 100.042 84.933 98.0949 85.786 96.1909C85.839 96.0599 85.902 95.9389 85.951 95.8129L85.999 95.3289C82.812 95.8719 80.651 99.0879 80.186 101.52Z" fill="black"/>
<path d="M69.9249 94.1518L71.7709 91.4148L68.7579 90.1848C68.7579 90.1848 67.0529 92.1228 68.2739 93.8128L69.9249 94.1518Z" fill="#FF8B7B"/>
<path d="M72.546 88.4399L69.775 88.3479L68.758 90.1599L71.771 91.3899L72.546 88.4399Z" fill="#FF8B7B"/>
<path opacity="0.2" d="M85.491 174.757L85.917 178.177L88.78 178.225L88.354 174.805L85.491 174.757Z" fill="black"/>
<path opacity="0.2" d="M73.704 175.212L71.088 173.754L70.088 176.932L72.699 178.39L73.704 175.212Z" fill="black"/>
<path d="M99.801 93.2219C96.715 104.093 97.34 115.627 97.059 117.962C94.821 117.802 86.401 117.172 81.799 116.828C80.346 100.478 83.805 92.1749 83.805 92.1749C83.805 92.1749 84.774 91.9859 86.121 91.8499C86.538 91.8059 86.988 91.7679 87.458 91.7429C87.72 91.7429 87.981 91.7189 88.248 91.7139C90.4192 91.7504 92.5864 91.912 94.739 92.1979C95.146 92.2459 95.558 92.3089 95.96 92.3719C96.362 92.4349 96.696 92.5029 97.04 92.5719C98.595 92.8819 99.801 93.2219 99.801 93.2219Z" fill="url(#paint4_linear_0_6305)"/>
<path d="M88.2469 91.729C86.9629 92.417 86.59 94.936 89.0749 95.029C91.2973 95.0121 93.3873 93.9699 94.7379 92.205L88.2469 91.729Z" fill="#263238"/>
<path opacity="0.2" d="M96.539 97.886C96.268 98.937 96.578 103.733 97.677 104.92C97.827 103.384 98.026 101.776 98.292 100.139L96.539 97.886Z" fill="black"/>
<path d="M94.64 84.845C94.078 86.899 93.385 90.692 94.74 92.194C93.3472 93.4425 91.496 94.0519 89.634 93.875C87.149 93.775 87.534 92.567 88.249 91.714C90.623 91.331 90.671 89.597 90.405 87.945L94.64 84.845Z" fill="#FF8B7B"/>
<path opacity="0.2" d="M92.912 86.1099L90.403 87.9459C90.4747 88.3312 90.5135 88.7219 90.519 89.1139C91.591 88.9746 92.4975 88.2526 92.873 87.2389C92.9537 86.8679 92.9669 86.4855 92.912 86.1099V86.1099Z" fill="black"/>
<path d="M88.174 84.0559C88.174 84.0559 86.42 81.5899 86.934 79.6619C87.593 77.1969 91.564 80.2229 88.174 84.0559Z" fill="#263238"/>
<path d="M95.121 81.7208C94.733 84.5358 94.637 86.2018 93.121 87.5338C92.0639 88.4258 90.603 88.6666 89.3156 88.161C88.0282 87.6554 87.1215 86.4848 86.954 85.1118C86.533 82.5298 87.23 78.3588 90.083 77.4428C91.3643 77.022 92.7723 77.2976 93.8004 78.1706C94.8284 79.0435 95.3286 80.3882 95.121 81.7208Z" fill="#FF8B7B"/>
<path d="M88.46 84.6948C88.46 85.1258 88.06 85.2278 87.743 85.4218C87.521 85.576 87.3346 85.7758 87.196 86.0078C87.196 86.0078 86.784 85.8718 86.954 85.1408C87.124 84.4098 88.46 84.2928 88.46 84.6948Z" fill="#263238"/>
<path d="M88.659 84.709C88.659 85.45 89.478 85.348 90.112 85.552C90.6272 85.7118 91.081 86.0259 91.412 86.452C91.581 86.0717 91.5109 85.6277 91.233 85.318C90.437 84.275 88.659 84.307 88.659 84.709Z" fill="#263238"/>
<path d="M92.946 79.177C91.183 79.7 86.237 80.248 86.846 77.724C87.689 74.192 89.917 76.033 90.237 76.537C91.656 75.51 97.92 76.406 96.67 78.437C98.031 78.645 98.821 80.128 97.842 80.859C96.863 81.59 95.677 84.575 95.023 84.487C94.2306 84.3781 93.4567 84.1614 92.723 83.843L94.07 82.043C94.07 82.043 92.437 80.486 92.946 79.177Z" fill="#263238"/>
<path d="M96.032 78.7458C96.9221 78.3784 97.9417 78.5252 98.692 79.1288C98.633 77.9088 96.962 77.7388 96.032 78.7458Z" fill="#263238"/>
<path d="M96.163 84.947C95.74 85.5212 95.1054 85.9031 94.4 86.008C93.46 86.144 93.116 85.277 93.48 84.458C93.805 83.717 94.686 82.758 95.58 83.005C95.9713 83.122 96.2777 83.4278 96.3956 83.8188C96.5136 84.2099 96.4273 84.634 96.166 84.948L96.163 84.947Z" fill="#FF8B7B"/>
<path d="M84.851 177.503L89.695 177.576C89.695 177.576 86.895 158.436 87.336 149.532C87.467 146.824 87.031 143.032 87.748 138.976C88.654 133.855 89.09 131.816 90.257 125.349C91.09 120.737 91.831 117.598 91.831 117.598L81.798 116.852C81.798 116.852 78.518 139.916 78.615 148.652C78.719 157.704 84.851 177.503 84.851 177.503Z" fill="#7F47FA"/>
<path opacity="0.6" d="M84.851 177.503L89.695 177.576C89.695 177.576 86.895 158.436 87.336 149.532C87.467 146.824 87.031 143.032 87.748 138.976C88.654 133.855 89.09 131.816 90.257 125.349C91.09 120.737 91.831 117.598 91.831 117.598L81.798 116.852C81.798 116.852 78.518 139.916 78.615 148.652C78.719 157.704 84.851 177.503 84.851 177.503Z" fill="black"/>
<path opacity="0.2" d="M87.7479 138.976C87.4079 141.099 87.267 143.25 87.3269 145.4C86.4939 147.754 85.7669 149.988 85.2579 151.974C84.3709 155.447 82.9669 160.718 81.6009 165.78C80.1139 159.85 78.6649 152.996 78.6219 148.626L87.7479 138.976Z" fill="black"/>
<path d="M87.2099 117.23C87.2099 117.23 80.0019 135.445 77.2689 143.39C74.2749 152.071 69.4449 175.503 69.4449 175.503L74.0039 178.085C74.0039 178.085 81.1039 158.771 84.0459 150.317C87.3979 140.686 96.6459 125.47 97.0579 117.986L87.2099 117.23Z" fill="#7F47FA"/>
<path opacity="0.6" d="M87.2099 117.23C87.2099 117.23 80.0019 135.445 77.2689 143.39C74.2749 152.071 69.4449 175.503 69.4449 175.503L74.0039 178.085C74.0039 178.085 81.1039 158.771 84.0459 150.317C87.3979 140.686 96.6459 125.47 97.0579 117.986L87.2099 117.23Z" fill="black"/>
<path d="M68.845 175.271L74.215 178.317L75.126 176.717L69.182 173.21L68.845 175.271Z" fill="#7F47FA"/>
<path d="M84.241 177.606L90.015 177.698L90.044 175.833L83.591 175.633L84.241 177.606Z" fill="#7F47FA"/>
<path d="M91.352 82.1908C91.352 82.4238 91.197 82.5978 91.047 82.5908C90.897 82.5838 90.79 82.3828 90.81 82.1548C90.83 81.9268 90.96 81.7478 91.11 81.7548C91.26 81.7618 91.372 81.9628 91.352 82.1908Z" fill="#263238"/>
<path d="M88.29 81.997C88.29 82.23 88.14 82.404 87.99 82.397C87.84 82.39 87.728 82.189 87.748 81.961C87.768 81.733 87.898 81.554 88.048 81.561C88.198 81.568 88.31 81.769 88.29 81.997Z" fill="#263238"/>
<path d="M88.983 82.176C88.6549 82.8585 88.2343 83.4925 87.733 84.06C88.034 84.3122 88.4311 84.4187 88.818 84.351L88.983 82.176Z" fill="#FF5652"/>
<path d="M88.731 85.834C89.255 85.8127 89.7464 85.5739 90.087 85.175C90.1146 85.1496 90.1164 85.1066 90.091 85.079C90.0656 85.0514 90.0226 85.0496 89.995 85.075C89.6062 85.5085 89.0345 85.7313 88.455 85.675C88.4183 85.6747 88.387 85.7017 88.382 85.738C88.379 85.7564 88.3843 85.7751 88.3965 85.7892C88.4086 85.8033 88.4264 85.8113 88.445 85.811C88.5397 85.8252 88.6352 85.8329 88.731 85.834Z" fill="#263238"/>
<path d="M91.837 81.4098C91.8578 81.414 91.8792 81.414 91.9 81.4098C91.9303 81.39 91.9515 81.3589 91.9588 81.3234C91.9661 81.2879 91.959 81.251 91.939 81.2208C91.7116 80.849 91.3179 80.6107 90.883 80.5818C90.8465 80.5804 90.8111 80.5942 90.7853 80.6201C90.7594 80.6459 90.7456 80.6813 90.747 80.7178C90.747 80.7929 90.8079 80.8538 90.883 80.8538C91.2253 80.883 91.533 81.074 91.711 81.3678C91.7428 81.4027 91.7905 81.4187 91.837 81.4098Z" fill="#263238"/>
<path d="M87.1579 80.9739C87.2036 80.9779 87.2485 80.9601 87.2789 80.9259C87.4979 80.6574 87.8332 80.5113 88.1789 80.5339C88.2503 80.5371 88.3121 80.485 88.321 80.4141C88.3299 80.3432 88.2829 80.2774 88.2129 80.2629C87.779 80.2316 87.3566 80.4119 87.0789 80.7469C87.0529 80.7725 87.0383 80.8074 87.0383 80.8439C87.0383 80.8804 87.0529 80.9153 87.0789 80.9409C87.1019 80.9587 87.1292 80.9701 87.1579 80.9739Z" fill="#263238"/>
<path fill-rule="evenodd" clip-rule="evenodd" d="M68.518 179.814C68.2743 179.751 68.0392 179.658 67.818 179.538C67.6398 179.46 67.4924 179.325 67.399 179.154C67.3515 179.027 67.3714 178.885 67.452 178.776C67.4913 178.706 67.5658 178.663 67.646 178.665C68.005 178.68 68.528 179.629 68.586 179.736C68.6001 179.76 68.6001 179.79 68.586 179.814C68.5657 179.829 68.5383 179.829 68.518 179.814ZM67.537 179.095C67.609 179.284 67.91 179.483 68.394 179.638L68.395 179.635C68.179 179.262 67.838 178.792 67.654 178.785C67.621 178.785 67.5908 178.803 67.576 178.833C67.5192 178.908 67.5045 179.007 67.537 179.095Z" fill="#7F47FA"/>
<path fill-rule="evenodd" clip-rule="evenodd" d="M68.54 179.809H68.506V179.808C68.494 179.8 68.4855 179.788 68.482 179.774C68.322 179.488 68.114 178.665 68.322 178.413C68.393 178.337 68.5055 178.318 68.598 178.365C68.6955 178.407 68.771 178.488 68.806 178.588C68.9343 178.917 68.7075 179.488 68.6257 179.694C68.6087 179.737 68.598 179.764 68.598 179.77C68.5883 179.793 68.5654 179.809 68.54 179.809ZM68.681 178.647C68.6622 178.592 68.6242 178.545 68.574 178.516L68.547 178.517C68.465 178.469 68.431 178.517 68.431 178.517C68.303 178.662 68.386 179.253 68.531 179.592C68.6742 179.299 68.7264 178.97 68.681 178.647Z" fill="#7F47FA"/>
<path fill-rule="evenodd" clip-rule="evenodd" d="M86.0135 181.395C86.0114 181.421 85.9944 181.443 85.97 181.452L85.961 181.46C85.501 181.539 84.677 181.641 84.367 181.36C84.2767 181.274 84.232 181.15 84.246 181.026C84.2518 180.95 84.2955 180.883 84.362 180.847C84.711 180.658 85.854 181.258 85.98 181.331C86.0026 181.344 86.0157 181.369 86.0135 181.395ZM85.738 181.368C85.3475 181.131 84.9049 180.994 84.449 180.968L84.425 180.977C84.397 180.99 84.3796 181.019 84.381 181.05C84.3701 181.131 84.3992 181.212 84.459 181.268C84.8591 181.455 85.3137 181.491 85.738 181.368Z" fill="#7F47FA"/>
<path fill-rule="evenodd" clip-rule="evenodd" d="M85.999 181.389C85.9998 181.413 85.9891 181.437 85.97 181.452V181.457C85.9513 181.464 85.9307 181.464 85.912 181.457C85.558 181.312 84.885 180.668 84.943 180.343C84.953 180.266 85.011 180.159 85.195 180.159C85.3308 180.145 85.4663 180.189 85.568 180.28C85.8244 180.595 85.9751 180.983 85.999 181.389ZM85.229 180.299H85.156C85.1217 180.307 85.0963 180.336 85.093 180.371C85.063 180.565 85.514 181.059 85.863 181.277C85.8385 180.949 85.7115 180.637 85.5 180.386C85.4258 180.32 85.3275 180.289 85.229 180.299Z" fill="#7F47FA"/>
<path d="M100.508 94.9509C101.138 96.1229 101.68 97.2809 102.242 98.4579C102.804 99.6349 103.293 100.837 103.787 102.048C104.281 103.259 104.727 104.47 105.139 105.768L105.439 106.737L105.701 107.706C105.788 108.035 105.856 108.384 105.934 108.718L105.992 108.98L106.045 109.329C106.077 109.541 106.098 109.754 106.108 109.968C106.138 110.701 106.107 111.435 106.016 112.163C105.938 112.851 105.842 113.515 105.725 114.169C105.488 115.477 105.197 116.751 104.872 118.011C104.226 120.52 103.452 122.994 102.552 125.423L100.483 124.851C100.914 122.371 101.331 119.856 101.699 117.381C101.878 116.146 102.043 114.91 102.154 113.69C102.212 113.084 102.254 112.484 102.275 111.898C102.301 111.357 102.286 110.814 102.231 110.275C102.23 110.171 102.213 110.069 102.183 109.97L102.154 109.844L102.096 109.644C102.009 109.368 101.941 109.092 101.844 108.811L101.558 107.968L101.243 107.12C100.812 105.982 100.327 104.848 99.843 103.729C99.359 102.61 98.811 101.462 98.273 100.338C97.735 99.2139 97.183 98.0709 96.65 96.9759L100.508 94.9509Z" fill="#FF8B7B"/>
<path d="M99.796 93.226C101.85 93.865 104.568 102.382 105.643 106.005C106.047 106.488 106.175 107.145 105.982 107.744L101.801 109.59C100.832 109.106 100.231 108.09 100.595 107.59C98.7923 104.474 97.2091 101.237 95.857 97.901C94.632 94.253 96.637 92.212 99.796 93.226Z" fill="url(#paint5_linear_0_6305)"/>
<path d="M100.779 108.577C100.358 108.829 101.651 110.156 102.068 110.544C102.485 110.932 103.875 109.919 104.742 109.667C105.609 109.415 106.462 110.067 106.642 109.154C106.761 108.416 106.645 107.66 106.308 106.993C105.518 106.325 101.797 107.977 100.779 108.577Z" fill="#263238"/>
<path d="M101.021 123.629L98.788 125.489L101.569 127.495C101.569 127.495 103.395 125.557 102.577 124.404L101.021 123.629Z" fill="#FF8B7B"/>
<path d="M97.514 128.091L100.266 129.428L101.566 127.495L98.785 125.489L97.514 128.091Z" fill="#FF8B7B"/>
<defs>
<linearGradient id="paint0_linear_0_6305" x1="101.524" y1="109.818" x2="101.524" y2="189.904" gradientUnits="userSpaceOnUse">
<stop stop-color="#16EBD5"/>
<stop offset="1" stop-color="#0CCAD0"/>
</linearGradient>
<linearGradient id="paint1_linear_0_6305" x1="145.71" y1="141.576" x2="145.71" y2="188.523" gradientUnits="userSpaceOnUse">
<stop stop-color="#16EBD5"/>
<stop offset="1" stop-color="#0CCAD0"/>
</linearGradient>
<linearGradient id="paint2_linear_0_6305" x1="116.465" y1="117" x2="116.465" y2="119" gradientUnits="userSpaceOnUse">
<stop stop-color="#16EBD5"/>
<stop offset="1" stop-color="#0CCAD0"/>
</linearGradient>
<linearGradient id="paint3_linear_0_6305" x1="73.313" y1="92.0615" x2="73.313" y2="104.578" gradientUnits="userSpaceOnUse">
<stop stop-color="#FE6587"/>
<stop offset="1" stop-color="#F52D6A"/>
</linearGradient>
<linearGradient id="paint4_linear_0_6305" x1="81.4426" y1="91.7139" x2="81.4426" y2="117.962" gradientUnits="userSpaceOnUse">
<stop stop-color="#FE6587"/>
<stop offset="1" stop-color="#F52D6A"/>
</linearGradient>
<linearGradient id="paint5_linear_0_6305" x1="95.4929" y1="92.9666" x2="95.4929" y2="109.59" gradientUnits="userSpaceOnUse">
<stop stop-color="#FE6587"/>
<stop offset="1" stop-color="#F52D6A"/>
</linearGradient>
</defs>
</svg>
