<svg width="34" height="36" viewBox="0 0 34 36" fill="none" xmlns="http://www.w3.org/2000/svg">
<path d="M7.82145 22.9627C7.92166 22.8922 8.03207 22.8218 8.15362 22.7513C7.63346 21.0584 7.36678 19.2836 7.36401 17.4965V7.60998C7.36435 7.2972 7.575 7.03302 7.85671 6.99207C10.9662 6.54282 13.9733 5.46417 16.7262 3.81061C16.8951 3.70944 17.0992 3.70944 17.2681 3.81061C20.0213 5.46429 23.0287 6.54294 26.1385 6.99207C26.4202 7.03302 26.6309 7.2972 26.6312 7.60998V17.4965C26.6264 20.4931 25.8831 23.432 24.4804 26.0002L24.9239 26.2667L27.393 26.6855C28.7532 23.853 29.4636 20.6973 29.4621 17.4935V4.11088C25.1407 4.10698 20.9101 2.74568 17.2672 0.186905L16.9981 0L16.7281 0.186905C13.0846 2.7461 8.85328 4.10742 4.53122 4.11088V17.4965C4.531 19.8298 4.90803 22.1445 5.64467 24.3323L7.82145 22.9627Z" fill="white"/>
<path fill-rule="evenodd" clip-rule="evenodd" d="M16.9972 5.06434C16.9975 5.06416 16.9978 5.06398 16.9981 5.06379H16.9962C16.9965 5.06398 16.9968 5.06416 16.9972 5.06434ZM16.9972 5.06434C14.3431 6.61471 11.4692 7.65784 8.49787 8.14925V17.4965C8.50082 19.1312 8.74236 20.7547 9.21326 22.305C10.6553 21.9353 12.1352 21.7753 13.6151 21.829C15.7328 21.7721 17.8359 22.2304 19.7743 23.1711L23.4857 25.4006C24.797 23.0157 25.4922 20.2822 25.4964 17.4945V8.14925C22.5252 7.65767 19.6513 6.61455 16.9972 5.06434ZM15.533 19.5933L16.9981 17.9806L23.2315 11.1172L21.5317 9.24614L16.9981 14.2364L14.7313 16.7315L12.4645 14.2364L10.7656 16.1095L13.9305 19.5933C14.143 19.8272 14.4312 19.9587 14.7318 19.9587C15.0323 19.9587 15.3205 19.8272 15.533 19.5933Z" fill="white"/>
<ellipse cx="7.06894" cy="33.3732" rx="2.31967" ry="2.55334" fill="white"/>
<path fill-rule="evenodd" clip-rule="evenodd" d="M33.863 31.3549L33.4158 29.7514C33.4048 29.719 33.3915 29.6875 33.3759 29.6575C33.0311 29.0778 32.4508 28.7201 31.8217 28.6995L24.614 27.4739C24.578 27.4689 24.5433 27.4561 24.5119 27.4361L19.2361 24.2699C17.4624 23.4303 15.5441 23.025 13.6141 23.0821C9.78385 23.0821 8.80309 23.7562 8.38369 24.0493L5.22894 26.0328C5.0532 26.1443 4.85372 26.2024 4.65088 26.2013H2.85359C1.6654 26.2283 0.690846 27.2457 0.60351 28.5504L0.0310145 31.07C-0.0704884 31.6587 0.0801211 32.2661 0.439277 32.7164C0.897091 33.3212 1.57154 33.6766 2.28666 33.6897H3.40011C3.40011 31.6227 4.92242 29.947 6.80028 29.947C8.67815 29.947 10.2005 31.6227 10.2005 33.6897H23.2305C23.2305 31.6227 24.7528 29.947 26.6307 29.947C28.5086 29.947 30.0309 31.6227 30.0309 33.6897H32.5018C33.012 33.6907 33.4875 33.4052 33.7631 32.9325C34.0387 32.4598 34.0763 31.8651 33.863 31.3549ZM13.0481 27.0654C10.8779 26.9346 8.68716 26.7539 6.75812 26.5036L8.985 25.1003C9.27357 24.8961 10.0224 24.3854 13.0481 24.3333V27.0654ZM14.1811 24.3383V27.1327C17.1957 27.3012 20.0805 27.3717 22.0967 27.4105L18.6914 25.3678C17.2652 24.6976 15.7318 24.3476 14.1811 24.3383Z" fill="white"/>
<ellipse cx="26.5542" cy="33.3732" rx="2.31967" ry="2.55334" fill="white"/>
</svg>
