<svg width="6" height="6" viewBox="0 0 6 6" fill="none" xmlns="http://www.w3.org/2000/svg">
<path fill-rule="evenodd" clip-rule="evenodd" d="M1.78219 0.257797C0.665592 0.753291 -0.0387556 1.87666 0.00165089 3.09759C-0.00942807 3.88727 0.306269 4.64644 0.874023 5.19541C1.44178 5.74439 2.21113 6.03438 2.99999 5.99675C4.22159 5.99608 5.32064 5.25436 5.77831 4.12174C6.23598 2.98911 5.96075 1.69207 5.08255 0.84292C4.20434 -0.00623358 2.89878 -0.237698 1.78219 0.257797ZM3.93144 0.853302C4.82819 1.2358 5.40442 2.12279 5.38944 3.09759H5.38598C5.40194 3.73307 5.1549 4.34697 4.70323 4.79428C4.25155 5.24159 3.63529 5.48264 2.99999 5.46051C2.02508 5.46461 1.14458 4.87852 0.772115 3.97756C0.39965 3.0766 0.609254 2.03984 1.30246 1.35433C1.99567 0.668822 3.03469 0.470804 3.93144 0.853302Z" fill="#FAFAFA"/>
</svg>
