<svg width="8" height="132" viewBox="0 0 8 132" fill="none" xmlns="http://www.w3.org/2000/svg">
<path d="M5.04546 6.31652L0.264006 1.53808C-0.0880021 1.18563 -0.0880021 0.614666 0.264006 0.262219C0.618608 -0.0874063 1.18827 -0.0874063 1.54287 0.262219L6.95925 5.67859C7.29908 6.02032 7.31056 6.56872 6.98533 6.92436L1.54688 12.3738C1.19457 12.727 0.622672 12.7277 0.269523 12.3753C-0.0836263 12.023 -0.0842999 11.4511 0.268018 11.098L5.04546 6.31652Z" fill="#1C2340"/>
<path d="M5.04546 45.4348L0.264006 40.6563C-0.0880021 40.3039 -0.0880021 39.7329 0.264006 39.3805C0.618608 39.0309 1.18827 39.0309 1.54287 39.3805L6.95925 44.7969C7.29908 45.1386 7.31056 45.687 6.98533 46.0426L1.54688 51.4921C1.19457 51.8453 0.622672 51.8459 0.269523 51.4936C-0.0836263 51.1413 -0.0842999 50.5694 0.268018 50.2162L5.04546 45.4348Z" fill="#1C2340"/>
<path d="M5.04546 85.5561L0.264006 80.7776C-0.0880021 80.4252 -0.0880021 79.8542 0.264006 79.5018C0.618608 79.1522 1.18827 79.1522 1.54287 79.5018L6.95925 84.9182C7.29908 85.2599 7.31056 85.8083 6.98533 86.1639L1.54688 91.6134C1.19457 91.9666 0.622672 91.9672 0.269523 91.6149C-0.0836263 91.2626 -0.0842999 90.6907 0.268018 90.3375L5.04546 85.5561Z" fill="#1C2340"/>
<path d="M5.04546 125.677L0.264006 120.899C-0.0880021 120.546 -0.0880021 119.976 0.264006 119.623C0.618608 119.273 1.18827 119.273 1.54287 119.623L6.95925 125.039C7.29908 125.381 7.31056 125.93 6.98533 126.285L1.54688 131.735C1.19457 132.088 0.622672 132.089 0.269523 131.736C-0.0836263 131.384 -0.0842999 130.812 0.268018 130.459L5.04546 125.677Z" fill="#1C2340"/>
</svg>
