<svg width="34" height="35" viewBox="0 0 34 35" fill="none" xmlns="http://www.w3.org/2000/svg">
<path d="M4.17888 10.2934L13.0356 2.4953L21.8924 10.2934C22.3619 10.7069 22.9614 10.8981 23.559 10.8249C24.1566 10.7517 24.7033 10.4202 25.0788 9.90327L14.4525 0.547543C13.6244 -0.182514 12.4469 -0.182514 11.6187 0.547543L0.991553 9.90428C1.36719 10.4214 1.91414 10.7529 2.51195 10.8259C3.10977 10.8989 3.70943 10.7073 4.17888 10.2934Z" fill="white"/>
<path d="M20.969 11.0788L13.0347 4.09245L5.10046 11.0788V18.7402C5.28459 18.726 5.46873 18.7138 5.66483 18.7138C6.98321 18.6914 8.27661 19.1109 9.37325 19.9167C9.63546 20.1034 9.91285 20.2628 10.2018 20.393V11.8521H15.8722V18.8111C16.6232 18.6814 17.3879 18.6814 18.1389 18.8111V15.0271L19.1516 14.9075C19.7654 14.8352 20.3724 14.7338 20.9727 14.6035L20.969 11.0788Z" fill="white"/>
<path d="M16.9982 26.2008C15.885 26.1774 14.7927 26.5354 13.8725 27.2254C13.1293 27.7996 12.2383 28.0962 11.3306 28.0716C10.4231 28.0961 9.53245 27.7995 8.78955 27.2254C7.87051 26.536 6.77956 26.178 5.66759 26.2008C4.55497 26.1773 3.46326 26.5354 2.54379 27.2254C1.8003 27.8006 0.908446 28.0972 0 28.0716V29.3191C1.11262 29.3426 2.20433 28.9845 3.1238 28.2945C3.86729 27.7194 4.75914 27.4227 5.66759 27.4483C6.57504 27.4238 7.46571 27.7204 8.20861 28.2945C9.12765 28.9839 10.2186 29.342 11.3306 29.3191C12.4432 29.3423 13.5348 28.9843 14.4544 28.2945C15.1976 27.7203 16.0886 27.4237 16.9963 27.4483C17.6475 27.4246 18.2942 27.5762 18.88 27.8902C18.7137 27.4007 18.5739 26.9009 18.4611 26.3934C17.9829 26.2607 17.4913 26.1959 16.9982 26.2008Z" fill="white"/>
<path d="M5.66759 24.3279C6.57504 24.3034 7.46571 24.6 8.20861 25.1741C9.12765 25.8635 10.2186 26.2216 11.3306 26.1987C12.4431 26.2222 13.5347 25.8645 14.4544 25.1752C15.1976 24.6009 16.0886 24.3043 16.9963 24.329C17.3962 24.3227 17.7951 24.3738 18.183 24.481C18.1527 24.0989 18.1333 23.7138 18.1333 23.3267V23.196C17.7591 23.1183 17.379 23.0799 16.9982 23.0815C15.885 23.058 14.7927 23.416 13.8725 24.106C13.1293 24.6802 12.2383 24.9768 11.3306 24.9522C10.4231 24.9768 9.53244 24.6802 8.78955 24.106C7.87051 23.4166 6.77956 23.0586 5.66759 23.0815C4.55497 23.058 3.46326 23.416 2.54379 24.106C1.8003 24.6812 0.908446 24.9779 0 24.9522V26.1997C1.11262 26.2232 2.20433 25.8651 3.1238 25.1752C3.86729 24.6 4.75914 24.3033 5.66759 24.329V24.3279Z" fill="white"/>
<path d="M5.66759 21.2088C6.57504 21.1843 7.46571 21.4809 8.20861 22.055C9.12765 22.7444 10.2186 23.1024 11.3306 23.0796C12.4431 23.1031 13.5347 22.7454 14.4544 22.056C15.1976 21.4818 16.0886 21.1852 16.9963 21.2098C17.3791 21.2045 17.761 21.2511 18.1333 21.3487V20.0748C17.759 19.9978 17.3789 19.9601 16.9982 19.9623C15.885 19.9389 14.7927 20.2969 13.8725 20.9869C13.1293 21.5611 12.2383 21.8577 11.3306 21.8331C10.4231 21.8576 9.53244 21.561 8.78955 20.9869C7.87051 20.2975 6.77956 19.9395 5.66759 19.9623C4.55497 19.9388 3.46326 20.2969 2.54379 20.9869C1.8003 21.5621 0.908446 21.8587 0 21.8331V23.0806C1.11262 23.1041 2.20433 22.746 3.1238 22.056C3.86729 21.4809 4.75914 21.1842 5.66759 21.2098V21.2088Z" fill="white"/>
<path fill-rule="evenodd" clip-rule="evenodd" d="M19.2694 16.1478C21.8396 15.848 24.3369 15.0261 26.6347 13.7237C28.9325 15.0262 31.4298 15.8482 34 16.1478V23.3257C33.9239 28.4859 31.0099 33.0788 26.6347 34.9342C22.2596 33.0788 19.3455 28.4859 19.2694 23.3257V16.1478ZM21.7027 24.7697L24.5365 27.889C24.7579 28.132 25.1162 28.132 25.3375 27.889L31.5713 21.0272L30.7703 20.1456L24.937 26.5665L22.5037 23.8881L21.7027 24.7697Z" fill="white"/>
</svg>
