<svg width="61" height="176" viewBox="0 0 61 176" fill="none" xmlns="http://www.w3.org/2000/svg">
<path d="M14.5856 36.7839C13.9456 38.1883 13.2715 39.7281 12.6856 41.2238C12.0998 42.7195 11.4999 44.2623 10.9803 45.7981C9.92262 48.8254 9.11736 51.935 8.57278 55.0951L8.42432 56.0852C8.41061 56.2539 8.42657 56.4236 8.47146 56.5868C8.63053 57.1451 8.88103 57.6733 9.21278 58.1497C10.078 59.3831 11.0816 60.5133 12.2041 61.5182C13.3874 62.6203 14.6287 63.6584 15.9228 64.6279C17.2158 65.625 18.577 66.5951 19.9182 67.5109L18.6583 69.8753C15.457 68.4805 12.4184 66.7386 9.59698 64.6811C8.09158 63.5833 6.73298 62.2971 5.55435 60.8541C4.8558 59.9951 4.31109 59.0218 3.94431 57.9771C3.73112 57.3245 3.62212 56.6424 3.6213 55.9558V55.1142L3.68851 54.4401C4.07616 50.9308 4.8155 47.4693 5.89541 44.1078C6.42105 42.4506 6.9798 40.7975 7.6198 39.1924C8.2598 37.5874 8.92388 36.0055 9.73541 34.3684L14.5856 36.7839Z" fill="#E58A7B"/>
<path d="M18.9653 67.0936L23.7281 64.6861L22.4953 69.9145C22.4953 69.9145 19.2281 70.8303 17.7123 69.2404L18.9653 67.0936Z" fill="#E58A7B"/>
<path d="M28.0867 65.5348L26.8198 69.8603L22.4943 69.9074L23.7271 64.6791L28.0867 65.5348Z" fill="#E58A7B"/>
<path d="M34.8098 11.5601C35.0645 12.4936 35.4189 13.3969 35.8671 14.2545C35.5997 14.5563 35.1889 14.6883 34.7958 14.5986L34.8098 11.5601Z" fill="#DF5753"/>
<ellipse cx="34.6694" cy="10.8258" rx="0.50558" ry="0.77442" fill="#263238"/>
<path d="M34.5209 10.0784L35.5451 9.78853C35.5451 9.78853 35.0465 10.584 34.5209 10.0784Z" fill="#263238"/>
<path d="M21.6527 16.5055C22.2656 19.6383 22.8785 25.3853 20.6827 27.4798C20.6827 27.4798 21.5454 30.6598 27.3726 30.6598C33.7796 30.6598 30.4312 27.4798 30.4312 27.4798C26.9342 26.6442 27.0205 24.0511 27.6354 21.6115L21.6527 16.5055Z" fill="#E58A7B"/>
<path d="M19.9484 9.36421C20.2714 14.5986 20.2985 16.8225 22.9397 19.5099C26.9212 23.5526 33.2811 22.0178 34.528 16.8155C35.6535 12.1008 34.9392 4.33851 29.8132 2.257C27.5253 1.31435 24.9127 1.6209 22.9052 3.06756C20.8976 4.51422 19.7801 6.89558 19.9504 9.36421H19.9484Z" fill="#E58A7B"/>
<path d="M20.468 3.4758C17.8408 4.43279 14.3369 3.71855 15.7112 11.8229C17.1667 20.4057 14.9297 23.2285 14.9297 23.2285C21.5896 24.4609 28.423 24.4174 35.0667 23.1001C35.0667 23.1001 31.9569 17.6702 32.8297 13.6707C33.9411 8.61787 33.0654 6.74903 33.0654 6.74903C33.0654 6.74903 24.1596 2.12859 20.468 3.4758Z" fill="#263238"/>
<path d="M31.5837 12.0927C31.5864 13.0878 31.8713 14.0618 32.4053 14.9015C33.1195 15.9929 33.9611 15.5756 34.1708 14.416C34.3594 13.3988 34.2179 11.6002 33.3081 10.899C32.3982 10.1978 31.5967 10.886 31.5837 12.0927Z" fill="#E58A7B"/>
<path d="M18.1818 4.35856C17.4274 2.23593 21.0247 -1.03128 28.6375 0.315928C36.2503 1.66314 36.5803 8.00295 36.5803 8.00295L35.0445 6.17023L35.1117 8.09725L27.2873 9.60195L18.1818 4.35856Z" fill="#263238"/>
<path d="M18.8269 27.8369C18.7337 27.1973 19.167 26.5999 19.804 26.4897C22.1754 26.0985 27.5652 25.304 30.2737 25.6812C32.295 25.9641 32.8206 27.1368 32.9079 28.0998C32.9358 28.4402 32.8155 28.7762 32.5778 29.0215C32.3401 29.2669 32.0082 29.3978 31.667 29.3808L19.9574 28.8551C19.3867 28.8271 18.9143 28.4017 18.8269 27.8369Z" fill="#7F47FA"/>
<path opacity="0.6" d="M18.8269 27.8369C18.7337 27.1973 19.167 26.5999 19.804 26.4897C22.1754 26.0985 27.5652 25.304 30.2737 25.6812C32.295 25.9641 32.8206 27.1368 32.9079 28.0998C32.9358 28.4402 32.8155 28.7762 32.5778 29.0215C32.3401 29.2669 32.0082 29.3978 31.667 29.3808L19.9574 28.8551C19.3867 28.8271 18.9143 28.4017 18.8269 27.8369Z" fill="black"/>
<path d="M25.601 145.535L29.9466 148.553L37.2163 138.696L32.8707 135.687L25.601 145.535Z" fill="#E58A7B"/>
<path d="M15.4684 145.339L20.0567 147.953L26.4908 137.531L21.9025 134.917L15.4684 145.339Z" fill="#E58A7B"/>
<path d="M37.2093 138.696L33.4636 143.776L29.118 140.767L32.8637 135.687L37.2093 138.696Z" fill="#CF6F64"/>
<path d="M21.8954 134.917L26.4898 137.537L23.1794 142.907L18.5851 140.285L21.8954 134.917Z" fill="#CF6F64"/>
<path d="M29.2655 60.7408C29.2655 60.7408 46.2295 82.1176 43.0425 102.564C40.4755 119.077 25.588 141.438 25.588 141.438L18.5881 137.962C23.522 128.076 27.7325 117.844 31.1865 107.348C33.3448 100.746 32.3515 93.5184 28.4921 87.7432C19.8952 75.1919 6.12214 82.6633 15.3881 60.7408H29.2655Z" fill="#7F47FA"/>
<path opacity="0.6" d="M29.2655 60.7408C29.2655 60.7408 46.2295 82.1176 43.0425 102.564C40.4755 119.077 25.588 141.438 25.588 141.438L18.5881 137.962C23.522 128.076 27.7325 117.844 31.1865 107.348C33.3448 100.746 32.3515 93.5184 28.4921 87.7432C19.8952 75.1919 6.12214 82.6633 15.3881 60.7408H29.2655Z" fill="black"/>
<path opacity="0.4" d="M37.5865 74.4717L35.1208 72.019C35.1208 72.2146 39.8977 101.703 41.2399 109.99C42.0312 107.569 42.6372 105.091 43.0525 102.579C44.6265 92.5432 41.3322 82.3002 37.5865 74.4717Z" fill="black"/>
<path d="M36.8382 60.7408C36.8382 60.7408 57.265 87.6087 57.8448 103.717C58.3233 117.191 35.6124 143.298 35.6124 143.298L29.0097 139.026C29.0097 139.026 42.3023 120.486 45.6507 105.341C44.3567 90.3333 17.0042 60.7408 17.0042 60.7408H36.8382Z" fill="#7F47FA"/>
<path opacity="0.6" d="M36.8382 60.7408C36.8382 60.7408 57.265 87.6087 57.8448 103.717C58.3233 117.191 35.6124 143.298 35.6124 143.298L29.0097 139.026C29.0097 139.026 42.3023 120.486 45.6507 105.341C44.3567 90.3333 17.0042 60.7408 17.0042 60.7408H36.8382Z" fill="black"/>
<path d="M11.5681 28.6796C9.3853 29.1982 7.28975 37.135 7.28975 37.135L15.8254 42.8348C15.8254 42.8348 18.6683 36.5562 17.6712 33.8066C16.639 30.9426 14.3097 28.0255 11.5681 28.6796Z" fill="url(#paint0_linear_133_187)"/>
<path opacity="0.2" d="M13.2383 33.7926L12.6455 40.7142L15.8184 42.8428C16.6944 40.8704 17.3429 38.8047 17.7514 36.6856L13.2383 33.7926Z" fill="black"/>
<path d="M39.364 28.8341C39.364 28.8341 41.8839 29.7168 36.8381 60.7338H15.371C15.7351 51.9754 15.7412 46.5896 11.5641 28.6786C14.5695 28.0576 17.616 27.6553 20.6796 27.4748C23.9249 27.2421 27.1827 27.2421 30.4281 27.4748C34.6212 27.864 39.364 28.8341 39.364 28.8341Z" fill="url(#paint1_linear_133_187)"/>
<path d="M41.5479 33.7926C42.0334 35.1398 42.545 36.5883 43.0837 37.9827C43.6224 39.377 44.135 40.8125 44.6807 42.2269L46.3308 46.4581L46.7481 47.5155L46.9638 48.0411L47.0641 48.3039V48.344C46.941 48.1707 46.7797 48.0279 46.5927 47.9267C46.3262 47.7699 46.0257 47.6797 45.7169 47.6639C45.4605 47.656 45.2054 47.7043 44.9696 47.8054C44.6596 47.9468 44.6596 48.006 44.6686 48.001C44.7247 47.9562 44.7746 47.9043 44.8171 47.8465C45.1899 47.3568 45.5125 46.8308 45.7801 46.2766C46.0971 45.6566 46.4001 44.9966 46.703 44.3295C47.2959 42.9823 47.8416 41.5879 48.3873 40.1795C48.933 38.7711 49.4516 37.3497 49.9572 35.9152L51.493 31.6168L54.0871 32.2909C53.5755 35.3635 52.9144 38.3538 52.1199 41.3993C51.7357 42.9151 51.2843 44.4178 50.7727 45.9335C50.5169 46.6949 50.234 47.4492 49.91 48.2237C49.5726 49.063 49.1575 49.8691 48.6701 50.6312C48.4909 50.8881 48.2928 51.1312 48.0773 51.3585C47.7333 51.7299 47.3159 52.0257 46.8515 52.2272C46.4401 52.4038 45.9947 52.4867 45.5474 52.4699C45.0453 52.4513 44.5561 52.3052 44.1259 52.0456C43.6186 51.7289 43.1974 51.2916 42.9001 50.7726C42.7998 50.5971 42.7115 50.4225 42.6513 50.2941L42.5229 50.0383L42.2671 49.5127L41.7555 48.4684C41.0814 47.064 40.4083 45.6526 39.8215 44.2312C39.2347 42.8097 38.6177 41.3682 38.0359 39.9177C37.4541 38.4672 36.9375 37.0207 36.4459 35.4578L41.5479 33.7926Z" fill="#E58A7B"/>
<path d="M39.364 28.8341C41.9441 29.447 44.8482 37.0738 44.8482 37.0738L37.1742 43.6022C37.1742 43.6022 32.2087 35.2882 33.2128 32.5467C34.2581 29.6897 35.9955 28.0316 39.364 28.8341Z" fill="url(#paint2_linear_133_187)"/>
<path d="M52.7107 29.2042L55.4052 26.9542L57.278 29.8713L55.8967 32.3029C55.8967 32.3029 53.7008 34.3242 51.7598 33.293C51.1268 31.8706 51.5146 30.2009 52.7097 29.2032L52.7107 29.2042Z" fill="#E58A7B"/>
<path d="M60.2703 26.9612L60.0697 27.6955L55.8054 28.4097L55.3881 26.9542L60.2703 26.9612Z" fill="#E58A7B"/>
<path d="M36.1379 143.641L28.4439 138.669L29.8252 136.271L38.4692 141.587L36.1379 143.641Z" fill="#FFC107"/>
<path fill-rule="evenodd" clip-rule="evenodd" d="M21.1671 146.928C21.7433 147.29 22.3919 147.52 23.067 147.602C23.2108 147.601 23.352 147.564 23.4783 147.495C23.6982 147.381 23.8436 147.162 23.8625 146.915C23.8913 146.761 23.8345 146.604 23.7141 146.504C23.1884 146.072 21.3758 146.632 21.1671 146.699C21.1187 146.717 21.0864 146.762 21.0864 146.814C21.0864 146.865 21.1187 146.911 21.1671 146.928ZM23.3901 147.285C23.067 147.447 22.3939 147.292 21.5513 146.861H21.5383C22.2796 146.658 23.2897 146.484 23.5726 146.712C23.6328 146.74 23.6328 146.787 23.6328 146.894C23.6254 147.058 23.5335 147.206 23.3901 147.285Z" fill="#263238"/>
<path fill-rule="evenodd" clip-rule="evenodd" d="M21.1241 146.935C21.149 146.96 21.1829 146.975 21.2184 146.975L21.2725 146.995C21.8383 146.854 23.0712 146.014 23.1183 145.412C23.131 145.209 23.0031 145.022 22.8083 144.961C22.6309 144.88 22.427 144.88 22.2496 144.961C21.5624 145.291 21.1241 146.754 21.1241 146.814C21.1037 146.852 21.1037 146.897 21.1241 146.935ZM22.3339 145.184C22.3926 145.155 22.4569 145.139 22.5224 145.137L22.5234 145.118C22.58 145.126 22.6346 145.145 22.6849 145.172C22.8394 145.238 22.8394 145.312 22.8394 145.372C22.8083 145.742 21.9968 146.403 21.4039 146.652C21.5725 146.174 21.9165 145.384 22.3339 145.184Z" fill="#263238"/>
<path fill-rule="evenodd" clip-rule="evenodd" d="M30.2837 148.936C30.8635 149.536 31.9208 150.513 32.6822 150.513L32.8166 150.505C33.0473 150.48 33.2485 150.337 33.3493 150.128C33.4202 150.008 33.4202 149.858 33.3493 149.738C33.0202 149.078 30.6819 148.728 30.4121 148.728C30.3602 148.725 30.3109 148.751 30.2837 148.795C30.2534 148.837 30.2534 148.894 30.2837 148.936ZM32.7494 150.257C32.3251 150.311 31.5767 149.852 30.7281 149.031C31.6781 149.178 32.9239 149.488 33.0995 149.852C33.1301 149.899 33.1301 149.96 33.0995 150.007C33.0315 150.143 32.9003 150.237 32.7494 150.257Z" fill="#263238"/>
<path fill-rule="evenodd" clip-rule="evenodd" d="M30.3508 148.963C30.4997 148.989 30.651 149.001 30.8022 148.997C31.5897 148.997 32.7553 148.775 32.9249 148.314C32.9921 148.187 33.0061 147.984 32.7433 147.756C32.5554 147.598 32.3135 147.521 32.0692 147.54C31.2242 147.613 30.334 148.668 30.2601 148.756C30.2585 148.757 30.2574 148.759 30.2565 148.76C30.236 148.8 30.236 148.848 30.2565 148.888C30.2727 148.928 30.3085 148.956 30.3508 148.963ZM30.6323 148.747C30.6304 148.747 30.6285 148.747 30.6267 148.747V148.754C30.6285 148.752 30.6304 148.749 30.6323 148.747ZM30.6323 148.747C31.387 148.786 32.5872 148.537 32.7423 148.208C32.7423 148.208 32.7965 148.101 32.6209 147.952C32.4801 147.83 32.2949 147.771 32.1093 147.791C31.5311 147.952 31.0159 148.286 30.6323 148.747Z" fill="#263238"/>
<path d="M21.3969 146.248L15.679 144.631C15.4763 144.571 15.2608 144.672 15.1775 144.867L13.2504 149.198C13.1588 149.423 13.1675 149.675 13.2743 149.893C13.381 150.11 13.5757 150.272 13.8092 150.337C15.8305 150.862 16.8005 151.011 19.3134 151.731C20.8632 152.163 23.0731 152.964 25.2088 153.57C27.3445 154.176 28.0587 152.094 27.2301 151.65C23.4844 149.67 23.1875 148.281 22.1643 146.799C21.9807 146.531 21.7092 146.336 21.3969 146.248Z" fill="#FFA247"/>
<path d="M30.4381 148.148L25.5609 144.779C25.3896 144.654 25.1519 144.678 25.0082 144.834L21.7741 148.309C21.6148 148.491 21.5414 148.733 21.5722 148.972C21.6031 149.212 21.7355 149.427 21.9356 149.562C23.6539 150.714 24.5437 151.179 26.6924 152.672C28.0396 153.588 30.6468 155.623 32.4665 156.885C34.2862 158.147 35.6394 156.414 34.9934 155.727C32.0963 152.634 31.4633 150.694 30.9808 148.935C30.8984 148.617 30.7062 148.338 30.4381 148.148Z" fill="#FFA247"/>
<path d="M26.4828 141.882L17.6913 137.51L18.6011 135.124L27.9925 139.73L26.4828 141.882Z" fill="#FFC107"/>
<path d="M15.05 59.4738L14.3087 61.4139C14.2345 61.5624 14.409 61.7148 14.6588 61.7148H36.9455C37.1411 61.7148 37.3026 61.6205 37.3156 61.4992L37.5042 59.5721C37.5042 59.4437 37.3497 59.3294 37.1401 59.3294H15.4011C15.2676 59.3174 15.1365 59.3713 15.05 59.4738Z" fill="#7F47FA"/>
<path opacity="0.4" d="M15.05 59.4738L14.3087 61.4139C14.2345 61.5624 14.409 61.7148 14.6588 61.7148H36.9455C37.1411 61.7148 37.3026 61.6205 37.3156 61.4992L37.5042 59.5721C37.5042 59.4437 37.3497 59.3294 37.1401 59.3294H15.4011C15.2676 59.3174 15.1365 59.3713 15.05 59.4738Z" fill="white"/>
<path d="M18.561 61.9064H17.9751C17.8608 61.9064 17.7745 61.8462 17.7795 61.772L18.0554 59.2722C18.0554 59.205 18.1627 59.1438 18.2781 59.1438H18.8639C18.9783 59.1438 19.0645 59.204 19.0595 59.2722L18.7837 61.772C18.7766 61.8452 18.6753 61.9064 18.561 61.9064Z" fill="#7F47FA"/>
<path d="M32.304 61.9064H31.7242C31.6098 61.9064 31.5235 61.8462 31.5286 61.772L31.7984 59.2722C31.7984 59.205 31.9128 59.1438 32.0271 59.1438H32.6069C32.7213 59.1438 32.8156 59.204 32.8025 59.2722L32.5327 61.772C32.4913 61.8595 32.4006 61.9128 32.304 61.9064Z" fill="#7F47FA"/>
<ellipse cx="18.0484" cy="174.693" rx="18.0484" ry="1.30709" fill="#F5F5F5"/>
<path d="M29.0438 172.846C25.973 172.041 22.9964 170.911 20.164 169.478C20.1039 169.438 20.0356 169.417 19.9755 169.383V154.924H26.4366C27.4539 154.863 28.2474 154.02 28.2474 153.001C28.2474 151.982 27.4539 151.139 26.4366 151.077H20.0096V85.1711H16.1294V151.077H9.70937C8.99443 151.034 8.31451 151.391 7.94397 152.004C7.57344 152.617 7.57344 153.385 7.94397 153.998C8.31451 154.61 8.99443 154.967 9.70937 154.924H16.1294V169.361C16.0692 169.361 16.0081 169.415 15.9479 169.456C13.1185 170.901 10.1386 172.031 7.0621 172.824C6.61596 172.958 6.33488 173.399 6.40056 173.86C6.46624 174.321 6.859 174.665 7.32492 174.67H28.783C29.2271 174.64 29.5899 174.304 29.6533 173.863C29.7167 173.423 29.4635 172.998 29.0458 172.844L29.0438 172.846Z" fill="#E0E0E0"/>
<rect x="2.58707" y="78.4662" width="30.9367" height="14.1011" rx="5.18" fill="#FFA247"/>
<path d="M5.85436 92.5743V93.8001C5.85436 94.8103 6.95279 95.6328 8.3 95.6328H27.8381C29.1853 95.6328 30.2837 94.8113 30.2837 93.8001V92.5743H5.85436Z" fill="#7F47FA"/>
<path opacity="0.3" d="M5.85436 92.5743V93.8001C5.85436 94.8103 6.95279 95.6328 8.3 95.6328H27.8381C29.1853 95.6328 30.2837 94.8113 30.2837 93.8001V92.5743H5.85436Z" fill="white"/>
<defs>
<linearGradient id="paint0_linear_133_187" x1="7.28975" y1="28.5867" x2="7.28975" y2="42.8348" gradientUnits="userSpaceOnUse">
<stop stop-color="#FE6587"/>
<stop offset="1" stop-color="#F52D6A"/>
</linearGradient>
<linearGradient id="paint1_linear_133_187" x1="11.5641" y1="27.3003" x2="11.5641" y2="60.7338" gradientUnits="userSpaceOnUse">
<stop stop-color="#FE6587"/>
<stop offset="1" stop-color="#F52D6A"/>
</linearGradient>
<linearGradient id="paint2_linear_133_187" x1="33.0787" y1="28.6319" x2="33.0787" y2="43.6022" gradientUnits="userSpaceOnUse">
<stop stop-color="#FE6587"/>
<stop offset="1" stop-color="#F52D6A"/>
</linearGradient>
</defs>
</svg>
