<svg width="266" height="189" viewBox="0 0 266 189" fill="none" xmlns="http://www.w3.org/2000/svg">
<rect y="167.095" width="266" height="0.120474" fill="#EBEBEB"/>
<rect x="218.619" y="174.849" width="18.8567" height="0.120474" fill="#EBEBEB"/>
<rect x="171.373" y="176.16" width="4.94793" height="0.120474" fill="#EBEBEB"/>
<rect x="210.395" y="170.377" width="10.9255" height="0.120474" fill="#EBEBEB"/>
<rect x="29.8679" y="171.187" width="24.5901" height="0.120474" fill="#EBEBEB"/>
<rect x="55.5757" y="171.187" width="3.60419" height="0.120474" fill="#EBEBEB"/>
<rect x="68.8101" y="173.22" width="53.3369" height="0.120474" fill="#EBEBEB"/>
<path fill-rule="evenodd" clip-rule="evenodd" d="M25.0002 136.279H134.936C135.799 136.279 136.626 135.989 137.235 135.472C137.845 134.956 138.187 134.256 138.187 133.526V2.75155C138.187 1.23191 136.731 0 134.936 0H25.0002C23.2182 0.00266744 21.7709 1.21904 21.7551 2.72724V133.527C21.7551 135.045 23.207 136.276 25.0002 136.279ZM21.8974 2.72725C21.8974 1.27609 23.2856 0.0989168 25.0002 0.0961736H134.936C136.651 0.0989106 138.041 1.27528 138.045 2.72725V133.526C138.041 134.978 136.651 136.154 134.936 136.157H25.0002C23.2856 136.154 21.8974 134.977 21.8974 133.526V2.72725Z" fill="#EBEBEB"/>
<path fill-rule="evenodd" clip-rule="evenodd" d="M129.476 136.279H239.417C241.209 136.274 242.658 135.042 242.657 133.526V2.72724C242.641 1.22076 241.197 0.00508509 239.417 0H129.476C127.693 0.00263772 126.244 1.21824 126.225 2.72724V133.527C126.228 135.046 127.682 136.276 129.476 136.279ZM126.367 2.72725C126.371 1.27528 127.761 0.0989106 129.476 0.0961736H239.417C241.133 0.0989106 242.522 1.27528 242.526 2.72725V133.526C242.522 134.978 241.133 136.154 239.417 136.157H129.476C127.761 136.154 126.371 134.978 126.367 133.526V2.72725Z" fill="#EBEBEB"/>
<ellipse rx="24.9994" ry="21.3442" transform="matrix(0.990694 -0.136109 0.188352 0.982102 136.537 89.6494)" fill="#F0F0F0"/>
<path d="M133.911 106.667C138.654 103.453 152.699 103.296 159.338 108.112C165.977 112.929 175.092 120.8 178.32 121.762C181.548 122.724 192.297 119.194 200.969 118.391C209.641 117.589 213.048 125.138 216.273 129.316C219.498 133.494 222.917 133.653 224.435 139.112C225.952 144.572 228.796 148.591 233.163 153.087C237.531 157.583 250.244 163.689 251.57 167.096H111.513L109.998 120.641C113.768 117.427 129.14 109.879 133.911 106.667Z" fill="#EBEBEB"/>
<path d="M40.5778 125.137C43.5212 122.622 53.0351 120.964 58.4839 111.004C63.9326 101.043 81.8269 80.3223 88.6592 77.4547C95.4915 74.5871 103.047 62.0362 105.78 60.2463C108.513 58.4563 112.043 63.2968 112.988 66.1882C115.447 73.5415 127.221 94.4602 134.224 98.4746C141.227 102.489 141.717 111.162 143.67 116.146C145.622 121.129 157.596 124.015 160.319 130.438C163.043 136.861 193.341 167.095 193.341 167.095H12.5258C21.533 161.558 29.2409 134.828 40.5778 125.137Z" fill="#F5F5F5"/>
<path d="M100.597 61.6913C100.597 64.1632 99.7141 75.6132 96.674 78.3985C93.634 81.1837 96.3156 74.9721 91.1796 78.3985C86.0436 81.8248 83.7779 88.8891 75.1638 91.3566C66.5496 93.8241 67.324 87.6075 71.4969 84.0707C75.6698 80.5338 80.6066 74.3267 84.5347 72.5052C88.4627 70.6837 100.597 54.0871 100.597 61.6913Z" fill="#F0F0F0"/>
<path d="M84.8331 115.656C88.927 110.866 70.5338 116.408 64.9682 114.692C59.4026 112.977 63.7041 110.625 55.6025 116.62C47.5009 122.615 33.4681 128.402 41.0558 130.436C48.6436 132.469 77.2153 124.547 84.8331 115.656Z" fill="#F0F0F0"/>
<path d="M177.619 117.444C174.476 114.264 170.883 108.288 166.232 107.243C161.58 106.197 158.455 105.556 159.399 107.965C160.344 110.375 182.515 122.388 177.619 117.444Z" fill="#F0F0F0"/>
<path d="M225.075 135.577C224.266 133.346 221.784 133.409 219.603 129.872C217.422 126.335 214.194 120.316 208.877 120.075C203.559 119.834 195.144 121.603 202.238 126.099C209.333 130.595 227.888 143.364 225.075 135.577Z" fill="#F0F0F0"/>
<path d="M211.628 26.2389H103.451C89.7863 26.2389 128.121 23.8295 149.187 19.8152C170.253 15.8008 171.961 14.5143 178.981 18.8514C186.001 23.1884 206.879 13.5505 216.939 19.3333C227 25.116 229.653 26.2389 211.628 26.2389Z" fill="#FAFAFA"/>
<path d="M80.3624 43.7656C93.856 43.7656 119.608 42.8355 109.28 38.9853C98.9515 35.1351 91.305 42.8405 86.7958 39.5683C82.2866 36.2962 74.9875 35.8386 68.9296 38.9853C62.8717 42.132 64.6712 37.2362 57.3661 38.9853C47.1151 41.4379 14.3006 43.7656 42.2331 43.7656H80.3624Z" fill="#FAFAFA"/>
<path d="M181.167 87.6719C191.472 87.6719 211.132 86.9585 203.247 84.0245C195.361 81.0906 189.525 86.959 186.086 84.4667C182.647 81.9743 177.068 81.6189 172.422 84.0245C167.775 86.4302 169.171 82.6899 163.591 84.0245C155.785 85.8941 130.717 87.6719 152.039 87.6719H181.167Z" fill="#FAFAFA"/>
<rect x="113.608" y="38.6843" width="1.30587" height="70.7368" fill="#1C2340"/>
<path opacity="0.79" d="M55.4348 71.2867C55.4348 71.2867 72.2589 37.9293 113.696 38.7201C106.53 46.1039 89.3945 65.4852 88.7716 74.4511C82.2292 69.8366 73.5054 68.6485 67.8973 68.6485C62.2893 68.6485 55.4348 71.2867 55.4348 71.2867Z" fill="#0CCAD0"/>
<rect x="112.955" y="31.4998" width="1.9588" height="8.28947" rx="0.979401" fill="#1C2340"/>
<path d="M172.736 71.0254C172.736 71.0254 158.093 39.3817 114.631 38.8545C125.224 59.0255 140.334 74.9811 140.334 74.9811C144.86 70.77 151.377 68.4963 158.094 68.7845C169.621 69.179 172.736 71.0254 172.736 71.0254Z" fill="#0CCAD0"/>
<path d="M88.1482 74.4529C88.1482 74.4529 92.9799 46.7661 113.229 38.854C115.045 38.7943 116.84 39.2085 118.369 40.0405C120.083 40.9634 137.374 51.5115 140.177 74.4529C131.921 66.2784 113.072 65.6191 101.856 67.4649C90.6398 69.3107 88.1482 74.4529 88.1482 74.4529Z" fill="#16EBD5"/>
<ellipse cx="133" cy="183.402" rx="101.054" ry="5.45503" fill="#F5F5F5"/>
<path d="M125.958 182.371C133.092 182.371 138.877 172.675 138.877 160.715C138.877 148.754 133.092 139.059 125.958 139.059H109.413V182.371H125.958Z" fill="#263238"/>
<ellipse cx="110.646" cy="160.715" rx="12.9183" ry="21.656" fill="#263238"/>
<path d="M210.446 182.371C217.58 182.371 223.359 172.675 223.359 160.715C223.359 148.754 217.605 139.059 210.446 139.059H193.875V182.371H210.446Z" fill="#263238"/>
<ellipse cx="193.812" cy="160.715" rx="12.9183" ry="21.656" fill="#263238"/>
<path d="M49.7267 171.463L40.8801 169.62C37.8494 168.992 35.3022 167.261 33.9224 164.893C33.319 163.86 32.4859 162.935 31.4687 162.17L29.2938 160.531C26.7744 158.633 25.4756 155.832 25.7973 152.99L26.9929 142.388C27.4015 138.751 30.3806 135.689 34.5199 134.651L40.8455 133.071L63.6649 131.693L49.7267 171.463Z" fill="#FAAD44"/>
<path d="M69.0184 182.371C76.1524 182.371 81.9367 172.675 81.9367 160.715C81.9367 148.754 76.1556 139.059 69.0184 139.059H52.4535V182.371H69.0184Z" fill="#263238"/>
<ellipse cx="52.3907" cy="160.715" rx="12.9183" ry="21.656" fill="#263238"/>
<ellipse cx="52.3908" cy="160.715" rx="9.06403" ry="17.1167" fill="#FAAD44"/>
<path d="M183.472 171.465L205.779 129.271C205.779 129.271 172.404 108.242 130.056 108.242C61.4209 108.242 63.778 116.073 40.8104 133.074L50.8368 139.059C68.6743 139.059 70.1637 162.988 73.0131 169.721C73.4498 170.767 74.618 171.466 75.9284 171.465H183.472Z" fill="#FFA247"/>
<path d="M152.613 182.371C159.747 182.371 165.527 172.675 165.527 160.715C165.527 148.754 159.748 139.059 152.613 139.059H136.04V182.371H152.613Z" fill="#263238"/>
<ellipse cx="137.342" cy="160.715" rx="12.9183" ry="21.656" fill="#263238"/>
<ellipse cx="137.358" cy="160.715" rx="9.06403" ry="17.1167" fill="#7F47FA"/>
<path d="M151.487 167.982C149.432 160.079 139.604 139.069 127.825 139.069L115.06 129.257H187.105C192.093 129.257 214.246 131.85 226.801 139.044C236.941 144.856 238.188 153.679 239.645 166.57C239.947 169.201 237.225 171.461 233.786 171.466C204.92 171.466 169.985 171.557 157.266 171.591C154.577 171.687 152.172 170.185 151.487 167.982Z" fill="#FFA247"/>
<path opacity="0.8" d="M188.733 129.271H141.768C139.562 129.279 137.495 128.36 136.25 126.819C131.027 120.265 121.772 113.625 114.991 110.478C162.474 110.478 188.733 129.271 188.733 129.271Z" fill="white"/>
<path opacity="0.8" d="M125.666 112.45C131.36 115.938 137.839 121.347 141.477 126.718C141.836 127.239 141.84 127.883 141.488 128.408C141.137 128.933 140.482 129.26 139.769 129.267H62.7986C54.6369 129.267 57.3439 112.054 99.9942 110.763C104.014 110.469 113.385 110.459 118.566 110.479C121.118 110.49 123.602 111.18 125.666 112.45Z" fill="white"/>
<path d="M164.584 162.084L189.254 163.659C190.052 163.709 190.669 164.273 190.666 164.951V166.394C190.666 167.107 189.983 167.686 189.14 167.686H164.49C163.647 167.686 162.962 167.108 162.959 166.394V163.392C162.954 163.032 163.126 162.686 163.435 162.438C163.743 162.19 164.16 162.061 164.584 162.084Z" fill="#263238"/>
<path d="M238.045 162.372L231.269 163.528C230.554 163.648 230.04 164.179 230.04 164.796V166.362C230.04 166.705 230.201 167.034 230.489 167.277C230.776 167.519 231.166 167.655 231.571 167.653H238.745C239.183 167.654 239.599 167.497 239.89 167.22C240.181 166.944 240.317 166.575 240.265 166.208L239.884 163.49C239.834 163.127 239.606 162.8 239.256 162.587C238.906 162.374 238.466 162.296 238.045 162.372Z" fill="#263238"/>
<path opacity="0.8" d="M185.601 137.785L151.156 136.37C151.156 136.37 150.802 141.536 163.567 142.635C171.355 143.238 179.147 141.523 185.601 137.785Z" fill="white"/>
<path opacity="0.3" d="M26.9864 142.384C27.0827 141.537 27.3223 140.706 27.6981 139.916L30.0323 139.861C30.0323 139.861 30.1407 147.441 26.7585 146.964C26.6639 146.952 26.5706 146.934 26.4797 146.909L26.9864 142.384Z" fill="black"/>
<path opacity="0.8" d="M223.407 137.324C224.57 137.852 225.701 138.429 226.795 139.054C228.459 139.997 229.979 141.111 231.321 142.37C230.84 142.485 230.351 142.579 229.858 142.649C222.211 143.762 216.655 137.786 216.655 137.786L223.407 137.324Z" fill="white"/>
<path d="M190.601 145.931H214.975C215.83 145.935 216.662 146.16 217.361 146.577L221.619 149.107C222.597 149.68 223.247 150.573 223.413 151.569L224.501 158.397C224.665 159.292 224.356 160.202 223.655 160.886C222.953 161.569 221.932 161.956 220.863 161.944H194.799C193.211 161.926 191.765 161.165 191.042 159.969L186.174 151.936C185.457 150.818 185.578 149.448 186.482 148.432L187.7 147.106C188.399 146.354 189.471 145.92 190.601 145.931Z" fill="#263238"/>
<path opacity="0.1" d="M75.3159 162.589H122.98C123.3 162.588 123.605 162.701 123.821 162.9C124.038 163.099 124.146 163.365 124.119 163.635L123.874 165.982C123.821 166.48 123.326 166.861 122.735 166.859H75.0632C74.7437 166.86 74.4384 166.747 74.2219 166.548C74.0053 166.349 73.8974 166.083 73.9245 165.813L74.1694 163.462C74.2254 162.963 74.7238 162.583 75.3159 162.589Z" fill="black"/>
<path d="M90.6194 110.478L93.472 110.011L87.6361 131.695H84.9062L90.6194 110.478Z" fill="#E58A7B"/>
<path d="M100.494 134.134H90.729L90.4783 135.002C90.3231 135.388 90.4042 135.815 90.695 136.141C90.9857 136.467 91.4484 136.651 91.9304 136.63H97.8343C98.9674 136.585 99.9374 135.928 100.237 135.002L100.494 134.134Z" fill="#263238"/>
<path d="M69.7184 134.134H59.9596L59.7089 135.002C59.5537 135.388 59.6348 135.815 59.9256 136.141C60.2163 136.467 60.6789 136.651 61.161 136.63H67.0648C68.198 136.585 69.168 135.928 69.4676 135.002L69.7184 134.134Z" fill="#263238"/>
<path opacity="0.1" d="M86.6803 159.785C86.503 159.785 86.3581 159.665 86.3538 159.515L85.6356 131.122C85.6353 130.971 85.7755 130.846 85.9542 130.838C86.1315 130.838 86.2764 130.958 86.2807 131.108L86.9865 159.506C86.9866 159.656 86.8457 159.78 86.6679 159.785L86.6803 159.785Z" fill="black"/>
<rect x="120.79" y="108.868" width="63.3346" height="80.1316" fill="white"/>
<rect x="175.637" y="153.632" width="32.6467" height="20.4474" fill="white"/>
<path fill-rule="evenodd" clip-rule="evenodd" d="M168.004 143.705V161.973C168.101 172.089 174.199 181.486 184.232 186.982V188.905H119.319V109.24H184.229V140.832C179.927 142.153 175.452 143.029 170.901 143.441L168.004 143.705ZM158.267 139.458H179.365L179.364 136.711H158.267V139.458ZM179.365 132.591H158.267V129.844H179.364L179.365 132.591ZM169.628 113.359H133.926L133.925 121.602H169.628V113.359ZM138.319 139.057C137.685 139.593 136.658 139.593 136.024 139.057L131.154 134.938L133.449 132.996L137.17 136.146L149.005 126.126L151.3 128.068L138.319 139.057ZM138.319 165.153L151.302 154.165L149.005 152.222L137.171 162.238L133.449 159.088L131.157 161.032L136.025 165.153C136.659 165.689 137.686 165.689 138.319 165.153ZM124.187 127.096C124.187 126.338 124.914 125.723 125.81 125.723H144.892L141.646 128.472H127.433V142.205H143.662V138.419L146.908 135.672V143.578C146.908 144.337 146.181 144.952 145.285 144.952H125.811C124.914 144.952 124.188 144.337 124.188 143.578L124.187 127.096ZM125.811 171.05H145.284C145.715 171.05 146.128 170.905 146.432 170.647C146.737 170.39 146.908 170.04 146.908 169.676V161.767L143.662 164.514V168.302H127.433V154.567H141.646L144.892 151.82H125.811C124.914 151.82 124.188 152.435 124.188 153.194V169.676C124.188 170.435 124.914 171.05 125.811 171.05ZM164.758 183.411H153.397V180.664H164.758V183.411ZM146.907 177.917H164.758V175.169H146.907V177.917ZM164.758 165.555H155.022V162.808H164.758V165.555ZM155.022 158.688H164.758V155.938H155.022V158.688Z" fill="url(#paint0_linear_265_2827)"/>
<path fill-rule="evenodd" clip-rule="evenodd" d="M171.25 146.169C178.611 145.51 185.765 143.7 192.346 140.832C198.928 143.7 206.081 145.509 213.443 146.168V161.973C213.222 173.335 204.876 183.446 192.346 187.529C179.817 183.447 171.47 173.336 171.25 161.974V146.169ZM178.216 165.153L186.33 172.02C186.964 172.557 187.991 172.557 188.625 172.02L206.476 156.913L204.182 154.97L187.478 169.11L180.511 163.213L178.216 165.153Z" fill="url(#paint1_linear_265_2827)"/>
<rect x="137.113" y="116.052" width="29.382" height="2.76316" fill="url(#paint2_linear_265_2827)"/>
<path d="M104.808 180.482L101.443 180.439L100.475 173.837L103.839 173.88L104.808 180.482Z" fill="#563625"/>
<path d="M84.3283 180.415L81.2536 178.962L83.5481 172.838L86.6227 174.288L84.3283 180.415Z" fill="#563625"/>
<path d="M80.9638 178.622L84.5282 180.335C84.6482 180.39 84.7054 180.509 84.6647 180.619L83.7649 183.101C83.7203 183.223 83.6116 183.321 83.4704 183.366C83.3291 183.411 83.1711 183.399 83.0421 183.332C81.9034 182.769 81.1062 182.306 79.6599 181.612C78.7719 181.188 76.0388 179.978 74.8145 179.39C73.5902 178.802 74.1139 177.694 74.678 177.843C77.2114 178.506 79.2956 178.749 80.3716 178.546C80.5728 178.507 80.7841 178.533 80.9638 178.619V178.622Z" fill="#263238"/>
<path d="M101.375 180.111L105.047 180.159C105.185 180.159 105.304 180.242 105.331 180.356L105.946 182.899C105.972 183.02 105.932 183.145 105.837 183.238C105.742 183.332 105.602 183.384 105.457 183.38C104.13 183.347 102.217 183.255 100.554 183.231C98.6074 183.207 96.9222 183.274 94.6389 183.231C93.2612 183.231 92.9308 182.027 93.5002 181.925C96.142 181.472 98.2882 181.443 100.583 180.292C100.823 180.173 101.096 180.112 101.374 180.113L101.375 180.111Z" fill="#263238"/>
<path d="M99.7867 96.9952C97.8581 98.3309 95.8473 99.5792 93.7627 100.735C92.718 101.308 91.6505 101.877 90.5176 102.397C89.3332 102.965 88.0885 103.438 86.7998 103.809C86.4145 103.913 86.022 103.997 85.6245 104.059C85.4084 104.093 85.1577 104.115 84.9187 104.137C84.6478 104.156 84.3754 104.156 84.1045 104.137C83.5076 104.096 82.9267 103.953 82.3964 103.717C81.8894 103.489 81.4376 103.181 81.0644 102.812C80.489 102.226 80.0663 101.545 79.8239 100.812C79.6275 100.219 79.4963 99.6125 79.4321 98.9996C79.2601 96.8066 79.5081 94.6045 80.1667 92.4785L82.6661 92.7725C82.6547 94.687 82.8761 96.5974 83.3269 98.4735C83.4338 98.8701 83.5844 99.2573 83.7767 99.6301C83.8886 99.8803 84.0656 100.106 84.2945 100.291C84.3598 100.329 84.3911 100.324 84.397 100.291C84.4029 100.257 84.397 100.266 84.397 100.257C84.6856 100.203 84.9677 100.127 85.24 100.03C86.2103 99.6756 87.1451 99.2549 88.0352 98.7724C88.9917 98.2905 89.9541 97.7269 90.882 97.1582C92.7833 96.0308 94.7023 94.8161 96.5298 93.6214L99.7867 96.9952Z" fill="#563625"/>
<path d="M100.811 95.6841C99.2793 98.6092 93.3754 101.635 90.1029 102.913C89.1353 103.288 89.26 104.387 88.6854 103.91C88.6854 103.91 86.1631 99.9925 86.1631 99.1923C86.1631 98.392 87.0002 98.8695 87.6831 98.3296C90.1427 96.402 95.2898 92.1661 98.501 91.698C102.701 91.0724 102.246 92.9569 100.811 95.6841Z" fill="url(#paint3_linear_265_2827)"/>
<path d="M86.5144 98.6723C86.1879 98.2678 84.8462 99.3278 84.4191 99.771C83.9921 100.214 85.1648 101.824 85.518 102.662C85.8713 103.501 85.1765 104.392 86.2585 104.522C86.8278 104.59 88.4504 104.412 88.7638 104.041C89.4977 103.245 87.2947 99.6455 86.5144 98.6723Z" fill="#263238"/>
<path opacity="0.2" d="M94.2406 100.985C96.996 99.5152 99.8199 97.5782 100.816 95.6843C100.882 95.5545 100.953 95.434 101.012 95.3086L101.069 94.8267C97.3263 95.3666 94.7871 98.568 94.2406 100.985Z" fill="black"/>
<path d="M82.1815 93.6561L84.3506 90.9333L80.8091 89.7092C80.8091 89.7092 78.8052 91.6368 80.2397 93.3185L82.1815 93.6561Z" fill="#563625"/>
<path d="M85.2621 87.9743L82.0053 87.8826L80.8098 89.6847L84.3513 90.9088L85.2621 87.9743Z" fill="#563625"/>
<path opacity="0.2" d="M100.475 173.837L100.976 177.239L104.34 177.287L103.839 173.885L100.475 173.837Z" fill="black"/>
<path opacity="0.2" d="M86.6201 174.29L83.5513 172.839L82.3728 176L85.4416 177.451L86.6201 174.29Z" fill="black"/>
<path d="M117.294 92.7304C113.667 103.544 114.401 115.017 114.071 117.34C111.441 117.181 101.546 116.555 96.1373 116.213C94.4292 99.9494 98.4944 91.6898 98.4944 91.6898C98.4944 91.6898 99.6331 91.5019 101.216 91.367C101.706 91.3239 102.235 91.2852 102.787 91.2609C103.095 91.2609 103.403 91.2366 103.715 91.2322C106.267 91.2687 108.815 91.4296 111.345 91.7141C111.823 91.7622 112.307 91.8246 112.781 91.8876C113.255 91.9506 113.646 92.0175 114.051 92.0854C115.876 92.3927 117.294 92.7304 117.294 92.7304Z" fill="url(#paint4_linear_265_2827)"/>
<path d="M103.715 91.2458C102.206 91.93 101.768 94.4362 104.688 94.5323C107.609 94.6285 110.507 92.8894 111.343 91.7228L103.715 91.2458Z" fill="#263238"/>
<path opacity="0.2" d="M113.462 97.3706C113.144 98.4162 113.508 103.187 114.8 104.367C114.976 102.84 115.21 101.24 115.523 99.6115L113.462 97.3706Z" fill="black"/>
<path d="M111.224 84.3984C110.563 86.4432 109.75 90.2149 111.343 91.7086C109.707 92.9509 107.531 93.5572 105.342 93.3809C102.422 93.2848 102.872 92.08 103.714 91.2317C106.504 90.851 106.561 89.1256 106.247 87.4827L111.224 84.3984Z" fill="#563625"/>
<path opacity="0.2" d="M109.197 85.6562L106.248 87.4799C106.332 87.8628 106.378 88.251 106.384 88.6405C107.438 88.578 108.964 87.6767 109.152 86.7753C109.246 86.4076 109.261 86.0286 109.197 85.6562Z" fill="black"/>
<path d="M103.629 83.613C103.629 83.613 101.568 81.1604 102.172 79.2422C102.946 76.7897 107.615 79.7965 103.629 83.613Z" fill="#263238"/>
<path d="M111.794 81.2909C111.337 84.0905 111.225 85.7484 109.444 87.0736C106.728 89.088 102.742 87.5555 102.196 84.6642C101.7 82.0955 102.522 77.9469 105.874 77.0378C107.38 76.6194 109.034 76.8936 110.243 77.7619C111.451 78.6301 112.039 79.9676 111.795 81.2931L111.794 81.2909Z" fill="#563625"/>
<path d="M109.237 78.7605C107.165 79.2811 101.352 79.8254 102.063 77.3148C103.054 73.8017 105.673 75.6331 106.046 76.1344C107.715 75.1126 115.076 76.0045 113.607 78.0233C115.207 78.2305 116.135 79.7049 114.985 80.4327C113.835 81.1606 112.439 84.1287 111.671 84.042C110.742 83.9332 109.834 83.7175 108.973 83.4009L110.555 81.6082C110.555 81.6082 108.64 80.0663 109.237 78.7605Z" fill="#263238"/>
<path d="M112.864 78.3316C114.003 78.0956 115.068 77.9895 115.99 78.7124C115.922 77.4982 113.957 77.3297 112.864 78.3316Z" fill="#263238"/>
<path d="M113.018 84.4995C112.52 85.0709 111.775 85.4508 110.945 85.5551C109.84 85.6899 109.436 84.8273 109.863 84.0132C110.245 83.276 111.281 82.3216 112.329 82.5675C112.789 82.6838 113.15 82.9882 113.289 83.3776C113.427 83.7671 113.326 84.1894 113.018 84.5018V84.4995Z" fill="#563625"/>
<path d="M99.7233 176.569L105.417 176.641C105.417 176.641 102.132 157.602 102.644 148.745C102.797 146.051 102.285 142.283 103.128 138.245C104.193 133.151 104.705 131.123 106.077 124.689C107.056 120.102 107.927 116.979 107.927 116.979L96.1361 116.237C96.1361 116.237 92.2838 139.179 92.3954 147.868C92.5156 156.874 99.7233 176.569 99.7233 176.569Z" fill="#7F47FA"/>
<path opacity="0.6" d="M99.7233 176.569L105.417 176.641C105.417 176.641 102.132 157.602 102.644 148.745C102.797 146.051 102.285 142.283 103.128 138.245C104.193 133.151 104.705 131.123 106.077 124.689C107.056 120.102 107.927 116.979 107.927 116.979L96.1361 116.237C96.1361 116.237 92.2838 139.179 92.3954 147.868C92.5156 156.874 99.7233 176.569 99.7233 176.569Z" fill="black"/>
<path opacity="0.2" d="M103.128 138.245C102.728 140.357 102.562 142.496 102.633 144.635C101.653 146.977 100.799 149.198 100.202 151.174C99.157 154.629 97.509 159.872 95.9035 164.908C94.1556 159.01 92.4534 152.191 92.4018 147.844L103.128 138.245Z" fill="black"/>
<path d="M102.496 116.613C102.496 116.613 94.0244 134.732 90.8132 142.635C87.2946 151.27 81.618 174.577 81.618 174.577L86.9753 177.146C86.9753 177.146 95.3217 157.933 98.7777 149.524C102.718 139.944 113.581 124.808 114.07 117.361L102.496 116.613Z" fill="#7F47FA"/>
<path opacity="0.6" d="M102.496 116.613C102.496 116.613 94.0244 134.732 90.8132 142.635C87.2946 151.27 81.618 174.577 81.618 174.577L86.9753 177.146C86.9753 177.146 95.3217 157.933 98.7777 149.524C102.718 139.944 113.581 124.808 114.07 117.361L102.496 116.613Z" fill="black"/>
<path d="M80.9122 174.345L87.2209 177.376L88.291 175.781L81.3046 172.292L80.9122 174.345Z" fill="#7F47FA"/>
<path d="M99.0056 176.67L105.792 176.762L105.826 174.907L98.2423 174.704L99.0056 176.67Z" fill="#7F47FA"/>
<path d="M107.364 81.7579C107.364 81.9895 107.182 82.1624 107.005 82.153C106.829 82.1436 106.704 81.9458 106.727 81.7192C106.75 81.4926 106.903 81.3147 107.08 81.3241C107.257 81.3335 107.387 81.5313 107.364 81.7579Z" fill="#263238"/>
<path d="M103.766 81.5653C103.766 81.7968 103.589 81.9698 103.412 81.9604C103.235 81.951 103.105 81.7532 103.128 81.5266C103.15 81.3 103.304 81.1221 103.481 81.1315C103.658 81.1409 103.788 81.3387 103.766 81.5653Z" fill="#263238"/>
<path d="M104.58 81.7437C104.195 82.4227 103.701 83.0535 103.111 83.6182C103.465 83.8688 103.932 83.9745 104.387 83.9072L104.58 81.7437Z" fill="#1B242D"/>
<path d="M104.284 85.3823C104.9 85.3612 105.478 85.1236 105.878 84.7268C105.91 84.7015 105.911 84.6594 105.881 84.6329C105.851 84.6063 105.801 84.6053 105.77 84.6307C105.313 85.0619 104.641 85.2837 103.959 85.2281C103.916 85.2277 103.88 85.2545 103.874 85.2905C103.87 85.3087 103.877 85.3273 103.891 85.3413C103.905 85.3552 103.926 85.3631 103.948 85.3629C104.059 85.3759 104.171 85.3823 104.284 85.3823Z" fill="#263238"/>
<path d="M107.932 80.982C107.956 80.9862 107.981 80.9862 108.006 80.982C108.041 80.9624 108.066 80.9315 108.075 80.8962C108.084 80.8609 108.075 80.8241 108.051 80.7941C107.784 80.4242 107.322 80.187 106.811 80.1581C106.768 80.1566 106.727 80.1704 106.696 80.196C106.666 80.2216 106.65 80.2567 106.652 80.2929C106.652 80.3674 106.723 80.4277 106.811 80.4277C107.213 80.4566 107.575 80.6464 107.784 80.9384C107.821 80.9738 107.877 80.9903 107.932 80.982Z" fill="#263238"/>
<path d="M102.436 80.548C102.489 80.5519 102.542 80.5341 102.578 80.4999C102.834 80.2338 103.226 80.0885 103.631 80.1098C103.718 80.1168 103.795 80.0643 103.806 79.9913C103.817 79.9183 103.757 79.8513 103.671 79.8401C103.161 79.8092 102.665 79.9887 102.339 80.322C102.308 80.3474 102.291 80.3821 102.291 80.4184C102.291 80.4547 102.308 80.4895 102.339 80.5149C102.367 80.5331 102.4 80.5445 102.436 80.548Z" fill="#263238"/>
<path fill-rule="evenodd" clip-rule="evenodd" d="M80.5303 178.87C80.2429 178.806 79.9658 178.714 79.705 178.593C79.4958 178.516 79.3225 178.383 79.2121 178.214C79.1566 178.087 79.1812 177.945 79.2774 177.838C79.3235 177.768 79.411 177.726 79.5052 177.727C79.927 177.742 80.5447 178.686 80.61 178.792C80.6263 178.816 80.6263 178.846 80.61 178.87C80.5865 178.885 80.5538 178.885 80.5303 178.87ZM79.3751 178.15C79.46 178.338 79.8133 178.535 80.3826 178.69H80.3833C80.1273 178.318 79.7284 177.851 79.5123 177.841C79.4735 177.841 79.4381 177.86 79.4208 177.889C79.3546 177.964 79.3375 178.062 79.3751 178.15Z" fill="#7F47FA"/>
<path fill-rule="evenodd" clip-rule="evenodd" d="M80.5531 178.863H80.5132H80.5087C80.4943 178.855 80.484 178.843 80.4799 178.829C80.2919 178.545 80.0471 177.726 80.2919 177.475C80.3756 177.399 80.5092 177.379 80.6184 177.427C80.733 177.469 80.8219 177.549 80.8632 177.648C81.0141 177.976 80.7471 178.544 80.6509 178.749C80.631 178.792 80.6184 178.819 80.6184 178.824C80.6074 178.847 80.5819 178.862 80.5531 178.863ZM80.7183 177.706C80.6962 177.652 80.6517 177.606 80.5929 177.576L80.5589 177.576C80.4623 177.528 80.4225 177.576 80.4225 177.576C80.2743 177.721 80.3709 178.309 80.542 178.646C80.7102 178.355 80.7716 178.027 80.7183 177.706Z" fill="#7F47FA"/>
<path fill-rule="evenodd" clip-rule="evenodd" d="M101.09 180.439C101.088 180.465 101.068 180.487 101.039 180.496L101.028 180.5C100.486 180.582 99.5188 180.683 99.1545 180.404C99.0481 180.318 98.9954 180.195 99.0121 180.072C99.0186 179.997 99.0701 179.929 99.1486 179.894C99.558 179.706 100.902 180.303 101.05 180.375C101.077 180.388 101.093 180.413 101.09 180.439ZM100.765 180.409C100.306 180.175 99.7865 180.039 99.2512 180.014L99.2231 180.024C99.1906 180.037 99.1706 180.066 99.1722 180.096C99.1593 180.177 99.1934 180.258 99.2636 180.313C99.7339 180.498 100.268 180.532 100.765 180.409Z" fill="#7F47FA"/>
<path fill-rule="evenodd" clip-rule="evenodd" d="M101.073 180.434C101.074 180.458 101.061 180.481 101.039 180.496L101.036 180.494C101.016 180.502 100.993 180.504 100.971 180.499C100.555 180.355 99.7669 179.714 99.8322 179.391C99.8433 179.314 99.9118 179.208 100.128 179.208C100.288 179.194 100.447 179.238 100.566 179.328C100.868 179.643 101.045 180.029 101.073 180.434ZM100.168 179.349H100.082V179.347C100.042 179.355 100.012 179.384 100.009 179.419C99.9687 179.612 100.503 180.104 100.914 180.32C100.884 179.995 100.735 179.686 100.486 179.436C100.399 179.371 100.284 179.339 100.168 179.349Z" fill="#7F47FA"/>
<path d="M118.124 94.4507C118.865 95.6167 119.502 96.7684 120.163 97.9394C120.823 99.1105 121.398 100.305 121.979 101.51C122.56 102.715 123.084 103.919 123.568 105.213L123.915 106.176L124.223 107.14C124.325 107.468 124.405 107.815 124.496 108.147L124.562 108.407L124.627 108.754C124.664 108.965 124.689 109.178 124.701 109.391C124.736 110.119 124.699 110.85 124.592 111.573C124.501 112.258 124.387 112.918 124.251 113.568C123.972 114.869 123.63 116.137 123.248 117.39C122.489 119.885 121.579 122.346 120.522 124.763L118.091 124.194C118.598 121.726 119.087 119.226 119.52 116.763C119.731 115.534 119.924 114.306 120.056 113.091C120.121 112.489 120.175 111.891 120.198 111.308C120.228 110.77 120.211 110.23 120.147 109.694C120.145 109.591 120.126 109.489 120.09 109.391L120.056 109.265L119.991 109.063C119.888 108.786 119.809 108.514 119.695 108.234L119.36 107.396L118.989 106.552C118.483 105.42 117.913 104.292 117.338 103.181C116.763 102.07 116.126 100.926 115.494 99.8101C114.862 98.6943 114.213 97.5548 113.586 96.4656L118.124 94.4507Z" fill="#563625"/>
<path d="M117.288 92.7355C119.704 93.3716 122.896 101.843 124.16 105.446C124.963 106.058 124.558 107.176 124.558 107.176L119.645 109.012C118.506 108.53 117.8 107.523 118.227 107.026C115.654 102.916 113.633 99.8418 112.659 97.3881C111.219 93.7568 113.577 91.7286 117.288 92.7355Z" fill="url(#paint5_linear_265_2827)"/>
<path d="M118.444 108.006C117.948 108.257 119.469 109.577 119.958 109.963C120.447 110.348 122.081 109.341 123.1 109.091C124.119 108.84 125.124 109.486 125.338 108.58C125.457 108.098 125.338 106.72 124.946 106.431C124.018 105.765 119.639 107.409 118.444 108.006Z" fill="#263238"/>
<path d="M118.728 124.636L116.103 126.486L119.371 128.481C119.371 128.481 121.517 126.554 120.556 125.407L118.728 124.636Z" fill="#563625"/>
<path d="M114.606 127.417L117.84 128.747L119.372 126.824L116.104 124.829L114.606 127.417Z" fill="#563625"/>
<defs>
<linearGradient id="paint0_linear_265_2827" x1="119.319" y1="109.24" x2="119.319" y2="188.905" gradientUnits="userSpaceOnUse">
<stop stop-color="#16EBD5"/>
<stop offset="1" stop-color="#0CCAD0"/>
</linearGradient>
<linearGradient id="paint1_linear_265_2827" x1="171.25" y1="140.832" x2="171.25" y2="187.529" gradientUnits="userSpaceOnUse">
<stop stop-color="#16EBD5"/>
<stop offset="1" stop-color="#0CCAD0"/>
</linearGradient>
<linearGradient id="paint2_linear_265_2827" x1="137.113" y1="116.052" x2="137.113" y2="118.816" gradientUnits="userSpaceOnUse">
<stop stop-color="#16EBD5"/>
<stop offset="1" stop-color="#0CCAD0"/>
</linearGradient>
<linearGradient id="paint3_linear_265_2827" x1="86.1631" y1="91.5776" x2="86.1631" y2="104.028" gradientUnits="userSpaceOnUse">
<stop stop-color="#FE6587"/>
<stop offset="1" stop-color="#F52D6A"/>
</linearGradient>
<linearGradient id="paint4_linear_265_2827" x1="95.7182" y1="91.2322" x2="95.7182" y2="117.34" gradientUnits="userSpaceOnUse">
<stop stop-color="#FE6587"/>
<stop offset="1" stop-color="#F52D6A"/>
</linearGradient>
<linearGradient id="paint5_linear_265_2827" x1="112.231" y1="92.478" x2="112.231" y2="109.012" gradientUnits="userSpaceOnUse">
<stop stop-color="#FE6587"/>
<stop offset="1" stop-color="#F52D6A"/>
</linearGradient>
</defs>
</svg>
