<svg width="271" height="116" viewBox="0 0 271 116" fill="none" xmlns="http://www.w3.org/2000/svg">
<path d="M126.588 115.319C135.6 115.319 142.907 100.236 142.907 81.6292C142.907 63.0226 135.6 47.9399 126.588 47.9399H105.688V115.319H126.588Z" fill="#263238"/>
<ellipse cx="107.245" cy="81.6292" rx="16.319" ry="33.6894" fill="#263238"/>
<path d="M233.318 115.319C242.33 115.319 249.63 100.236 249.63 81.6292C249.63 63.0226 242.361 47.9399 233.318 47.9399H212.384V115.319H233.318Z" fill="#263238"/>
<ellipse cx="212.304" cy="81.6292" rx="16.319" ry="33.6894" fill="#263238"/>
<path d="M30.2897 98.3497L19.1143 95.4825C15.2858 94.5056 12.068 91.8134 10.325 88.1286C9.56275 86.5221 8.5103 85.0839 7.22538 83.8928L4.47792 81.3438C1.29527 78.391 -0.345446 74.0331 0.0610355 69.6122L1.57127 53.1196C2.08745 47.4611 5.85084 42.6974 11.0797 41.0837L19.0705 38.6249L47.897 36.4808L30.2897 98.3497Z" fill="#FAAD44"/>
<path d="M54.6597 115.319C63.6716 115.319 70.9786 100.236 70.9786 81.6292C70.9786 63.0226 63.6757 47.9399 54.6597 47.9399H33.7341V115.319H54.6597Z" fill="#263238"/>
<ellipse cx="33.655" cy="81.6292" rx="16.319" ry="33.6894" fill="#263238"/>
<ellipse cx="33.655" cy="81.6292" rx="11.4501" ry="26.6277" fill="#FAAD44"/>
<path d="M199.242 98.354L227.421 32.7145C227.421 32.7145 185.261 0 131.765 0C45.0621 0 48.0397 12.1821 19.026 38.6292L31.6919 47.9399C54.225 47.9399 56.1064 85.1652 59.7059 95.6399C60.2576 97.2667 61.7333 98.3542 63.3887 98.354H199.242Z" fill="#FFA247"/>
<path d="M160.261 115.319C169.273 115.319 176.573 100.236 176.573 81.6292C176.573 63.0226 169.273 47.9399 160.261 47.9399H139.324V115.319H160.261Z" fill="#263238"/>
<ellipse cx="140.969" cy="81.6292" rx="16.319" ry="33.6894" fill="#263238"/>
<ellipse cx="140.989" cy="81.6292" rx="11.4501" ry="26.6277" fill="#7F47FA"/>
<path d="M158.838 92.9344C156.241 80.6406 143.826 47.9554 128.947 47.9554L112.821 32.6921H203.832C210.133 32.6921 238.117 36.725 253.977 47.9175C266.786 56.9582 268.362 70.6843 270.203 90.7378C270.584 94.8309 267.146 98.3471 262.802 98.354C226.337 98.354 182.205 98.4967 166.137 98.5491C162.741 98.6981 159.703 96.3614 158.838 92.9344Z" fill="#FFA247"/>
<path opacity="0.8" d="M205.889 32.7145H146.56C143.773 32.7262 141.162 31.297 139.59 28.8991C132.991 18.7038 121.3 8.37356 112.734 3.47839C172.717 3.47839 205.889 32.7145 205.889 32.7145Z" fill="white"/>
<path opacity="0.8" d="M126.22 6.54496C133.412 11.9723 141.597 20.3863 146.193 28.7418C146.646 29.553 146.651 30.5542 146.207 31.3709C145.763 32.1875 144.936 32.6965 144.035 32.7076H46.8025C36.4923 32.7076 39.912 5.93027 93.7897 3.92114C98.8672 3.46377 110.706 3.44916 117.251 3.47925C120.475 3.49733 123.612 4.56963 126.22 6.54496Z" fill="white"/>
<path d="M175.383 83.7587L206.547 86.2097C207.555 86.2882 208.334 87.1652 208.331 88.2189V90.4644C208.331 91.5741 207.468 92.4736 206.403 92.4736H175.264C174.198 92.4736 173.333 91.5753 173.329 90.4644V85.7945C173.323 85.2342 173.541 84.6965 173.93 84.3103C174.32 83.9241 174.846 83.7243 175.383 83.7587Z" fill="#263238"/>
<path d="M268.181 84.2075L259.622 86.0069C258.719 86.1932 258.069 87.0189 258.069 87.9782V90.4146C258.069 90.9488 258.273 91.461 258.636 91.838C258.999 92.215 259.491 92.4258 260.004 92.4237H269.066C269.619 92.4256 270.145 92.1804 270.512 91.7503C270.88 91.3201 271.052 90.7464 270.986 90.1747L270.505 85.9467C270.441 85.3831 270.153 84.8733 269.711 84.5423C269.269 84.2113 268.714 84.0898 268.181 84.2075Z" fill="#263238"/>
<path opacity="0.8" d="M201.932 45.9583L158.419 43.7574C158.419 43.7574 157.973 51.7939 174.098 53.503C183.935 54.4418 193.779 51.7736 201.932 45.9583Z" fill="white"/>
<path opacity="0.3" d="M1.56303 53.1127C1.68461 51.7949 1.98739 50.5021 2.46208 49.2741L5.41079 49.1882C5.41079 49.1882 5.54771 60.9799 1.27517 60.238C1.15562 60.2199 1.03778 60.1912 0.922975 60.152L1.56303 53.1127Z" fill="black"/>
<path opacity="0.8" d="M249.69 45.2412C251.159 46.0627 252.587 46.9608 253.969 47.9321C256.072 49.3998 257.992 51.1323 259.687 53.0904C259.079 53.2707 258.462 53.416 257.839 53.5254C248.179 55.2568 241.16 45.96 241.16 45.96L249.69 45.2412Z" fill="white"/>
<path d="M208.248 58.6303H239.039C240.118 58.6367 241.17 58.9874 242.053 59.6353L247.432 63.5711C248.667 64.4629 249.488 65.8516 249.698 67.4019L251.072 78.0245C251.28 79.4159 250.889 80.832 250.003 81.8953C249.117 82.9587 247.827 83.5611 246.476 83.5421H213.552C211.546 83.5133 209.719 82.3306 208.805 80.4686L202.656 67.9719C201.751 66.2328 201.902 64.1028 203.045 62.5222L204.584 60.4589C205.466 59.2891 206.821 58.6134 208.248 58.6303Z" fill="#263238"/>
<path opacity="0.1" d="M62.615 84.5454H122.826C123.23 84.5439 123.616 84.7192 123.889 85.0285C124.163 85.3378 124.299 85.7527 124.265 86.1719L123.956 89.8231C123.888 90.598 123.264 91.1906 122.517 91.1875H62.2958C61.8921 91.189 61.5065 91.0137 61.2329 90.7043C60.9593 90.395 60.823 89.9801 60.8573 89.5609L61.1666 85.9028C61.2373 85.1267 61.867 84.5365 62.615 84.5454Z" fill="black"/>
<path d="M81.9469 3.47838L85.5506 2.75107L78.1784 36.4851H74.7298L81.9469 3.47838Z" fill="#E58A7B"/>
<path d="M94.4207 40.279H82.0856L81.7689 41.6288C81.5728 42.2305 81.6753 42.8944 82.0426 43.4017C82.4099 43.909 82.9943 44.1938 83.6033 44.1623H91.0612C92.4927 44.0921 93.718 43.0693 94.0966 41.6288L94.4207 40.279Z" fill="#263238"/>
<path d="M55.5439 40.279H43.2162L42.8995 41.6288C42.7034 42.2305 42.8059 42.8944 43.1732 43.4017C43.5405 43.909 44.1249 44.1938 44.7339 44.1623H52.1918C53.6233 44.0921 54.8486 43.0693 55.2272 41.6288L55.5439 40.279Z" fill="#263238"/>
<path opacity="0.1" d="M76.9709 80.1824C76.747 80.1824 76.5639 79.9962 76.5585 79.7628L75.6512 35.5936C75.6509 35.3581 75.828 35.1637 76.0537 35.1517C76.2777 35.1517 76.4607 35.3379 76.4661 35.5713L77.3577 79.7482C77.3579 79.9826 77.1799 80.1749 76.9552 80.1832L76.9709 80.1824Z" fill="black"/>
</svg>
