<svg width="19" height="180" viewBox="0 0 19 180" fill="none" xmlns="http://www.w3.org/2000/svg">
<path fill-rule="evenodd" clip-rule="evenodd" d="M15.1455 8.42162H16.0469C16.5251 8.42162 16.9837 8.61157 17.3218 8.94968C17.6599 9.28779 17.8499 9.74637 17.8499 10.2245V17.4462C17.8499 18.4419 17.0427 19.2491 16.0469 19.2491H2.80453C1.80881 19.2491 1.00162 18.4419 1.00162 17.4462V10.2245C1.00162 9.22881 1.80881 8.42162 2.80453 8.42162H3.711V5.71724C3.711 3.67467 4.8007 1.78725 6.56962 0.765965C8.33854 -0.255322 10.5179 -0.255322 12.2869 0.765965C14.0558 1.78725 15.1455 3.67467 15.1455 5.71724V8.42162ZM6.71886 8.42162H12.1346L12.1356 5.71724C12.1356 4.22145 10.923 3.00886 9.42724 3.00886C7.93145 3.00886 6.71886 4.22145 6.71886 5.71724V8.42162Z" fill="#1C2340"/>
<path fill-rule="evenodd" clip-rule="evenodd" d="M14.4424 50.4906C14.4424 47.7141 12.959 45.3904 10.3728 44.7754V44.1524C10.3728 43.4031 9.76536 42.7957 9.01608 42.7957C8.2668 42.7957 7.65938 43.4031 7.65938 44.1524V44.7674C5.06319 45.3864 3.5898 47.7021 3.5898 50.4876V55.0089L1.78188 56.8179V57.7193H16.2513V56.8179L14.4424 55.0089V50.4906ZM3.72602 42.9354L5.01911 44.2295C3.12061 45.5746 1.93882 47.7118 1.80892 50.0349H0C0.123771 47.2319 1.48952 44.6296 3.72602 42.9354ZM18.0332 50.0389H16.2282C16.0942 47.7171 14.9157 45.581 13.0231 44.2295L14.3071 42.9394C16.5374 44.6389 17.9015 47.238 18.0332 50.0389ZM9.37816 60.4027C9.25942 60.4285 9.13809 60.4406 9.01658 60.4387V60.4347C8.02045 60.4326 7.21068 59.6309 7.19864 58.6348H10.8155C10.8173 58.8752 10.7713 59.1135 10.6803 59.3359C10.4445 59.8814 9.95931 60.2789 9.37816 60.4027Z" fill="#1C2340"/>
<path fill-rule="evenodd" clip-rule="evenodd" d="M16.071 124.55H1.78591C1.31267 124.549 0.858562 124.737 0.52478 125.072C0.190999 125.408 0.00528767 125.863 0.00903484 126.336L2.02611e-05 137.05C-0.00158337 137.524 0.186057 137.979 0.521324 138.314C0.856591 138.649 1.31177 138.837 1.78591 138.835H16.071C16.5451 138.837 17.0003 138.649 17.3356 138.314C17.6709 137.979 17.8585 137.524 17.8569 137.05V126.336C17.8585 125.862 17.6709 125.407 17.3356 125.072C17.0003 124.736 16.5451 124.549 16.071 124.55ZM16.071 137.05H1.78591V131.693H16.071V137.05ZM1.78591 128.121H16.071V126.336H1.78591V128.121Z" fill="#1C2340"/>
<path fill-rule="evenodd" clip-rule="evenodd" d="M6.78297 166.435V164.174H18.0882V180H6.78297V177.74H15.8256V166.435H6.78297ZM0 172.087L4.52231 168.697V170.957H13.5659V173.218H4.52231V175.479L0 172.087Z" fill="#1C2340"/>
<path fill-rule="evenodd" clip-rule="evenodd" d="M16.0401 91.6812C16.049 91.9851 16.0336 92.2893 15.994 92.5907L18.0403 94.0911C18.1856 94.2523 18.2222 94.484 18.1334 94.6821L16.2734 97.8182C16.1624 98.0139 15.9207 98.0928 15.7155 98.0005L13.3908 97.091C12.901 97.4544 12.3705 97.7596 11.8102 98.0005L11.4376 100.404C11.3781 100.614 11.1903 100.761 10.9729 100.768H7.24985C7.0261 100.779 6.82813 100.624 6.7851 100.404L6.4135 98.0005C5.84801 97.77 5.31633 97.4641 4.83294 97.091L2.5172 98.0065C2.31169 98.0908 2.07536 98.0136 1.9593 97.8242L0.0992884 94.6881C0.0318422 94.5979 0.00369522 94.4842 0.0212342 94.373C0.0387731 94.2617 0.100511 94.1622 0.192439 94.0971L2.1446 92.5947C2.1446 92.4355 2.13308 92.2877 2.12156 92.14C2.11004 91.9922 2.09852 91.8445 2.09852 91.6852C2.09852 91.526 2.11004 91.3782 2.12156 91.2305C2.13308 91.0828 2.1446 90.935 2.1446 90.7758L0.141356 89.2733C-0.00374874 89.1121 -0.0402556 88.8805 0.0482058 88.6824L1.90821 85.5463C2.01922 85.3506 2.26097 85.2716 2.46612 85.364L4.79087 86.2735C5.28072 85.9101 5.81113 85.6049 6.37143 85.364L6.74303 82.9601C6.80252 82.7509 6.99033 82.6039 7.20778 82.5966H10.9268C11.1442 82.6039 11.3321 82.7509 11.3915 82.9601L11.7171 85.364C12.2825 85.5945 12.8142 85.9004 13.2976 86.2735L15.6224 85.364C15.8279 85.2797 16.0642 85.3569 16.1803 85.5463L18.0393 88.6784C18.1067 88.7686 18.1349 88.8822 18.1173 88.9935C18.0998 89.1048 18.0381 89.2042 17.9461 89.2693L15.994 90.7718C15.994 90.931 16.0055 91.0788 16.017 91.2265C16.0285 91.3742 16.0401 91.522 16.0401 91.6812ZM5.95712 91.6339C5.93068 93.3818 7.31914 94.8238 9.06679 94.8634C9.92173 94.8784 10.7471 94.5504 11.3585 93.9527C11.97 93.355 12.3166 92.5373 12.321 91.6822C12.3211 89.9341 10.9111 88.5133 9.16307 88.5C7.41502 88.4867 5.98357 89.886 5.95712 91.6339Z" fill="#1C2340"/>
</svg>
