<svg width="7" height="6" viewBox="0 0 7 6" fill="none" xmlns="http://www.w3.org/2000/svg">
<path d="M0.190685 5.71114C0.145001 5.45227 1.04344 5.11015 2.42408 4.65129C3.21492 4.39889 3.99134 4.10336 4.74986 3.76605C4.91315 3.69699 5.06728 3.60799 5.20872 3.50109C5.2473 3.46861 5.2473 3.44323 5.20872 3.50109C5.17903 3.55672 5.16335 3.61874 5.16304 3.68179L4.92346 3.1742C4.81796 2.95178 4.69932 2.73584 4.56814 2.52753C4.46116 2.35525 4.33063 2.19875 4.18034 2.06258C4.07067 1.94975 3.94131 1.85789 3.79864 1.79153C3.73288 1.76871 3.66136 1.76871 3.5956 1.79153C3.46459 1.82538 3.34438 1.89212 3.24638 1.98543C2.63033 2.48534 2.07709 3.058 1.59874 3.69093C0.765277 4.78327 0.494224 5.6614 0.229261 5.62891C-0.0357007 5.59643 -0.197114 4.55587 0.474935 3.04426C0.876564 2.17011 1.43735 1.37833 2.12866 0.709346C2.39336 0.447382 2.71066 0.244612 3.05958 0.11445C3.49462 -0.03815 3.96864 -0.03815 4.40368 0.11445C4.59917 0.179131 4.78573 0.268151 4.95899 0.379412C5.11356 0.480483 5.26048 0.592794 5.39856 0.715437C5.66555 0.954486 5.90003 1.22753 6.09599 1.52758C6.26772 1.80028 6.42298 2.083 6.56094 2.37424L6.73555 2.76813C6.83329 2.97307 6.90165 3.19077 6.93859 3.4148C6.99101 3.74136 6.93201 4.07606 6.77109 4.36501C6.64449 4.58863 6.4714 4.78249 6.2635 4.93351C5.99207 5.118 5.69615 5.26357 5.38435 5.36598C4.51267 5.66917 3.60836 5.86884 2.69006 5.96088C1.17541 6.06645 0.238398 5.94971 0.190685 5.71114Z" fill="#E0E0E0"/>
</svg>
