<svg width="63" height="43" viewBox="0 0 63 43" fill="none" xmlns="http://www.w3.org/2000/svg">
<path d="M55.9366 27.2594H59.8839V23.6672H55.9366V27.2594Z" fill="#EA402C"/>
<path d="M59.884 24.6124H57.5084V23.6671H56.8512H59.884V24.6124Z" fill="#F36836"/>
<path d="M55.9366 27.2594H57.5081V23.6672H55.9366V27.2594Z" fill="#3C3C3A"/>
<path d="M55.9366 24.5804H57.4928V23.6669H55.9366V24.5804Z" fill="#5A5C58"/>
<path d="M8.71862 41.6446H8.61405V27.0503H8.71862V41.6446Z" fill="#9C9C9B"/>
<path d="M10.8131 41.6446H10.7066V27.0503H10.8131V41.6446Z" fill="#9C9C9B"/>
<path d="M17.9014 33.4617H1.52339V33.3687H17.9014V33.4617Z" fill="#9C9C9B"/>
<path d="M17.9014 35.3271H1.52339V35.2338H17.9014V35.3271Z" fill="#9C9C9B"/>
<path d="M7.95858 41.5287L7.85114 41.521L9.3834 26.9918L9.48989 27.0006L7.95858 41.5287Z" fill="#9C9C9B"/>
<path d="M10.0416 41.7031L9.938 41.6954L11.4664 27.1657L11.5739 27.1744L10.0416 41.7031Z" fill="#9C9C9B"/>
<path d="M17.9592 34.1478L1.65216 32.784L1.66273 32.6892L17.9698 34.0541L17.9592 34.1478Z" fill="#9C9C9B"/>
<path d="M17.7633 36.0055L1.45718 34.641L1.46679 34.5479L17.7738 35.9118L17.7633 36.0055Z" fill="#9C9C9B"/>
<path d="M3.21898 38.8807L3.1451 38.8141L14.7268 28.4961L14.8026 28.5612L3.21898 38.8807Z" fill="#9C9C9B"/>
<path d="M4.70033 40.1999L4.62356 40.1335L16.2072 29.8144L16.282 29.8805L4.70033 40.1999Z" fill="#9C9C9B"/>
<path d="M2.59227 38.0608L2.52893 37.9842L15.5662 29.1503L15.6295 29.2242L2.59227 38.0608Z" fill="#9C9C9B"/>
<path d="M3.8609 39.5447L3.79566 39.4708L16.8329 30.6342L16.8971 30.7108L3.8609 39.5447Z" fill="#9C9C9B"/>
<path d="M16.2072 38.8807L4.62356 28.5612L4.70033 28.4961L16.282 38.8141L16.2072 38.8807Z" fill="#9C9C9B"/>
<path d="M14.7268 40.1999L3.1451 29.8805L3.21898 29.8144L14.8026 40.1335L14.7268 40.1999Z" fill="#9C9C9B"/>
<path d="M16.8934 37.9681L3.71417 29.3012L3.77652 29.2263L16.9557 37.8935L16.8934 37.9681Z" fill="#9C9C9B"/>
<path d="M15.6488 39.4697L2.46961 30.8035L2.53292 30.7268L15.7112 39.3941L15.6488 39.4697Z" fill="#9C9C9B"/>
<path d="M9.71266 41.1561C5.49197 41.1561 2.07149 38.1057 2.07149 34.3476C2.07149 30.5873 5.49197 27.5387 9.71266 27.5387C13.9333 27.5387 17.3538 30.5873 17.3538 34.3476C17.3538 38.1057 13.9333 41.1561 9.71266 41.1561ZM9.71266 25.6957C4.34829 25.6957 0 29.5684 0 34.3476C0 39.1273 4.34829 43 9.71266 43C15.0751 43 19.4253 39.1273 19.4253 34.3476C19.4253 29.5684 15.0751 25.6957 9.71266 25.6957Z" fill="#201F1E"/>
<path d="M9.71164 41.1531C5.49287 41.1531 2.07047 38.1044 2.07047 34.3436C2.07047 30.5844 5.49287 27.5347 9.71164 27.5347C13.9333 27.5347 17.3547 30.5844 17.3547 34.3436C17.3547 38.1044 13.9333 41.1531 9.71164 41.1531ZM9.71164 26.9965C5.15514 26.9965 1.46024 30.2878 1.46024 34.3479C1.46024 38.4081 5.15514 41.7 9.71164 41.7C14.2701 41.7 17.965 38.4081 17.965 34.3479C17.965 30.2878 14.2701 26.9965 9.71164 26.9965Z" fill="#100F0D"/>
<path d="M11.9558 34.3479C11.9558 35.4521 10.9513 36.3474 9.71263 36.3474C8.47396 36.3474 7.47035 35.4521 7.47035 34.3479C7.47035 33.2437 8.47396 32.349 9.71263 32.349C10.9513 32.349 11.9558 33.2437 11.9558 34.3479Z" fill="#A4A49B"/>
<path d="M10.7536 34.3478C10.7536 34.8604 10.2883 35.2756 9.71259 35.2756C9.13883 35.2756 8.67252 34.8604 8.67252 34.3478C8.67252 33.8361 9.13883 33.4205 9.71259 33.4205C10.2883 33.4205 10.7536 33.8361 10.7536 34.3478Z" fill="#454543"/>
<path d="M20.9345 36.0477C21.5265 32.6705 20.8922 28.858 17.9457 26.4593C17.0918 25.7656 16.1592 25.1401 15.1403 24.6526C13.2587 23.7469 11.1047 23.5766 9.02558 23.9156C7.74854 24.1239 6.56648 24.4866 5.45254 25.0843C4.35491 25.6759 3.30045 26.3518 2.42158 27.1896C2.03684 27.5569 1.69719 27.9687 1.2472 28.2784C1.11191 28.3705 0.949753 28.4461 0.779928 28.478C-0.154591 28.6567 0.739639 28.9708 1.17236 29.0712C2.05698 29.2751 2.89364 28.8832 3.5787 28.4169C4.02581 28.1125 8.28582 24.2915 13.7356 26.6659C15.3552 27.3711 17.5984 28.5915 18.3352 31.6936C18.9426 34.2357 18.4552 35.3664 18.2384 35.696C17.4209 36.9413 20.4826 38.442 21.2568 37.2843L20.9546 36.8432C20.8644 36.5947 20.8923 36.2987 20.9345 36.0477Z" fill="#C31E25"/>
<path d="M47.6585 41.6446H47.7631V27.0513H47.6585V41.6446Z" fill="#9C9C9B"/>
<path d="M49.8566 41.6446H49.752V27.0503H49.8566V41.6446Z" fill="#9C9C9B"/>
<path d="M56.9471 33.4617H40.5681V33.3687H56.9471V33.4617Z" fill="#9C9C9B"/>
<path d="M56.9471 35.3271H40.5681V35.2338H56.9471V35.3271Z" fill="#9C9C9B"/>
<path d="M47.0031 41.5287L46.8956 41.5217L48.4279 26.9902L48.5325 27.0013L47.0031 41.5287Z" fill="#9C9C9B"/>
<path d="M49.0871 41.7031L48.9806 41.6954L50.5129 27.1657L50.6194 27.1744L49.0871 41.7031Z" fill="#9C9C9B"/>
<path d="M57.0044 34.1478L40.6963 32.784L40.7059 32.6892L57.0149 34.0541L57.0044 34.1478Z" fill="#9C9C9B"/>
<path d="M56.8079 36.0055L40.5008 34.641L40.5095 34.5479L56.8185 35.9118L56.8079 36.0055Z" fill="#9C9C9B"/>
<path d="M42.2623 38.8807L42.1885 38.8141L53.7711 28.4961L53.846 28.5612L42.2623 38.8807Z" fill="#9C9C9B"/>
<path d="M43.7436 40.1999L43.6678 40.1335L55.2515 29.8144L55.3263 29.8805L43.7436 40.1999Z" fill="#9C9C9B"/>
<path d="M41.6378 38.0608L41.5726 37.9842L54.6108 29.1503L54.6741 29.2242L41.6378 38.0608Z" fill="#9C9C9B"/>
<path d="M42.9044 39.5447L42.8411 39.4708L55.8783 30.6342L55.9426 30.7108L42.9044 39.5447Z" fill="#9C9C9B"/>
<path d="M55.2515 38.8807L43.6678 28.5612L43.7436 28.4961L55.3263 38.8141L55.2515 38.8807Z" fill="#9C9C9B"/>
<path d="M53.7711 40.1999L42.1885 29.8805L42.2623 29.8144L53.846 40.1335L53.7711 40.1999Z" fill="#9C9C9B"/>
<path d="M55.9376 37.9681L42.7584 29.3012L42.8217 29.2263L55.999 37.8935L55.9376 37.9681Z" fill="#9C9C9B"/>
<path d="M54.6942 39.4697L41.515 30.8035L41.5774 30.7268L54.7566 39.3941L54.6942 39.4697Z" fill="#9C9C9B"/>
<path d="M48.7581 41.1561C44.5374 41.1561 41.1141 38.1057 41.1141 34.3476C41.1141 30.5873 44.5374 27.5387 48.7581 27.5387C52.9778 27.5387 56.4012 30.5873 56.4012 34.3476C56.4012 38.1057 52.9778 41.1561 48.7581 41.1561ZM48.7581 25.6957C43.3957 25.6957 39.0454 29.5684 39.0454 34.3476C39.0454 39.1273 43.3957 43 48.7581 43C54.1225 43 58.4698 39.1273 58.4698 34.3476C58.4698 29.5684 54.1225 25.6957 48.7581 25.6957Z" fill="#201F1E"/>
<path d="M48.7581 41.1522C44.5374 41.1522 41.114 38.1042 41.114 34.3434C41.114 30.5835 44.5374 27.5345 48.7581 27.5345C52.9778 27.5345 56.4012 30.5835 56.4012 34.3434C56.4012 38.1042 52.9778 41.1522 48.7581 41.1522ZM48.7581 26.9953C44.1996 26.9953 40.5067 30.2876 40.5067 34.3478C40.5067 38.4085 44.1996 41.7008 48.7581 41.7008C53.3155 41.7008 57.0104 38.4085 57.0104 34.3478C57.0104 30.2876 53.3155 26.9953 48.7581 26.9953Z" fill="#100F0D"/>
<path d="M51.0001 34.3479C51.0001 35.4521 49.9956 36.3474 48.7588 36.3474C47.5182 36.3474 46.5146 35.4521 46.5146 34.3479C46.5146 33.2437 47.5182 32.349 48.7588 32.349C49.9956 32.349 51.0001 33.2437 51.0001 34.3479Z" fill="#A4A49B"/>
<path d="M49.799 34.3478C49.799 34.8604 49.3328 35.2756 48.759 35.2756C48.1833 35.2756 47.717 34.8604 47.717 34.3478C47.717 33.8361 48.1833 33.4205 48.759 33.4205C49.3328 33.4205 49.799 33.8361 49.799 34.3478Z" fill="#454543"/>
<path d="M49.5198 34.3477C49.5198 34.7104 49.1869 35.0047 48.783 35.0047H33.0333C32.6255 35.0047 32.2965 34.7104 32.2965 34.3477C32.2965 33.9855 32.6255 33.6916 33.0333 33.6916H48.783C49.1869 33.6916 49.5198 33.9855 49.5198 34.3477Z" fill="#172219"/>
<path d="M15.7649 16.6701L14.2327 21.2436C14.2327 21.2436 13.136 23.9895 16.2821 27.9758C19.4253 31.9627 25.7146 38.8633 25.7146 38.8633C25.7146 38.8633 26.9609 40.328 28.9729 39.5436C30.982 38.7645 34.7249 34.0345 34.8918 31.266C34.8918 31.266 27.4013 32.6165 20.1372 24.2801C17.4334 21.1784 15.7649 16.6701 15.7649 16.6701Z" fill="#C1BFBD"/>
<path d="M27.8051 39.7754C26.4906 39.7754 25.7144 38.8636 25.7144 38.8636C25.7144 38.8636 26.4906 39.7754 27.8051 39.7754C28.1572 39.7754 28.5477 39.7098 28.9728 39.5439C28.9872 39.5389 29.0016 39.5328 29.016 39.5267C29.0016 39.5328 28.9872 39.5389 28.9728 39.5439C28.5477 39.7098 28.1572 39.7754 27.8051 39.7754ZM29.0284 39.5217C29.039 39.5174 29.0495 39.513 29.0601 39.508C29.0495 39.513 29.039 39.5174 29.0284 39.5217ZM29.0745 39.5019C29.086 39.4969 29.0985 39.4915 29.11 39.4865C29.0985 39.4915 29.0869 39.4969 29.0745 39.5019ZM29.1186 39.4821C29.134 39.4754 29.1484 39.4683 29.1637 39.4606C29.1484 39.4683 29.134 39.4754 29.1186 39.4821ZM29.1752 39.4555C29.1867 39.4495 29.1982 39.4435 29.2107 39.4374C29.1982 39.4435 29.1867 39.4495 29.1752 39.4555ZM29.2242 39.4314C29.2347 39.4253 29.2462 39.4203 29.2568 39.4142C29.2462 39.4203 29.2347 39.4253 29.2242 39.4314ZM29.2721 39.4065C29.2836 39.4005 29.2952 39.3934 29.3076 39.3873C29.2952 39.3934 29.2836 39.4005 29.2721 39.4065ZM29.3191 39.3806C29.3335 39.3729 29.3479 39.3651 29.3623 39.3565C29.3479 39.3651 29.3335 39.3729 29.3191 39.3806ZM29.3872 39.3427C29.394 39.3383 29.4016 39.3343 29.4084 39.3299C29.4016 39.3343 29.394 39.3383 29.3872 39.3427ZM29.4333 39.3161C29.44 39.3117 29.4477 39.3074 29.4554 39.3024C29.4477 39.3074 29.44 39.3117 29.4333 39.3161ZM29.4822 39.2869C29.4851 39.2842 29.4889 39.2819 29.4928 39.2798C29.4889 39.2819 29.4851 39.2842 29.4822 39.2869ZM29.6022 39.2113C29.606 39.2086 29.6098 39.2053 29.6146 39.2026C29.6098 39.2053 29.606 39.2086 29.6022 39.2113ZM34.1433 33.6918C34.1961 33.5833 34.2469 33.4748 34.2959 33.3673C34.2959 33.3673 34.2959 33.3673 34.2969 33.3673C34.2479 33.4748 34.1971 33.5833 34.1433 33.6918ZM17.488 20.3695C17.2826 19.9925 17.0936 19.627 16.9219 19.283C16.9219 19.2823 16.9219 19.2823 16.9219 19.2823C17.0936 19.627 17.2827 19.9918 17.4889 20.3684L17.488 20.3695Z" fill="#C1BFBD"/>
<path d="M33.8364 34.28C33.8402 34.2729 33.844 34.2661 33.8479 34.2591C33.844 34.2661 33.8402 34.2729 33.8364 34.28ZM33.8556 34.2463C33.9573 34.0606 34.0532 33.8754 34.1434 33.6917C34.0542 33.8754 33.9573 34.0606 33.8556 34.2463Z" fill="#161C16"/>
<path d="M27.8051 39.7754C26.4906 39.7754 25.7144 38.8636 25.7144 38.8636C25.7144 38.8636 26.4043 39.6722 27.5854 39.766C27.5211 37.6828 25.7844 35.7952 24.375 34.2565C22.6105 32.3303 20.8969 30.3395 19.355 28.2677C18.55 27.183 17.7882 26.0616 17.2337 24.8569C16.7693 23.8377 16.5716 22.8635 16.659 21.7633C16.7232 20.9378 16.8902 20.1115 16.9218 19.283C17.0936 19.627 17.2826 19.9925 17.4879 20.3695L17.4735 20.4242C17.4208 21.8862 17.5657 23.3288 18.0032 24.7424C18.4781 26.2766 19.3829 27.6184 20.3941 28.91C22.5529 31.6809 25.155 34.149 27.451 36.8228C27.4865 36.8641 27.5441 36.885 27.5978 36.885C27.6746 36.885 27.7456 36.8426 27.7379 36.7532C27.6237 35.0917 28.7578 33.7973 30.5146 33.3048C31.0739 33.1489 31.6487 33.0922 32.2301 33.0922C32.8768 33.0922 33.5331 33.1627 34.1884 33.2444L34.1452 33.3693C34.1452 33.3693 34.1989 33.3693 34.2958 33.3673C34.2469 33.4748 34.1961 33.5833 34.1433 33.6918C34.0531 33.8755 33.9572 34.0607 33.8555 34.2465C33.8526 34.2505 33.8507 34.2549 33.8478 34.2592C33.8439 34.2662 33.8401 34.273 33.8363 34.2801C32.7262 36.2819 30.9617 38.3221 29.6146 39.2026C29.6098 39.2053 29.606 39.2086 29.6021 39.2113C29.5647 39.2345 29.5292 39.2576 29.4928 39.2798C29.4889 39.2819 29.4851 39.2842 29.4822 39.2869C29.4726 39.292 29.464 39.2973 29.4553 39.3024C29.4476 39.3074 29.44 39.3117 29.4333 39.3161C29.4246 39.3205 29.417 39.3256 29.4083 39.3299C29.4016 39.3343 29.3939 39.3383 29.3872 39.3427C29.3786 39.3471 29.37 39.3521 29.3623 39.3565C29.3479 39.3651 29.3335 39.3729 29.3191 39.3806C29.3153 39.3833 29.3114 39.385 29.3076 39.3873C29.2951 39.3934 29.2836 39.4005 29.2721 39.4065C29.2663 39.4088 29.2615 39.4116 29.2567 39.4142C29.2462 39.4203 29.2347 39.4253 29.2241 39.4314C29.2193 39.4331 29.2145 39.4357 29.2107 39.4374C29.1982 39.4435 29.1867 39.4495 29.1752 39.4555C29.1713 39.4572 29.1675 39.4589 29.1637 39.4606C29.1483 39.4683 29.1339 39.4754 29.1186 39.4821C29.1157 39.4837 29.1128 39.4848 29.11 39.4865C29.0984 39.4915 29.086 39.4969 29.0744 39.5019C29.0696 39.5046 29.0649 39.5063 29.0601 39.508C29.0495 39.513 29.0389 39.5174 29.0284 39.5217C29.0246 39.5234 29.0198 39.5251 29.0159 39.5267C29.0015 39.5328 28.9871 39.5389 28.9727 39.5439C28.5477 39.7098 28.1572 39.7754 27.8051 39.7754Z" fill="#8E8E8E"/>
<path d="M34.8919 31.2241C34.8919 31.2241 37.2637 30.9551 37.2906 29.2374C37.3059 28.1849 37.7761 27.0598 37.3712 26.0278C36.9538 24.9703 35.6566 24.6303 34.6847 24.0972C34.1598 23.8083 33.7502 23.472 33.3683 23.0393C33.3184 22.9818 32.3033 21.5105 32.6784 21.5105H42.1887C42.1887 21.5105 41.5161 24.5342 43.3909 23.8375C43.3909 23.8375 50.8315 20.8893 56.8281 24.9771C56.8281 24.9771 60.9337 28.0035 61.0268 33.3466C61.0268 33.3466 60.834 34.6058 62.2156 34.9212C62.2156 34.9212 63.3698 35.1053 62.3604 35.4503C61.354 35.795 58.513 36.2183 58.0179 35.0048C57.5228 33.7877 57.8183 27.5124 50.0121 26.3393C50.0121 26.3393 42.6329 25.2411 40.5019 32.3499C40.5019 32.3499 40.4395 32.9123 40.3369 33.179C40.2995 33.2865 34.1455 33.3692 34.1455 33.3692L34.8919 31.2241Z" fill="#DF2025"/>
<path d="M37.3701 26.0287C37.7769 27.0597 37.3068 28.1838 37.2895 29.2366C37.2799 29.9417 36.8731 30.4027 36.3991 30.701C36.7215 30.6093 37.0352 30.4853 37.326 30.3597C37.9314 30.0973 38.507 29.7973 39.0021 29.3878C40.0748 28.5039 40.8865 27.3745 41.7539 26.3357C42.5349 25.4018 43.3312 24.339 44.4308 23.6731C44.6534 23.5391 44.8817 23.4228 45.1178 23.3204C44.0432 23.5784 43.3907 23.8384 43.3907 23.8384C41.515 24.5332 42.1885 21.5103 42.1885 21.5103H32.6793C32.3031 21.5103 33.3173 22.9817 33.3691 23.0391C33.7491 23.4709 34.1597 23.8082 34.6855 24.0964C35.6574 24.6296 36.9527 24.9702 37.3701 26.0287Z" fill="#9F1B21"/>
<path d="M32.0635 20.1193C32.0635 20.1193 30.0928 20.1193 30.5994 21.5367C31.1069 22.9547 32.4885 23.1425 33.3635 23.2369H44.0079C44.0079 23.2369 45.5795 23.378 45.8289 22.1508C46.0794 20.9209 45.8289 20.3542 45.8289 20.3542C45.8289 20.3542 45.9287 19.8237 44.6852 19.7764L32.0635 20.1193Z" fill="#4D3320"/>
<path d="M33.5207 22.034L33.5399 22.027C33.6551 21.9756 33.6676 21.9084 33.6676 21.806C33.6676 21.6736 33.6676 21.5456 33.6676 21.4183C33.6676 21.1432 33.6723 20.8693 33.6676 20.5958L33.6704 20.4508C33.6301 20.2287 33.2732 20.307 33.1053 20.314C32.8606 20.3234 32.6131 20.3318 32.3655 20.3389L32.2015 20.3456C32.2015 20.3456 30.5042 20.3741 30.959 21.1471C31.409 21.9195 32.6035 22.0032 33.3576 22.0434L33.5207 22.034Z" fill="#744A2E"/>
<path d="M36.9383 20.1911L36.8414 20.1774C36.5535 20.1841 36.2638 20.2066 35.9741 20.215C35.4473 20.2315 34.9148 20.2288 34.39 20.2651C34.295 20.2718 34.2076 20.2805 34.1127 20.2718L34.0052 20.2849C33.8728 20.3477 33.8604 20.4239 33.8652 20.5385C33.87 20.6588 33.8623 20.7801 33.8623 20.9006C33.8623 21.1741 33.8651 21.4492 33.8623 21.7227C33.8623 21.8413 33.8402 21.8887 33.9304 21.9894L34.1549 22.0364L34.3976 22.0227C34.6327 22.021 34.8697 22.0143 35.1048 22.0116C35.5893 22.0072 36.0719 21.9934 36.5564 21.9867C36.6409 21.9867 36.7291 21.9867 36.8165 21.9823C37.0889 21.9756 36.994 21.4949 36.994 21.3484C36.994 21.0485 36.994 20.7464 36.994 20.4438C36.994 20.339 37.0256 20.2288 36.9383 20.1911Z" fill="#744A2E"/>
<path d="M44.05 20.2718C44.05 20.2718 44.1296 19.9762 43.0579 19.9691C42.8382 19.9762 42.6204 19.9829 42.4036 19.9916C42.0236 20.0054 41.6417 20.0054 41.2637 20.032C41.1543 20.0407 40.9039 20.0292 40.8214 20.1213C40.737 20.2151 40.759 20.2893 40.7542 20.3968C40.7514 20.5292 40.7542 20.6632 40.7542 20.7956C40.7466 21.0667 40.7513 21.3401 40.7513 21.6135L40.7638 21.8259C40.8214 21.9152 40.9442 21.9136 41.0421 21.9085C41.1745 21.9041 41.304 21.9068 41.4364 21.9041C41.729 21.9018 42.0236 21.8958 42.3181 21.8887L42.5129 21.886C42.5187 21.886 43.8706 21.9404 44.0702 21.2591C44.2697 20.5782 44.05 20.2718 44.05 20.2718Z" fill="#744A2E"/>
<path d="M40.497 20.0698H40.2073C39.9674 20.0765 39.7275 20.0835 39.4877 20.0919C39.1921 20.1034 38.8976 20.1168 38.6002 20.1239C38.3353 20.1306 38.0706 20.1464 37.8057 20.1531C37.7635 20.1531 37.7155 20.1531 37.6685 20.1504C37.5505 20.148 37.4258 20.1464 37.3289 20.1796L37.1888 20.2761C37.1888 20.4705 37.1888 20.6701 37.1888 20.867C37.1888 21.1626 37.1907 21.4602 37.1907 21.7545L37.1888 21.8902C37.2032 21.9806 37.4363 21.9669 37.538 21.9641C37.6657 21.9601 37.7932 21.9581 37.9208 21.9558C38.1703 21.9531 38.4227 21.9558 38.675 21.9514C39.1672 21.942 39.6623 21.9359 40.1545 21.9265C40.1823 21.9248 40.2092 21.9265 40.237 21.9265C40.4116 21.9265 40.5594 21.9288 40.5594 21.7115C40.5565 21.5617 40.5565 21.4139 40.5594 21.2634C40.5613 20.9701 40.5469 20.6741 40.5594 20.3808L40.5565 20.2132L40.5671 20.1531L40.497 20.0698Z" fill="#744A2E"/>
<path d="M50.0417 34.2761C50.0417 34.48 49.7241 34.6459 49.3327 34.6476C48.9345 34.6503 48.615 34.4871 48.615 34.2831L48.5478 23.8434C48.5478 23.6395 48.8625 23.4719 49.2569 23.4719C49.6522 23.4692 49.9717 23.6311 49.9746 23.8347L50.0417 34.2761Z" fill="#C4C3BF"/>
<path d="M50.324 30.5333C50.3268 30.6976 49.875 30.8292 49.3175 30.832C48.7581 30.836 48.3053 30.7063 48.3034 30.5444L48.2506 22.2111C48.2477 22.0495 48.7006 21.9151 49.2571 21.9135C49.8174 21.9084 50.2693 22.0384 50.2693 22.2016L50.324 30.5333Z" fill="#397FCA"/>
<path d="M48.9797 30.5781C48.6698 30.5405 48.45 30.4423 48.45 30.3255L48.4049 22.5001C48.4049 22.3771 48.6448 22.2713 48.9797 22.2361V30.5781Z" fill="#60B8E9"/>
<path d="M16.7186 34.4672H11.312C10.3574 34.2761 11.2267 33.49 11.2267 33.49C11.2267 33.49 13.3854 31.1673 14.0484 30.4198C15.2526 29.0558 15.7122 29.8145 15.7122 29.8145C15.7122 29.8145 17.5313 31.4115 17.9688 34.0543C18.0686 34.6432 16.7186 34.4672 16.7186 34.4672ZM11.9568 23.9284L9.53033 34.4672L9.64739 34.6416L9.66273 34.6529L19.3552 34.8404C19.3552 34.8404 20.0297 34.0234 20.0297 32.6888C20.0297 31.0984 17.7165 25.7321 11.9568 23.9284Z" fill="#DF2025"/>
<path d="M13.701 14.4643L11.5739 22.236C11.5739 22.236 11.0894 23.5546 11.5739 23.7927L14.4705 24.8161L17.204 17.2748C17.204 17.2748 18.0359 14.8494 19.0856 14.1503C19.0856 14.1503 20.1544 11.9976 19.9999 11.9976C18.3631 11.9976 15.7447 9.7834 15.7447 9.7834C15.7447 9.7834 14.0675 9.91309 14.0484 10.2917C14.0301 10.6672 13.701 14.4643 13.701 14.4643Z" fill="#253C7A"/>
<path d="M17.3911 16.2765C16.7963 16.1619 16.1947 16.0544 15.5969 15.9402C14.9695 15.8188 14.3429 15.6623 13.7106 15.5571C13.608 15.5411 13.5753 15.5411 13.5379 15.5411L13.3854 15.6216L11.5739 22.236C11.5739 22.236 11.0894 23.5546 11.5739 23.7927L14.4705 24.8161L17.204 17.2748C17.204 17.2748 17.3288 16.905 17.5456 16.4148C17.5734 16.3521 17.5456 16.3117 17.3911 16.2765Z" fill="#DF2025"/>
<path d="M17.2014 12.4862C17.1793 13.9781 14.8353 15.4334 11.5319 15.1892C10.8996 15.1425 10.3795 13.9781 10.3795 12.4862C10.3795 10.9923 10.9073 9.86824 11.5319 9.78327C14.3153 9.39352 17.2167 11.2365 17.2014 12.4862Z" fill="#253C7A"/>
<path d="M11.5693 9.77677L11.5319 9.78383C10.9073 9.8688 10.3795 10.9928 10.3795 12.4867C10.3795 13.9787 10.8996 15.143 11.5319 15.1897L11.5693 15.1921V9.77677Z" fill="#818484"/>
<path d="M11.1347 9.98728C10.7 10.3891 10.3795 11.3247 10.3795 12.4866C10.3795 13.65 10.6952 14.6132 11.1347 15.0028V9.98728Z" fill="#FEFDE5"/>
<path d="M19.15 10.4839C17.7607 10.0848 17.209 10.0512 16.6794 9.87688C16.1392 9.7287 15.6422 9.55833 15.1327 9.57648C14.5781 9.59738 13.7904 9.57485 13.5486 9.85435C13.586 11.2673 13.516 14.7013 13.5486 15.2166C16.2869 15.8838 17.3913 15.6312 18.0111 15.4779C18.1838 15.2629 19.5482 12.909 19.7353 12.7817C19.7353 12.7817 20.7072 10.932 19.15 10.4839Z" fill="#DF2025"/>
<path d="M15.3944 13.5973C15.3944 13.8657 15.1497 14.0835 14.8475 14.0835H13.3402C13.0379 14.0835 12.7933 13.8657 12.7933 13.5973C12.7933 13.3266 13.0379 13.1089 13.3402 13.1089H14.8475C15.1497 13.1089 15.3944 13.3266 15.3944 13.5973Z" fill="#9C1C20"/>
<path d="M21.3913 2.06554C21.6187 3.26181 21.5093 4.27498 21.1418 4.33011C20.7772 4.38584 20.2946 3.46133 20.0662 2.26772C19.8379 1.07145 19.9501 0.0565617 20.3157 0.00246745C20.6822 -0.053605 21.1629 0.870904 21.3913 2.06554Z" fill="#818484"/>
<path d="M21.3911 2.06561C21.1627 0.870972 20.6821 -0.0535371 20.3155 0.0025353L20.2426 0.0280775C20.5842 0.181244 20.9785 1.02147 21.1791 2.06896C21.3911 3.17923 21.3086 4.13461 21.0035 4.30765L21.1416 4.33018C21.5091 4.27505 21.6185 3.26188 21.3911 2.06561Z" fill="#5A5C5D"/>
<path d="M19.7552 11.1672C19.8272 11.5817 19.6372 11.9522 19.3311 11.9942C19.025 12.0355 18.7199 11.7338 18.647 11.3177C18.576 10.9031 18.7669 10.5322 19.0711 10.4909C19.3781 10.4489 19.6833 10.7516 19.7552 11.1672Z" fill="#172219"/>
<path d="M21.7405 10.8823C21.8096 11.2351 21.7482 11.5404 21.6043 11.5626L19.4819 11.8868C19.291 11.917 19.0703 11.7407 18.9715 11.6188C18.8323 11.4474 18.7498 11.2059 18.8189 11.0002C18.8707 10.8454 19.0405 10.6374 19.2353 10.6089L21.3567 10.283C21.5006 10.2615 21.6743 10.529 21.7405 10.8823Z" fill="#2C2A2A"/>
<path d="M21.9881 10.8651C22.0734 11.278 21.894 11.6539 21.5889 11.7019C21.2848 11.751 20.97 11.455 20.8875 11.0421C20.8041 10.6286 20.9815 10.2544 21.2876 10.2053C21.5908 10.1556 21.9065 10.4516 21.9881 10.8651Z" fill="#172219"/>
<path d="M13.2779 12.3073C13.2779 12.3073 11.359 12.6789 11.7111 13.8056C11.8963 14.3922 13.9505 14.9364 14.6298 14.6011C14.9176 14.4573 14.9646 12.9926 14.6998 12.4777C14.5626 12.2069 13.821 12.1887 13.2779 12.3073Z" fill="#EA402C"/>
<path d="M13.2779 12.3073C13.2779 12.3073 11.359 12.6789 11.7111 13.8056C11.8963 14.3922 13.9505 14.9364 14.6298 14.6011C14.9176 14.4573 14.9646 12.9926 14.6998 12.4777C14.5626 12.2069 13.821 12.1887 13.2779 12.3073Z" fill="#EA402C"/>
<path d="M14.6997 12.4776C14.5999 12.2823 14.1951 12.2196 13.7729 12.2421V14.6904C14.1202 14.7213 14.433 14.6971 14.6297 14.601C14.9175 14.4572 14.9645 12.9925 14.6997 12.4776Z" fill="#A4A49B"/>
<path d="M11.67 13.4967H11.669C11.7112 12.6666 13.0842 12.3485 13.2598 12.3105C13.0842 12.3485 11.7132 12.6666 11.67 13.4967ZM13.2656 12.3099C13.2742 12.3082 13.2781 12.3071 13.2781 12.3071C13.2781 12.3071 13.2742 12.3082 13.2656 12.3099Z" fill="#EA5E93"/>
<path d="M14.7509 12.5956C14.7509 12.5945 14.7509 12.5945 14.7509 12.5945C14.7509 12.5945 14.7509 12.5945 14.7509 12.5956ZM14.743 12.5729C14.7421 12.5703 14.7411 12.5679 14.7401 12.5652C14.7411 12.5679 14.7421 12.5703 14.743 12.5729ZM14.7333 12.548C14.7313 12.5446 14.7303 12.542 14.7283 12.5386C14.7303 12.542 14.7313 12.5446 14.7333 12.548ZM14.7225 12.5237C14.7205 12.5193 14.7185 12.5153 14.7166 12.5109C14.7185 12.5153 14.7205 12.5193 14.7225 12.5237ZM14.7117 12.4998C14.7078 12.4921 14.7039 12.4839 14.6999 12.4772C14.7039 12.4839 14.7078 12.4921 14.7117 12.4998Z" fill="#F2503F"/>
<path d="M14.875 13.4967H14.8741C14.8731 13.4183 14.8704 13.3399 14.8657 13.2631C14.8704 13.3399 14.8731 13.4183 14.875 13.4967Z" fill="#F14F40"/>
<path d="M13.7732 13.4967H11.67C11.7132 12.6666 13.0843 12.3485 13.2598 12.3105C13.2618 12.3105 13.2637 12.3099 13.2656 12.3099C13.2742 12.3082 13.2781 12.3071 13.2781 12.3071C13.4815 12.2625 13.7127 12.2376 13.9296 12.2376C14.0543 12.2376 14.1742 12.2454 14.2817 12.2635C14.1752 12.246 14.0562 12.2376 13.9324 12.2376C13.8806 12.2376 13.8269 12.2393 13.7732 12.242V13.4967ZM14.7 12.4775C14.6789 12.4345 14.6424 12.3982 14.5945 12.3683C14.6424 12.3982 14.6789 12.4345 14.7 12.4775Z" fill="#F5784D"/>
<path d="M14.8744 13.4967H13.7729V12.242C13.8266 12.2393 13.8803 12.2376 13.9322 12.2376C14.0559 12.2376 14.1749 12.246 14.2814 12.2635C14.408 12.285 14.5165 12.3193 14.5942 12.3683C14.6422 12.3982 14.6786 12.4345 14.6997 12.4775C14.7036 12.4842 14.7074 12.4923 14.7113 12.5C14.7132 12.504 14.7141 12.5077 14.716 12.511C14.718 12.5154 14.7199 12.5195 14.7218 12.5239C14.7237 12.5292 14.7256 12.5332 14.7276 12.5386C14.7295 12.542 14.7304 12.5447 14.7324 12.548C14.7343 12.554 14.7362 12.5601 14.7391 12.5651C14.74 12.5679 14.741 12.5702 14.7419 12.5729C14.7439 12.5799 14.7467 12.5866 14.7496 12.5944C14.7496 12.5944 14.7496 12.5944 14.7496 12.5954C14.812 12.7725 14.8494 13.0117 14.8657 13.2635C14.8705 13.3402 14.8734 13.4184 14.8744 13.4967Z" fill="#F7BAAD"/>
<path d="M24.375 34.2562C22.6106 32.33 20.897 30.3392 19.3551 28.2674C18.5501 27.1827 17.7883 26.0613 17.2337 24.8566C16.7694 23.8374 16.5717 22.8632 16.659 21.763C16.7387 20.7397 16.9766 19.7137 16.9191 18.6861C16.8615 17.7115 16.0267 16.7175 15.3043 16.0614L13.7902 21.548C13.7902 21.548 13.1359 23.9896 16.282 27.9759C19.4252 31.9628 25.7145 38.8633 25.7145 38.8633C25.7145 38.8633 26.4043 39.672 27.5854 39.7657C27.5211 37.6825 25.7845 35.7949 24.375 34.2562Z" fill="#838584"/>
<path d="M24.3752 34.2574C22.6107 32.3311 20.8971 30.3393 19.3562 28.2676C18.5512 27.1839 17.7875 26.0615 17.2338 24.8558C16.7685 23.8376 16.5718 22.864 16.6591 21.7632C16.7397 20.7405 16.9767 19.7139 16.9192 18.6869C16.8616 17.7117 16.0278 16.7177 15.3044 16.0623L15.1988 16.4449C15.5097 16.6978 16.9009 17.742 16.6572 19.6373C16.3655 21.9042 15.7294 22.945 17.3193 25.9026C18.91 28.8636 25.9774 36.6087 25.9774 36.6087C25.9774 36.6087 27.0386 38.1731 27.1711 39.7014C27.3025 39.7305 27.4406 39.7555 27.5874 39.7648C27.5212 37.682 25.7846 35.796 24.3752 34.2574Z" fill="#D9D8D6"/>
<path d="M12.2426 23.6337C12.0872 23.6337 12.1237 23.4163 12.1237 23.4163L14.3228 16.3004C14.3458 16.2232 14.4034 16.0925 14.4839 16.0925C14.506 16.0925 14.53 16.1025 14.5549 16.1261C14.6672 16.2376 14.5549 16.5198 14.5549 16.5198L12.3616 23.6045C12.3127 23.6253 12.2743 23.6337 12.2426 23.6337Z" fill="#EC5E6C"/>
<path d="M15.0405 28.1578C15.0405 28.7057 14.5406 29.1505 13.9275 29.1505C13.3106 29.1505 12.8136 28.7057 12.8136 28.1578C12.8136 27.6092 13.3106 27.1655 13.9275 27.1655C14.5406 27.1655 15.0405 27.6092 15.0405 28.1578Z" fill="#201F1E"/>
<path d="M12.5497 30.3703C12.5497 30.5164 12.4173 30.6343 12.2532 30.6343C12.0901 30.6343 11.9558 30.5164 11.9558 30.3703C11.9558 30.2258 12.0901 30.1068 12.2532 30.1068C12.4173 30.1068 12.5497 30.2258 12.5497 30.3703Z" fill="#201F1E"/>
<path d="M52.4692 23.2734C52.2936 23.2734 52.1506 23.1461 52.1506 22.9885V21.9504C52.1506 21.7949 52.2936 21.6675 52.4692 21.6675C52.6448 21.6675 52.7868 21.7949 52.7868 21.9504V22.9885C52.7868 23.1461 52.6448 23.2734 52.4692 23.2734Z" fill="#C4C3BF"/>
<path d="M47.6048 22.2344C46.7106 22.2344 46.3537 21.6995 46.2903 21.4029L46.2846 21.3502V20.4045C46.2846 20.247 46.4275 20.1206 46.6031 20.1206C46.7787 20.1206 46.9207 20.247 46.9207 20.4045V21.3153C46.9533 21.4106 47.1039 21.7029 47.7113 21.6643L47.7333 21.6632H57.327C57.5026 21.6632 57.6456 21.7906 57.6456 21.9471C57.6456 22.1027 57.5026 22.231 57.327 22.231H47.7449L47.6048 22.2344Z" fill="#C4C3BF"/>
<path d="M56.5334 24.8161C56.3588 24.8161 56.2158 24.688 56.2158 24.5342V21.9515C56.2158 21.7943 56.3588 21.6669 56.5334 21.6669C56.708 21.6669 56.851 21.7943 56.851 21.9515V24.5342C56.851 24.688 56.708 24.8161 56.5334 24.8161Z" fill="#C4C3BF"/>
<path d="M52.2638 25.8705H51.7937C51.4886 25.8705 51.2439 25.6512 51.2439 25.3804C51.2439 25.1137 51.4886 24.8943 51.7937 24.8943H52.2792C52.2667 24.9856 52.2571 25.0811 52.2504 25.1791H52.2514C52.2456 25.2729 52.2427 25.3689 52.2427 25.4637C52.2437 25.6038 52.2504 25.7422 52.2638 25.8705Z" fill="#A81C22"/>
<path d="M53.8403 24.2177C53.8403 24.2177 55.7592 24.5899 55.4071 25.7166C55.2219 26.3056 53.1677 26.8474 52.4884 26.5112C52.1987 26.3701 52.1536 24.9057 52.4184 24.3877C52.5556 24.1169 53.2954 24.0988 53.8403 24.2177Z" fill="#EA402C"/>
<path d="M52.4184 24.3879C52.5153 24.1937 52.9231 24.1325 53.3452 24.1534V26.6034C52.9979 26.6327 52.6832 26.6101 52.4884 26.5114C52.1987 26.3703 52.1536 24.9059 52.4184 24.3879Z" fill="#A4A49B"/>
<path d="M52.2803 24.8944H52.2794C52.3091 24.6914 52.3542 24.5117 52.4185 24.3877C52.3542 24.5127 52.3091 24.6914 52.2803 24.8944ZM52.5921 24.2432C52.6957 24.1963 52.8349 24.1687 52.9894 24.1556C52.8358 24.1687 52.6977 24.1963 52.594 24.2426C52.5931 24.2426 52.5921 24.2426 52.5921 24.2432ZM53.8443 24.2184C53.8414 24.2184 53.8404 24.2178 53.8404 24.2178C53.8404 24.2178 53.8414 24.2184 53.8443 24.2184ZM53.8011 24.21C53.7349 24.1963 53.6658 24.1849 53.5957 24.1754C53.6658 24.1849 53.7349 24.1963 53.8011 24.21ZM53.3971 24.1556C53.3683 24.1539 53.3396 24.1523 53.3108 24.1505C53.3396 24.1523 53.3683 24.1539 53.3971 24.1556ZM53.2282 24.1489C53.2148 24.1479 53.2014 24.1479 53.1879 24.1479C53.2014 24.1479 53.2148 24.1479 53.2282 24.1489Z" fill="#F2503F"/>
<path d="M52.2514 25.1791H52.2504C52.2572 25.0809 52.2668 24.9853 52.2794 24.8938H52.2803C52.2668 24.9853 52.2572 25.0809 52.2514 25.1791Z" fill="#F04231"/>
<path d="M55.3993 25.1791H53.3451V24.1532C53.2942 24.1505 53.2434 24.1495 53.1944 24.1495C52.9603 24.1495 52.7425 24.177 52.5938 24.2426C52.6974 24.1962 52.8356 24.1686 52.9891 24.1555C53.0534 24.1505 53.1196 24.1478 53.1877 24.1478C53.2011 24.1478 53.2145 24.1478 53.228 24.1488C53.2558 24.1488 53.2827 24.1495 53.3105 24.1505C53.3393 24.1522 53.3681 24.1538 53.3969 24.1555C53.4631 24.1599 53.5293 24.167 53.5955 24.1753C53.6655 24.1848 53.7346 24.1962 53.8008 24.21C53.8142 24.2123 53.8267 24.215 53.8402 24.2177C53.8402 24.2177 53.8411 24.2183 53.844 24.2183C53.9246 24.2348 55.1383 24.4918 55.3993 25.1791Z" fill="#F5784D"/>
<path d="M53.3452 25.1791H52.2514C52.2716 24.8644 52.3262 24.5684 52.4183 24.3877C52.449 24.3275 52.5095 24.2795 52.592 24.2432C52.592 24.2426 52.593 24.2426 52.5939 24.2426C52.7426 24.177 52.9605 24.1495 53.1946 24.1495C53.2435 24.1495 53.2943 24.1505 53.3452 24.1532V25.1791Z" fill="#F7BAAD"/>
<path d="M48.1241 33.0334L32.3265 33.369C30.3423 33.369 28.7333 34.8008 28.7333 36.5682C28.7333 38.3363 30.3423 39.768 32.3265 39.768C32.8906 39.768 33.2226 39.7872 34.017 39.6471L47.1109 38.3705C47.1109 38.3705 51.0005 37.968 50.4805 34.1988C50.4805 34.1988 50.1447 32.6981 48.1241 33.0334Z" fill="#626565"/>
<path d="M41.0785 33.49L35.2593 33.6596C34.3565 33.6854 34.9484 34.5532 34.9484 34.5532C34.9484 34.5532 35.6719 35.7242 36.4491 36.9619C36.4529 36.9679 36.6755 37.3223 37.0228 37.2921L40.2648 37.0979C40.2648 37.0979 40.7638 37.0979 40.948 36.599C41.374 35.4546 41.7654 34.3664 41.8144 34.1034C41.9295 33.496 41.0785 33.49 41.0785 33.49Z" fill="#4B4C4C"/>
<path d="M50.0486 34.8928C50.0707 35.1437 49.7003 35.3735 49.2225 35.4072L36.2822 36.2964C35.8034 36.3299 35.3976 36.1519 35.3765 35.9017C35.3535 35.6514 35.7238 35.4216 36.2026 35.388L49.1438 34.4987C49.6216 34.4662 50.0265 34.6425 50.0486 34.8928Z" fill="#4B4C4C"/>
<path d="M34.9723 36.2996C34.9723 37.6161 33.7739 38.6828 32.2954 38.6828C30.8197 38.6828 29.6213 37.6161 29.6213 36.2996C29.6213 34.983 30.8197 33.9165 32.2954 33.9165C33.7739 33.9165 34.9723 34.983 34.9723 36.2996Z" fill="#7E7F80"/>
<path d="M34.7497 36.4981C34.7497 37.7058 33.6502 38.6828 32.2954 38.6828C30.9426 38.6828 29.843 37.7058 29.843 36.4981C29.843 35.2907 30.9426 34.3128 32.2954 34.3128C33.6502 34.3128 34.7497 35.2907 34.7497 36.4981Z" fill="#BBBCBD"/>
<path d="M38.4772 29.1309C38.4772 29.3544 38.2738 29.5361 38.0215 29.5361C37.7692 29.5361 37.5658 29.3544 37.5658 29.1309C37.5658 28.9039 37.7692 28.7231 38.0215 28.7231C38.2738 28.7231 38.4772 28.9039 38.4772 29.1309Z" fill="#2F49A5"/>
<path d="M61.7788 35.1087C61.3662 35.1087 60.6303 34.9885 60.5036 34.1489C60.2993 32.78 60.1793 28.5357 56.2158 24.8945C56.2158 24.8945 59.3024 27.2259 60.2561 30.4133C60.2561 30.4133 60.496 31.1211 60.6811 32.823C60.8663 34.5232 60.9987 34.9978 62.058 35.0892C62.058 35.0892 61.9447 35.1087 61.7788 35.1087Z" fill="#EC5E6C"/>
<path d="M13.5379 16.2936L11.8463 22.6438C11.8463 22.6438 11.737 23.2371 11.3618 23.3534C11.3618 23.3534 11.2294 23.1158 11.3589 22.2894C11.4894 21.463 12.8135 16.8825 12.8135 16.8825C12.8135 16.8825 12.9113 16.3631 13.5379 16.2936Z" fill="#EA402C"/>
<path d="M13.5379 16.2936L11.8463 22.6438C11.8463 22.6438 11.737 23.2371 11.3618 23.3534C11.3618 23.3534 11.2294 23.1158 11.3589 22.2894C11.4894 21.463 12.8135 16.8825 12.8135 16.8825C12.8135 16.8825 12.9113 16.3631 13.5379 16.2936Z" fill="#DC4020"/>
<path d="M12.0105 19.7274C12.0096 19.7274 12.0096 19.7274 12.0086 19.7274C12.2283 18.9352 12.4548 18.1346 12.6121 17.5857C12.4548 18.1346 12.2283 18.9352 12.0105 19.7274ZM12.6246 17.5411C12.6246 17.5404 12.6255 17.5394 12.6255 17.5387C12.6255 17.5394 12.6246 17.5404 12.6246 17.5411ZM12.7982 16.9347C12.7992 16.933 12.7992 16.9313 12.8002 16.9306C12.7992 16.9313 12.7992 16.933 12.7982 16.9347ZM12.8098 16.8961C12.8098 16.8943 12.8107 16.8927 12.8107 16.8917C12.8107 16.8927 12.8098 16.8943 12.8098 16.8961Z" fill="#EA402C"/>
<path d="M12.5958 19.8279C12.5671 19.8229 12.5373 19.8185 12.5075 19.8135L13.3634 16.5152C12.946 17.4441 12.5978 18.6669 12.331 19.7849C12.2245 19.7671 12.1171 19.7479 12.0106 19.7275C12.2284 18.9353 12.4548 18.1347 12.6121 17.5858C12.616 17.5704 12.6208 17.556 12.6246 17.5412C12.6246 17.5405 12.6256 17.5395 12.6256 17.5388C12.7091 17.2446 12.7714 17.0296 12.7983 16.9348C12.7992 16.9331 12.7992 16.9314 12.8002 16.9307C12.804 16.9153 12.8079 16.9039 12.8098 16.8962C12.8098 16.8944 12.8108 16.8928 12.8108 16.8918C12.8127 16.8861 12.8136 16.8824 12.8136 16.8824C12.8136 16.8824 12.9115 16.363 13.538 16.2935L12.5958 19.8279Z" fill="#F57537"/>
<path d="M11.7389 22.7735C11.7389 22.7735 11.95 21.3864 12.3309 19.785C12.3904 19.7944 12.4489 19.8041 12.5075 19.8136L11.7389 22.7735Z" fill="#F57537"/>
<path d="M12.5077 19.8135C12.4492 19.804 12.3906 19.7943 12.3312 19.7849C12.5979 18.6669 12.9462 17.4441 13.3635 16.5152L12.5077 19.8135Z" fill="#F8A254"/>
<path d="M20.2811 2.07331L17.5553 8.2879C17.5553 8.2879 16.8261 9.46877 17.2847 10.1998L17.8384 11.2428C17.8384 11.2428 17.9554 11.3416 18.0734 11.2428C18.0734 11.2428 18.1137 11.1696 18.0599 11.087C18.0081 11.0029 17.4641 9.9871 17.4641 9.9871C17.4641 9.9871 17.3193 9.49191 17.5966 8.83142L20.354 2.48956C20.354 2.48956 20.5364 2.11296 20.2811 2.07331Z" fill="#C4C3BF"/>
<path d="M33.6686 20.5841L33.6705 20.4507C33.6667 20.4299 33.6599 20.4121 33.6513 20.3956L33.8854 20.3886C33.8653 20.4299 33.8624 20.4789 33.8653 20.5384C33.8662 20.5495 33.8662 20.5616 33.8662 20.5736L33.6686 20.5841ZM36.995 20.4084C36.9969 20.3664 37.0017 20.3241 36.9989 20.2881L37.1888 20.2811C37.1888 20.32 37.1888 20.3593 37.1888 20.3983L36.995 20.4084ZM40.5566 20.2203V20.2132L40.5633 20.1719L40.7888 20.1651C40.7792 20.1796 40.7725 20.1951 40.7677 20.2098L40.5566 20.2203Z" fill="#C08C54"/>
<path d="M31.1863 21.0527C31.1863 21.0527 31.3168 20.5041 32.4461 20.4352L33.6512 20.3956C33.6598 20.4121 33.6666 20.4299 33.6704 20.4507L33.6685 20.5841L32.4663 20.6476C32.4663 20.6476 31.7783 20.6701 31.1863 21.0527Z" fill="#CE9A60"/>
<path d="M33.8661 20.5738C33.8661 20.5618 33.8661 20.5497 33.8652 20.5386C33.8623 20.4792 33.8652 20.4301 33.8853 20.3888L36.9987 20.2883C37.0016 20.3243 36.9968 20.3666 36.9949 20.4086L33.8661 20.5738Z" fill="#CE9A60"/>
<path d="M40.7675 20.2101C40.7723 20.1952 40.779 20.1797 40.7886 20.1652L42.9033 20.0961L40.7675 20.2101Z" fill="#CE9A60"/>
<path d="M37.1888 20.3982C37.1888 20.3592 37.1888 20.3199 37.1888 20.281L40.5632 20.1718L40.5565 20.2131V20.2202L37.1888 20.3982Z" fill="#CE9A60"/>
</svg>
