<svg width="345" height="249" viewBox="0 0 345 249" fill="none" xmlns="http://www.w3.org/2000/svg">
<rect y="218.644" width="345" height="0.166322" fill="#EBEBEB"/>
<path fill-rule="evenodd" clip-rule="evenodd" d="M30.3013 188.859H163.53C165.706 188.859 167.47 187.152 167.47 185.046V3.81331C167.47 1.70728 165.706 0 163.53 0H30.3013C28.1417 0.00381228 26.3878 1.68949 26.3687 3.77957V185.046C26.3686 187.149 28.1282 188.855 30.3013 188.859ZM26.5393 3.77957C26.5393 1.76782 28.2227 0.136149 30.3013 0.13321H163.53C165.609 0.136632 167.294 1.76716 167.297 3.77957V185.046C167.294 187.058 165.609 188.689 163.53 188.692H30.3013C28.2227 188.689 26.5393 187.058 26.5393 185.046V3.77957Z" fill="#EBEBEB"/>
<path fill-rule="evenodd" clip-rule="evenodd" d="M179.545 188.859H312.784C314.954 188.852 316.71 187.147 316.71 185.046V3.77957C316.691 1.6919 314.941 0.00721136 312.784 0H179.545C177.384 0.00280921 175.627 1.68794 175.605 3.77957V185.046C175.608 187.151 177.37 188.856 179.545 188.859ZM175.777 3.77957C175.781 1.76716 177.466 0.136632 179.545 0.13321H312.784C314.863 0.136632 316.548 1.76716 316.551 3.77957V185.046C316.548 187.058 314.863 188.689 312.784 188.692H179.545C177.466 188.689 175.781 187.058 175.777 185.046V3.77957Z" fill="#EBEBEB"/>
<rect x="292.491" y="229.388" width="17.94" height="0.166322" fill="#EBEBEB"/>
<rect x="214.59" y="231.205" width="31.0711" height="0.166322" fill="#EBEBEB"/>
<rect x="249.856" y="223.191" width="41.945" height="0.166322" fill="#EBEBEB"/>
<rect x="36.1973" y="224.313" width="13.2687" height="0.166322" fill="#EBEBEB"/>
<rect x="55.6138" y="224.313" width="38.15" height="0.166322" fill="#EBEBEB"/>
<rect x="117.073" y="227.132" width="51.3839" height="0.166322" fill="#EBEBEB"/>
<rect x="266.748" y="215.225" width="5.52" height="98.8708" transform="rotate(180 266.748 215.225)" fill="#F0F0F0"/>
<rect x="265.298" y="218.63" width="30.56" height="3.4128" transform="rotate(180 265.298 218.63)" fill="#F0F0F0"/>
<rect x="233.275" y="116.347" width="27.9588" height="98.8708" fill="#F5F5F5"/>
<rect x="236.256" y="167.836" width="21.9974" height="17.6572" fill="#F0F0F0"/>
<rect x="236.256" y="190.943" width="21.9974" height="17.6572" fill="#F0F0F0"/>
<rect x="250.995" y="177.873" width="7.48632" height="2.42439" rx="1.18" transform="rotate(180 250.995 177.873)" fill="#F5F5F5"/>
<rect x="250.995" y="200.979" width="7.48632" height="2.42439" rx="1.18" transform="rotate(180 250.995 200.979)" fill="#F5F5F5"/>
<rect x="236.256" y="121.803" width="21.9974" height="17.6572" fill="#F0F0F0"/>
<rect x="236.256" y="144.723" width="21.9974" height="17.6572" fill="#F0F0F0"/>
<rect x="250.995" y="131.841" width="7.48632" height="2.42439" rx="1.18" transform="rotate(180 250.995 131.841)" fill="#F5F5F5"/>
<rect x="250.995" y="154.767" width="7.48632" height="2.42439" rx="1.18" transform="rotate(180 250.995 154.767)" fill="#F5F5F5"/>
<rect x="308.389" y="215.225" width="16.56" height="98.8708" transform="rotate(180 308.389 215.225)" fill="#F0F0F0"/>
<rect x="306.684" y="218.63" width="41.3651" height="3.4128" transform="rotate(180 306.684 218.63)" fill="#F0F0F0"/>
<rect x="263.87" y="116.347" width="27.9588" height="98.8708" fill="#F5F5F5"/>
<rect x="266.85" y="167.836" width="21.9974" height="17.6572" fill="#F0F0F0"/>
<rect x="266.85" y="190.943" width="21.9974" height="17.6572" fill="#F0F0F0"/>
<rect x="281.589" y="177.873" width="7.48632" height="2.42439" rx="1.18" transform="rotate(180 281.589 177.873)" fill="#F5F5F5"/>
<rect x="281.589" y="200.979" width="7.48632" height="2.42439" rx="1.18" transform="rotate(180 281.589 200.979)" fill="#F5F5F5"/>
<rect x="266.85" y="121.803" width="21.9974" height="17.6572" fill="#F0F0F0"/>
<rect x="266.85" y="144.723" width="21.9974" height="17.6572" fill="#F0F0F0"/>
<rect x="281.589" y="131.841" width="7.48632" height="2.42439" rx="1.18" transform="rotate(180 281.589 131.841)" fill="#F5F5F5"/>
<rect x="281.589" y="154.767" width="7.48632" height="2.42439" rx="1.18" transform="rotate(180 281.589 154.767)" fill="#F5F5F5"/>
<rect x="294.865" y="95.712" width="92.95" height="78.9766" transform="rotate(180 294.865 95.712)" fill="#E6E6E6"/>
<path d="M191.951 13.6636H300.881C301.392 13.6636 301.806 14.0644 301.806 14.5588C301.802 15.0504 301.389 15.4469 300.881 15.4468H191.951C191.446 15.443 191.038 15.0476 191.034 14.5588C191.034 14.0672 191.443 13.6675 191.951 13.6636Z" fill="#E6E6E6"/>
<rect x="293.029" y="95.712" width="95.0548" height="78.9766" transform="rotate(180 293.029 95.712)" fill="#F0F0F0"/>
<path d="M201.915 95.712H294.863V98.2429H199.196L201.915 95.712Z" fill="#E6E6E6"/>
<path d="M191.399 95.712H286.457L283.739 98.2429H188.68L191.399 95.712Z" fill="#F0F0F0"/>
<rect x="287.502" y="22.078" width="68.2915" height="84.0075" transform="rotate(90 287.502 22.078)" fill="#FAFAFA"/>
<path d="M268.43 90.3694L236.021 22.078H220.724L253.133 90.3694H268.43Z" fill="white"/>
<path d="M249.849 90.3694L217.44 22.078H211.476L243.885 90.3694H249.849Z" fill="white"/>
<rect x="204.191" y="22.078" width="68.2915" height="0.703763" transform="rotate(90 204.191 22.078)" fill="#E6E6E6"/>
<g opacity="0.4">
<rect x="296.935" y="77.2333" width="9.50126" height="65.1726" transform="rotate(180 296.935 77.2333)" fill="#F0F0F0"/>
<rect x="291.139" y="77.2333" width="7.40374" height="65.1726" transform="rotate(180 291.139 77.2333)" fill="#E6E6E6"/>
<rect x="287.441" y="77.2333" width="9.50126" height="65.1726" transform="rotate(180 287.441 77.2333)" fill="#F0F0F0"/>
<rect x="281.637" y="77.2333" width="7.40374" height="65.1726" transform="rotate(180 281.637 77.2333)" fill="#E6E6E6"/>
<rect x="277.932" y="77.2333" width="9.50126" height="65.1726" transform="rotate(180 277.932 77.2333)" fill="#F0F0F0"/>
</g>
<g opacity="0.4">
<rect x="212.506" y="77.2333" width="5.47871" height="65.1726" transform="rotate(180 212.506 77.2333)" fill="#F0F0F0"/>
<rect x="209.159" y="77.2333" width="4.26387" height="65.1726" transform="rotate(180 209.159 77.2333)" fill="#E6E6E6"/>
<rect x="207.027" y="77.2333" width="5.47871" height="65.1726" transform="rotate(180 207.027 77.2333)" fill="#F0F0F0"/>
<rect x="203.688" y="77.2333" width="4.26387" height="65.1726" transform="rotate(180 203.688 77.2333)" fill="#E6E6E6"/>
<rect x="201.549" y="77.2333" width="5.47871" height="65.1726" transform="rotate(180 201.549 77.2333)" fill="#F0F0F0"/>
</g>
<path d="M113.311 64.5785H126.463L124.91 32.2959H113.311V64.5785Z" fill="#F5F5F5"/>
<path d="M133.897 66.3209L136.733 80.6585H133.897L116.5 66.3209H133.897Z" fill="#F5F5F5"/>
<path d="M136.73 66.3209V80.6585L119.335 66.3209H136.73Z" fill="#E6E6E6"/>
<path d="M65.6738 66.3209L68.5099 80.6585H65.6738L48.2788 66.3209H65.6738Z" fill="#F5F5F5"/>
<path d="M68.5102 66.3209V80.6585L51.1152 66.3209H68.5102Z" fill="#E6E6E6"/>
<rect x="130.583" y="64.6247" width="18.9199" height="2.07006" fill="#E6E6E6"/>
<rect x="130.583" y="66.6947" width="94.0611" height="2.07006" transform="rotate(180 130.583 66.6947)" fill="#F5F5F5"/>
<path d="M93.9849 64.5776H122.22L125.711 25.457H97.4762L93.9849 64.5776Z" fill="#E6E6E6"/>
<path d="M92.5225 64.5776H120.757L124.249 25.457H96.0183L92.5225 64.5776Z" fill="#F0F0F0"/>
<path d="M118.39 60.2448L121.585 29.7845H98.3873L95.1924 60.2448H118.39Z" fill="white"/>
<path d="M81.3438 64.5776H90.4037L89.3356 42.346H81.3438V64.5776Z" fill="#E0E0E0"/>
<path d="M68.0413 64.5821H87.4787L89.8864 37.642H70.4425L68.0413 64.5821Z" fill="#F0F0F0"/>
<path d="M67.0337 64.5821H86.4776L88.8788 37.642H69.4349L67.0337 64.5821Z" fill="#F5F5F5"/>
<path d="M84.8426 61.5929L87.0364 40.6232H71.071L68.8689 61.5929H84.8426Z" fill="#E0E0E0"/>
<path d="M181.028 121.169C181.179 122.966 179.999 124.616 178.208 125.111C176.416 125.606 174.513 124.808 173.662 123.204C172.811 121.601 173.248 119.638 174.707 118.517C176.166 117.396 178.24 117.428 179.661 118.594C180.451 119.243 180.942 120.169 181.028 121.169Z" fill="#E0E0E0"/>
<path d="M188.294 123.146C188.424 124.673 187.59 126.125 186.182 126.825C184.775 127.525 183.07 127.335 181.863 126.344C180.656 125.352 180.185 123.755 180.67 122.297C181.155 120.838 182.5 119.806 184.078 119.682C186.23 119.513 188.117 121.063 188.294 123.146Z" fill="#E0E0E0"/>
<path d="M193.545 120.875C193.675 122.402 192.842 123.854 191.434 124.554C190.026 125.254 188.321 125.064 187.114 124.073C185.908 123.082 185.437 121.484 185.922 120.026C186.407 118.568 187.751 117.536 189.329 117.412C191.481 117.242 193.368 118.792 193.545 120.875Z" fill="#E0E0E0"/>
<path d="M199.086 122.291C199.234 124.087 198.051 125.736 196.259 126.227C194.467 126.719 192.566 125.918 191.717 124.313C190.869 122.709 191.309 120.748 192.769 119.628C194.229 118.509 196.302 118.544 197.722 119.711C198.513 120.361 199.004 121.289 199.086 122.291Z" fill="#E0E0E0"/>
<path d="M204.061 122.878C204.061 122.878 203.602 133.39 186.162 133.39C168.722 133.39 168.222 122.878 168.222 122.878H204.061Z" fill="#F0F0F0"/>
<rect x="47.6587" y="218.644" width="6.34121" height="85.2338" transform="rotate(180 47.6587 218.644)" fill="#E6E6E6"/>
<rect x="43.3599" y="218.644" width="3.73261" height="85.2338" transform="rotate(180 43.3599 218.644)" fill="#F0F0F0"/>
<rect x="38.4673" y="133.41" width="90.0175" height="6.39134" fill="#F0F0F0"/>
<rect x="220.075" y="218.644" width="6.34121" height="85.2338" transform="rotate(180 220.075 218.644)" fill="#E6E6E6"/>
<rect x="216.28" y="218.644" width="3.73261" height="85.2338" transform="rotate(180 216.28 218.644)" fill="#F0F0F0"/>
<rect x="131.19" y="133.41" width="90.0175" height="6.39134" fill="#E6E6E6"/>
<rect x="135.357" y="218.644" width="6.34121" height="85.2338" transform="rotate(180 135.357 218.644)" fill="#E6E6E6"/>
<rect x="131.059" y="218.644" width="3.73261" height="85.2338" transform="rotate(180 131.059 218.644)" fill="#F0F0F0"/>
<path d="M149.827 105.061H102.83L94.4541 131.921H141.457L149.827 105.061Z" fill="#E6E6E6"/>
<path d="M141.456 131.921L141.273 133.41H94.2676L94.4511 131.921H141.456Z" fill="#E6E6E6"/>
<path d="M148.385 105.061H101.382L93.0122 131.921H140.008L148.385 105.061Z" fill="#F0F0F0"/>
<path d="M139.09 130.699L146.694 106.29H102.306L94.6951 130.699H139.09Z" fill="white"/>
<path d="M127.769 131.921L127.576 133.41H75.8174L76.0009 131.921H127.769Z" fill="#F0F0F0"/>
<ellipse cx="172.5" cy="241.243" rx="133.784" ry="7.56002" fill="#F5F5F5"/>
<path d="M260.51 36.1625H181.098C175.454 36.2527 170.806 40.4799 170.362 45.9258L158.01 229.95C157.807 232.483 158.713 234.982 160.507 236.838C162.301 238.693 164.817 239.734 167.443 239.707H246.883C252.525 239.62 257.174 235.394 257.618 229.95L266.474 97.6817C267.241 97.4209 267.78 96.7493 267.85 95.9651L269.438 72.2975C269.495 71.542 269.028 70.8414 268.293 70.5809L269.944 45.9249C270.149 43.3903 269.243 40.8893 267.449 39.0326C265.655 37.1758 263.137 36.1344 260.51 36.1625Z" fill="#FAAD44"/>
<path d="M163.93 83.8112H165.49C166.49 83.7938 167.314 83.0459 167.395 82.0812L168.085 72.1972C168.12 71.7476 167.958 71.3044 167.64 70.9755C167.321 70.6466 166.874 70.4622 166.409 70.4672H164.856C163.855 70.4813 163.029 71.2309 162.951 72.1972L162.261 82.0812C162.226 82.5297 162.387 82.9719 162.704 83.3006C163.022 83.6293 163.467 83.8144 163.931 83.8112H163.93Z" fill="#FFA247"/>
<path d="M162.75 101.455H164.303C165.306 101.438 166.133 100.687 166.214 99.7189L166.904 89.8419C166.939 89.3923 166.778 88.9491 166.459 88.6203C166.14 88.2914 165.694 88.107 165.228 88.112H163.675C162.673 88.1262 161.846 88.8749 161.764 89.8419L161.074 99.7189C161.034 100.17 161.193 100.617 161.513 100.948C161.832 101.279 162.282 101.464 162.75 101.455Z" fill="#FFA247"/>
<path d="M242.659 239.707H163.248C160.622 239.734 158.106 238.693 156.312 236.838C154.518 234.982 153.612 232.483 153.815 229.95L166.139 45.9258C166.586 40.4785 171.237 36.252 176.882 36.1625H256.287C258.914 36.1349 261.431 37.1767 263.225 39.0335C265.019 40.8904 265.924 43.3914 265.72 45.9258L253.396 229.95C252.952 235.394 248.303 239.62 242.661 239.707H242.659Z" fill="#263238"/>
<ellipse opacity="0.2" rx="6.90164" ry="6.46056" transform="matrix(0.729284 -0.684211 0.707657 0.706556 203.782 227.306)" fill="white"/>
<path d="M249.835 215.819H159.563C158.942 215.818 158.349 215.568 157.924 215.13C157.5 214.691 157.282 214.102 157.322 213.502L167.886 55.6829C167.983 54.5528 168.957 53.6825 170.128 53.6794H260.408C261.029 53.6801 261.623 53.9295 262.047 54.3683C262.472 54.8071 262.691 55.3963 262.651 55.9964L252.078 213.782C252.001 214.926 251.021 215.817 249.835 215.819Z" fill="white"/>
<ellipse opacity="0.2" rx="25.0537" ry="23.4535" transform="matrix(0.729284 -0.684211 0.707657 0.706556 208.06 137.009)" fill="#7F47FA"/>
<path opacity="0.2" fill-rule="evenodd" clip-rule="evenodd" d="M170.081 137.023C168.722 157.304 184.668 173.806 205.623 173.806C226.554 173.806 244.728 157.304 246.087 137.023C247.446 116.741 231.502 100.239 210.545 100.239C189.587 100.239 171.439 116.741 170.081 137.023ZM170.723 137.023C172.054 117.109 189.876 100.908 210.451 100.907C231.054 100.908 246.692 117.109 245.354 137.023C244.015 156.936 226.196 173.138 205.616 173.138C185.037 173.138 169.391 156.936 170.723 137.023ZM210.451 100.907C210.452 100.907 210.452 100.907 210.453 100.907H210.449C210.45 100.907 210.45 100.907 210.451 100.907Z" fill="#7F47FA"/>
<path d="M202.169 148.582L200.099 144.716C195.614 136.294 185.285 128.768 181.677 126.578L185.085 121.643C189.357 124.235 197.892 130.653 203.247 138.278C213.148 126.925 227.142 115.231 245.875 102.617L249.07 107.291C229.06 120.768 214.662 133.089 205.083 144.963L202.169 148.582Z" fill="url(#paint0_linear_0_4517)"/>
<ellipse opacity="0.2" rx="2.79227" ry="2.61978" transform="matrix(0.729284 -0.684211 0.707657 0.706556 199.339 44.8122)" fill="white"/>
<path opacity="0.2" d="M209.009 42.1525H231.841C232.559 42.1437 233.247 42.4288 233.737 42.9375C234.226 43.4462 234.471 44.1312 234.41 44.8237C234.293 46.3111 233.026 47.4682 231.485 47.495H208.656C207.94 47.4996 207.254 47.2133 206.766 46.7055C206.277 46.1978 206.031 45.5152 206.087 44.8237C206.204 43.3377 207.469 42.1811 209.009 42.1525Z" fill="white"/>
<path d="M124.02 91.4901C122.854 92.6446 121.605 93.9207 120.453 95.1898C119.3 96.4588 118.148 97.7651 117.065 99.0972C115.983 100.429 114.995 101.768 113.974 103.178L113.284 104.227L112.594 105.292C112.366 105.648 112.159 106.003 111.959 106.374L111.409 107.355C111.183 107.917 111.055 108.51 111.029 109.112C110.973 109.886 110.973 110.662 111.029 111.436C111.164 113.105 111.394 114.765 111.719 116.409C112.022 118.096 112.409 119.784 112.82 121.465C113.231 123.146 113.675 124.851 114.131 126.507L111.578 127.435C110.01 124.169 108.695 120.794 107.646 117.338C107.113 115.557 106.705 113.743 106.424 111.908C106.285 110.93 106.213 109.944 106.211 108.956C106.194 107.793 106.398 106.636 106.811 105.544C106.969 105.17 107.052 105.022 107.162 104.796L107.48 104.162C107.682 103.732 107.913 103.315 108.17 102.913L108.86 101.684L109.594 100.489C110.568 98.9141 111.63 97.3915 112.775 95.9277C113.906 94.4651 115.08 93.0425 116.315 91.6651C117.55 90.2877 118.799 88.9938 120.234 87.6582L124.02 91.4901Z" fill="#B55B52"/>
<path d="M124.318 83.4808C120.578 83.6406 117.024 89.651 117.024 89.651L121.964 99.408C121.964 99.408 128.657 94.0122 128.74 88.723C128.795 85.2569 127.995 83.3103 124.318 83.4808Z" fill="#7F47FA"/>
<path d="M124.318 83.4808C120.578 83.6406 117.024 89.651 117.024 89.651L121.964 99.408C121.964 99.408 128.657 94.0122 128.74 88.723C128.795 85.2569 127.995 83.3103 124.318 83.4808Z" fill="url(#paint1_linear_0_4517)"/>
<path opacity="0.2" d="M125.208 90.4893C124.117 92.0878 123.593 96.2261 123.427 98.0688C125.074 96.5194 126.469 94.7387 127.567 92.7867C126.829 91.0035 125.923 89.4414 125.208 90.4893Z" fill="black"/>
<path d="M113.387 125.489L117.935 126.821L114.907 129.787C114.907 129.787 111.629 128.805 111.174 126.648L113.387 125.489Z" fill="#B55B52"/>
<path d="M120.689 130.184L119.923 133.026L114.906 129.767L117.934 126.802L120.689 130.184Z" fill="#B55B52"/>
<path d="M150.606 71.8899C150.461 72.2841 150.565 72.6847 150.834 72.7779C151.103 72.8712 151.434 72.6376 151.568 72.2451C151.702 71.8526 151.609 71.4458 151.34 71.3499C151.072 71.254 150.748 71.4893 150.606 71.8899Z" fill="#263238"/>
<path d="M151.22 71.3295L152.304 71.4183C152.304 71.4183 151.532 71.9707 151.22 71.3295Z" fill="#263238"/>
<path d="M150.813 72.3978C150.853 73.4367 151.038 74.4655 151.363 75.4563C150.83 75.5915 150.263 75.4941 149.811 75.1899L150.813 72.3978Z" fill="#A02724"/>
<path d="M151.945 70.3482C151.845 70.3352 151.763 70.265 151.738 70.1706C151.584 69.5588 151.149 69.0491 150.558 68.7879C150.427 68.7408 150.36 68.6014 150.406 68.4744C150.428 68.4127 150.475 68.3623 150.536 68.3347C150.597 68.307 150.667 68.3046 150.73 68.3279C151.492 68.6483 152.05 69.3006 152.234 70.0844C152.269 70.2164 152.187 70.3506 152.05 70.3846L151.945 70.3482Z" fill="#263238"/>
<path d="M136.434 73.5665C136.53 76.7253 136.199 82.408 133.674 84.018C133.674 84.018 134.011 87.2639 139.884 88.3695C146.335 89.5782 143.493 85.8652 143.493 85.8652C140.111 84.3964 140.629 81.8983 141.644 79.6541L136.434 73.5665Z" fill="#B55B52"/>
<path d="M155.609 95.1836C156.189 96.7128 156.851 98.369 157.555 99.9382C158.259 101.507 158.931 103.097 159.757 104.613C160.583 106.129 161.378 107.652 162.248 109.128C162.697 109.856 163.146 110.583 163.625 111.278C163.859 111.638 164.101 111.988 164.359 112.313L164.731 112.821L164.915 113.081L165.011 113.208L165.073 113.275C165.522 113.769 166.037 114.202 166.605 114.564C167.289 115.016 167.998 115.431 168.73 115.807C170.241 116.595 171.862 117.309 173.511 117.984C175.16 118.659 176.844 119.316 178.549 119.901C180.253 120.485 181.999 121.096 183.675 121.664L183.033 124.239C179.335 123.642 175.682 122.812 172.096 121.752C170.261 121.211 168.459 120.566 166.7 119.823C165.778 119.428 164.88 118.983 164.009 118.491C162.999 117.933 162.085 117.228 161.298 116.4L161.132 116.223L161.015 116.082L160.787 115.809L160.329 115.247C160.019 114.88 159.721 114.506 159.445 114.126C158.859 113.371 158.32 112.597 157.793 111.817C156.746 110.267 155.782 108.666 154.902 107.021C154.026 105.386 153.198 103.736 152.439 102.053C151.679 100.37 150.996 98.7136 150.369 96.87L155.609 95.1836Z" fill="#B55B52"/>
<path d="M182.767 121.65L186.839 120.127L186.639 124.674C186.639 124.674 183.34 125.522 181.809 123.913L182.767 121.65Z" fill="#B55B52"/>
<path d="M189.909 121.69L191.303 124.595L186.638 124.675L186.838 120.127L189.909 121.69Z" fill="#B55B52"/>
<path d="M122.393 235.666L127.781 236.053L129.384 224.083L123.996 223.696L122.393 235.666Z" fill="#B55B52"/>
<path d="M79.709 208.579L83.2278 212.626L93.6741 206.128L90.1553 202.081L79.709 208.579Z" fill="#B55B52"/>
<path d="M84.8701 212.105L82.0339 206.829C81.9406 206.639 81.7148 206.547 81.5091 206.615L77.003 208.125C76.7741 208.214 76.5955 208.393 76.5124 208.618C76.4293 208.843 76.4495 209.091 76.568 209.301C77.5893 211.124 78.1756 211.972 79.418 214.274C80.1905 215.695 81.1613 217.86 82.2192 219.83C83.2772 221.801 85.2894 220.925 85.0279 220.008C83.8415 215.927 84.6278 214.798 85.0279 213.029C85.0841 212.713 85.0285 212.387 84.8701 212.105Z" fill="#263238"/>
<path d="M128.12 235.313H122.064C121.848 235.31 121.663 235.461 121.629 235.668L120.815 240.303C120.781 240.536 120.854 240.773 121.014 240.951C121.174 241.129 121.406 241.231 121.65 241.231C123.769 241.197 124.783 241.077 127.447 241.077C129.089 241.077 132.47 241.244 134.733 241.244C136.996 241.244 137.175 239.081 136.237 238.88C132.034 238.005 130.407 236.789 129.013 235.634C128.766 235.424 128.448 235.309 128.12 235.313Z" fill="#263238"/>
<path opacity="0.2" d="M129.383 224.08L128.493 230.741L123.124 230.22L123.994 223.701L129.383 224.08Z" fill="black"/>
<path opacity="0.2" d="M90.1552 202.081L93.674 206.128L89.3478 208.82L85.6978 204.853L90.1552 202.081Z" fill="black"/>
<path d="M122.82 115.232L144.431 119.286C154.644 90.1891 152.201 89.2345 152.201 89.2345C150.614 88.4041 148.975 87.668 147.295 87.0303L146.999 86.9238C145.622 86.4362 145.329 86.3625 143.48 85.8421C140.292 85.1139 137.332 84.51 133.669 84.0056L132.979 83.9124C132.289 83.8324 131.654 83.7658 131.019 83.7054C130.591 83.6584 130.163 83.6317 129.756 83.6051L128.38 83.5314C126.02 83.4177 124.33 83.4515 124.33 83.4515C125.511 101.622 124.608 106.851 122.82 115.232Z" fill="#7F47FA"/>
<path d="M122.82 115.232L144.431 119.286C154.644 90.1891 152.201 89.2345 152.201 89.2345C150.614 88.4041 148.975 87.668 147.295 87.0303L146.999 86.9238C145.622 86.4362 145.329 86.3625 143.48 85.8421C140.292 85.1139 137.332 84.51 133.669 84.0056L132.979 83.9124C132.289 83.8324 131.654 83.7658 131.019 83.7054C130.591 83.6584 130.163 83.6317 129.756 83.6051L128.38 83.5314C126.02 83.4177 124.33 83.4515 124.33 83.4515C125.511 101.622 124.608 106.851 122.82 115.232Z" fill="url(#paint2_linear_0_4517)"/>
<path opacity="0.2" d="M149.095 96.0254L147.143 95.7182C147.347 98.9483 147.997 102.137 149.075 105.201C149.882 102.53 150.51 100.333 150.986 98.4827L149.095 96.0254Z" fill="black"/>
<path d="M151.448 88.8801C154.643 89.8686 156.968 95.9846 157.838 98.6239L151.628 105.683C151.628 105.683 145.266 96.8345 146.28 94.0895C147.274 91.2308 149.903 88.3926 151.448 88.8801Z" fill="#7F47FA"/>
<path d="M151.448 88.8801C154.643 89.8686 156.968 95.9846 157.838 98.6239L151.628 105.683C151.628 105.683 145.266 96.8345 146.28 94.0895C147.274 91.2308 149.903 88.3926 151.448 88.8801Z" fill="url(#paint3_linear_0_4517)"/>
<path d="M153.519 66.2942C152.877 68.1174 150.069 68.8456 147.274 67.93C144.479 67.0144 142.713 64.7783 143.355 62.9569C143.997 61.1355 146.805 60.4055 149.565 61.3273C152.325 62.2491 154.153 64.4711 153.519 66.2942Z" fill="#263238"/>
<path d="M137.31 65.7934C135.875 70.762 135.157 72.8321 136.8 76.2511C139.27 81.4018 145.884 82.2082 148.82 77.7937C151.462 73.8267 153.367 66.3671 149.144 62.6346C147.331 60.937 144.725 60.2935 142.293 60.9425C139.862 61.5915 137.965 63.4363 137.307 65.7934H137.31Z" fill="#B55B52"/>
<path d="M145.328 59.9899C143.258 61.1382 138.863 53.9458 133.404 59.9899C129.499 64.3236 131.989 70.675 131.989 70.675C131.989 70.675 128.877 65.3795 126.392 67.9638C123.149 71.3028 126.502 83.2499 137.197 82.4284C147.892 81.607 146.859 73.2033 146.859 73.2033C146.859 73.2033 151.869 68.2746 151.62 63.8538C151.434 60.5441 148.778 58.1001 145.328 59.9899Z" fill="#263238"/>
<path d="M146.625 70.0605C146.358 70.985 146.392 71.9667 146.721 72.8721C147.163 74.1473 148.177 74.1544 148.715 73.2726C149.39 72.2256 149.416 70.9046 148.784 69.8331C148.019 68.8048 146.97 69.0383 146.625 70.0605Z" fill="#B55B52"/>
<path d="M138.69 118.206C138.69 118.206 136.385 125.94 133.425 136.145C131.459 142.943 129.195 150.837 127.132 158.27C125.953 162.524 124.839 166.625 123.883 170.291C118.459 191.027 91.4112 208.85 91.4112 208.85L86.1738 203.274C86.1738 203.274 104.349 188.462 109.634 169.115C120.308 129.841 114.305 123.216 122.813 115.236L138.69 118.206Z" fill="#263238"/>
<path opacity="0.2" d="M136.358 125.136C135.557 128.134 134.55 131.921 133.439 136.155C131.472 142.953 129.209 150.847 127.146 158.28C126.263 148.797 125.77 131.36 132.976 125.938C134.401 124.882 135.523 124.662 136.358 125.136Z" fill="black"/>
<path d="M91.8601 209.648L85.3188 202.683L87.2989 200.759L95.3238 208.079L91.8601 209.648Z" fill="#7F47FA"/>
<path opacity="0.7" d="M91.8601 209.648L85.3188 202.683L87.2989 200.759L95.3238 208.079L91.8601 209.648Z" fill="white"/>
<path fill-rule="evenodd" clip-rule="evenodd" d="M85.6626 214.902C85.7249 214.923 85.7902 214.935 85.8562 214.936C86.0325 214.943 86.2059 214.891 86.3471 214.789C86.4778 214.708 86.5521 214.564 86.5407 214.415C86.504 213.737 84.8074 212.778 84.6138 212.672C84.5727 212.643 84.5172 212.643 84.4762 212.672C84.4344 212.7 84.4151 212.751 84.4275 212.799C84.6138 213.487 85.0203 214.675 85.6626 214.902ZM85.749 214.663C85.3975 214.543 85.0379 213.934 84.7552 213.033L84.7598 213.034C85.4287 213.441 86.2499 214.069 86.2821 214.414C86.2866 214.454 86.2821 214.513 86.1903 214.574C86.0685 214.674 85.9021 214.708 85.749 214.663Z" fill="#7F47FA"/>
<path d="M144.086 119.285C144.086 119.285 145.462 160.57 142.416 176.121C139.284 192.329 129.72 229.059 129.72 229.059L121.95 228.091C121.95 228.091 126.863 190.92 128.954 174.853C131.224 157.33 128.264 116.292 128.264 116.292L144.086 119.285Z" fill="#263238"/>
<path d="M131.39 229.522L120.315 228.139L120.446 225.587L132.5 226.095L131.39 229.522Z" fill="#7F47FA"/>
<path opacity="0.7" d="M131.39 229.522L120.315 228.139L120.446 225.587L132.5 226.095L131.39 229.522Z" fill="white"/>
<path fill-rule="evenodd" clip-rule="evenodd" d="M84.4838 212.875C84.9868 213.141 85.546 213.293 86.1189 213.319C86.3975 213.354 86.6802 213.301 86.9254 213.168C87.0858 213.037 87.1341 212.818 87.0428 212.635C86.9731 212.449 86.8215 212.302 86.629 212.235C85.9998 212.008 84.995 212.446 84.6279 212.606C84.5502 212.64 84.5011 212.662 84.4902 212.662C84.4526 212.686 84.4276 212.725 84.4214 212.768C84.4219 212.812 84.4455 212.852 84.4838 212.875ZM86.7675 212.972C86.1186 213.139 85.4286 213.071 84.8287 212.778V212.777C85.3416 212.51 85.9264 212.401 86.5051 212.464C86.6291 212.504 86.7264 212.598 86.7675 212.718C86.8639 212.871 86.8162 212.932 86.7675 212.972Z" fill="#7F47FA"/>
<path fill-rule="evenodd" clip-rule="evenodd" d="M128.431 236.034C128.987 236.146 129.553 236.209 130.121 236.221C130.583 236.259 131.045 236.146 131.432 235.9C131.614 235.755 131.708 235.532 131.681 235.305C131.679 235.166 131.6 235.039 131.474 234.972C130.825 234.617 128.645 235.679 128.396 235.806C128.347 235.829 128.319 235.881 128.327 235.933C128.333 235.986 128.376 236.028 128.431 236.034ZM131.266 235.72C130.507 236.044 129.653 236.093 128.859 235.86V235.86C129.755 235.446 130.997 234.998 131.349 235.186C131.399 235.212 131.429 235.265 131.425 235.32C131.443 235.47 131.384 235.62 131.266 235.72Z" fill="#7F47FA"/>
<path fill-rule="evenodd" clip-rule="evenodd" d="M128.381 236.04C128.406 236.046 128.433 236.046 128.458 236.04L128.506 236.051C129.161 235.77 130.465 234.635 130.369 234.047C130.349 233.907 130.245 233.74 129.9 233.706C128.595 233.576 128.326 235.833 128.326 235.926C128.323 235.971 128.344 236.014 128.381 236.04ZM128.616 235.693C128.713 235.158 129.024 233.923 129.796 233.923L129.871 233.93C130.12 233.949 130.12 234.063 130.12 234.063C130.176 234.417 129.306 235.305 128.616 235.693Z" fill="#7F47FA"/>
<path d="M122.682 113.956L121.392 115.633C121.296 115.766 121.447 115.946 121.696 115.993L144.36 120.241C144.553 120.241 144.732 120.241 144.76 120.101L145.277 118.271C145.255 118.106 145.117 117.979 144.946 117.964L123.061 113.867C122.927 113.832 122.783 113.867 122.682 113.961L122.682 113.956Z" fill="url(#paint4_linear_0_4517)"/>
<path d="M125.221 116.868L124.635 116.754C124.518 116.754 124.441 116.661 124.462 116.595L125.152 114.223C125.152 114.157 125.29 114.117 125.401 114.135L125.987 114.248C126.105 114.248 126.187 114.342 126.171 114.408L125.481 116.779C125.449 116.868 125.339 116.868 125.221 116.868Z" fill="#263238"/>
<path d="M140.022 119.666L139.435 119.56C139.318 119.56 139.242 119.459 139.263 119.393L139.953 117.029C139.953 116.955 140.084 116.915 140.201 116.94L140.788 117.047C140.898 117.047 140.981 117.147 140.96 117.214L140.27 119.578C140.245 119.653 140.139 119.693 140.022 119.666Z" fill="#263238"/>
<defs>
<linearGradient id="paint0_linear_0_4517" x1="181.677" y1="102.617" x2="181.677" y2="148.582" gradientUnits="userSpaceOnUse">
<stop stop-color="#FE6587"/>
<stop offset="1" stop-color="#F52D6A"/>
</linearGradient>
<linearGradient id="paint1_linear_0_4517" x1="117.024" y1="83.4704" x2="117.024" y2="99.408" gradientUnits="userSpaceOnUse">
<stop stop-color="#FE6587"/>
<stop offset="1" stop-color="#F52D6A"/>
</linearGradient>
<linearGradient id="paint2_linear_0_4517" x1="122.82" y1="83.4468" x2="122.82" y2="119.286" gradientUnits="userSpaceOnUse">
<stop stop-color="#FE6587"/>
<stop offset="1" stop-color="#F52D6A"/>
</linearGradient>
<linearGradient id="paint3_linear_0_4517" x1="146.171" y1="88.8252" x2="146.171" y2="105.683" gradientUnits="userSpaceOnUse">
<stop stop-color="#FE6587"/>
<stop offset="1" stop-color="#F52D6A"/>
</linearGradient>
<linearGradient id="paint4_linear_0_4517" x1="121.363" y1="113.854" x2="121.363" y2="120.241" gradientUnits="userSpaceOnUse">
<stop stop-color="#FE6587"/>
<stop offset="1" stop-color="#F52D6A"/>
</linearGradient>
</defs>
</svg>
