<svg width="16" height="16" viewBox="0 0 16 16" fill="none" xmlns="http://www.w3.org/2000/svg">
<path fill-rule="evenodd" clip-rule="evenodd" d="M7.9999 0C3.58168 0 0 3.58168 0 7.9999C0 12.4181 3.58168 15.9998 7.9999 15.9998C12.4181 15.9998 15.9998 12.4181 15.9998 7.9999C15.9865 3.58719 12.4126 0.013294 7.9999 0ZM7.9999 1.99997C11.3136 1.99997 13.9998 4.68623 13.9998 7.9999C13.9998 11.3136 11.3136 13.9998 7.9999 13.9998C4.68623 13.9998 1.99997 11.3136 1.99997 7.9999C1.99802 6.40802 2.62952 4.88078 3.75515 3.75515C4.88078 2.62952 6.40802 1.99802 7.9999 1.99997ZM6.99991 8.44094V3.99995L7.00412 4.03995H9.00409V7.66095L9.68409 8.34095L10.4409 9.02094L8.99567 10.4609L8.31568 9.70093L7.3157 8.70094L6.99991 8.44094Z" fill="#B4C2CD"/>
</svg>
