<svg width="61" height="38" viewBox="0 0 61 38" fill="none" xmlns="http://www.w3.org/2000/svg">
<path fill-rule="evenodd" clip-rule="evenodd" d="M50.2426 8.90076C51.9487 11.0979 52.3213 13.8961 51.2388 16.3829C57.3754 17.4888 61.5671 22.5204 60.9375 28.0253C60.308 33.5302 55.0619 37.7196 48.7989 37.7187H13.7287C7.03922 37.7185 1.32392 33.4587 0.197357 27.6334C-0.929204 21.8081 2.86102 16.1136 9.17092 14.1514C9.16079 13.9241 9.15167 13.6968 9.15167 13.4696C9.15383 7.36917 13.7957 2.03132 20.4672 0.457367C27.1387 -1.11659 34.1748 1.46617 37.6193 6.75342C39.1213 5.86171 40.89 5.38572 42.6996 5.38621C45.7156 5.38927 48.5365 6.70366 50.2426 8.90076ZM31.2628 21.5529H37.4957H37.4967C38.1154 21.5568 38.6749 21.229 38.9115 20.7239C39.148 20.2189 39.0143 19.6376 38.5734 19.2542L28.5281 10.3799C27.9316 9.85779 26.9703 9.85779 26.3738 10.3799L16.3286 19.2542C15.8877 19.6376 15.7539 20.2189 15.9905 20.7239C16.227 21.229 16.7866 21.5568 17.4052 21.5529H23.6372V30.9829C23.6394 31.7263 24.321 32.3284 25.1625 32.3304H29.7374C30.5789 32.3284 31.2605 31.7263 31.2628 30.9829V21.5529Z" fill="#B4C2CD"/>
</svg>
