<svg width="129" height="112" viewBox="0 0 129 112" fill="none" xmlns="http://www.w3.org/2000/svg">
<rect y="98.5769" width="129" height="0.1" fill="#EBEBEB"/>
<rect x="106.022" y="103.151" width="9.14512" height="0.1" fill="#EBEBEB"/>
<rect x="83.1091" y="103.924" width="2.39956" height="0.1" fill="#EBEBEB"/>
<rect x="102.034" y="100.513" width="5.29841" height="0.1" fill="#EBEBEB"/>
<rect x="14.4846" y="100.991" width="11.9254" height="0.1" fill="#EBEBEB"/>
<rect x="26.952" y="100.991" width="1.74752" height="0.1" fill="#EBEBEB"/>
<rect x="33.3704" y="102.19" width="25.8662" height="0.1" fill="#EBEBEB"/>
<path fill-rule="evenodd" clip-rule="evenodd" d="M12.1237 80.3971H65.4384C65.8567 80.3971 66.2579 80.226 66.5536 79.9213C66.8493 79.6166 67.0152 79.2035 67.0149 78.7728V1.6232C67.0149 0.726732 66.3091 0 65.4384 0H12.1237C11.2595 0.00157507 10.5575 0.719295 10.55 1.60912V78.7739C10.55 79.6693 11.2541 80.3955 12.1237 80.3971ZM10.619 1.61088C10.619 0.754769 11.2922 0.0603024 12.1237 0.058684L65.4384 0.0569235C66.2704 0.0585382 66.9444 0.752534 66.946 1.60912V78.7745C66.9444 79.6311 66.2704 80.3251 65.4384 80.3267H12.1237C11.2922 80.3251 10.619 79.6306 10.619 78.7745V1.61088Z" fill="#EBEBEB"/>
<path fill-rule="evenodd" clip-rule="evenodd" d="M62.791 80.3971H116.109C116.977 80.3939 117.68 79.6674 117.679 78.7728V1.60912C117.672 0.720435 116.972 0.00317959 116.109 0H62.791C61.9263 0.00155779 61.2235 0.718822 61.2145 1.60912V78.7739C61.216 79.6697 61.921 80.3955 62.791 80.3971ZM61.2834 1.61088C61.285 0.754294 61.9591 0.0602987 62.791 0.058684L116.109 0.0569235C116.94 0.0585382 117.615 0.752534 117.616 1.60912V78.7745C117.615 79.6311 116.94 80.3251 116.109 80.3267H62.791C61.9591 80.3251 61.285 79.6311 61.2834 78.7745V1.61088Z" fill="#EBEBEB"/>
<ellipse cx="66.2153" cy="52.8881" rx="12.1776" ry="12.5193" transform="rotate(-9.22 66.2153 52.8881)" fill="#F0F0F0"/>
<path d="M64.942 62.9275C67.2418 61.0314 74.0535 60.9375 77.2732 63.7801C80.493 66.6228 84.9108 71.2653 86.4788 71.8339C88.0467 72.4026 93.2574 70.3187 97.4626 69.844C101.668 69.3692 103.322 73.8239 104.885 76.2886C106.448 78.7534 108.107 78.8473 108.844 82.0684C109.582 85.2896 110.959 87.6604 113.077 90.313C115.194 92.9655 121.36 96.5675 122.004 98.5774H54.0801L53.3455 71.1714C55.1733 69.2753 62.6285 64.8235 64.942 62.9275Z" fill="#EBEBEB"/>
<path d="M19.6787 73.8239C21.1036 72.3398 25.7203 71.3592 28.3627 65.4861C31.0051 59.613 39.6834 47.3856 42.9966 45.6943C46.3098 44.003 49.9741 36.5983 51.2993 35.542C52.6245 34.4857 54.3366 37.3412 54.7949 39.0472C55.9878 43.3851 61.6978 55.7264 65.0936 58.0943C68.4895 60.4622 68.7272 65.5794 69.6744 68.5189C70.6217 71.4584 76.428 73.1614 77.748 76.9506C79.0681 80.7398 93.7641 98.5763 93.7641 98.5763H6.07471C10.4429 95.3076 14.1813 79.5409 19.6787 73.8239Z" fill="#F5F5F5"/>
<path d="M48.7852 36.3946C48.7852 37.8529 48.3571 44.6104 46.8826 46.2535C45.4081 47.8967 46.7088 44.2325 44.218 46.2535C41.7273 48.2746 40.6272 52.4424 36.4511 53.8977C32.275 55.3531 32.6489 51.6859 34.6728 49.5991C36.6968 47.5123 39.0906 43.8481 40.996 42.7765C42.9014 41.7049 48.7852 31.9088 48.7852 36.3946Z" fill="#F0F0F0"/>
<path d="M41.1408 68.2302C43.1259 65.4045 34.2077 68.6738 31.5083 67.6615C28.809 66.6492 30.8956 65.2619 26.9663 68.7988C23.0369 72.3357 16.2309 75.7494 19.9118 76.9494C23.5926 78.1495 37.4445 73.4753 41.1408 68.2302Z" fill="#F0F0F0"/>
<path d="M86.1379 69.2859C84.6138 67.408 82.8714 63.887 80.6155 63.2673C78.3596 62.6476 76.844 62.2696 77.3023 63.6939C77.7605 65.1182 88.5124 72.2025 86.1379 69.2859Z" fill="#F0F0F0"/>
<path d="M109.153 79.9829C108.761 78.6666 107.557 78.7036 106.5 76.6168C105.443 74.53 103.878 70.9796 101.298 70.837C98.7177 70.6944 94.6378 71.7384 98.0782 74.3903C101.518 77.0422 110.517 84.5773 109.153 79.9829Z" fill="#F0F0F0"/>
<path d="M102.631 15.4797H50.1719C43.5455 15.4797 62.1361 14.0584 72.3522 11.6899C82.5683 9.32143 83.3964 8.56264 86.8014 11.1213C90.2064 13.6799 100.331 7.994 105.211 11.4053C110.092 14.8166 111.373 15.4797 102.631 15.4797Z" fill="#FAFAFA"/>
<path d="M38.9732 25.8193C45.517 25.8193 58.0055 25.2706 52.9944 22.9989C47.9832 20.7272 44.2773 25.2729 42.0909 23.3428C39.9045 21.4127 36.3645 21.1421 33.4274 22.9989C30.4904 24.8557 31.3619 21.9672 27.8195 22.9989C22.8494 24.4461 6.93424 25.8193 20.4806 25.8193H38.9732Z" fill="#FAFAFA"/>
<path d="M87.8586 51.7217C92.8561 51.7217 102.393 51.3009 98.566 49.5698C94.7393 47.8386 91.9117 51.3009 90.2445 49.8315C88.5774 48.3621 85.8712 48.1514 83.6181 49.5698C81.365 50.9882 82.0415 48.7822 79.3353 49.5698C75.5496 50.673 63.3928 51.7217 73.7331 51.7217H87.8586Z" fill="#FAFAFA"/>
<rect x="55.155" y="23.1282" width="0.571119" height="41.8718" fill="#1C2340"/>
<path opacity="0.79" d="M27 42.3922C27 42.3922 35.1756 22.6158 55.3115 23.0846C51.8277 27.4623 43.5025 38.9529 43.1998 44.2682C40.0204 41.5324 35.781 40.8288 33.0561 40.8288C30.3313 40.8288 27 42.3922 27 42.3922Z" fill="#7F47FA"/>
<rect x="55.155" y="19" width="0.571119" height="4.71795" rx="0.28556" fill="#1C2340"/>
<path d="M84.0001 42.2365C84.0001 42.2365 76.8845 23.4761 55.7639 23.1636C59.1238 30.7709 63.3144 37.957 68.2543 44.5819C70.4534 42.0853 73.6198 40.7372 76.8839 40.9078C82.4877 41.1419 84.0001 42.2365 84.0001 42.2365Z" fill="#7F47FA"/>
<path d="M42.8971 44.2688C42.8971 44.2688 45.2438 27.8533 55.0848 23.1636C55.9676 23.1283 56.8397 23.3739 57.5829 23.8672C58.4156 24.4145 66.8184 30.6675 68.1805 44.2688C64.1684 39.4223 55.0088 39.0313 49.5586 40.1258C44.1084 41.2204 42.8971 44.2688 42.8971 44.2688Z" fill="#8550FB"/>
<ellipse cx="64" cy="108" rx="49" ry="3" fill="#F5F5F5"/>
<path d="M60.5819 107.999C64.0405 107.999 66.845 102.244 66.845 95.1451C66.845 88.0458 64.0405 82.2909 60.5819 82.2909H52.5604V107.999L60.5819 107.999Z" fill="#263238"/>
<ellipse cx="53.1587" cy="95.1458" rx="6.2631" ry="12.8542" fill="#263238"/>
<path d="M101.544 107.999C105.002 107.999 107.804 102.244 107.804 95.1451C107.804 88.0458 105.012 82.2909 101.544 82.2909H93.5099V107.999L101.544 107.999Z" fill="#263238"/>
<ellipse cx="93.4786" cy="95.1458" rx="6.2631" ry="12.8542" fill="#263238"/>
<path d="M23.6243 101.527L19.3355 100.431C17.8662 100.058 16.6313 99.0309 15.9624 97.625C15.6698 97.012 15.2658 96.4633 14.7727 96.009L13.718 95.0365C12.4968 93.9098 11.8673 92.2471 12.0235 90.5605L12.6029 84.2677C12.8013 82.11 14.2443 80.2935 16.2496 79.6771L19.3162 78.7389L30.3792 77.9211L23.6243 101.527Z" fill="#7F47FA"/>
<path d="M32.9786 107.999C36.4372 107.999 39.2417 102.244 39.2417 95.1452C39.2417 88.0458 36.4389 82.2915 32.9786 82.2915H24.9463V107.999H32.9786Z" fill="#263238"/>
<ellipse cx="24.9161" cy="95.1458" rx="6.2631" ry="12.8542" fill="#263238"/>
<ellipse cx="24.916" cy="95.1451" rx="4.3942" ry="10.1595" fill="#7F47FA"/>
<path d="M88.4655 101.527L99.2801 76.4823C99.2801 76.4823 83.0981 64 62.5687 64C29.2931 64 30.4367 68.6479 19.3019 78.7389L24.1627 82.2915C32.8104 82.2915 33.5312 96.4955 34.9141 100.492C35.1256 101.112 35.6919 101.527 36.3271 101.527H88.4655" fill="#7F47FA"/>
<path d="M73.5052 107.999C76.9638 107.999 79.7654 102.244 79.7654 95.1451C79.7654 88.0458 76.9638 82.2909 73.5052 82.2909H65.4712V107.999L73.5052 107.999Z" fill="#263238"/>
<ellipse cx="66.1014" cy="95.1458" rx="6.2631" ry="12.8542" fill="#263238"/>
<ellipse cx="66.1088" cy="95.1451" rx="4.3942" ry="10.1595" fill="#7F47FA"/>
<path d="M72.9588 99.4582C71.9623 94.7673 67.1983 82.2968 61.4873 82.2968L55.2988 76.4734H90.2268C92.645 76.4734 103.385 78.012 109.471 82.2826C114.387 85.7319 114.992 90.969 115.699 98.6204C115.728 99.4068 115.438 100.17 114.897 100.723C114.357 101.276 113.617 101.567 112.858 101.527C98.8636 101.527 81.9267 101.581 75.7605 101.601C74.4567 101.658 73.2906 100.766 72.9588 99.4582Z" fill="#7F47FA"/>
<path opacity="0.8" d="M91.0136 76.4805H68.2466C67.1772 76.4849 66.1753 75.9395 65.572 75.0245C62.8313 71.0783 59.3195 67.7743 55.2651 65.3273C78.2857 65.3273 91.0136 76.4805 91.0136 76.4805Z" fill="white"/>
<path opacity="0.8" d="M60.4406 66.4969C63.2006 68.5676 66.3419 71.7771 68.1059 74.9661C68.2799 75.2756 68.2821 75.6576 68.1116 75.9692C67.9411 76.2808 67.6237 76.4751 67.278 76.4793H29.9621C26.0038 76.4793 27.3177 66.2649 47.9947 65.4973C49.9434 65.3202 54.4869 65.3173 56.9974 65.3285C58.2349 65.3348 59.4392 65.7435 60.4406 66.4969Z" fill="white"/>
<path d="M79.3125 95.9594L91.2729 96.8946C91.6596 96.9255 91.9578 97.2603 91.9566 97.6622V98.5201C91.9566 98.944 91.625 99.2876 91.2159 99.2876H79.2629C78.8538 99.2876 78.5222 98.944 78.5222 98.5201V96.7381C78.5187 96.5234 78.6022 96.317 78.7524 96.169C78.9026 96.021 79.1057 95.945 79.3125 95.9594Z" fill="#263238"/>
<path d="M114.923 96.1294L111.638 96.8161C111.291 96.8875 111.042 97.2024 111.042 97.5683V98.4976C111.042 98.9215 111.373 99.2652 111.782 99.2652H115.258C115.47 99.2655 115.672 99.1718 115.813 99.0079C115.954 98.8439 116.02 98.6253 115.995 98.4073L115.81 96.7942C115.786 96.5789 115.676 96.384 115.506 96.2575C115.336 96.1311 115.122 96.085 114.918 96.1306L114.923 96.1294Z" fill="#263238"/>
<path opacity="0.8" d="M89.4974 81.5363L72.7981 80.6956C72.7981 80.6956 72.6271 83.7617 78.8156 84.4153C82.591 84.7733 86.3687 83.7551 89.4974 81.5363Z" fill="white"/>
<path opacity="0.3" d="M12.5995 84.2647C12.6462 83.762 12.7625 83.2689 12.9448 82.8005L14.0763 82.7662C14.0763 82.7662 14.1288 87.2653 12.4889 86.9825C12.443 86.9751 12.3979 86.9637 12.3539 86.9482L12.5995 84.2647Z" fill="black"/>
<path opacity="0.8" d="M107.826 81.2618C108.389 81.5753 108.937 81.918 109.468 82.2886C110.275 82.8485 111.012 83.5095 111.662 84.2565C111.429 84.3253 111.192 84.3807 110.953 84.4224C107.246 85.0831 104.552 81.5364 104.552 81.5364L107.826 81.2618Z" fill="white"/>
<path d="M91.9214 86.3703H103.738C104.152 86.3726 104.556 86.5064 104.895 86.7534L106.96 88.2549C107.434 88.5951 107.749 89.1248 107.829 89.7162L108.356 93.7695C108.436 94.3008 108.285 94.8414 107.945 95.2471C107.605 95.6528 107.109 95.8823 106.59 95.8744H93.9555C93.185 95.864 92.4832 95.4127 92.1322 94.7018L89.7721 89.9335C89.4246 89.2699 89.4829 88.4571 89.9214 87.854L90.5123 87.0676C90.8519 86.6209 91.3726 86.3633 91.9214 86.3703Z" fill="#263238"/>
<path opacity="0.1" d="M36.0303 96.2581H59.142C59.2969 96.2575 59.445 96.3244 59.55 96.4424C59.6549 96.5604 59.7073 96.7187 59.6942 96.8786L59.5757 98.2714C59.5499 98.5672 59.3101 98.7934 59.0235 98.7922H35.909C35.7541 98.7928 35.6061 98.7259 35.5011 98.6079C35.3961 98.4899 35.3437 98.3316 35.3568 98.1717L35.4754 96.7759C35.5026 96.4802 35.7437 96.2552 36.0303 96.2581Z" fill="black"/>
<path d="M43.4513 65.3273L44.8341 65.0498L42.0051 77.9212H40.6798L43.4513 65.3273Z" fill="#7F47FA"/>
<path d="M48.2369 79.3683H43.5031L43.3817 79.8831C43.3066 80.1127 43.3459 80.3659 43.4868 80.5594C43.6276 80.7528 43.8518 80.8616 44.0854 80.8497H46.948C47.4973 80.8229 47.9674 80.4327 48.1127 79.8831L48.2369 79.3683Z" fill="#263238"/>
<path d="M33.3164 79.3683H28.5872L28.4658 79.8831C28.3907 80.1127 28.43 80.3659 28.5709 80.5594C28.7117 80.7528 28.9359 80.8616 29.1695 80.8497H32.031C32.5802 80.8229 33.0504 80.4327 33.1956 79.8831L33.3164 79.3683Z" fill="#263238"/>
<path opacity="0.1" d="M41.5401 94.5931C41.4544 94.5931 41.3844 94.522 41.3828 94.4331L41.0353 77.5805C41.0352 77.4906 41.103 77.4163 41.1897 77.4116C41.2754 77.4116 41.3454 77.4828 41.347 77.5716L41.6888 94.4272C41.6889 94.5166 41.6206 94.5899 41.5344 94.5931H41.5401Z" fill="black"/>
<rect x="61.5405" y="64.9999" width="31.0167" height="47" fill="white"/>
<rect x="88.5365" y="91.111" width="16.0827" height="12.1852" fill="white"/>
<path fill-rule="evenodd" clip-rule="evenodd" d="M84.7932 85.5783V96.2345C84.8407 102.135 87.8207 107.616 92.7243 110.823V111.944H61V65.4745H92.7243V83.902C90.6216 84.6726 88.4344 85.1838 86.2102 85.4245L84.7932 85.5783ZM80.0345 83.1012H90.3452V81.4986H80.0345V83.1012ZM90.3452 79.0975H80.0345V77.4926H90.3452V79.0975ZM85.5836 67.8779H68.1379V72.6852H85.5836V67.8779ZM70.2849 82.8662C69.9752 83.1788 69.4734 83.1788 69.1637 82.8662L66.784 80.4628L67.9052 79.3302L69.7237 81.1673L75.5078 75.3242L76.6289 76.4568L70.2849 82.8662ZM70.2849 98.089L76.6295 91.6796L75.5078 90.547L69.7237 96.39L67.9052 94.553L66.784 95.6856L69.1637 98.089C69.4734 98.4015 69.9752 98.4015 70.2849 98.089ZM63.3791 75.8899C63.3794 75.4476 63.7345 75.0892 64.1723 75.0892H73.498L71.9133 76.6912H64.9632V84.7033H72.8966V82.4937L74.4831 80.8911V85.5046C74.4827 85.9469 74.1277 86.3054 73.6898 86.3054H64.1723C63.7345 86.3054 63.3794 85.9469 63.3791 85.5046V75.8899ZM64.1723 101.529H73.6893H73.6898C73.9006 101.529 74.1027 101.444 74.2515 101.293C74.4004 101.142 74.4837 100.938 74.4831 100.725V96.1115L72.8966 97.7165V99.9261H64.9632V91.914H71.9133L73.498 90.3091H64.1723C63.9614 90.3091 63.7592 90.3939 63.6104 90.5448C63.4616 90.6957 63.3783 90.9003 63.3791 91.1133V100.727C63.3791 101.17 63.7342 101.529 64.1723 101.529ZM83.2068 108.739H77.6571V107.136H83.2091L83.2068 108.739ZM74.4831 105.535H83.2068V103.932H74.4831V105.535ZM83.2068 98.324H78.4486V96.7214H83.2074L83.2068 98.324ZM78.4486 94.3203H83.2068L83.2074 92.7153H78.4486V94.3203Z" fill="url(#paint0_linear_0_2533)"/>
<path fill-rule="evenodd" clip-rule="evenodd" d="M86.3796 87.0156C89.9774 86.6309 93.4733 85.5752 96.6898 83.902C99.9062 85.5753 103.402 86.6311 107 87.0156V96.234C106.893 102.862 102.814 108.761 96.6898 111.143C90.566 108.761 86.4866 102.862 86.3796 96.234V87.0156ZM89.7869 98.0913L93.7501 102.095C94.0598 102.408 94.5616 102.408 94.8713 102.095L103.596 93.2817L102.474 92.149L94.3107 100.397L90.9058 96.9575L89.7869 98.0913Z" fill="url(#paint1_linear_0_2533)"/>
<rect x="69.5819" y="69.6418" width="14.3596" height="1.16049" fill="url(#paint2_linear_0_2533)"/>
<path d="M50.9756 106.276L49.3365 106.25L48.8647 102.344L50.5038 102.37L50.9756 106.276Z" fill="#FF8B7B"/>
<path d="M40.9989 106.236L39.5012 105.378L40.6188 101.755L42.1165 102.613L40.9989 106.236Z" fill="#FF8B7B"/>
<path d="M39.3598 105.176L41.0963 106.191C41.1548 106.223 41.1827 106.294 41.1627 106.359L40.7247 107.827C40.703 107.899 40.65 107.957 40.5812 107.984C40.5124 108.011 40.4355 108.004 40.3726 107.964C39.8178 107.631 39.4297 107.357 38.7249 106.947C38.2921 106.696 36.961 105.981 36.3644 105.633C35.7679 105.285 36.0209 104.63 36.298 104.718C37.1819 105.063 38.1284 105.205 39.0713 105.134C39.1692 105.11 39.2722 105.125 39.3598 105.176Z" fill="#263238"/>
<path d="M49.3033 106.057L51.0924 106.085C51.16 106.085 51.218 106.134 51.2309 106.202L51.5303 107.705C51.5428 107.777 51.5231 107.85 51.4768 107.906C51.4305 107.961 51.3625 107.992 51.2916 107.99C50.6452 107.97 49.7137 107.915 48.9036 107.901C47.955 107.887 47.134 107.927 46.0222 107.901C45.3512 107.901 45.1903 107.189 45.4674 107.129C46.7544 106.861 47.7998 106.844 48.9174 106.162C49.0344 106.092 49.1677 106.056 49.3033 106.057Z" fill="#263238"/>
<path d="M48.5286 56.8881C47.5892 57.6781 46.6098 58.4165 45.5945 59.1001C45.0843 59.439 44.5639 59.7756 44.0137 60.0834C43.4368 60.4193 42.8306 60.6989 42.2029 60.9184C42.0152 60.9799 41.824 61.0295 41.6304 61.0667C41.525 61.0867 41.4014 61.1008 41.2869 61.1126C41.1548 61.1239 41.0221 61.1239 40.8901 61.1126C40.5994 61.0883 40.3165 61.0041 40.0583 60.8648C39.8111 60.7295 39.5909 60.5476 39.409 60.3288C39.1287 59.9827 38.9226 59.5796 38.8045 59.146C38.7087 58.7956 38.6447 58.4369 38.6132 58.0744C38.5296 56.7774 38.6504 55.475 38.9711 54.2177L40.1888 54.3942C40.1832 55.5267 40.291 56.6568 40.5105 57.7666C40.5627 58.0013 40.6361 58.2304 40.7298 58.451C40.7844 58.5991 40.8707 58.7326 40.9823 58.8417C41.0155 58.8647 41.0292 58.8617 41.0321 58.8417C41.035 58.8217 41.0321 58.8276 41.0321 58.8217C41.1726 58.79 41.31 58.7451 41.4426 58.6876C41.9154 58.4779 42.3709 58.2291 42.8046 57.9438C43.2706 57.6589 43.7395 57.3253 44.1912 56.9887C45.1176 56.3214 46.0525 55.6035 46.9427 54.8961L48.5286 56.8881Z" fill="#FF8B7B"/>
<path d="M49.0284 56.1125C48.2841 57.8431 45.4061 59.6332 43.8116 60.3888C43.3399 60.6112 43.4011 61.2609 43.1212 60.9772C43.1212 60.9772 41.8926 58.6599 41.8926 58.1862C41.8926 57.7125 42.3002 57.9949 42.6328 57.676C43.8311 56.5356 46.3381 54.0276 47.9 53.7533C49.949 53.3844 49.7268 54.4989 49.0284 56.1125Z" fill="url(#paint3_linear_0_2533)"/>
<path d="M42.0638 57.8797C41.9058 57.6402 41.2514 58.2675 41.043 58.527C40.8346 58.7865 41.4066 59.7415 41.5783 60.2376C41.7501 60.7337 41.4117 61.2609 41.939 61.338C42.2161 61.378 43.0067 61.2727 43.1596 61.0532C43.5174 60.5854 42.444 58.4558 42.0638 57.8797Z" fill="#263238"/>
<path opacity="0.2" d="M45.8275 59.2484C47.1701 58.3786 48.5452 57.2329 49.0336 56.1125C49.0639 56.0354 49.1 55.9642 49.1281 55.89L49.1555 55.6052C47.3309 55.9248 46.0937 57.8172 45.8275 59.2484Z" fill="black"/>
<path d="M39.953 54.9127L41.0099 53.302L39.2849 52.5782C39.2849 52.5782 38.3087 53.7187 39.0078 54.7132L39.953 54.9127Z" fill="#FF8B7B"/>
<path d="M41.4535 51.5513L39.867 51.4972L39.2848 52.5635L41.0098 53.2873L41.4535 51.5513Z" fill="#FF8B7B"/>
<path opacity="0.2" d="M48.8647 102.345L49.1086 104.358L50.7477 104.386L50.5038 102.373L48.8647 102.345Z" fill="black"/>
<path opacity="0.2" d="M42.1165 102.613L40.6188 101.755L40.0463 103.625L41.5411 104.483L42.1165 102.613Z" fill="black"/>
<path d="M57.0573 54.3654C55.2905 60.7625 55.6483 67.5498 55.4875 68.9238C54.2062 68.8297 49.3856 68.4589 46.7509 68.2565C45.9191 58.6353 47.8994 53.7493 47.8994 53.7493C47.8994 53.7493 48.4542 53.6381 49.2253 53.5581C49.4641 53.5322 49.7217 53.5098 49.9908 53.4951C50.1408 53.4951 50.2902 53.481 50.4431 53.478C51.6861 53.4995 52.9269 53.5946 54.1592 53.7628C54.3923 53.7911 54.6281 53.8282 54.8583 53.8652C55.0884 53.9023 55.2797 53.9423 55.4766 53.9829C56.3669 54.1653 57.0573 54.3654 57.0573 54.3654Z" fill="url(#paint4_linear_0_2533)"/>
<path d="M50.4426 53.4868C49.7075 53.8917 49.4939 55.374 50.9166 55.4287C52.1889 55.4188 53.3855 54.8055 54.1587 53.7669L50.4426 53.4868Z" fill="#263238"/>
<path opacity="0.2" d="M55.1898 57.11C55.0347 57.7285 55.2121 60.5507 55.8413 61.2492C55.9272 60.3453 56.0411 59.3991 56.1934 58.4358L55.1898 57.11Z" fill="black"/>
<path d="M54.1026 49.4359C53.7809 50.6446 53.3841 52.8766 54.1599 53.7605C53.3625 54.4952 52.3027 54.8538 51.2366 54.7497C49.8139 54.6908 50.0344 53.98 50.4437 53.478C51.8029 53.2526 51.8303 52.2323 51.678 51.2601L54.1026 49.4359Z" fill="#FF8B7B"/>
<path opacity="0.2" d="M53.1133 50.1803L51.6769 51.2607C51.7179 51.4875 51.7402 51.7174 51.7433 51.948C52.357 51.8661 52.876 51.4412 53.091 50.8447C53.1372 50.6264 53.1448 50.4013 53.1133 50.1803V50.1803Z" fill="black"/>
<path d="M50.4008 48.9715C50.4008 48.9715 49.3966 47.5204 49.6908 46.3859C50.0681 44.9353 52.3416 46.716 50.4008 48.9715Z" fill="#263238"/>
<path d="M54.378 47.5975C54.1558 49.254 54.1009 50.2344 53.2329 51.0182C52.6277 51.5431 51.7913 51.6848 51.0543 51.3872C50.3172 51.0897 49.7982 50.4009 49.7022 49.5929C49.4612 48.0736 49.8603 45.6191 51.4936 45.0801C52.2272 44.8324 53.0333 44.9946 53.6219 45.5083C54.2104 46.022 54.4968 46.8133 54.378 47.5975Z" fill="#FF8B7B"/>
<path d="M50.5645 49.3476C50.5645 49.6012 50.3355 49.6612 50.154 49.7754C50.0269 49.8661 49.9201 49.9837 49.8408 50.1202C49.8408 50.1202 49.6049 50.0402 49.7023 49.61C49.7996 49.1799 50.5645 49.111 50.5645 49.3476Z" fill="#263238"/>
<path d="M50.6785 49.3558C50.6785 49.7919 51.1474 49.7319 51.5103 49.8519C51.8053 49.946 52.0651 50.1308 52.2546 50.3815C52.3513 50.1578 52.3112 49.8965 52.1521 49.7142C51.6964 49.1005 50.6785 49.1193 50.6785 49.3558Z" fill="#263238"/>
<path d="M53.1327 46.1005C52.1234 46.4083 49.2917 46.7307 49.6404 45.2455C50.123 43.1671 51.3986 44.2504 51.5818 44.547C52.3942 43.9426 55.9804 44.4699 55.2648 45.6651C56.0439 45.7875 56.4962 46.6601 55.9357 47.0903C55.3752 47.5205 54.6962 49.277 54.3218 49.2252C53.8682 49.1611 53.4251 49.0336 53.005 48.8462L53.7762 47.787C53.7762 47.787 52.8413 46.8708 53.1327 46.1005Z" fill="#263238"/>
<path d="M54.8995 45.8469C55.4091 45.6307 55.9929 45.7171 56.4224 46.0723C56.3886 45.3543 55.432 45.2543 54.8995 45.8469Z" fill="#263238"/>
<path d="M54.9746 49.4959C54.7324 49.8339 54.3691 50.0586 53.9652 50.1203C53.4271 50.2003 53.2301 49.6901 53.4385 49.2082C53.6246 48.7721 54.129 48.2078 54.6408 48.3532C54.8649 48.422 55.0403 48.602 55.1078 48.8321C55.1753 49.0622 55.1259 49.3118 54.9763 49.4965L54.9746 49.4959Z" fill="#FF8B7B"/>
<path d="M48.4983 103.961L51.2715 104.004C51.2715 104.004 49.6685 92.741 49.921 87.5014C49.996 85.9078 49.7464 83.6764 50.1568 81.2896C50.6755 78.2761 50.9252 77.0763 51.5933 73.2707C52.0702 70.5568 52.4944 68.7096 52.4944 68.7096L46.7504 68.2706C46.7504 68.2706 44.8726 81.8428 44.9281 86.9835C44.9876 92.3102 48.4983 103.961 48.4983 103.961Z" fill="#7F47FA"/>
<path opacity="0.6" d="M48.4983 103.961L51.2715 104.004C51.2715 104.004 49.6685 92.741 49.921 87.5014C49.996 85.9078 49.7464 83.6764 50.1568 81.2896C50.6755 78.2761 50.9252 77.0763 51.5933 73.2707C52.0702 70.5568 52.4944 68.7096 52.4944 68.7096L46.7504 68.2706C46.7504 68.2706 44.8726 81.8428 44.9281 86.9835C44.9876 92.3102 48.4983 103.961 48.4983 103.961Z" fill="black"/>
<path opacity="0.2" d="M50.1569 81.2896C49.9622 82.5392 49.8815 83.8047 49.9159 85.0698C49.4389 86.455 49.0227 87.7696 48.7313 88.9383C48.2235 90.982 47.4197 94.0838 46.6376 97.0625C45.7863 93.573 44.9567 89.5397 44.9321 86.9681L50.1569 81.2896Z" fill="black"/>
<path d="M49.8488 68.493C49.8488 68.493 45.7221 79.2118 44.1574 83.887C42.4433 88.9954 39.6781 102.784 39.6781 102.784L42.2882 104.304C42.2882 104.304 46.353 92.9381 48.0374 87.9633C49.9564 82.2959 55.251 73.3419 55.4869 68.9379L49.8488 68.493Z" fill="#7F47FA"/>
<path opacity="0.6" d="M49.8488 68.493C49.8488 68.493 45.7221 79.2118 44.1574 83.887C42.4433 88.9954 39.6781 102.784 39.6781 102.784L42.2882 104.304C42.2882 104.304 46.353 92.9381 48.0374 87.9633C49.9564 82.2959 55.251 73.3419 55.4869 68.9379L49.8488 68.493Z" fill="black"/>
<path d="M39.3346 102.648L42.409 104.44L42.9305 103.499L39.5275 101.435L39.3346 102.648Z" fill="#7F47FA"/>
<path d="M48.149 104.022L51.4547 104.076L51.4713 102.978L47.7769 102.861L48.149 104.022Z" fill="#7F47FA"/>
<path d="M52.2202 47.8742C52.2202 48.0113 52.1315 48.1137 52.0456 48.1095C51.9597 48.1054 51.8985 47.9871 51.9099 47.853C51.9214 47.7188 51.9958 47.6135 52.0817 47.6176C52.1676 47.6217 52.2317 47.74 52.2202 47.8742Z" fill="#263238"/>
<path d="M50.4672 47.7599C50.4672 47.897 50.3813 47.9994 50.2954 47.9953C50.2095 47.9912 50.1454 47.8729 50.1569 47.7387C50.1683 47.6045 50.2427 47.4992 50.3286 47.5033C50.4145 47.5074 50.4786 47.6257 50.4672 47.7599Z" fill="#263238"/>
<path d="M50.864 47.8652C50.6761 48.2668 50.4353 48.6399 50.1483 48.9739C50.3207 49.1223 50.548 49.185 50.7695 49.1451L50.864 47.8652Z" fill="#FF5652"/>
<path d="M50.7197 50.0178C51.0197 50.0053 51.301 49.8647 51.496 49.63C51.5118 49.6151 51.5128 49.5898 51.4983 49.5735C51.4837 49.5573 51.4591 49.5562 51.4433 49.5712C51.2208 49.8263 50.8935 49.9573 50.5617 49.9243C50.5406 49.9241 50.5227 49.9399 50.5199 49.9613C50.5182 49.9721 50.5212 49.9832 50.5282 49.9914C50.5351 49.9997 50.5453 50.0044 50.5559 50.0043C50.6101 50.0126 50.6649 50.0172 50.7197 50.0178Z" fill="#263238"/>
<path d="M52.4979 47.4145C52.5098 47.417 52.522 47.417 52.5339 47.4145C52.5513 47.4029 52.5634 47.3846 52.5676 47.3637C52.5718 47.3428 52.5677 47.3211 52.5563 47.3033C52.4261 47.0845 52.2007 46.9443 51.9517 46.9273C51.9308 46.9264 51.9105 46.9346 51.8957 46.9498C51.881 46.965 51.873 46.9858 51.8738 47.0073C51.8738 47.0515 51.9087 47.0873 51.9517 47.0873C52.1477 47.1045 52.3238 47.2169 52.4257 47.3898C52.444 47.4104 52.4713 47.4197 52.4979 47.4145Z" fill="#263238"/>
<path d="M49.8191 47.158C49.8453 47.1603 49.8709 47.1499 49.8884 47.1297C50.0137 46.9717 50.2057 46.8857 50.4037 46.8991C50.4445 46.9009 50.4799 46.8703 50.485 46.8286C50.4901 46.7869 50.4632 46.7481 50.4231 46.7396C50.1747 46.7212 49.9329 46.8273 49.7739 47.0244C49.759 47.0394 49.7506 47.06 49.7506 47.0815C49.7506 47.1029 49.759 47.1235 49.7739 47.1386C49.787 47.149 49.8026 47.1557 49.8191 47.158Z" fill="#263238"/>
<path fill-rule="evenodd" clip-rule="evenodd" d="M39.428 105.635C39.2288 105.581 39.0365 105.501 38.8557 105.397C38.7099 105.33 38.5895 105.214 38.5131 105.066C38.4742 104.957 38.4906 104.834 38.5564 104.74C38.5886 104.68 38.6495 104.644 38.715 104.645C39.0086 104.658 39.4362 105.476 39.4836 105.568C39.4952 105.589 39.4952 105.615 39.4836 105.635C39.467 105.648 39.4446 105.648 39.428 105.635ZM38.6259 105.015C38.6848 105.178 38.9309 105.35 39.3266 105.484L39.3275 105.481C39.1508 105.159 38.872 104.754 38.7216 104.748C38.6946 104.748 38.6699 104.764 38.6578 104.79C38.6113 104.854 38.5993 104.939 38.6259 105.015Z" fill="#7F47FA"/>
<path fill-rule="evenodd" clip-rule="evenodd" d="M39.2911 105.453H39.257V105.453C39.2451 105.447 39.2365 105.439 39.233 105.429C39.0728 105.235 38.8645 104.675 39.0728 104.503C39.1439 104.452 39.2566 104.438 39.3491 104.471C39.4469 104.499 39.5224 104.554 39.5574 104.622C39.6859 104.846 39.4589 105.235 39.3769 105.375C39.3599 105.404 39.3491 105.423 39.3491 105.427C39.3394 105.443 39.3165 105.453 39.2911 105.453ZM39.4323 104.663C39.4135 104.625 39.3754 104.593 39.3251 104.573L39.2981 104.574C39.216 104.541 39.1819 104.574 39.1819 104.574C39.0537 104.673 39.1368 105.075 39.2821 105.306C39.4255 105.106 39.4778 104.882 39.4323 104.663Z" fill="#7F47FA"/>
<path fill-rule="evenodd" clip-rule="evenodd" d="M49.1639 106.629C49.1627 106.661 49.1529 106.688 49.139 106.699L49.1338 106.709C48.8705 106.807 48.3987 106.933 48.2212 106.586C48.1696 106.479 48.1439 106.327 48.152 106.173C48.1553 106.08 48.1803 105.997 48.2184 105.952C48.4182 105.719 49.0726 106.46 49.1447 106.55C49.1576 106.566 49.1651 106.597 49.1639 106.629ZM49.0062 106.596C48.7826 106.303 48.5292 106.134 48.2682 106.102L48.2544 106.113C48.2384 106.129 48.2285 106.165 48.2293 106.203C48.223 106.303 48.2397 106.403 48.2739 106.472C48.503 106.704 48.7632 106.747 49.0062 106.596Z" fill="#7F47FA"/>
<path fill-rule="evenodd" clip-rule="evenodd" d="M49.5489 106.466C49.5497 106.485 49.5396 106.503 49.5215 106.515V106.518C49.5039 106.524 49.4844 106.524 49.4668 106.518C49.1327 106.407 48.4975 105.914 48.5523 105.665C48.5617 105.606 48.6164 105.524 48.7901 105.524C48.9183 105.514 49.0462 105.547 49.1421 105.617C49.3841 105.859 49.5264 106.156 49.5489 106.466ZM48.8222 105.632H48.7533C48.7209 105.638 48.697 105.66 48.6938 105.687C48.6655 105.835 49.0912 106.214 49.4205 106.381C49.3975 106.13 49.2776 105.891 49.078 105.698C49.0079 105.648 48.9152 105.624 48.8222 105.632Z" fill="#7F47FA"/>
<path d="M57.4622 55.3828C57.8229 56.0725 58.1332 56.7539 58.4549 57.4465C58.7767 58.1391 59.0566 58.8465 59.3394 59.5591C59.6223 60.2717 59.8776 60.9843 60.1135 61.7481L60.2852 62.3184L60.4352 62.8886C60.485 63.0822 60.524 63.2875 60.5686 63.4841L60.6018 63.6383L60.6322 63.8436C60.6504 63.9683 60.6624 64.0938 60.6682 64.2197C60.6853 64.651 60.6677 65.083 60.6156 65.5113C60.5709 65.9162 60.516 66.3069 60.449 66.6918C60.3133 67.4615 60.1467 68.2112 59.9606 68.9526C59.5908 70.4289 59.1475 71.8847 58.6324 73.3142L57.4479 72.9776C57.6946 71.5183 57.9333 70.0383 58.144 68.5819C58.2465 67.8551 58.341 67.1278 58.4045 66.4099C58.4377 66.0533 58.4618 65.7002 58.4738 65.3554C58.4885 65.0368 58.4801 64.7176 58.4486 64.4003C58.4478 64.3394 58.4385 64.279 58.4211 64.2208L58.4045 64.1467L58.3713 64.029C58.3215 63.8666 58.2826 63.7042 58.227 63.5388L58.0633 63.0427L57.883 62.5437C57.6362 61.8741 57.3585 61.2068 57.0815 60.5483C56.8044 59.8898 56.4906 59.2142 56.1826 58.5528C55.8746 57.8914 55.5586 57.2188 55.2534 56.5744L57.4622 55.3828Z" fill="#FF8B7B"/>
<path d="M57.0545 54.3678C58.2304 54.7438 59.7865 59.7557 60.402 61.8876C60.6332 62.1719 60.7065 62.5582 60.5961 62.911L58.2024 63.9973C57.6476 63.7124 57.3036 63.1146 57.5119 62.8204C56.4799 60.987 55.5735 59.0818 54.7994 57.1188C54.0981 54.9721 55.2459 53.7711 57.0545 54.3678Z" fill="url(#paint5_linear_0_2533)"/>
<path d="M57.6172 63.4011C57.3762 63.5494 58.1164 64.3302 58.3552 64.5586C58.5939 64.7869 59.3897 64.1908 59.8861 64.0425C60.3824 63.8942 60.8708 64.2779 60.9738 63.7406C61.0423 63.3066 60.9753 62.8615 60.7826 62.4689C60.3303 62.0759 58.2 63.048 57.6172 63.4011Z" fill="#263238"/>
<path d="M57.7558 72.2585L56.4774 73.3531L58.0696 74.5335C58.0696 74.5335 59.115 73.3931 58.6467 72.7146L57.7558 72.2585Z" fill="#FF8B7B"/>
<path d="M55.748 74.8842L57.3236 75.671L58.0679 74.5335L56.4757 73.353L55.748 74.8842Z" fill="#FF8B7B"/>
<defs>
<linearGradient id="paint0_linear_0_2533" x1="61" y1="65.4745" x2="61" y2="111.944" gradientUnits="userSpaceOnUse">
<stop stop-color="#16EBD5"/>
<stop offset="1" stop-color="#0CCAD0"/>
</linearGradient>
<linearGradient id="paint1_linear_0_2533" x1="86.3796" y1="83.902" x2="86.3796" y2="111.143" gradientUnits="userSpaceOnUse">
<stop stop-color="#16EBD5"/>
<stop offset="1" stop-color="#0CCAD0"/>
</linearGradient>
<linearGradient id="paint2_linear_0_2533" x1="69.5819" y1="69.6418" x2="69.5819" y2="70.8023" gradientUnits="userSpaceOnUse">
<stop stop-color="#16EBD5"/>
<stop offset="1" stop-color="#0CCAD0"/>
</linearGradient>
<linearGradient id="paint3_linear_0_2533" x1="41.8926" y1="53.6825" x2="41.8926" y2="61.0477" gradientUnits="userSpaceOnUse">
<stop stop-color="#FE6587"/>
<stop offset="1" stop-color="#F52D6A"/>
</linearGradient>
<linearGradient id="paint4_linear_0_2533" x1="46.5469" y1="53.478" x2="46.5469" y2="68.9238" gradientUnits="userSpaceOnUse">
<stop stop-color="#FE6587"/>
<stop offset="1" stop-color="#F52D6A"/>
</linearGradient>
<linearGradient id="paint5_linear_0_2533" x1="54.5909" y1="54.2151" x2="54.5909" y2="63.9973" gradientUnits="userSpaceOnUse">
<stop stop-color="#FE6587"/>
<stop offset="1" stop-color="#F52D6A"/>
</linearGradient>
</defs>
</svg>
