<svg width="12" height="10" viewBox="0 0 12 10" fill="none" xmlns="http://www.w3.org/2000/svg">
<path d="M0.153672 9.72139C0.0956358 9.38437 1.69009 8.88547 4.1785 8.1534C5.60969 7.74395 7.01265 7.24161 8.37846 6.64956C8.70371 6.51826 9.01149 6.34727 9.29481 6.14048C9.39663 6.05597 9.43735 5.9847 9.42412 5.99183C9.41088 5.99895 9.42412 6.09364 9.39154 6.04375C9.35183 5.91484 9.30213 5.78923 9.24288 5.66805L8.93132 5.02049C8.74046 4.62049 8.52417 4.23313 8.28377 3.86079C8.06921 3.52834 7.81444 3.22363 7.52523 2.9536C7.39044 2.82989 7.24758 2.71526 7.0976 2.61048C6.97623 2.52784 6.84572 2.45951 6.70866 2.40685C6.50601 2.3132 6.27717 2.29269 6.0611 2.34881C5.78269 2.43843 5.52654 2.58629 5.30969 2.78255C4.20242 3.70613 3.22193 4.77186 2.39365 5.95212C0.961081 7.98846 0.585376 9.57477 0.229016 9.52284C0.0732361 9.52284 -0.0428354 9.06874 0.0152003 8.28475C0.119778 7.17827 0.430583 6.10116 0.931554 5.10907C1.66215 3.61981 2.65197 2.27246 3.85472 1.13006C4.28581 0.70725 4.80288 0.382215 5.37078 0.177051C6.05523 -0.059017 6.79903 -0.059017 7.48348 0.177051C7.79523 0.289783 8.0931 0.437695 8.37133 0.617919C8.62614 0.778974 8.86694 0.961192 9.09118 1.16264C9.53852 1.56289 9.93087 2.02064 10.258 2.52394C10.559 2.98519 10.8255 3.46811 11.0552 3.96872L11.3668 4.65599C11.5161 4.9664 11.623 5.29551 11.6845 5.63445C11.7641 6.11914 11.6796 6.61655 11.4442 7.04767C11.2496 7.39498 10.9792 7.69394 10.6531 7.92228C10.2026 8.2299 9.71199 8.47417 9.19503 8.64823C7.68314 9.19108 6.11633 9.56665 4.52264 9.76822C1.85198 10.1297 0.19338 10.0329 0.153672 9.72139Z" fill="#EBEBEB"/>
</svg>
