<svg width="6" height="6" viewBox="0 0 6 6" fill="none" xmlns="http://www.w3.org/2000/svg">
<path d="M5.86865 4.85652C5.86865 5.08169 5.08409 5.35129 3.70883 5.49972C2.86567 5.56843 2.01695 5.50023 1.19559 5.29777C0.806537 5.20481 0.462852 4.97736 0.225231 4.65558C0.0853898 4.43379 0.00762843 4.17854 5.93853e-05 3.91645C-0.00121701 3.73078 0.0180858 3.54554 0.0576144 3.36413C0.16758 2.83484 0.324717 2.31645 0.527142 1.81519C0.651541 1.53117 0.804459 1.26052 0.983544 1.0074C1.19116 0.712379 1.45295 0.459498 1.75498 0.262213C2.13679 0.0198984 2.60001 -0.0586989 3.04038 0.0441099C3.36678 0.139002 3.66769 0.30602 3.92087 0.532823C4.57144 1.08876 5.10838 1.76525 5.50212 2.52503C6.14532 3.81043 6.05445 4.76766 5.8424 4.79997C5.63036 4.83228 5.28301 4.09922 4.50551 3.16723C4.05705 2.62935 3.54082 2.15181 2.9697 1.74653C2.88477 1.67779 2.7864 1.62757 2.68091 1.59911L2.63547 1.63142C2.52836 1.72004 2.43511 1.82419 2.35881 1.9404C2.25109 2.09495 2.16068 2.26087 2.08921 2.43517C1.92478 2.8537 1.78982 3.28321 1.68531 3.72056L1.64694 3.86799H1.44499C1.48912 3.84113 1.52839 3.80699 1.56111 3.76701L1.59948 3.72864C1.6432 3.76005 1.6907 3.78583 1.74085 3.80538C2.41173 4.0307 3.10245 4.19197 3.80374 4.28703C5.02653 4.47383 5.86865 4.62125 5.86865 4.85652Z" fill="#E0E0E0"/>
</svg>
