<svg width="13" height="15" viewBox="0 0 13 15" fill="none" xmlns="http://www.w3.org/2000/svg">
<path fill-rule="evenodd" clip-rule="evenodd" d="M10.2142 1.85713H11.6101C12.3784 1.85941 12.9999 2.4828 12.9999 3.25101V4.64282H0V3.25101C0 2.48159 0.623432 1.8577 1.39285 1.85713H2.78569V0.464284C2.78626 0.207702 2.99442 0 3.25101 2.28643e-06H4.17957C4.43535 0.00113594 4.64226 0.208505 4.64282 0.464284V1.85713H8.35708V0.464284C8.35735 0.340875 8.40664 0.22263 8.49409 0.13556C8.58155 0.0484898 8.70001 -0.000271651 8.82342 2.28643e-06H9.75199C10.0074 0.00170043 10.2136 0.208905 10.2142 0.464284V1.85713ZM1.39285 14.857C0.62504 14.8565 0.00227309 14.2351 0 13.4673V5.57139H12.9999V13.4642C12.9993 14.2332 12.3761 14.8565 11.6071 14.857H1.39285ZM9.38845 7.53059C9.32263 7.59622 9.28564 7.68533 9.28564 7.77828V8.93898C9.28734 9.13134 9.44407 9.28622 9.63643 9.28564H10.7971C10.9887 9.28509 11.1442 9.13054 11.1459 8.93898V7.77724C11.1453 7.58488 10.9895 7.42908 10.7971 7.42852H9.63643C9.54349 7.42824 9.45426 7.46497 9.38845 7.53059ZM9.28564 11.4925C9.28564 11.3996 9.32263 11.3105 9.38845 11.2449C9.45426 11.1792 9.54349 11.1425 9.63643 11.1428H10.7971C10.9895 11.1433 11.1453 11.2991 11.1459 11.4915V12.6522C11.1453 12.8446 10.9895 13.0004 10.7971 13.0009H9.63643C9.44407 13.0015 9.28734 12.8466 9.28564 12.6543V11.4925ZM5.92114 7.42852C5.72798 7.42852 5.57139 7.58511 5.57139 7.77828V8.93898C5.57308 9.13094 5.72918 9.28565 5.92114 9.28564H7.08185C7.27341 9.28509 7.42888 9.13054 7.43058 8.93898V7.77724C7.43001 7.58488 7.27421 7.42908 7.08185 7.42852H5.92114ZM5.57139 11.4925C5.57195 11.3002 5.72775 11.1444 5.92011 11.1438H7.08185C7.27421 11.1444 7.43001 11.3002 7.43058 11.4925V12.6532C7.43001 12.8456 7.27421 13.0014 7.08185 13.002H5.92114C5.72878 13.0014 5.57298 12.8456 5.57242 12.6532L5.57139 11.4925ZM2.20586 7.42852C2.01309 7.42908 1.85713 7.58551 1.85713 7.77828V8.93898C1.85882 9.13054 2.01429 9.28509 2.20586 9.28564H3.36656C3.55812 9.28509 3.71359 9.13054 3.71529 8.93898V7.77724C3.71472 7.58488 3.55892 7.42908 3.36656 7.42852H2.20586ZM1.85713 11.4925C1.8577 11.3002 2.01349 11.1444 2.20586 11.1438H3.36656C3.55892 11.1444 3.71472 11.3002 3.71529 11.4925V12.6532C3.71472 12.8456 3.55892 13.0014 3.36656 13.002H2.20586C2.01349 13.0014 1.8577 12.8456 1.85713 12.6532V11.4925Z" fill="#B4C2CD"/>
</svg>
