<svg width="31" height="42" viewBox="0 0 31 42" fill="none" xmlns="http://www.w3.org/2000/svg">
<path d="M15.4774 0.0114804C17.4203 0.938642 18.9022 2.61648 19.5823 4.65899C20.2438 6.68973 20.4294 8.84537 20.1249 10.9593C19.6656 15.0452 17.3418 19.1682 14.8456 22.4497C11.4046 19.449 10.6133 14.2087 10.3766 11.5269C10.0065 7.28863 11.909 -0.602303 15.4834 0.0365533" fill="#7F47FA"/>
<path d="M18.8402 29.1823C18.3636 26.8059 19.1968 24.3564 21.0236 22.7636C22.8602 21.213 25.244 20.4675 27.6368 20.6956C28.7452 20.6811 29.8057 21.1466 30.5453 21.9723C31.0919 22.8684 31.1088 23.9907 30.5894 24.9028C30.0686 25.7918 29.3215 26.5268 28.4241 27.033C25.4434 28.9034 22.213 30.1671 18.8483 29.1592" fill="#7F47FA"/>
<path d="M14.4304 41.7066C14.4466 41.4248 14.4872 41.1449 14.5517 40.8701C14.66 40.2764 14.8004 39.5172 14.9669 38.5975C15.353 36.0722 16.1441 33.6257 17.3097 31.3525C18.5233 29.081 20.319 27.1732 22.5129 25.8244C23.1801 25.4297 23.8914 25.1147 24.632 24.8857C24.8415 24.8196 25.0549 24.7663 25.2709 24.7262C25.4364 24.6881 25.4875 24.6881 25.4875 24.7262C22.0525 25.8393 19.2093 28.2867 17.5976 31.518C16.449 33.7691 15.6422 36.1788 15.2036 38.6677C14.993 39.6185 14.8205 40.3918 14.6931 40.9143C14.6287 41.1855 14.5407 41.4506 14.4304 41.7066Z" fill="#263238"/>
<path d="M14.5498 6.15032C14.5795 6.27144 14.5947 6.39568 14.5949 6.5204C14.5949 6.78818 14.633 7.15925 14.6591 7.57346C14.7042 8.48611 14.7594 9.80795 14.8126 11.4487C14.9128 14.7232 14.9981 19.2494 14.978 24.2158C14.958 29.1823 14.8376 33.7435 14.6972 37.015C14.633 38.6558 14.5699 39.9766 14.5117 40.8903C14.4796 41.3246 14.4605 41.6696 14.4415 41.9434C14.4866 41.5793 14.3773 42.179 14.3773 41.9434V40.8833C14.3773 39.9325 14.4284 38.6167 14.4666 37.008C14.5498 33.7335 14.6391 29.2134 14.6671 24.2409C14.6952 19.2684 14.635 14.7232 14.5839 11.4738C14.5839 9.86913 14.5388 8.54328 14.5197 7.59251V6.53945C14.5206 6.4092 14.5307 6.27917 14.5498 6.15032Z" fill="#263238"/>
<path d="M12.891 31.6654C12.0451 26.6433 8.833 22.3355 4.26096 20.0918C3.11162 19.5432 1.61126 19.1792 0.666516 20.0346C-0.27823 20.8901 -0.0736356 22.4286 0.391717 23.6221C2.46016 28.6652 7.35709 31.9708 12.8078 32.0034" fill="#7F47FA"/>
<path d="M4.81648 23.967C5.07135 24.0482 5.31732 24.1551 5.55061 24.2859C5.83422 24.4149 6.10925 24.562 6.374 24.7262C6.73436 24.92 7.0839 25.1332 7.42105 25.3651C7.83902 25.6429 8.24083 25.9442 8.62454 26.2677C9.07215 26.6299 9.49843 27.0176 9.90126 27.4291C10.8272 28.3742 11.6431 29.4213 12.3333 30.5501C13.0023 31.6914 13.5377 32.9059 13.929 34.1697C14.0982 34.7207 14.2345 35.2813 14.3371 35.8485C14.4333 36.3399 14.5003 36.8366 14.5377 37.3359C14.6019 37.7952 14.5758 38.2104 14.5949 38.5745C14.6158 38.887 14.6158 39.2006 14.5949 39.5132C14.5899 39.7792 14.56 40.0441 14.5056 40.3045C14.4354 40.3045 14.5508 39.1682 14.3522 37.3619C14.299 36.8687 14.22 36.3786 14.1155 35.8937C14.0152 35.3701 13.8537 34.8215 13.6883 34.2469C13.2893 33.0103 12.7541 31.8219 12.0926 30.7036C11.417 29.5934 10.623 28.5597 9.72474 27.6206C9.33296 27.2094 8.91951 26.8194 8.48614 26.4522C8.08999 26.0952 7.68381 25.8134 7.31775 25.5325C5.82441 24.4965 4.78438 24.0242 4.81648 23.967Z" fill="#263238"/>
</svg>
