<svg width="23" height="22" viewBox="0 0 23 22" fill="none" xmlns="http://www.w3.org/2000/svg">
<g clip-path="url(#clip0_14_33)">
<path d="M5.59481 5.32705H6.65795C7.04837 5.32705 7.36521 5.09255 7.36521 4.79873V0.526913C7.36521 0.234498 7.05137 0 6.65795 0H5.59481C5.20439 0 4.88605 0.23591 4.88605 0.526913V4.79873C4.88605 5.09255 5.20439 5.32705 5.59481 5.32705Z" fill="#030104"/>
<path d="M16.7097 5.32705H17.7714C18.1663 5.32705 18.4786 5.09255 18.4786 4.79873V0.526913C18.4786 0.234498 18.1663 0 17.7714 0H16.7097C16.3193 0 16.0025 0.23591 16.0025 0.526913V4.79873C16.004 5.09255 16.3193 5.32705 16.7097 5.32705Z" fill="#030104"/>
<path d="M22.1441 2.03833H19.327V5.31C19.327 6.04033 18.6288 6.63505 17.7699 6.63505H16.7082C15.8493 6.63505 15.1496 6.04033 15.1496 5.31V2.03833H8.21211V5.31C8.21211 6.04033 7.51387 6.63505 6.65344 6.63505H5.59481C4.73889 6.63505 4.03764 6.04033 4.03764 5.31V2.03833H1.21911C0.750612 2.03833 0.369203 2.39855 0.369203 2.84071V21.1965C0.369203 21.6387 0.750612 21.9961 0.890261 21.9961H21.8197C22.6156 21.9961 23 21.6387 23 21.1965V2.83788C22.9985 2.39855 22.6141 2.03833 22.1441 2.03833ZM21.6876 20.1822C21.6876 20.979 20.9578 20.9097 20.9578 20.9097H13.3281C13.3281 20.9097 17.9936 18.7103 21.6876 15.5869C21.6876 15.5869 21.6876 19.2612 21.6876 20.1822ZM21.8482 13.3832C21.5284 14.5712 20.8211 15.9471 19.5313 15.0473C17.6512 13.7378 15.7983 12.626 15.5595 15.2592C15.3628 17.477 11.0051 20.493 10.0561 21.123H1.78522C1.63656 21.123 1.51944 21.0114 1.51944 20.873V9.55779C1.51944 9.41794 1.63806 9.30634 1.78522 9.30634H21.5825C21.7281 9.30634 21.8497 9.41794 21.8497 9.55779L21.8482 13.3832Z" fill="#030104"/>
<path d="M8.1926 11.2588H4.88605V14.368H8.1926V11.2588Z" fill="#030104"/>
<path d="M13.6284 11.2588H10.3249V14.368H13.6284V11.2588Z" fill="#030104"/>
<path d="M8.1926 15.9754H4.88605V19.0846H8.1926V15.9754Z" fill="#030104"/>
<path d="M10.3249 19.0846H11.2814C11.9797 18.4687 13.0353 17.4502 13.6284 16.7509V15.9754H10.3249V19.0846Z" fill="#030104"/>
<path d="M15.5895 12.7251C15.9229 12.4186 16.3238 12.3253 16.6842 12.3253C17.3644 12.3253 18.1137 12.6827 18.8931 13.1673V11.2588H15.5895V12.7251Z" fill="#030104"/>
</g>
<defs>
<clipPath id="clip0_14_33">
<rect width="22.1901" height="21.2216" fill="white" transform="scale(1.0365)"/>
</clipPath>
</defs>
</svg>
