<svg width="336" height="275" viewBox="0 0 336 275" fill="none" xmlns="http://www.w3.org/2000/svg">
<rect y="259.926" width="336" height="0.187404" fill="#EBEBEB"/>
<rect x="276.151" y="271.987" width="23.819" height="0.187404" fill="#EBEBEB"/>
<rect x="216.471" y="274.026" width="6.25002" height="0.187404" fill="#EBEBEB"/>
<rect x="265.762" y="265.031" width="13.8007" height="0.187404" fill="#EBEBEB"/>
<rect x="37.7277" y="266.29" width="31.0612" height="0.187404" fill="#EBEBEB"/>
<rect x="70.201" y="266.29" width="4.55267" height="0.187404" fill="#EBEBEB"/>
<rect x="86.918" y="269.454" width="67.3729" height="0.187404" fill="#EBEBEB"/>
<path fill-rule="evenodd" clip-rule="evenodd" d="M31.5792 211.989H170.445C171.535 211.989 172.58 211.538 173.35 210.735C174.12 209.932 174.553 208.842 174.552 207.707V4.28019C174.552 1.91631 172.713 0 170.445 0H31.5792C29.3282 0.00414935 27.5 1.89628 27.4801 4.24237V207.709C27.4801 210.07 29.3141 211.985 31.5792 211.989ZM27.6599 4.24237C27.6599 1.985 29.4134 0.153849 31.5792 0.149582H170.445C172.612 0.153839 174.368 1.98375 174.372 4.24237V207.707C174.368 209.965 172.612 211.795 170.445 211.799H31.5792C29.4134 211.795 27.6599 209.964 27.6599 207.707V4.24237Z" fill="#EBEBEB"/>
<path fill-rule="evenodd" clip-rule="evenodd" d="M163.549 211.989H302.422C304.685 211.981 306.516 210.066 306.514 207.707V4.24237C306.494 1.89895 304.67 0.00791014 302.422 0H163.549C161.297 0.00410312 159.466 1.89503 159.442 4.24237V207.709C159.446 210.071 161.283 211.985 163.549 211.989ZM159.622 4.24237C159.626 1.98375 161.382 0.153839 163.549 0.149582H302.422C304.589 0.153839 306.344 1.98375 306.348 4.24237V207.707C306.344 209.965 304.589 211.795 302.422 211.799H163.549C161.382 211.795 159.626 209.965 159.622 207.707V4.24237Z" fill="#EBEBEB"/>
<ellipse rx="31.7289" ry="33.0009" transform="matrix(0.985988 -0.166819 0.15388 0.98809 172.468 139.454)" fill="#F0F0F0"/>
<path d="M169.151 165.926C175.142 160.926 192.883 160.682 201.269 168.175C209.655 175.668 221.169 187.912 225.247 189.408C229.324 190.905 242.902 185.413 253.856 184.164C264.809 182.916 269.114 194.659 273.187 201.158C277.261 207.657 281.58 207.904 283.497 216.397C285.413 224.889 289.005 231.142 294.522 238.136C300.039 245.13 316.098 254.627 317.773 259.927H140.858L138.945 187.664C143.707 182.664 163.124 170.923 169.151 165.926Z" fill="#EBEBEB"/>
<path d="M51.2563 194.658C54.9743 190.745 66.9919 188.167 73.8745 172.673C80.7571 157.178 103.36 124.946 111.991 120.485C120.621 116.024 130.164 96.5008 133.617 93.7164C137.069 90.932 141.528 98.4616 142.721 102.959C145.828 114.398 160.701 146.938 169.546 153.183C178.392 159.427 179.011 172.919 181.477 180.671C183.944 188.422 199.069 192.912 202.509 202.904C205.949 212.896 244.221 259.926 244.221 259.926H15.8222C27.1997 251.312 36.936 209.732 51.2563 194.658Z" fill="#F5F5F5"/>
<path d="M127.07 95.9644C127.07 99.8096 125.955 117.621 122.115 121.953C118.274 126.286 121.662 116.623 115.174 121.953C108.687 127.283 105.825 138.272 94.9437 142.11C84.0626 145.949 85.0408 136.278 90.3118 130.777C95.5829 125.275 101.819 115.619 106.781 112.786C111.742 109.953 127.07 84.1356 127.07 95.9644Z" fill="#F0F0F0"/>
<path d="M107.158 179.909C112.329 172.458 89.0953 181.078 82.0651 178.41C75.0349 175.741 80.4684 172.083 70.2348 181.408C60.0012 190.734 42.2755 199.736 51.86 202.9C61.4445 206.063 97.5351 193.739 107.158 179.909Z" fill="#F0F0F0"/>
<path d="M224.361 182.691C220.391 177.744 215.852 168.448 209.977 166.822C204.101 165.195 200.153 164.198 201.347 167.946C202.54 171.694 230.546 190.381 224.361 182.691Z" fill="#F0F0F0"/>
<path d="M284.305 210.898C283.284 207.427 280.148 207.524 277.393 202.023C274.639 196.521 270.561 187.158 263.844 186.784C257.127 186.409 246.498 189.16 255.459 196.154C264.42 203.148 287.858 223.011 284.305 210.898Z" fill="#F0F0F0"/>
<path d="M267.319 40.8161H130.675C113.414 40.8161 161.836 37.0681 188.447 30.8236C215.057 24.5791 217.213 22.5778 226.081 29.3243C234.949 36.0709 261.321 21.0786 274.028 30.074C286.736 39.0693 290.088 40.8161 267.319 40.8161Z" fill="#FAFAFA"/>
<path d="M101.51 68.0799C118.555 68.0799 151.083 66.6331 138.037 60.6439C124.991 54.6548 115.333 66.6409 109.637 61.5509C103.941 56.4609 94.721 55.7491 87.0689 60.6439C79.4168 65.5388 81.6898 57.9232 72.4624 60.6439C59.5137 64.4591 18.0638 68.0799 53.347 68.0799H101.51Z" fill="#FAFAFA"/>
<path d="M228.842 136.378C241.86 136.378 266.693 135.268 256.732 130.704C246.772 126.141 239.4 135.269 235.056 131.392C230.712 127.515 223.665 126.962 217.796 130.704C211.927 134.447 213.689 128.628 206.642 130.704C196.782 133.613 165.117 136.378 192.049 136.378H228.842Z" fill="#FAFAFA"/>
</svg>
