<svg width="6" height="7" viewBox="0 0 6 7" fill="none" xmlns="http://www.w3.org/2000/svg">
<path fill-rule="evenodd" clip-rule="evenodd" d="M5.9999 6.66432V2.7875C5.9999 0.878971 4.90047 -0.0251237 2.97914 0.00262887C1.98418 -0.0309162 1.00493 0.257318 0.186796 0.824533L0.790949 1.94531C1.37418 1.4948 2.09281 1.25513 2.8297 1.26537C3.9302 1.26537 4.47351 1.79481 4.47351 2.6989V2.80564H2.75178C0.747186 2.80564 0 3.62221 0 4.76967C0 5.91714 0.958532 6.74651 2.46678 6.74651C3.26655 6.82511 4.05097 6.48927 4.54609 5.85629V6.66432H5.9999ZM4.47778 3.82715V4.58821H4.47351C4.19468 5.26414 3.51027 5.68169 2.78166 5.6204C1.99392 5.6204 1.51785 5.18596 1.51785 4.70349C1.51785 4.22102 1.82313 3.82715 2.87666 3.82715H4.47778Z" fill="#7F47FA"/>
</svg>
