<svg width="79" height="232" viewBox="0 0 79 232" fill="none" xmlns="http://www.w3.org/2000/svg">
<path d="M66.613 11.5966L66.6641 14.1485C66.6641 14.1485 67.7046 33.9264 67.6404 36.9013C67.5763 39.8762 57.6562 56.8386 57.6562 56.8386L63.7494 66.7716L78.2951 40.6109L74.8121 12.5398L74.7228 11.8442" fill="#FFBE9D"/>
<path d="M74 8.54053L72.0415 1.33782L64.3857 5.76509C65.0395 7.75026 65.8041 9.69716 66.676 11.5966L68.0031 12.9748C68.0031 12.9748 74.6576 12.2732 74.7979 12.203C74.6065 10.9671 74.3401 9.74405 74 8.54053Z" fill="#FFBE9D"/>
<path d="M72.2782 1.84903C72.3114 1.89592 72.3371 1.94765 72.3544 2.00239C72.6481 2.78119 73.5031 6.29635 73.1132 6.55796C72.7232 6.81956 71.4092 6.88371 71.1987 6.44269C70.9882 6.00167 70.2605 1.97633 70.2605 1.97633C70.2605 1.97633 70.1844 1.33784 71.1917 0.910853C71.8181 0.66829 72.2782 1.84903 72.2782 1.84903Z" fill="#FFBE9D"/>
<path d="M69.8534 1.13441C69.8857 1.17929 69.9113 1.22857 69.9296 1.28075C70.2232 2.06558 71.0782 5.57472 70.6883 5.83633C70.2984 6.09793 68.9844 6.16208 68.7739 5.72106C68.5634 5.28003 67.8357 1.25469 67.8357 1.25469C67.8357 1.25469 67.7655 0.616212 68.7669 0.195235C69.3933 -0.052339 69.8534 1.13441 69.8534 1.13441Z" fill="#FFBE9D"/>
<path d="M67.6394 1.05724C67.6765 1.10169 67.7025 1.15422 67.7156 1.21059C68.0093 1.9894 68.8572 5.50456 68.4683 5.76616C68.0794 6.02777 66.7714 6.09192 66.5539 5.6509C66.3364 5.20987 65.6157 1.18453 65.6157 1.18453C65.6157 1.18453 65.5395 0.546052 66.5469 0.125075C67.1804 -0.14856 67.6394 1.05724 67.6394 1.05724Z" fill="#FFBE9D"/>
<path d="M65.4454 0.967963C65.4824 1.01242 65.5085 1.06494 65.5215 1.12132C65.8152 1.90013 66.6632 5.41528 66.2743 5.67689C65.8854 5.9385 64.5703 6.00265 64.3598 5.56162C64.1494 5.1206 63.4217 1.09526 63.4217 1.09526C63.4217 1.09526 63.3455 0.456777 64.3528 0.0357997C64.9863 -0.218791 65.4454 0.967963 65.4454 0.967963Z" fill="#FFBE9D"/>
<path d="M70.9249 5.42128C70.8176 4.25381 70.5626 3.10467 70.1661 2.00135C70.2735 3.16882 70.5284 4.31797 70.9249 5.42128Z" fill="#EB996E"/>
<path d="M68.8522 5.96151C68.7877 5.12701 68.6448 4.30044 68.4252 3.49278C68.2907 2.66594 68.0769 1.85399 67.7867 1.06815C67.8591 1.90163 68.002 2.72748 68.2137 3.53688C68.3561 4.3619 68.5694 5.17311 68.8512 5.96151H68.8522Z" fill="#EB996E"/>
<g opacity="0.78">
<path d="M66.7274 6.33348C66.6552 5.49766 66.5123 4.66945 66.3004 3.85774C66.1575 3.03303 65.9439 2.22216 65.6619 1.43411C65.7264 2.27091 65.8693 3.09981 66.0889 3.90986C66.2246 4.73611 66.4384 5.54762 66.7274 6.33348Z" fill="#EB996E"/>
</g>
<path d="M68.386 10.894L66.0636 9.01869C65.0462 8.19851 64.3856 7.0164 64.2204 5.72004L64.0931 4.73074L71.1093 3.31445C71.1093 3.31445 71.1093 5.9205 69.1317 5.95558L71.6005 7.23154L68.386 10.894Z" fill="#FFBE9D"/>
<path d="M71.2637 7.73666C71.0775 7.49885 70.8766 7.27289 70.6623 7.06009C70.0804 6.52341 69.3227 6.2173 68.5313 6.1991H67.7786L68.4872 5.93749L70.108 5.33609C70.7707 4.98234 71.1651 4.27352 71.1163 3.52389C71.1105 3.46792 71.0998 3.41258 71.0843 3.3585L71.2847 3.46676C69.3262 3.95188 67.5521 4.35983 66.2571 4.58335C65.6186 4.69861 65.0833 4.76878 64.7135 4.81288C64.5253 4.83954 64.3343 4.83954 64.1462 4.81288C64.8242 4.61557 65.5121 4.45365 66.2069 4.32775C67.4829 4.05312 69.244 3.60708 71.2025 3.12496L71.3559 3.08687L71.401 3.23321C71.4234 3.30639 71.4405 3.38109 71.4521 3.45673C71.5004 3.9039 71.3943 4.35412 71.1514 4.73269C70.9248 5.07195 70.6264 5.35731 70.2774 5.56863L68.6376 6.12994L68.5925 5.86231C69.4466 5.89721 70.2529 6.26615 70.8377 6.8897C71.0569 7.12604 71.2047 7.41973 71.2637 7.73666Z" fill="#EB996E"/>
<path d="M70.8358 4.49011C70.8929 4.49011 71.0082 4.80885 71.365 5.12859C71.5512 5.30811 71.8313 5.34847 72.0606 5.22883C72.3143 5.01743 72.4339 4.68543 72.3734 4.36081C72.2902 3.56998 72.2461 2.82926 72.1729 2.31907C72.1012 2.03974 72.0648 1.75249 72.0647 1.46409C72.1158 1.44505 72.2651 1.74474 72.4024 2.27397C72.5484 2.95547 72.6489 3.64593 72.7031 4.34077C72.775 4.78499 72.5865 5.2312 72.218 5.48943C71.8768 5.66356 71.4612 5.58759 71.2037 5.304C71.0524 5.13911 70.9392 4.94306 70.8719 4.72967C70.8308 4.58533 70.8168 4.50214 70.8358 4.49011Z" fill="#EB996E"/>
<path d="M46.9885 27.6359C48.7197 27.684 50.3466 28.4741 51.4549 29.8049C52.6476 31.0428 53.5287 32.5112 54.7465 33.703C55.7518 34.4805 56.6151 35.4259 57.2984 36.4975C58.1725 38.3217 57.4388 40.6762 58.5744 42.3731C59.2129 43.3233 60.2904 43.8856 60.9349 44.8228C61.6109 46.0915 61.81 47.5605 61.4962 48.9634C61.4532 49.9594 61.1031 50.9177 60.4939 51.7068C59.927 52.236 59.2385 52.6174 58.4892 52.8173C52.9205 54.7014 46.9077 54.8305 41.2632 53.1872" fill="#263238"/>
<path d="M35.2932 39.0113C34.9986 36.657 35.6702 34.2838 37.1548 32.433C38.6394 30.5822 40.8104 29.4117 43.1725 29.1885C47.8719 28.8259 52.0443 32.1773 52.7036 36.8443C53.2485 40.046 53.6232 43.2743 53.8262 46.5157C53.7691 51.0202 51.134 52.7682 50.0685 53.2974C49.6845 53.4373 49.2867 53.5357 48.8818 53.5911V53.6232L49.8841 58.7912C50.3371 62.1791 48.4488 65.171 45.0669 65.6882C41.6851 66.2054 39.0249 63.5833 38.5087 60.1955L35.2932 39.0113Z" fill="#FFBE9D"/>
<path d="M51.927 39.5033C51.8568 39.6036 51.2885 39.2868 50.4977 39.4031C49.7068 39.5194 49.2217 39.9774 49.1385 39.8943C49.0553 39.8111 49.1385 39.6838 49.3751 39.4673C49.6718 39.1919 50.0457 39.0139 50.4466 38.9571C50.8429 38.9016 51.2468 38.9717 51.6012 39.1575C51.8628 39.2989 51.9631 39.4522 51.927 39.5033Z" fill="#263238"/>
<path d="M45.1513 40.9698C45.0751 41.07 44.5128 40.7532 43.7219 40.8695C42.9311 40.9858 42.446 41.4439 42.3568 41.3707C42.2676 41.2975 42.3568 41.1542 42.5933 40.9437C42.8893 40.6631 43.2672 40.4843 43.6718 40.4335C44.0673 40.3711 44.4723 40.4383 44.8265 40.625C45.0811 40.7653 45.1893 40.9186 45.1513 40.9698Z" fill="#263238"/>
<path d="M47.7982 44.5682C48.1821 44.3879 48.5858 44.2533 49.001 44.1672C49.1925 44.1161 49.3709 44.052 49.3839 43.9186C49.3694 43.7141 49.294 43.5187 49.1674 43.3573L48.3766 41.9601C47.663 40.7809 47.043 39.5476 46.5223 38.2715C47.3341 39.3869 48.0531 40.5669 48.6722 41.7997C48.9399 42.2909 49.1955 42.763 49.444 43.21C49.5986 43.4293 49.6729 43.6951 49.6545 43.9627C49.6151 44.1096 49.5122 44.2313 49.3739 44.2945C49.2714 44.3365 49.1645 44.3664 49.0551 44.3837C48.6465 44.5019 48.2236 44.564 47.7982 44.5682Z" fill="#263238"/>
<path d="M48.8507 53.6211C46.5006 53.962 44.1021 53.6116 41.9477 52.6128C41.9477 52.6128 43.6707 56.3324 49.1253 55.0114L48.8507 53.6211Z" fill="#EB996E"/>
<path d="M47.7281 46.4505C47.385 46.1336 46.9052 46.0111 46.4522 46.1247C46.1165 46.2041 45.8272 46.416 45.6503 46.7121C45.4821 47.0037 45.5099 47.3686 45.7205 47.6312C46.0142 47.8717 46.4229 47.9143 46.7599 47.7395C47.0993 47.5558 47.4004 47.3088 47.6469 47.0118C47.7233 46.9382 47.7861 46.8516 47.8324 46.7562C47.8776 46.6624 47.8596 46.5504 47.7873 46.4756" fill="#EB996E"/>
<path d="M45.6233 45.4231C45.7446 45.4231 45.8659 46.225 46.6567 46.6991C47.4476 47.1732 48.3216 46.9607 48.3406 47.076C48.3597 47.1913 48.1682 47.2674 47.7984 47.3316C47.3148 47.4084 46.8196 47.3111 46.4011 47.0569C45.9967 46.8171 45.7032 46.4274 45.5842 45.9724C45.502 45.6467 45.5652 45.4292 45.6233 45.4231Z" fill="#263238"/>
<path d="M44.6078 38.488C44.5627 38.7115 43.7849 38.7175 42.9039 38.9601C42.0228 39.2026 41.3412 39.5474 41.1939 39.375C41.1297 39.2989 41.1939 39.0814 41.4876 38.8388C42.2035 38.2267 43.161 37.9773 44.0846 38.1622C44.4555 38.2454 44.6399 38.3857 44.6078 38.488Z" fill="#263238"/>
<path d="M51.1612 37.155C51.0529 37.3464 50.5227 37.2442 49.8852 37.3274C49.2477 37.4106 48.7366 37.6141 48.6093 37.4487C48.482 37.2833 48.6093 37.1811 48.8097 36.9826C49.0948 36.7403 49.4461 36.5891 49.8181 36.5486C50.1897 36.4998 50.5673 36.57 50.8966 36.7491C51.1041 36.8934 51.2053 37.0588 51.1612 37.155Z" fill="#263238"/>
<path d="M53.5848 35.8589C52.6536 37.2812 49.6998 36.4011 47.9126 35.4249C45.9779 36.664 43.408 36.1349 42.1202 34.2321C41.5938 34.8043 40.8168 35.0764 40.0485 34.9577C39.2801 34.839 38.6215 34.3451 38.2923 33.6407C37.629 32.0433 37.9016 30.2101 39.001 28.8747C40.0461 27.678 41.4857 26.8956 43.0584 26.6696C46.7483 25.9523 50.5111 27.4999 52.6286 30.6057C53.7264 32.125 54.0891 34.0548 53.6179 35.8689" fill="#263238"/>
<path d="M39.2425 28.7655C35.8927 28.127 32.6652 31.4637 32.3264 33.8693C31.7461 38.016 32.3264 38.5332 31.5476 40.5168C31.0565 41.7927 29.3525 43.1328 28.683 44.4659C27.996 46.1784 27.9196 48.0752 28.4665 49.8374C28.8874 51.1133 30.6164 54.7057 30.6164 54.7057C33.1398 54.6353 35.6535 54.3644 38.1339 53.8958C38.7916 53.761 39.4081 53.4725 39.9331 53.0538C40.4182 52.6138 39.4159 51.0953 39.5121 50.4478C39.7737 48.6105 41.1449 47.5411 40.788 45.7369C40.2648 43.3313 38.3704 43.1849 38.4085 40.7413C38.4085 39.4653 40.3801 37.5509 40.5585 36.2749C40.7369 34.999 41.4897 30.4694 39.2826 28.7976" fill="#263238"/>
<path d="M33.5772 54.8399C33.5772 54.8399 33.3347 54.5593 32.9398 54.0491C32.3488 53.33 31.8513 52.5389 31.4593 51.6946C30.868 50.4509 30.6169 49.0727 30.7316 47.7004C30.8591 46.0182 31.6529 44.4566 32.9368 43.3623C33.6253 42.807 34.4102 42.386 35.0807 41.8247C35.7467 41.2901 36.2346 40.5659 36.48 39.7479C36.6785 39.0224 36.8172 38.2819 36.8949 37.5338C36.9612 36.8959 37.0873 36.2656 37.2718 35.6514C37.5175 34.7611 38.1265 34.0153 38.9497 33.5966C39.2643 33.4694 39.5997 33.4014 39.939 33.3962C39.8529 33.3672 39.7622 33.3543 39.6714 33.3581C39.4094 33.3538 39.1491 33.4015 38.9056 33.4984C38.0109 33.886 37.3335 34.6497 37.0553 35.5843C36.848 36.2061 36.7049 36.8476 36.6283 37.4987C36.5441 38.2305 36.3989 38.954 36.1943 39.6617C35.9609 40.4203 35.4997 41.0888 34.8732 41.5762C34.2348 42.1124 33.4439 42.5264 32.7233 43.1137C31.3811 44.2559 30.5573 45.8919 30.439 47.6503C30.3327 49.0672 30.6096 50.4867 31.2408 51.7598C31.6573 52.6099 32.1899 53.3979 32.8235 54.1012C33.047 54.3438 33.2385 54.5282 33.3657 54.6435C33.4268 54.7185 33.4979 54.7846 33.5772 54.8399Z" fill="#455A64"/>
<path d="M57.9228 52.671C57.9695 52.6147 58.012 52.555 58.0501 52.4926C58.154 52.3108 58.2477 52.1234 58.3307 51.9312C58.6197 51.2146 58.7674 50.4488 58.7657 49.676C58.7713 48.5158 58.4458 47.3781 57.8276 46.3964C57.44 45.8417 57.0136 45.3152 56.5516 44.8208C56.0762 44.3125 55.7342 43.6943 55.5563 43.0216C55.2556 41.6243 55.7157 40.2151 55.6204 38.912C55.5949 37.757 55.2788 36.627 54.7013 35.6264C54.3031 34.9626 53.7734 34.3871 53.1447 33.9355C52.9723 33.8167 52.7933 33.708 52.6084 33.6097L52.408 33.5205C52.6121 33.6984 52.8252 33.8656 53.0465 34.0217C53.6347 34.4933 54.1265 35.0738 54.4948 35.7317C55.0253 36.7121 55.3078 37.8074 55.3177 38.9221C55.3293 39.5834 55.2887 40.2447 55.1965 40.8997C55.0939 41.6247 55.1091 42.3615 55.2416 43.0817C55.4305 43.7978 55.7946 44.4557 56.301 44.9962C56.7595 45.4802 57.1858 45.9938 57.577 46.5337C58.183 47.4676 58.5147 48.5529 58.5342 49.666C58.5557 50.4198 58.4434 51.1715 58.2024 51.8861C58.0441 52.3963 57.8937 52.6579 57.9228 52.671Z" fill="#455A64"/>
<path d="M43.7539 27.1638C44.4745 27.1543 45.1949 27.1948 45.9099 27.2851C47.6246 27.5724 49.1954 28.4206 50.3762 29.6967C51.494 31.028 52.2362 32.6335 52.5262 34.3475C52.6253 35.064 52.6615 35.7877 52.6345 36.5105C52.7034 36.3241 52.7443 36.1286 52.7558 35.9302C52.8181 35.3974 52.8181 34.8592 52.7558 34.3264C52.5224 32.5466 51.7804 30.8719 50.6188 29.5032C49.3965 28.1783 47.749 27.3229 45.962 27.0856C45.4261 27.0198 44.8841 27.0198 44.3482 27.0856C44.1472 27.0803 43.9467 27.1067 43.7539 27.1638H43.7539Z" fill="#455A64"/>
<path d="M48.5642 33.7791C48.6136 33.6167 48.6373 33.4476 48.6344 33.2779C48.6497 32.8097 48.6004 32.3415 48.488 31.8867C48.1327 30.3528 47.1631 29.0321 45.8062 28.2336C44.4492 27.4351 42.8238 27.2287 41.3104 27.6629C40.8626 27.7853 40.4333 27.9677 40.0344 28.2052C39.7538 28.3836 39.6134 28.4989 39.6265 28.5179C40.1859 28.2514 40.7692 28.038 41.3685 27.8804C44.4057 27.1043 47.5 28.9249 48.2966 31.9569C48.4362 32.5565 48.5257 33.1667 48.5642 33.7811V33.7791Z" fill="#455A64"/>
<path d="M34.1197 84.16C34.1197 84.16 36.3248 89.1877 36.1995 91.5672C36.0742 93.9467 33.7939 101.68 33.7939 101.68L60.7745 104.2L60.8958 97.9601L60.0859 72.2935L75.1299 49.4094L63.7484 42.8131L52.6798 57.838L49.8793 56.7534L37.7571 58.285V60.3899L37.4123 60.428C34.7541 60.9931 32.2067 61.991 29.8718 63.3818C25.5298 66.0856 23.2474 71.1415 24.0914 76.1865C24.5826 79.2486 25.5398 82.9683 27.3771 85.1183C30.9103 89.2398 34.1197 84.16 34.1197 84.16Z" fill="url(#paint0_linear_0_7435)"/>
<path d="M30.2927 72.1802C30.2927 72.1802 28.9145 64.346 29.2974 63.7777C29.7695 63.1081 35.4416 60.6705 35.5238 60.919L36.7677 69.532L30.2927 72.1802Z" fill="#FAFAFA"/>
<path d="M53.285 72.6142L52.6405 87.639H58.3126V72.6142H53.285Z" fill="#FAFAFA"/>
<path d="M43.9004 80.1287C44.0063 80.1166 44.1132 80.1166 44.2191 80.1287H45.1954L48.928 80.0715H49.0363V80.1868C49.0744 83.7952 49.0934 89.1827 49.0934 95.2117V95.3771H43.0795V95.2117C43.2899 90.8796 43.4804 87.1159 43.6157 84.3655C43.6919 83.0895 43.75 82.0241 43.7941 81.2583C43.798 80.9831 43.8171 80.7084 43.8512 80.4354C43.8401 80.3465 43.8401 80.2566 43.8512 80.1678C43.8579 80.2699 43.8579 80.3723 43.8512 80.4745V81.3295C43.8512 82.1083 43.8001 83.1667 43.762 84.4808C43.6618 87.179 43.5325 90.9057 43.3791 95.1986L43.2198 95.0333H48.8919L48.7266 95.1986C48.7266 89.1697 48.7266 83.7791 48.7837 80.1738L48.8919 80.282L45.2425 80.1668H44.2401L43.9004 80.1287Z" fill="#FAFAFA"/>
<path d="M65.7759 63.3186L59.7921 59.5359L65.0493 51.8611L71.1805 55.4213L65.7759 63.3186Z" fill="#FAFAFA"/>
<g opacity="0.4">
<rect x="42.2284" y="63.7777" width="17.5638" height="5.69722" fill="white"/>
</g>
<path d="M59.5376 79.2747C59.5068 79.1017 59.5068 78.9246 59.5376 78.7515C59.5827 78.4137 59.6378 77.9286 59.6909 77.3352C59.8295 75.7773 59.8295 74.2102 59.6909 72.6524C59.5454 71.0928 59.2592 69.5497 58.836 68.0417C58.5172 66.887 58.2556 66.1854 58.3067 66.1663C58.3579 66.1473 58.415 66.3197 58.5493 66.6324C58.7448 67.0698 58.9175 67.5171 59.0665 67.9725C59.5561 69.4807 59.8771 71.0384 60.0237 72.6173C60.1709 74.1959 60.1373 75.7862 59.9235 77.3573C59.8614 77.8317 59.7741 78.3025 59.6619 78.7675C59.6477 78.9421 59.6057 79.1134 59.5376 79.2747Z" fill="#263238"/>
<path d="M68.0544 45.3079C67.756 45.7809 67.4119 46.2233 67.027 46.629C66.3885 47.4138 65.4232 48.4853 64.3728 49.659L63.2502 50.8969L63.15 51.0051L63.0347 50.9289C62.0715 50.2905 61.2486 49.6981 60.6742 49.2831C60.3487 49.0846 60.0505 48.8443 59.7872 48.5685C60.1374 48.7155 60.471 48.8993 60.7825 49.1167C61.3839 49.4866 62.2369 50.0188 63.2131 50.6603H63.0127L64.1232 49.3843C65.1757 48.2106 66.1389 47.1702 66.8475 46.4245C67.2143 46.0156 67.6183 45.6418 68.0544 45.3079V45.3079Z" fill="#FAFAFA"/>
<path d="M74.2558 50.7374C73.6436 50.5183 73.0522 50.245 72.4887 49.9205C71.4102 49.3783 69.9368 48.5995 68.3231 47.7324C66.7093 46.8654 65.254 46.0546 64.2085 45.4612C63.6285 45.1644 63.0737 44.8208 62.5497 44.4338C63.1636 44.6534 63.7569 44.9267 64.3228 45.2507C65.3943 45.799 66.8747 46.5718 68.4824 47.4388C70.0902 48.3058 71.5516 49.1167 72.597 49.71C73.1781 50.0048 73.733 50.3485 74.2558 50.7374Z" fill="#263238"/>
<path d="M13.567 207.204L10.6803 220.27L5.41003 229.954C5.22479 230.29 5.18841 230.688 5.30969 231.052C5.43098 231.415 5.69888 231.712 6.04851 231.869C6.45706 232.062 6.93483 232.041 7.32447 231.812C9.77415 230.395 18.764 225.138 18.9234 224.156C19.1088 223.033 22.8916 210.567 22.8916 210.567L13.567 207.204Z" fill="#7F47FA"/>
<g opacity="0.6">
<path d="M6.04234 231.856L19.0896 223.281L18.9553 223.829C18.8378 224.293 18.5655 224.702 18.1835 224.99C17.118 225.756 14.1391 227.816 7.33735 231.785C6.9454 232.009 6.46819 232.026 6.06139 231.83L6.04234 231.856Z" fill="white"/>
</g>
<g opacity="0.6">
<path d="M17.4748 218.435C17.0821 218.597 16.8757 219.03 16.9967 219.437C17.1438 219.833 17.5764 220.044 17.979 219.915C18.3932 219.743 18.6097 219.285 18.4802 218.856C18.28 218.458 17.803 218.287 17.3956 218.467" fill="white"/>
</g>
<path d="M10.4067 226.904C10.1954 226.426 9.89428 225.993 9.51962 225.628C9.08789 225.327 8.60286 225.11 8.09031 224.99C8.09031 224.952 8.27574 224.89 8.59147 224.926C9.00116 224.979 9.38674 225.15 9.70205 225.417C10.0252 225.68 10.2628 226.033 10.3846 226.431C10.4698 226.7 10.4448 226.904 10.4067 226.904Z" fill="#263238"/>
<path d="M9.05335 228.416C8.97717 228.454 8.66444 227.931 8.03899 227.574C7.64118 227.391 7.23207 227.233 6.81415 227.102C7.28156 226.947 7.79485 227.028 8.19235 227.318C8.88095 227.737 9.13053 228.397 9.05335 228.416Z" fill="#263238"/>
<path d="M12.7099 225.092C12.2495 224.59 11.7549 224.122 11.2295 223.689C10.6468 223.336 10.0391 223.027 9.41124 222.764C10.8693 222.834 12.1549 223.742 12.7099 225.092Z" fill="#263238"/>
<path d="M13.8898 221.192C13.8386 221.262 13.1941 220.784 12.269 220.522C11.3438 220.261 10.546 220.299 10.534 220.216C11.7472 219.864 13.0548 220.244 13.8898 221.192Z" fill="#263238"/>
<path d="M14.8399 217.379C14.3174 217.055 13.7528 216.803 13.162 216.632C12.5544 216.549 11.9383 216.549 11.3307 216.632C11.3307 216.6 11.5031 216.473 11.8409 216.371C12.2929 216.249 12.7672 216.236 13.2251 216.333C13.6904 216.426 14.1274 216.627 14.5011 216.92C14.7507 217.162 14.8649 217.334 14.8399 217.379Z" fill="#263238"/>
<path d="M13.3474 215.912C13.3403 215.742 13.3747 215.574 13.4477 215.421C13.6018 214.98 13.8428 214.574 14.1563 214.228C14.3613 213.951 14.6532 213.752 14.9852 213.661C15.2136 213.623 15.4416 213.729 15.5596 213.928C15.6543 214.128 15.6746 214.354 15.6167 214.568C15.3447 215.46 14.4685 216.026 13.5429 215.908C12.6384 215.781 11.9001 215.121 11.6736 214.236C11.6221 214.015 11.6661 213.784 11.7948 213.597C11.9499 213.409 12.2136 213.351 12.4333 213.457C12.7326 213.602 12.9897 213.822 13.1801 214.095C13.4628 214.464 13.6785 214.881 13.8175 215.325C13.8848 215.484 13.9153 215.655 13.9067 215.827C13.692 215.253 13.3909 214.715 13.0137 214.232C12.8516 213.996 12.6323 213.805 12.3762 213.677C12.2598 213.619 12.1188 213.651 12.0384 213.753C11.9611 213.879 11.9424 214.033 11.9873 214.174C12.2043 214.929 12.8427 215.488 13.6201 215.603C14.4003 215.695 15.14 215.234 15.4002 214.492C15.4542 214.348 15.4542 214.19 15.4002 214.045C15.3408 213.931 15.2141 213.869 15.0875 213.892C14.8083 213.969 14.5605 214.132 14.3788 214.358C13.9429 214.81 13.5927 215.338 13.3454 215.915L13.3474 215.912Z" fill="#263238"/>
<g opacity="0.3">
<path d="M13.2341 208.62L12.8452 210.483L22.0767 213.189L22.8675 210.573L13.5719 207.205L13.2341 208.62Z" fill="black"/>
</g>
<path d="M55.8692 212.039L55.0844 222.483C55.0844 222.483 65.4384 226.783 65.4835 228.728L45.1764 227.944L45.7246 211.618L55.8692 212.039Z" fill="#7F47FA"/>
<g opacity="0.6">
<path d="M48.8377 221.36C48.4313 221.471 48.1725 221.869 48.2363 222.285C48.3189 222.705 48.7156 222.985 49.1384 222.924C49.5716 222.809 49.8474 222.384 49.7768 221.942C49.634 221.52 49.1852 221.284 48.7565 221.405" fill="white"/>
</g>
<g opacity="0.6">
<path d="M45.1764 227.944L45.2976 226.298L64.7247 227.669C64.7247 227.669 65.6118 228.096 65.4835 228.728L45.1764 227.944Z" fill="white"/>
</g>
<path d="M55.415 222.394C55.415 222.494 54.9138 222.515 54.4126 222.815C53.9115 223.114 53.6338 223.523 53.5446 223.484C53.4554 223.445 53.6278 222.846 54.2402 222.521C54.8527 222.196 55.4531 222.305 55.415 222.394Z" fill="#263238"/>
<path d="M57.5149 223.357C57.5149 223.457 57.0999 223.606 56.7431 223.996C56.3862 224.385 56.277 224.837 56.1758 224.831C56.0745 224.825 56.0414 224.257 56.4885 223.766C56.9355 223.275 57.5149 223.262 57.5149 223.357Z" fill="#263238"/>
<path d="M58.6444 225.954C58.5552 225.954 58.4339 225.469 58.7086 224.94C58.9832 224.41 59.4613 224.206 59.4994 224.301C59.5375 224.396 59.2378 224.665 59.0213 225.103C58.8048 225.541 58.7276 225.947 58.6444 225.954Z" fill="#263238"/>
<path d="M55.3289 219.995C55.2838 220.084 54.8277 219.925 54.2695 219.944C53.7112 219.963 53.2671 220.122 53.217 220.033C53.1669 219.944 53.5999 219.605 54.2634 219.599C54.927 219.593 55.384 219.918 55.3289 219.995Z" fill="#263238"/>
<g opacity="0.3">
<path d="M55.7097 214.102L55.5754 215.966L45.5973 215.488L45.6614 213.338L55.7097 214.102Z" fill="black"/>
</g>
<path d="M55.4541 217.883C55.1162 217.961 54.7635 217.945 54.4338 217.838C54.0694 217.758 53.7161 217.633 53.3813 217.468C53.1849 217.371 52.9954 217.26 52.814 217.137C52.7003 217.071 52.5986 216.987 52.5133 216.888C52.3908 216.733 52.3908 216.514 52.5133 216.359C52.6192 216.22 52.786 216.142 52.9604 216.148C53.0885 216.151 53.2155 216.172 53.3372 216.212C53.5572 216.273 53.771 216.354 53.9757 216.455C54.3116 216.618 54.6194 216.834 54.8878 217.094C55.3409 217.553 55.4892 217.929 55.4551 217.948C55.4211 217.968 55.1935 217.655 54.7275 217.279C54.4532 217.06 54.1533 216.876 53.8344 216.731C53.6486 216.649 53.4565 216.582 53.2601 216.53C53.0496 216.46 52.8641 216.454 52.807 216.53C52.7499 216.606 52.807 216.581 52.807 216.645C52.8697 216.716 52.9427 216.776 53.0235 216.824C53.1905 216.946 53.3653 217.057 53.5467 217.156C53.8567 217.323 54.1811 217.462 54.516 217.571C54.8358 217.652 55.1494 217.757 55.4541 217.883Z" fill="#263238"/>
<path d="M55.3138 218.018C55.1337 217.721 55.0532 217.374 55.0843 217.028C55.0838 216.651 55.1465 216.276 55.2697 215.919C55.3421 215.709 55.4361 215.508 55.5503 215.317C55.6679 215.057 55.9074 214.873 56.1888 214.826C56.3737 214.838 56.5354 214.955 56.6038 215.127C56.6518 215.248 56.6818 215.375 56.693 215.504C56.7252 215.732 56.7252 215.964 56.693 216.192C56.6191 216.57 56.4551 216.925 56.2149 217.226C55.7999 217.736 55.3789 217.863 55.3729 217.806C55.6083 217.584 55.8221 217.341 56.0114 217.078C56.1934 216.791 56.3149 216.47 56.3682 216.134C56.397 215.94 56.397 215.742 56.3682 215.547C56.3682 215.33 56.268 215.151 56.1898 215.171C56.0361 215.233 55.9079 215.346 55.826 215.49C55.7168 215.661 55.6249 215.843 55.5513 216.032C55.4264 216.356 55.3471 216.695 55.3158 217.04C55.2827 217.629 55.3689 218.005 55.3138 218.018Z" fill="#263238"/>
<path d="M30.1383 78.2543L35.3885 78.548C35.7584 80.0249 36.2557 81.467 36.8749 82.858C40.5571 76.2067 43.3558 69.1034 45.2002 61.728C45.0789 61.332 44.9386 60.899 44.7662 60.4069C44.638 59.6701 44.6598 58.9149 44.8304 58.1867C44.9767 57.3067 45.2193 56.1199 45.2964 55.5707C45.52 53.8988 45.7876 53.6562 46.3749 53.8286C47.1658 54.0842 46.0492 58.5175 46.6937 58.6137C47.0445 58.6648 47.4725 57.1463 47.5958 55.9024C47.7191 54.6585 48.2844 50.7986 48.6983 50.562C49.3368 50.1852 49.828 50.7785 49.6746 52.0234C49.5212 53.2683 49.3238 57.025 49.9873 57.0762C50.6509 57.1273 51.1801 50.7615 51.1801 50.7615C51.1801 50.7615 51.0799 49.3833 51.8186 49.4154C53.1968 49.4725 52.1193 56.1781 52.004 56.8095C51.9208 57.2496 52.6425 57.3328 52.6996 56.8546C52.7568 56.3765 53.0955 50.4748 54.4988 50.54C55.5703 50.5781 53.6629 56.0648 54.2693 57.3348C54.8757 58.6047 55.2896 53.0157 56.317 53.0919C56.6999 53.0919 56.9555 53.1921 56.2789 56.3585C55.597 58.8742 54.7768 61.3503 53.8222 63.7757C52.1955 72.5481 45.0559 100.613 33.8659 95.4773C27.6014 92.5996 24.6786 78.3666 24.6786 78.3666L30.1383 78.2543Z" fill="#FFBE9D"/>
<path d="M53.8404 63.7767C53.8513 63.7108 53.8705 63.6465 53.8975 63.5853C53.9426 63.4449 54.0057 63.2595 54.0829 63.037C54.2553 62.5268 54.5039 61.8182 54.8166 60.9191C55.1294 60.02 55.5122 58.8713 55.8951 57.5443C56.0981 56.8364 56.2653 56.1189 56.3963 55.3943C56.4665 55.0114 56.5426 54.6155 56.5877 54.2075C56.6035 54.0074 56.6035 53.8063 56.5877 53.6061C56.5877 53.3956 56.5426 53.2292 56.3772 53.2232C56.2119 53.2172 56.0906 53.3235 55.9763 53.4979C55.8681 53.6865 55.7785 53.8852 55.7087 54.0912C55.5624 54.5122 55.4411 54.9593 55.3258 55.4183C55.2105 55.8774 55.1023 56.3495 54.962 56.8286C54.9028 57.0929 54.7947 57.3438 54.6432 57.5683C54.5572 57.6749 54.4025 57.6948 54.2924 57.6134C54.231 57.5568 54.1813 57.4887 54.1461 57.4129C54.0901 57.2826 54.0513 57.1454 54.0308 57.005C54.0106 55.9327 54.1176 54.8617 54.3495 53.8146C54.4498 53.2784 54.541 52.7361 54.6111 52.1878C54.6483 51.913 54.6698 51.6362 54.6753 51.3589C54.6753 51.1103 54.6753 50.7655 54.529 50.7214C54.3826 50.6773 54.1461 50.8217 54.0188 51.0532C53.8702 51.2903 53.7523 51.5452 53.668 51.812C53.4886 52.3712 53.3499 52.9427 53.253 53.5219C53.1528 54.1153 53.0746 54.7147 53.0044 55.3211C52.9918 55.6289 52.962 55.9357 52.9152 56.2402L52.8771 56.7063C52.8878 56.9071 52.811 57.1026 52.6666 57.2426C52.477 57.3831 52.2178 57.3831 52.0282 57.2426C51.923 57.1739 51.8506 57.0653 51.8277 56.9419C51.8179 56.8848 51.8179 56.8265 51.8277 56.7695V56.6542C51.8728 56.3415 51.9279 56.0157 51.968 55.716C52.0576 55.0779 52.1341 54.4397 52.1975 53.8016C52.261 53.1634 52.2995 52.5253 52.3128 51.8871C52.3448 51.243 52.2803 50.5977 52.1214 49.9727C52.0852 49.8136 51.9894 49.6744 51.8538 49.5838C51.7203 49.5434 51.5758 49.5892 51.4899 49.699C51.3181 50.0168 51.2481 50.3796 51.2894 50.7385C51.1742 52.0144 51.0338 53.2333 50.8554 54.4471C50.7724 55.0541 50.6573 55.6563 50.5106 56.2513C50.4726 56.4029 50.4258 56.5521 50.3703 56.6983C50.3192 56.8784 50.2143 57.0386 50.0696 57.1574C49.934 57.2226 49.7715 57.1885 49.6737 57.0742C49.6119 57.003 49.5643 56.9206 49.5334 56.8316C49.4767 56.6833 49.4361 56.5294 49.4121 56.3725C49.2805 55.2074 49.2698 54.0318 49.38 52.8644C49.4539 52.3211 49.4817 51.7726 49.4632 51.2246C49.4476 50.9935 49.3422 50.7776 49.1695 50.6232C49.0893 50.5678 48.9886 50.5513 48.8949 50.5781C48.8407 50.5912 48.7889 50.6128 48.7415 50.6422C48.7084 50.6644 48.6821 50.6953 48.6654 50.7314C48.4757 51.2137 48.3347 51.7136 48.2444 52.2239C48.1441 52.7341 48.0529 53.2443 47.9697 53.7484C47.8865 54.2526 47.8164 54.7438 47.7532 55.2349C47.6901 55.726 47.653 56.2112 47.5528 56.6893C47.4731 57.162 47.3468 57.6256 47.1759 58.0735C47.1354 58.1867 47.084 58.2958 47.0225 58.3992C46.9464 58.4995 46.9073 58.6358 46.7038 58.6999C46.5976 58.7188 46.4901 58.6737 46.4292 58.5847C46.3927 58.5218 46.3647 58.4544 46.346 58.3842C46.3223 58.2665 46.3072 58.1473 46.3009 58.0274C46.3009 57.1153 46.4282 56.2793 46.4733 55.4755C46.5116 55.0895 46.5116 54.7007 46.4733 54.3148C46.5053 54.1563 46.439 53.9941 46.3052 53.9034C46.1713 53.8128 45.9961 53.8113 45.8608 53.8998C45.6394 54.1417 45.5007 54.4478 45.4649 54.7738C45.3887 55.1056 45.3567 55.4123 45.2925 55.7501C45.069 57.0261 44.8335 58.1046 44.7252 58.9906C44.6684 59.3821 44.6684 59.7798 44.7252 60.1713C44.8014 60.4901 44.9106 60.7727 44.9678 61.0003L45.1211 61.5235C45.1466 61.5798 45.1619 61.6402 45.1662 61.7019C45.1345 61.6482 45.1109 61.5901 45.0961 61.5295L44.9106 61.0283C44.8345 60.7988 44.7252 60.5372 44.63 60.1864C44.5722 59.7875 44.5722 59.3824 44.63 58.9836C44.7302 58.0815 44.9427 56.999 45.1472 55.73C45.2043 55.4173 45.2364 55.0916 45.3126 54.7407C45.3444 54.5646 45.3913 54.3916 45.4529 54.2235C45.5062 54.0277 45.6229 53.855 45.7847 53.7324C45.9847 53.6279 46.2231 53.6279 46.4231 53.7324C46.6787 53.8787 46.6848 54.1213 46.7299 54.3067C46.7677 54.7068 46.7677 55.1095 46.7299 55.5095C46.6918 56.3264 46.5645 57.1814 46.5835 58.0615C46.5891 58.1644 46.6018 58.2669 46.6216 58.3682C46.6216 58.4684 46.6978 58.5085 46.6858 58.4894C46.6737 58.4704 46.786 58.4002 46.8321 58.317C46.8839 58.2217 46.9308 58.1236 46.9724 58.0234C47.1283 57.5878 47.2456 57.1393 47.3232 56.6833C47.4124 56.2242 47.4385 55.7391 47.5087 55.2479C47.5788 54.7568 47.636 54.2526 47.7192 53.7444C47.8024 53.2363 47.8845 52.7241 47.9868 52.2069C48.0778 51.664 48.2298 51.1331 48.4398 50.6242C48.4805 50.5406 48.5451 50.4708 48.6253 50.4237C48.6953 50.3811 48.7704 50.3475 48.8488 50.3235C49.023 50.2779 49.2083 50.3082 49.359 50.4067C49.611 50.6075 49.7699 50.9027 49.799 51.2236C49.8373 51.5137 49.8373 51.8075 49.799 52.0976C49.799 52.3723 49.7479 52.6529 49.7288 52.9336C49.6141 54.0727 49.6141 55.2204 49.7288 56.3595C49.7509 56.4941 49.7844 56.6266 49.8291 56.7554C49.8495 56.8061 49.8776 56.8534 49.9122 56.8957V56.9018C49.9786 56.8126 50.0304 56.7135 50.0656 56.6081C50.1107 56.4738 50.1548 56.3334 50.1929 56.1931C50.3332 55.6258 50.4355 55.0254 50.5247 54.426C50.7031 53.2232 50.8374 51.9894 50.9517 50.7385C50.9014 50.2954 50.9952 49.848 51.2193 49.4625C51.3905 49.2296 51.6968 49.1408 51.966 49.246C52.1957 49.3675 52.3627 49.5811 52.4251 49.8334C52.5979 50.4905 52.6689 51.1703 52.6356 51.849C52.6356 52.4875 52.5784 53.1631 52.5143 53.8136C52.4501 54.4641 52.374 55.0896 52.2848 55.728C52.2396 56.0468 52.1845 56.3665 52.1444 56.6722C52.1177 56.7594 52.1177 56.8526 52.1444 56.9399C52.2206 56.9869 52.3168 56.9869 52.393 56.9399C52.4632 56.8947 52.4692 56.7995 52.4822 56.6271L52.5273 56.161C52.5273 55.8543 52.5915 55.5226 52.6165 55.2419C52.6867 54.6034 52.7699 54.0171 52.8721 53.4237C52.9722 52.8272 53.1149 52.2387 53.2991 51.6626C53.3947 51.3716 53.5252 51.0932 53.688 50.8337C53.7785 50.6933 53.8956 50.5721 54.0328 50.4769C54.1849 50.3416 54.4029 50.3097 54.5874 50.3958C54.7719 50.4818 54.8876 50.6693 54.8818 50.8728C54.9049 51.0226 54.9157 51.1742 54.9139 51.3258C54.9049 51.614 54.8794 51.9015 54.8377 52.1868C54.7675 52.7481 54.6653 53.2894 54.5701 53.8266C54.3387 54.8435 54.2273 55.884 54.2383 56.9268C54.2496 57.0396 54.2798 57.1497 54.3275 57.2526C54.344 57.2913 54.3656 57.3277 54.3916 57.3608V57.3288C54.5129 57.1315 54.6012 56.9159 54.6532 56.6903C54.7936 56.2242 54.9018 55.7521 55.0231 55.293C55.1444 54.834 55.2657 54.3809 55.424 53.9469C55.5009 53.7253 55.5992 53.5118 55.7177 53.3094C55.7787 53.2004 55.8612 53.1049 55.9603 53.0288C56.0159 52.9816 56.0813 52.9473 56.1517 52.9285C56.218 52.9161 56.2859 52.9161 56.3522 52.9285C56.502 52.9428 56.6319 53.0383 56.69 53.1771C56.7334 53.2891 56.7572 53.4078 56.7601 53.5279C56.7667 53.7411 56.754 53.9545 56.722 54.1654C56.6769 54.5864 56.5948 54.9823 56.5216 55.3682C56.3842 56.0959 56.2076 56.8156 55.9924 57.5242C55.5964 58.8513 55.1905 59.9739 54.8627 60.886C54.535 61.7981 54.2243 62.5128 54.0719 62.9849C53.9827 63.2084 53.9065 63.3858 53.8554 63.5271C53.8296 63.6078 53.8245 63.6936 53.8404 63.7767Z" fill="#EB996E"/>
<path d="M24.6397 78.8917C25.654 82.4771 27.6387 88.0129 29.7435 93.8585C29.8832 94.2428 30.24 94.5057 30.6485 94.5252C31.057 94.5447 31.4372 94.317 31.6129 93.9477L36.844 82.879C36.844 82.879 35.5681 73.7879 35.6893 74.1066C35.8106 74.4254 24.8943 75.2874 24.8943 75.2874L24.6397 78.8917Z" fill="url(#paint1_linear_0_7435)"/>
<path d="M38.7895 79.7397C38.6677 79.6566 38.5318 79.5962 38.3885 79.5613C38.027 79.4506 37.634 79.5543 37.3742 79.8289L37.2399 79.9823L37.1567 79.7818C36.876 79.0672 36.5182 78.142 36.1614 77.1217C35.6022 75.7195 35.144 74.2792 34.7902 72.8117C35.4569 74.1663 36.0198 75.5695 36.4741 77.0094C36.844 78.0237 37.1627 78.9619 37.3993 79.6886L37.1858 79.6535C37.3711 79.4651 37.618 79.3495 37.8814 79.3278C38.073 79.3103 38.2659 79.3409 38.4427 79.417C38.7263 79.5292 38.8035 79.7267 38.7895 79.7397Z" fill="#263238"/>
<path d="M31.3702 90.2662C31.5684 89.7183 31.8227 89.1923 32.1289 88.6966C32.6301 87.7524 33.3477 86.4504 34.1636 85.0281C34.9795 83.6058 35.7263 82.3218 36.2816 81.4047C36.556 80.8906 36.8785 80.4036 37.2448 79.9503C37.0426 80.4965 36.7885 81.0221 36.486 81.5199C35.9849 82.4701 35.2612 83.7651 34.4513 85.1945C33.6414 86.6238 32.8887 87.9007 32.3334 88.8179C32.0573 89.3291 31.7349 89.814 31.3702 90.2662Z" fill="#263238"/>
<path d="M27.8851 88.6064C28.1685 88.3657 28.4739 88.1523 28.7972 87.9689C29.3906 87.586 30.2516 87.0498 31.303 86.4123L31.2459 86.5847C30.6656 85.2255 29.97 83.6369 29.2553 81.9279C28.3532 79.7779 27.5393 77.8003 26.9499 76.3259L27.1284 76.383C26.2994 76.8361 25.6249 77.1929 25.1568 77.4355C24.9192 77.5775 24.6668 77.6932 24.404 77.7803C24.6129 77.5991 24.8419 77.4428 25.0866 77.3142C25.5397 77.0335 26.1892 76.6446 27.0011 76.1725L27.1163 76.1024L27.1735 76.2297C27.8119 77.684 28.6539 79.6426 29.56 81.7996C30.2747 83.5156 30.9312 85.1073 31.4744 86.4764L31.5195 86.5917L31.4193 86.6488C30.3599 87.2873 29.5049 87.7654 28.8674 88.1032C28.5579 88.3038 28.2288 88.4724 27.8851 88.6064Z" fill="#FAFAFA"/>
<path d="M56.2699 214.668C58.2075 214.612 59.7824 213.087 59.9004 211.153C60.9909 193.494 65.9043 113.164 64.921 110.645C63.8104 107.812 60.8957 97.9611 60.8957 97.9611L34.8472 96.7553C34.8472 96.7553 28.3652 106.963 27.43 110.906C26.5881 114.421 2.98931 188.787 0.0545033 204.575C-0.246286 206.199 0.72465 207.789 2.30673 208.263L56.2699 214.668Z" fill="#263238"/>
<path d="M39.9893 97.3105C39.9893 97.3105 39.9572 97.4107 39.874 97.5912L39.5041 98.393L38.0498 101.468C37.7631 102.151 37.4484 102.911 37.0996 103.733C36.7507 104.556 36.3659 105.462 36.0211 106.452C35.6763 107.441 35.2553 108.486 34.8664 109.61C34.4775 110.734 34.1136 111.932 33.7057 113.189L32.551 117.171C32.1741 118.562 31.8173 120.016 31.4214 121.522C31.0255 123.027 30.7127 124.597 30.3369 126.211C29.961 127.824 29.6222 129.49 29.2965 131.206C28.5948 134.626 27.9052 138.222 27.1785 141.962C26.4519 145.702 25.675 149.554 24.7609 153.489C24.3209 155.453 23.8107 157.368 23.3386 159.281C22.8665 161.195 22.3112 163.045 21.7499 164.863C20.6474 168.506 19.4336 171.98 18.1967 175.243C15.6909 181.783 13.0929 187.531 10.8597 192.309C8.62649 197.087 6.66794 200.903 5.32884 203.535L3.77824 206.578C3.60584 206.91 3.46551 207.171 3.36328 207.357C3.32006 207.447 3.27119 207.534 3.21694 207.618C3.25153 207.524 3.29203 207.433 3.33822 207.344C3.42743 207.152 3.55472 206.885 3.72111 206.542C4.07192 205.827 4.57609 204.8 5.2246 203.486C6.50056 200.838 8.415 197.004 10.6542 192.213C12.8934 187.422 15.4393 181.673 17.9211 175.14C19.1459 171.874 20.3517 168.409 21.4553 164.773C22.0105 162.961 22.5077 161.092 23.0309 159.203C23.5541 157.315 24.0132 155.375 24.4412 153.404C25.3533 149.48 26.1191 145.614 26.8658 141.888C27.6125 138.162 28.2881 134.558 29.0028 131.138C29.3406 129.422 29.7234 127.757 30.0682 126.142C30.413 124.528 30.815 122.952 31.1658 121.447C31.5166 119.941 31.9316 118.487 32.3145 117.095C32.6973 115.704 33.1163 114.384 33.4952 113.114L34.6689 109.506C35.0648 108.383 35.4788 107.337 35.8497 106.355C36.2205 105.372 36.5964 104.44 36.9602 103.643C37.3241 102.846 37.6428 102.061 37.9365 101.385C38.575 100.052 39.0972 99.0245 39.44 98.3289L39.8409 97.5441L39.9893 97.3105Z" fill="#455A64"/>
<path d="M16.9899 209.832C16.9975 209.733 17.0191 209.637 17.054 209.545C17.1182 209.353 17.1883 209.054 17.2835 208.696L18.1856 205.442C18.9705 202.597 20.1001 198.514 21.5033 193.474C22.9066 188.433 24.5213 182.392 26.2754 175.686C27.1434 172.331 28.0485 168.808 28.9937 165.162C29.9389 161.515 30.85 157.711 31.8203 153.836C32.7905 149.961 33.6706 146.18 34.5576 142.479C35.4447 138.779 36.2355 135.263 37.0264 131.889C38.5639 125.132 39.9161 119.033 41.0206 113.91C42.1252 108.787 42.9982 104.647 43.6176 101.788C43.9183 100.366 44.1539 99.236 44.3193 98.4802C44.4025 98.1164 44.4656 97.8417 44.5107 97.6252C44.5281 97.5254 44.5536 97.4272 44.5869 97.3316C44.5777 97.4326 44.5626 97.533 44.5418 97.6323C44.5037 97.8327 44.4526 98.1234 44.3824 98.4933C44.2361 99.265 44.0186 100.408 43.7439 101.811L42.6915 107.03C42.2645 109.072 41.7894 111.394 41.2492 113.958C40.1777 119.062 38.8506 125.184 37.319 131.956C36.5472 135.331 35.7434 138.884 34.8693 142.552C33.9953 146.221 33.0762 150.023 32.145 153.915C31.2139 157.807 30.2306 161.571 29.3064 165.241C28.3823 168.912 27.4501 172.419 26.5761 175.766C24.796 182.471 23.1502 188.525 21.7339 193.54L19.8194 200.348C19.2391 202.344 18.7349 204.067 18.327 205.451C17.919 206.836 17.5872 207.933 17.3637 208.692C17.2555 209.049 17.1633 209.33 17.1081 209.528C17.0801 209.633 17.0405 209.735 16.9899 209.832H16.9899Z" fill="#455A64"/>
<path d="M48.035 97.3928C48.0403 97.4919 48.0554 97.5903 48.0801 97.6864L48.1883 98.5665C48.2334 98.9554 48.2886 99.4345 48.3537 99.9888C48.4189 100.543 48.4369 101.214 48.481 101.947C48.481 102.317 48.5261 102.706 48.5452 103.115C48.5642 103.524 48.5452 103.957 48.5452 104.391V105.794C48.5452 106.279 48.5001 106.79 48.481 107.313C48.462 107.836 48.4299 108.378 48.3978 108.934C48.3657 109.489 48.2976 110.069 48.2385 110.663C48.1553 111.849 47.9518 113.087 47.7914 114.401C47.3955 117.007 46.8723 119.85 46.2027 122.88C45.5332 125.91 44.7484 129.125 43.9315 132.513C43.1146 135.901 42.2666 139.461 41.565 143.18C40.8633 146.899 40.289 150.779 39.7658 154.766C39.2426 158.753 38.8717 162.644 38.4207 166.41C37.9696 170.176 37.5917 173.817 37.1447 177.256L36.4561 182.309C36.1885 183.936 35.955 185.499 35.6843 187.056C35.4137 188.612 35.1421 190.055 34.8424 191.466C34.5427 192.877 34.241 194.222 33.9403 195.504C33.6396 196.786 33.3018 197.999 32.9831 199.147C32.6643 200.295 32.3065 201.352 32.0008 202.337C31.8414 202.838 31.7001 203.32 31.5347 203.78C31.3693 204.24 31.2029 204.682 31.0496 205.101C30.7368 205.937 30.4482 206.704 30.1886 207.397C29.6273 208.762 29.1361 209.796 28.8294 210.51L28.4596 211.312C28.3764 211.491 28.3252 211.58 28.3252 211.58C28.3365 211.478 28.3708 211.38 28.4255 211.293C28.5257 211.108 28.6259 210.827 28.7633 210.476C29.0569 209.762 29.522 208.715 30.0392 207.35L30.8621 205.045L31.3402 203.731C31.4996 203.271 31.6339 202.78 31.7873 202.282C32.088 201.28 32.4258 200.215 32.7445 199.092L33.6757 195.455L34.5617 191.411C34.8484 190.001 35.098 188.527 35.3846 187.001C35.6713 185.474 35.8758 183.887 36.1314 182.261C36.387 180.634 36.5784 178.943 36.8079 177.214C37.2349 173.756 37.6499 170.126 38.0839 166.368C38.5179 162.61 38.9198 158.712 39.43 154.699C39.9402 150.685 40.5406 146.819 41.2422 143.088C41.9438 139.356 42.8048 135.796 43.6288 132.414C44.4527 129.032 45.2555 125.811 45.9341 122.792C46.6127 119.773 47.1459 116.935 47.5609 114.332C47.7263 113.056 47.9378 111.78 48.027 110.606C48.0911 110.019 48.1422 109.446 48.1994 108.89C48.2565 108.335 48.2635 107.793 48.2996 107.27C48.3357 106.746 48.3698 106.249 48.3758 105.757C48.3818 105.265 48.3758 104.807 48.3758 104.36V103.084C48.3758 102.683 48.3377 102.293 48.3247 101.923C48.2866 101.19 48.2866 100.532 48.2244 99.9707C48.1623 99.4094 48.1242 98.9303 48.0901 98.5414C48.056 98.1525 48.033 97.8719 48.0139 97.6614C48.0163 97.5694 48.0247 97.4776 48.039 97.3867L48.035 97.3928Z" fill="#455A64"/>
<path d="M45.1884 213.908C45.1593 213.812 45.1359 213.714 45.1182 213.614C45.0801 213.404 45.018 213.113 44.9528 212.746C44.8877 212.38 44.7995 211.885 44.6972 211.324C44.595 210.763 44.4607 210.121 44.3965 209.41C44.3324 208.698 44.2181 207.859 44.1099 206.966C44.0016 206.073 43.9826 205.091 43.9094 204.044C43.9094 203.521 43.8452 202.973 43.8262 202.417C43.8072 201.862 43.8262 201.276 43.8262 200.675V198.838C43.8262 198.207 43.8773 197.562 43.8964 196.924C43.9154 196.285 43.9535 195.584 43.9796 194.895C44.0056 194.206 44.0948 193.498 44.1449 192.777C44.2452 191.335 44.4256 189.848 44.604 188.311C44.7824 186.773 45.038 185.178 45.2425 183.539C45.447 181.899 45.7787 180.221 46.1105 178.505C47.3865 171.621 49.1095 164.138 50.7042 156.239C52.2005 148.813 53.3185 141.316 54.0539 133.776C54.7425 126.822 55.0041 120.538 55.0943 115.274V108.148C55.0943 106.055 55.0051 104.239 54.941 102.763C54.8768 101.288 54.8197 100.141 54.7876 99.3623V98.4752C54.7876 98.6757 54.8257 98.9854 54.8578 99.3623C54.9089 100.134 55.0041 101.276 55.0683 102.756C55.1324 104.237 55.2216 106.042 55.2788 108.141C55.3359 110.24 55.355 112.607 55.3429 115.273C55.2858 120.562 55.0422 126.859 54.3737 133.816C53.6515 141.369 52.5398 148.879 51.0429 156.317C49.4482 164.229 47.6932 171.706 46.4242 178.577C46.0925 180.287 45.8309 181.971 45.5442 183.598C45.2575 185.225 45.043 186.819 44.8746 188.364C44.7062 189.908 44.4978 191.388 44.4025 192.83C44.3384 193.545 44.2813 194.246 44.2241 194.935C44.167 195.624 44.16 196.3 44.1239 196.958C44.0878 197.615 44.0728 198.261 44.0407 198.872V202.438C44.0407 202.994 44.0918 203.536 44.1169 204.059C44.181 205.106 44.181 206.088 44.2893 206.975C44.3975 207.862 44.4677 208.685 44.5449 209.425C44.622 210.164 44.7303 210.803 44.8125 211.339L45.042 212.761C45.0992 213.131 45.1423 213.4 45.1763 213.635C45.2104 213.871 45.1884 213.908 45.1884 213.908Z" fill="#455A64"/>
<path d="M59.4863 97.8968C59.4863 97.8968 59.5184 97.9971 59.5755 98.1835L59.8241 99.0255L60.213 100.41C60.3945 101.04 60.5437 101.679 60.6601 102.324C60.8004 103.045 60.9978 103.843 61.1382 104.73C61.2785 105.617 61.3998 106.58 61.5461 107.619C61.6925 108.659 61.7185 109.775 61.8137 110.962C61.909 112.149 61.914 113.399 61.8839 114.72C61.8532 117.592 61.6678 120.461 61.3286 123.314C60.9908 126.395 60.4606 129.662 59.8482 133.081L57.8435 143.812C57.1419 147.532 56.5295 151.398 55.9742 155.372C55.4189 159.346 54.9658 163.232 54.596 166.999C54.2261 170.766 53.9585 174.406 53.741 177.876C53.5235 181.346 53.3902 184.645 53.326 187.739C53.2619 190.833 53.2258 193.711 53.2368 196.339C53.2479 198.967 53.288 201.351 53.3521 203.434C53.4162 205.517 53.4924 207.319 53.5526 208.786C53.6127 210.254 53.6799 211.383 53.7179 212.167C53.7139 212.461 53.7266 212.755 53.756 213.047V213.354C53.7519 213.253 53.7392 213.152 53.7179 213.053L53.6478 212.173C53.5967 211.401 53.5075 210.259 53.4243 208.792C53.3411 207.326 53.2328 205.526 53.1687 203.44C53.1045 201.354 53.0344 198.973 53.0033 196.339C52.9722 193.705 53.0033 190.826 53.0544 187.733C53.1055 184.64 53.2549 181.353 53.4373 177.857C53.6197 174.361 53.8964 170.741 54.2732 166.967C54.6501 163.193 55.0831 159.311 55.6514 155.324C56.2198 151.337 56.8191 147.477 57.5268 143.757L59.5495 133.032C60.188 129.612 60.6791 126.346 61.053 123.284C61.4042 120.44 61.6022 117.58 61.6463 114.716C61.6463 113.402 61.6083 112.164 61.6012 110.971C61.5942 109.778 61.4359 108.681 61.3587 107.64C61.2815 106.6 61.0971 105.644 60.9818 104.757C60.8665 103.87 60.6631 103.079 60.5348 102.351C60.428 101.706 60.2874 101.067 60.1138 100.437C59.9544 99.8814 59.8522 99.4344 59.757 99.0525C59.6617 98.6706 59.5916 98.414 59.5405 98.1975C59.5159 98.0986 59.4978 97.9981 59.4863 97.8968Z" fill="#455A64"/>
<defs>
<linearGradient id="paint0_linear_0_7435" x1="23.9178" y1="42.8131" x2="23.9178" y2="104.2" gradientUnits="userSpaceOnUse">
<stop stop-color="#AA6FFE"/>
<stop offset="1" stop-color="#7F47FA"/>
</linearGradient>
<linearGradient id="paint1_linear_0_7435" x1="24.6397" y1="74.0985" x2="24.6397" y2="94.5263" gradientUnits="userSpaceOnUse">
<stop stop-color="#AA6FFE"/>
<stop offset="1" stop-color="#7F47FA"/>
</linearGradient>
</defs>
</svg>
