<svg width="7" height="5" viewBox="0 0 7 5" fill="none" xmlns="http://www.w3.org/2000/svg">
<path d="M4.93117 0.330556C5.24095 -0.0313017 5.77159 -0.106107 6.16933 0.156011C6.35446 0.270802 6.48147 0.459474 6.51817 0.674192C6.55487 0.888911 6.49772 1.10906 6.36122 1.27882L3.61851 4.69521C3.4708 4.87204 3.25758 4.98125 3.02777 4.99781C2.79796 5.01436 2.57129 4.93683 2.39976 4.783L0.259277 2.82829C0.0945444 2.68465 0 2.47677 0 2.25821C0 2.03965 0.0945444 1.83177 0.259277 1.68813C0.617702 1.37307 1.15431 1.37307 1.51274 1.68813L2.85806 2.91199L4.93117 0.330556Z" fill="white"/>
</svg>
