<svg width="375" height="310" viewBox="0 0 375 310" fill="none" xmlns="http://www.w3.org/2000/svg">
<rect y="272.408" width="375" height="0.208105" fill="#EBEBEB"/>
<rect x="326.25" y="285.796" width="11.1747" height="0.208105" fill="#EBEBEB"/>
<rect x="241.897" y="288.059" width="6.51724" height="0.208105" fill="#EBEBEB"/>
<rect x="297.442" y="278.074" width="25.6426" height="0.208105" fill="#EBEBEB"/>
<rect x="49.8303" y="282.368" width="32.3923" height="0.208105" fill="#EBEBEB"/>
<rect x="88.8977" y="282.368" width="11.6854" height="0.208105" fill="#EBEBEB"/>
<rect x="120.81" y="279.572" width="70.2598" height="0.208105" fill="#EBEBEB"/>
<path fill-rule="evenodd" clip-rule="evenodd" d="M32.9326 235.299H177.75C180.143 235.268 182.06 233.142 182.032 230.549V4.75044C182.06 2.1576 180.143 0.0309676 177.75 0H32.9326C30.5569 0.0346435 28.6499 2.13542 28.6575 4.7096V230.548C28.6296 233.138 30.5422 235.263 32.9326 235.299ZM28.8449 4.70957C28.818 2.23305 30.6467 0.200412 32.9325 0.16626H177.75C180.036 0.200417 181.867 2.23178 181.844 4.70957V230.549C181.867 233.026 180.036 235.058 177.75 235.092H32.9325C30.6467 235.058 28.818 233.025 28.8449 230.549V4.70957Z" fill="#EBEBEB"/>
<path fill-rule="evenodd" clip-rule="evenodd" d="M195.158 235.299H339.983C342.37 235.259 344.278 233.135 344.251 230.549V4.7096C344.258 2.13863 342.355 0.0393863 339.983 0H195.158C192.781 0.0351363 190.872 2.13437 190.875 4.7096V230.548C190.851 233.139 192.766 235.263 195.158 235.299ZM191.063 4.70957C191.04 2.23178 192.87 0.200417 195.157 0.16626H339.983C342.269 0.200417 344.1 2.23178 344.077 4.70957V230.549C344.1 233.026 342.269 235.058 339.983 235.092H195.157C192.87 235.058 191.04 233.026 191.063 230.549V4.70957Z" fill="#EBEBEB"/>
<rect x="172.05" y="266.334" width="5.92484" height="45.013" transform="rotate(180 172.05 266.334)" fill="#F0F0F0"/>
<rect x="168.142" y="272.408" width="121.86" height="6.07395" transform="rotate(180 168.142 272.408)" fill="#F0F0F0"/>
<rect x="42.3679" y="221.321" width="123.757" height="45.013" fill="#F5F5F5"/>
<rect x="50.3696" y="229.159" width="107.745" height="25.7098" fill="#F0F0F0"/>
<rect x="132.24" y="232.595" width="55.9804" height="4.30992" rx="2.15496" transform="rotate(180 132.24 232.595)" fill="#F5F5F5"/>
<rect x="166.125" y="221.321" width="126.473" height="4.01916" transform="rotate(180 166.125 221.321)" fill="#F0F0F0"/>
<rect x="166.125" y="217.302" width="8.76744" height="4.01916" fill="#E6E6E6"/>
<rect x="320.175" y="157.929" width="158.572" height="134.915" transform="rotate(180 320.175 157.929)" fill="#E6E6E6"/>
<path d="M146.76 17.7638H329.145C329.912 17.7739 330.527 18.4556 330.518 19.2867C330.522 20.1143 329.909 20.7906 329.145 20.8008H146.76C146.392 20.8022 146.04 20.6422 145.784 20.3573C145.524 20.0688 145.379 19.6812 145.379 19.2779C145.377 18.8789 145.521 18.4952 145.78 18.2113C146.038 17.9273 146.39 17.7664 146.759 17.7638L146.76 17.7638Z" fill="#E6E6E6"/>
<rect x="317.43" y="157.929" width="161.708" height="134.915" transform="rotate(180 317.43 157.929)" fill="#F0F0F0"/>
<path d="M161.603 157.929H320.175V162.247H157.553L161.603 157.929Z" fill="#E6E6E6"/>
<path d="M145.927 157.929H307.635L303.585 162.247H141.885L145.927 157.929Z" fill="#F0F0F0"/>
<path d="M309.195 32.1416V148.801H163.95V32.1416L309.195 32.1416Z" fill="#FAFAFA"/>
<path d="M260.73 148.792L212.437 32.1416H189.63L237.93 148.792H260.73Z" fill="white"/>
<path d="M233.032 148.792L184.733 32.1416H175.847L224.147 148.792H233.032Z" fill="white"/>
<path d="M165 32.1416V148.801H163.958V32.1416H165Z" fill="#E6E6E6"/>
<g opacity="0.4">
<rect x="323.264" y="126.361" width="14.16" height="111.334" transform="rotate(180 323.264 126.361)" fill="#F0F0F0"/>
<rect x="314.616" y="126.361" width="11.0329" height="111.334" transform="rotate(180 314.616 126.361)" fill="#E6E6E6"/>
<rect x="309.104" y="126.361" width="14.16" height="111.334" transform="rotate(180 309.104 126.361)" fill="#F0F0F0"/>
<rect x="300.457" y="126.361" width="11.0329" height="111.334" transform="rotate(180 300.457 126.361)" fill="#E6E6E6"/>
<rect x="294.937" y="126.361" width="14.16" height="111.334" transform="rotate(180 294.937 126.361)" fill="#F0F0F0"/>
</g>
<g opacity="0.4">
<rect x="177.39" y="126.361" width="8.15978" height="111.334" transform="rotate(180 177.39 126.361)" fill="#F0F0F0"/>
<rect x="172.402" y="126.361" width="6.36016" height="111.334" transform="rotate(180 172.402 126.361)" fill="#E6E6E6"/>
<rect x="169.222" y="126.361" width="8.15978" height="111.334" transform="rotate(180 169.222 126.361)" fill="#F0F0F0"/>
<rect x="164.242" y="126.361" width="6.36016" height="111.334" transform="rotate(180 164.242 126.361)" fill="#E6E6E6"/>
<rect x="161.062" y="126.361" width="8.15978" height="111.334" transform="rotate(180 161.062 126.361)" fill="#F0F0F0"/>
</g>
<rect x="52.7473" y="15.1012" width="65.1526" height="184.678" fill="#F5F5F5"/>
<rect x="119.692" y="199.771" width="1.78439" height="184.678" transform="rotate(180 119.692 199.771)" fill="#E0E0E0"/>
<path d="M111.863 21.7908L111.863 193.082H58.778L58.778 21.7908L111.863 21.7908Z" fill="white"/>
<path d="M77.4673 193.082L95.0847 21.7908H105.247L87.6367 193.082H77.4673Z" fill="#FAFAFA"/>
<path d="M68.6621 193.082L86.2724 21.7908H91.3571L73.7468 193.082H68.6621Z" fill="#FAFAFA"/>
<ellipse cx="187.5" cy="300.563" rx="145.418" ry="9.41823" fill="#F5F5F5"/>
<path d="M298.538 300.565H210.935C208.455 300.588 206.084 299.462 204.418 297.471C202.727 295.452 201.881 292.766 202.078 290.047L214.305 84.4724C214.668 78.6708 219.043 74.1192 224.408 73.9601H312.001C314.481 73.9389 316.85 75.0655 318.514 77.0564C320.202 79.0763 321.046 81.761 320.848 84.4772L308.64 290.049C308.278 295.852 303.904 300.405 298.538 300.565Z" fill="#263238"/>
<path d="M316.979 129.24H306.375C305.776 129.246 305.204 128.974 304.802 128.493C304.394 128.006 304.189 127.358 304.237 126.702L305.294 108.896C305.401 107.51 306.455 106.433 307.739 106.4H318.337C318.928 106.396 319.493 106.662 319.894 107.133C320.3 107.611 320.51 108.248 320.474 108.896L319.416 126.702C319.331 128.103 318.275 129.204 316.979 129.24Z" fill="#263238"/>
<rect x="243.458" y="71.0476" width="3.87749" height="0.832422" fill="#7F47FA"/>
<rect x="224.58" y="71.0476" width="14.0999" height="0.832422" fill="#7F47FA"/>
<path d="M297.202 300.564H209.6C207.12 300.585 204.75 299.459 203.085 297.468C201.395 295.449 200.548 292.765 200.743 290.047L213 84.4723C213.361 78.6692 217.736 74.115 223.102 73.9552H310.704C313.175 73.9508 315.53 75.0847 317.182 77.0739C318.86 79.0907 319.699 81.7657 319.502 84.4723L307.304 290.049C306.942 295.852 302.568 300.405 297.202 300.564Z" fill="#7F47FA"/>
<path d="M301.178 276.618H208.5C207.091 276.631 205.743 275.992 204.797 274.861C203.837 273.713 203.355 272.188 203.467 270.644L214.109 91.6733C214.313 88.3855 216.785 85.8013 219.825 85.6996H312.525C313.934 85.6859 315.281 86.3254 316.227 87.4568C317.188 88.6038 317.669 90.1293 317.558 91.6733L306.915 270.644C306.712 273.941 304.226 276.528 301.178 276.618Z" fill="white"/>
<path d="M283.89 85.6996H265.485L220.897 276.618H239.302L283.89 85.6996Z" fill="#FAFAFA"/>
<path d="M300.105 85.6996H290.906L246.315 276.618H255.517L300.105 85.6996Z" fill="#FAFAFA"/>
<path d="M287.879 217.46L267.869 133.5C267.367 131.289 266.068 129.389 264.263 128.224C262.459 127.06 260.298 126.727 258.265 127.301L210.925 141.179L204.609 250.891L282.287 228.119C286.515 226.804 288.999 222.07 287.879 217.46Z" fill="#F0F0F0"/>
<path opacity="0.2" d="M250.306 281.79C251.375 280.553 252.862 279.839 254.426 279.811C255.99 279.783 257.497 280.443 258.604 281.64C260.773 284.327 260.589 288.392 258.188 290.835C257.118 292.072 255.632 292.786 254.068 292.814C252.504 292.843 250.996 292.183 249.889 290.986C247.719 288.299 247.903 284.233 250.306 281.79Z" fill="white"/>
<path opacity="0.2" d="M268.972 79.4934C268.88 80.9792 267.758 82.1444 266.384 82.1813C265.753 82.1817 265.152 81.8918 264.729 81.3839C264.3 80.8689 264.085 80.1853 264.134 79.4934C264.223 78.0059 265.346 76.8388 266.722 76.8055C267.353 76.8051 267.955 77.095 268.377 77.603C268.806 78.1179 269.022 78.8015 268.972 79.4934Z" fill="white"/>
<path opacity="0.2" d="M267.877 79.4924C267.832 80.3101 267.216 80.9537 266.46 80.9735C266.11 80.9788 265.775 80.8208 265.541 80.5397C265.303 80.2548 265.185 79.8754 265.215 79.4924C265.26 78.6748 265.876 78.0311 266.632 78.0114C266.982 78.006 267.317 78.1641 267.551 78.4451C267.789 78.7301 267.907 79.1094 267.877 79.4924Z" fill="white"/>
<path d="M126.99 69.1085C129.788 61.4786 128.786 52.1878 120.848 50.1048C117.295 49.0932 113.509 50.0078 110.689 52.5592C107.83 55.1517 106.25 59.041 106.418 63.0763C106.733 71.3967 111.668 78.3274 103.021 84.3595C94.3738 90.3916 95.2956 108.574 112.021 105.06C128.746 101.547 119.709 92.0059 119.709 92.0059C119.709 92.0059 115.606 95.7168 114.286 91.9398C112.613 87.0464 123.75 78.0356 126.99 69.1085Z" fill="#263238"/>
<path d="M97.561 94.1365L97.1938 94.0451C98.3113 88.4953 100.066 87.0639 101.919 85.5497C103.771 84.0356 105.526 82.5964 106.945 77.138C107.613 74.5668 107.193 71.7214 106.78 68.9762C106.255 65.4754 105.714 61.8452 107.343 58.6011L107.665 58.8092C106.105 61.921 106.637 65.4656 107.147 68.9101C107.567 71.7059 108.002 74.5931 107.304 77.2304C105.856 82.822 103.967 84.3604 102.144 85.859C100.321 87.3575 98.6479 88.7443 97.561 94.1365Z" fill="#263238"/>
<path d="M148.291 111.018C148.344 111.301 148.433 111.725 148.516 112.108L148.778 113.281C148.957 114.072 149.16 114.862 149.37 115.652C149.798 117.225 150.255 118.814 150.751 120.378C151.741 123.526 152.871 126.613 154.141 129.639L155.086 131.827C155.245 132.217 155.472 132.569 155.754 132.866C156.591 133.616 157.598 134.11 158.671 134.298C161.474 134.801 164.335 134.801 167.139 134.298L168.151 137.834C167.376 138.213 166.582 138.546 165.773 138.832C164.971 139.129 164.155 139.378 163.328 139.581C161.61 140.021 159.843 140.203 158.079 140.122C155.996 140.054 153.975 139.346 152.251 138.08C151.271 137.324 150.448 136.355 149.835 135.234L149.715 135.026L149.64 134.885L149.49 134.586L149.182 134.002L148.574 132.821C147.002 129.643 145.623 126.358 144.445 122.986C143.875 121.322 143.313 119.583 142.856 117.832C142.631 117 142.407 116.077 142.203 115.178C142 114.28 141.821 113.428 141.656 112.366L148.291 111.018Z" fill="#EB996E"/>
<path d="M142.501 99.3859C150.068 103.13 150.001 115.71 150.001 115.71L142.028 121.027C142.028 121.027 136.028 111.176 136.479 106.7C136.92 102.032 138.21 97.2844 142.501 99.3859Z" fill="url(#paint0_linear_0_6891)"/>
<path opacity="0.2" d="M143.693 110.122C141.623 107.801 139.8 110.48 138.135 113.45C139.276 116.073 140.576 118.611 142.028 121.046L145.298 118.866C145.943 116.094 145.756 112.449 143.693 110.122Z" fill="black"/>
<path d="M166.351 134.615L171.676 131.669L171.736 139.399C171.736 139.399 167.761 140.165 165.114 137.066L166.351 134.615Z" fill="#EB996E"/>
<path d="M177.398 133.043L176.483 138.78L171.736 139.396L171.676 131.666L177.398 133.043Z" fill="#EB996E"/>
<path d="M117.607 294.423L124.193 295.123L127.261 278.124L120.676 277.425L117.607 294.423Z" fill="#EB996E"/>
<path d="M74.4299 274.497L79.7848 278.823L88.7174 264.762L83.3553 260.435L74.4299 274.497Z" fill="#EB996E"/>
<path d="M81.7494 276.119L77.3397 269.421C77.1911 269.176 76.8941 269.097 76.6575 269.238L71.37 272.35C71.1037 272.522 70.9175 272.809 70.8574 273.139C70.7955 273.471 70.8642 273.815 71.0468 274.089C72.6221 276.394 73.4846 277.417 75.427 280.371C76.627 282.185 79.0271 286.387 80.6768 288.891C82.3266 291.395 84.6441 289.724 84.1639 288.517C81.9891 283.1 81.9137 279.93 82.0788 277.393C82.1105 276.94 81.9935 276.489 81.7485 276.12L81.7494 276.119Z" fill="#263238"/>
<path d="M125.066 292.917H117.161C116.866 292.92 116.609 293.139 116.538 293.45L114.82 300.364C114.735 300.695 114.796 301.051 114.985 301.327C115.172 301.599 115.468 301.758 115.781 301.754H133.99C136.878 301.754 137.477 298.517 136.285 298.218C130.931 296.903 127.84 295.09 126.183 293.356C125.877 293.058 125.477 292.901 125.066 292.915V292.917Z" fill="#263238"/>
<path opacity="0.2" d="M127.261 278.132L125.678 286.893H118.965L120.675 277.433L127.261 278.132Z" fill="black"/>
<path opacity="0.2" d="M83.3552 260.435L88.7172 264.77L84.1118 272.017L78.7498 267.682L83.3552 260.435Z" fill="black"/>
<path d="M145.619 106.018C145.154 111.634 143.474 122.659 138.562 144.2L111.607 141.613C112.905 130.389 113.512 123.117 110.979 101.867C110.81 100.451 111.181 99.0227 112.005 97.9097C112.817 96.8116 114.017 96.134 115.313 96.0426C117.255 95.9259 119.566 95.8481 121.883 95.9511C125.984 96.0192 130.075 96.4112 134.123 97.1239C136.501 97.5985 139.036 98.2802 141.098 98.8792C144.002 99.7594 145.906 102.766 145.619 106.018Z" fill="url(#paint1_linear_0_6891)"/>
<path opacity="0.2" d="M111.668 108.089C112.013 111.417 112.268 114.388 112.418 117.05C114.901 116.809 116.727 113.789 116.919 107.474C115.985 104.419 113.775 105.526 111.668 108.089Z" fill="black"/>
<path d="M138.563 144.2C138.563 144.2 147.683 188.963 141.563 220.522C137.49 241.652 128.423 284.343 128.423 284.343L116.925 284.018C116.925 284.018 122.416 239.213 124.718 221.616C128.656 191.479 118.794 142.331 118.794 142.331L138.563 144.2Z" fill="#263238"/>
<path opacity="0.2" d="M128.048 153.243L122.295 163.302C124.028 175.233 125.127 187.262 125.587 199.33C133.673 183.272 129.84 161.739 128.048 153.243Z" fill="black"/>
<path d="M130.073 285.013L115.868 284.613L116.693 279.77L131.183 280.528L130.073 285.013Z" fill="#7F47FA"/>
<path d="M132.667 143.725C132.667 143.725 127.32 191.192 115.718 217.11C106.35 238.044 86.7524 271.318 86.7524 271.318L79.5898 264.953C79.5898 264.953 91.8452 228.153 98.805 214.249C115.882 180.136 101.925 154.135 111.608 141.613L132.667 143.725Z" fill="#263238"/>
<path d="M119.349 159.974L242.838 102.413C245.303 101.28 248.085 101.272 250.556 102.391C253.026 103.51 254.976 105.661 255.963 108.358L284.61 183.986C286.769 189.611 284.39 196.075 279.251 198.548L155.759 256.111C153.294 257.245 150.511 257.253 148.04 256.134C145.569 255.015 143.619 252.863 142.632 250.165L113.985 174.537C111.826 168.91 114.207 162.445 119.349 159.974Z" fill="#7F47FA"/>
<path d="M119.349 159.974L242.838 102.413C245.303 101.28 248.085 101.272 250.556 102.391C253.026 103.51 254.976 105.661 255.963 108.358L284.61 183.986C286.769 189.611 284.39 196.075 279.251 198.548L155.759 256.111C153.294 257.245 150.511 257.253 148.04 256.134C145.569 255.015 143.619 252.863 142.632 250.165L113.985 174.537C111.826 168.91 114.207 162.445 119.349 159.974Z" fill="url(#paint2_linear_0_6891)"/>
<path opacity="0.2" d="M128.515 168.527L151.556 157.788C152.742 157.243 154.08 157.239 155.268 157.777C156.457 158.315 157.394 159.35 157.869 160.647L162.323 172.409C163.361 175.114 162.217 178.223 159.745 179.412L136.705 190.152C135.519 190.697 134.181 190.701 132.993 190.162C131.804 189.624 130.867 188.589 130.392 187.292L125.938 175.53C124.9 172.825 126.044 169.716 128.515 168.527Z" fill="white"/>
<path opacity="0.4" d="M145.935 223.485L169.672 212.421C170.116 212.219 170.617 212.219 171.062 212.421C171.506 212.623 171.857 213.01 172.035 213.495L173.593 217.598C173.983 218.613 173.554 219.778 172.627 220.225L148.886 231.288C148.442 231.49 147.941 231.491 147.496 231.289C147.052 231.087 146.701 230.699 146.522 230.214L144.968 226.112C144.579 225.097 145.008 223.931 145.935 223.485Z" fill="white"/>
<path opacity="0.4" d="M177.754 208.658L201.491 197.594C201.935 197.392 202.436 197.392 202.88 197.594C203.325 197.796 203.676 198.183 203.854 198.668L205.412 202.771C205.802 203.786 205.372 204.951 204.446 205.397L180.705 216.461C180.26 216.663 179.76 216.663 179.315 216.462C178.87 216.26 178.519 215.872 178.341 215.387L176.787 211.285C176.398 210.27 176.827 209.104 177.754 208.658Z" fill="white"/>
<path opacity="0.4" d="M209.567 193.831L233.303 182.767C233.748 182.565 234.249 182.565 234.693 182.767C235.138 182.969 235.489 183.356 235.667 183.841L237.225 187.944C237.614 188.958 237.185 190.124 236.258 190.57L212.518 201.634C212.073 201.836 211.572 201.836 211.128 201.634C210.683 201.433 210.332 201.045 210.154 200.56L208.6 196.458C208.211 195.443 208.64 194.277 209.567 193.831Z" fill="white"/>
<path opacity="0.4" d="M241.385 179.004L265.122 167.94C265.566 167.738 266.067 167.738 266.512 167.94C266.956 168.142 267.307 168.529 267.485 169.014L269.043 173.117C269.433 174.132 269.004 175.298 268.077 175.744L244.336 186.807C243.892 187.009 243.391 187.01 242.946 186.808C242.502 186.606 242.151 186.218 241.973 185.733L240.419 181.631C240.029 180.616 240.458 179.45 241.385 179.004Z" fill="white"/>
<g opacity="0.6">
<path d="M238.5 117.455C241.256 116.761 244.155 117.293 246.546 118.933C248.936 120.573 250.62 123.184 251.22 126.18C252.598 132.423 249.096 138.707 243.355 140.293C240.599 140.987 237.7 140.455 235.309 138.814C232.918 137.174 231.234 134.563 230.635 131.566C229.258 125.324 232.76 119.04 238.5 117.455V117.455Z" fill="#263238"/>
<path d="M219.649 127.78C221.296 125.3 223.801 123.65 226.591 123.208C229.38 122.766 232.216 123.57 234.45 125.436C239.131 129.396 240.067 136.669 236.564 141.865C234.917 144.345 232.413 145.995 229.623 146.437C226.833 146.879 223.997 146.075 221.764 144.21C217.082 140.25 216.145 132.977 219.649 127.78Z" fill="white"/>
</g>
<path d="M87.5029 272.2L78.3154 264.483L80.5728 260.01L90.3374 268.414L87.5029 272.2Z" fill="#7F47FA"/>
<path d="M111.338 139.823L109.913 142.386C109.8 142.58 110.011 142.819 110.317 142.844L138.591 145.556C138.831 145.556 139.04 145.465 139.071 145.298L139.52 142.644C139.558 142.462 139.355 142.287 139.093 142.261L111.792 139.636C111.621 139.606 111.447 139.675 111.334 139.819L111.338 139.823Z" fill="#7F47FA"/>
<path opacity="0.5" d="M111.338 139.823L109.913 142.386C109.8 142.58 110.011 142.819 110.317 142.844L138.591 145.556C138.831 145.556 139.04 145.465 139.071 145.298L139.52 142.644C139.558 142.462 139.355 142.287 139.093 142.261L111.792 139.636C111.621 139.606 111.447 139.675 111.334 139.819L111.338 139.823Z" fill="black"/>
<path d="M114.75 143.56L114 143.493C113.857 143.493 113.752 143.386 113.767 143.285L114.382 139.841C114.382 139.733 114.532 139.666 114.682 139.682L115.432 139.749C115.581 139.749 115.686 139.856 115.664 139.957L115.049 143.401C114.992 143.519 114.871 143.582 114.75 143.56Z" fill="#7F47FA"/>
<path d="M136.5 145.648L135.75 145.581C135.607 145.581 135.502 145.473 135.517 145.373L136.132 141.929C136.186 141.807 136.31 141.742 136.432 141.77L137.182 141.836C137.331 141.836 137.436 141.944 137.414 142.045L136.799 145.489C136.792 145.606 136.658 145.664 136.5 145.648Z" fill="#7F47FA"/>
<path d="M125.625 144.607L124.875 144.532C124.725 144.532 124.62 144.424 124.642 144.324L125.257 140.879C125.257 140.782 125.407 140.704 125.549 140.721L126.299 140.796C126.442 140.796 126.547 140.904 126.532 141.004L125.917 144.448C125.902 144.549 125.775 144.616 125.625 144.607Z" fill="#7F47FA"/>
<path fill-rule="evenodd" clip-rule="evenodd" d="M83.1759 279.821C83.2602 279.837 83.3465 279.837 83.4308 279.821C83.6266 279.791 83.808 279.693 83.9478 279.541C84.0917 279.408 84.1554 279.2 84.113 279C83.9406 278.094 81.7057 277.134 81.4508 277.037C81.4111 277.004 81.3558 277.004 81.3161 277.037C81.2869 277.085 81.2869 277.147 81.3161 277.195C81.6761 278.099 82.3582 279.638 83.1759 279.821ZM81.6832 277.39C81.6831 277.39 81.683 277.39 81.683 277.39H81.6821C81.6824 277.39 81.6828 277.39 81.6832 277.39ZM83.2277 279.52C82.7601 279.42 82.1929 278.63 81.6832 277.39C82.4525 277.74 83.7824 278.455 83.8874 279.012C83.9095 279.115 83.8745 279.222 83.7976 279.286C83.6582 279.466 83.4422 279.555 83.2277 279.52Z" fill="#7F47FA"/>
<path fill-rule="evenodd" clip-rule="evenodd" d="M81.3834 277.259C82.0604 277.521 82.7848 277.606 83.4981 277.508C83.8489 277.503 84.1864 277.362 84.4504 277.112C84.6032 276.896 84.6032 276.595 84.4504 276.379C84.3381 276.151 84.1371 275.989 83.9029 275.939C83.0215 275.722 81.5788 276.839 81.3806 276.993C81.3703 277.001 81.3634 277.006 81.3601 277.009C81.3217 277.04 81.3018 277.09 81.308 277.142C81.3118 277.193 81.3406 277.237 81.3834 277.259ZM84.2455 276.901C83.9017 277.325 82.4979 277.308 81.7475 277.067C82.3611 276.554 83.1044 276.256 83.8784 276.212C84.0367 276.246 84.172 276.356 84.2455 276.512C84.3577 276.726 84.3056 276.835 84.2455 276.901Z" fill="#7F47FA"/>
<path fill-rule="evenodd" clip-rule="evenodd" d="M126.413 294.033C127.122 294.211 127.845 294.312 128.573 294.332L128.572 294.331C129.115 294.388 129.66 294.252 130.125 293.942C130.368 293.746 130.513 293.438 130.515 293.11C130.538 292.933 130.465 292.758 130.328 292.66C129.608 292.094 126.743 293.583 126.413 293.758C126.363 293.783 126.331 293.836 126.331 293.895C126.331 293.954 126.363 294.008 126.413 294.033ZM129.938 293.7C129.293 294.241 127.718 294.008 126.863 293.833V293.832C128.055 293.25 129.75 292.592 130.156 292.898C130.223 292.926 130.223 292.975 130.223 293.092C130.212 293.329 130.108 293.55 129.938 293.7Z" fill="#7F47FA"/>
<path fill-rule="evenodd" clip-rule="evenodd" d="M126.36 294.032C126.387 294.044 126.416 294.044 126.443 294.032L126.504 294.057C127.374 293.666 129.181 292.086 129.084 291.253C129.06 291.079 128.956 290.871 128.566 290.813C126.99 290.613 126.315 293.75 126.315 293.891C126.303 293.944 126.321 294 126.36 294.032ZM126.638 293.624C126.832 292.892 127.41 291.062 128.408 291.062L128.513 291.067C128.805 291.102 128.805 291.219 128.805 291.261C128.888 291.769 127.575 293.075 126.638 293.624Z" fill="#7F47FA"/>
<path d="M114.592 108.239L114.195 108.863L113.759 109.57C113.467 110.057 113.174 110.543 112.897 111.051C112.327 112.05 111.809 113.094 111.281 114.13C110.243 116.225 109.331 118.39 108.551 120.612C107.762 122.825 107.102 125.09 106.576 127.393L106.223 129.056C106.223 129.007 106.178 129.181 106.261 129.497C106.518 130.384 106.895 131.225 107.378 131.993C108.587 133.922 109.947 135.734 111.444 137.41C112.943 139.174 114.608 140.88 116.266 142.577C117.924 144.273 119.663 145.904 121.404 147.511C123.144 149.117 124.921 150.739 126.654 152.303L124.779 155.373C120.757 152.726 116.878 149.832 113.161 146.704C111.286 145.14 109.449 143.495 107.671 141.711C105.803 139.894 104.103 137.885 102.594 135.712C101.684 134.428 100.975 132.992 100.493 131.46C100.165 130.389 100.055 129.254 100.171 128.133V127.775L100.209 127.525L100.284 127.017L100.441 126.011C100.882 123.333 101.503 120.694 102.301 118.114C103.124 115.553 104.098 113.052 105.218 110.626C105.781 109.412 106.396 108.238 107.055 107.082C107.378 106.498 107.715 105.926 108.068 105.351L108.622 104.519C108.817 104.227 108.982 103.969 109.245 103.611L114.592 108.239Z" fill="#EB996E"/>
<path d="M113.926 96.5161C108.781 98.0137 103.815 111.851 103.815 111.851L110.475 118.606C110.475 118.606 120.941 108.023 120.582 103.247C120.293 99.1865 118.058 95.3015 113.926 96.5161Z" fill="url(#paint3_linear_0_6891)"/>
<path opacity="0.2" d="M121.883 95.6837C120.941 95.8973 119.98 95.9952 119.018 95.9755C118.815 100.086 121.192 104.055 127.035 109.38C128.437 104.529 131.535 103.481 131.535 103.481L121.883 95.6837Z" fill="black"/>
<path opacity="0.2" d="M134.123 96.9897C134.123 96.9897 134.805 97.0977 136.433 97.5139C137.521 99.3693 138.931 105.085 135.728 109.162C134.483 104.169 131.51 103.537 131.51 103.537L134.123 96.9897Z" fill="black"/>
<path d="M121.883 95.6837H118.553C117.465 97.5392 121.208 102.685 127.043 108.006C128.446 103.155 131.543 103.446 131.543 103.446L121.883 95.6837Z" fill="white"/>
<path d="M134.123 96.9897C134.123 96.9897 134.805 97.0977 136.433 97.5139C137.521 99.3693 139.868 104.395 136.665 108.438C135.42 103.446 131.512 103.513 131.512 103.513L134.123 96.9897Z" fill="white"/>
<path d="M124.29 80.7488C124.725 85.1919 124.867 93.2293 121.883 95.9249C121.883 95.9249 123.435 100.917 131.513 103.51C136.373 100.398 134.123 97.0919 134.123 97.0919C129.825 95.5106 130.223 91.9087 131.25 88.58L124.29 80.7488Z" fill="#EB996E"/>
<path opacity="0.2" d="M127.125 83.952L131.254 88.5867C131.001 89.3577 130.811 90.151 130.684 90.9576C129.026 90.5336 126.626 88.6237 126.604 86.6564C126.634 85.729 126.812 84.8141 127.129 83.952L127.125 83.952Z" fill="black"/>
<path d="M133.411 62.9937C134.723 61.3882 137.326 63.4342 138.286 67.3697C139.722 73.1938 135.886 73.61 133.876 70.6975C131.866 67.785 132.316 64.3327 133.411 62.9937Z" fill="#263238"/>
<path d="M137.475 73.2181C138.795 73.7255 140.04 74.4372 141.172 75.3312C140.52 73.5682 139.935 72.4946 137.475 73.2181Z" fill="#263238"/>
<path d="M138.232 73.4933C139.298 73.2579 140.389 73.1908 141.473 73.2939C140.407 72.3866 139.635 71.9373 138.232 73.4933Z" fill="#263238"/>
<path d="M120.751 73.8093C122.423 80.9082 123.001 83.952 126.916 86.9219C132.818 91.3952 140.311 87.5705 140.589 80.0573C140.836 73.3017 138.061 62.8342 131.213 61.3531C128.132 60.6665 124.945 61.7995 122.838 64.3308C120.698 66.8984 119.911 70.4701 120.751 73.8083V73.8093Z" fill="#EB996E"/>
<path d="M123.84 64.4494L121.988 66.8378C121.441 67.5415 120.655 67.9769 119.808 68.0457C118.962 68.1145 118.125 67.8109 117.487 67.2034C116.16 65.9051 116.011 63.7048 117.15 62.2108L119.006 59.8332C119.553 59.13 120.337 58.6944 121.184 58.624C122.03 58.5536 122.867 58.8543 123.506 59.4588C124.83 60.7592 124.978 62.9559 123.844 64.4514L123.84 64.4494Z" fill="white"/>
<path d="M125.55 67.1111L123.3 68.3587C122.373 68.858 121.299 68.9321 120.322 68.5642C119.344 68.1963 118.544 67.4174 118.102 66.4031C117.157 64.2781 117.937 61.7242 119.865 60.6287L122.115 59.381C123.044 58.8819 124.119 58.8088 125.098 59.1781C126.078 59.5475 126.879 60.3282 127.321 61.3444C128.265 63.4694 127.481 66.0224 125.55 67.1111Z" fill="#7F47FA"/>
<path d="M122.666 79.118C122.666 79.118 127.286 77.9452 125.321 70.4485C125.172 69.8647 125.276 69.2394 125.602 68.7477C125.923 68.2621 126.435 67.9676 126.986 67.9522C132.192 67.7937 137.059 66.5908 136.368 63.2426C135.506 59.0164 122.539 55.7547 120.183 64.2151C115.59 65.4064 115.417 75.4567 122.666 79.118Z" fill="#263238"/>
<path d="M122.693 77.6368C124.013 78.1442 125.258 78.856 126.39 79.75C125.738 78.0025 125.153 76.9299 122.693 77.6368Z" fill="#263238"/>
<path d="M123.45 77.9287C124.516 77.6933 125.607 77.6262 126.691 77.7293C125.633 76.8386 124.861 76.3805 123.45 77.9287Z" fill="#263238"/>
<path d="M119.701 79.3843C120.29 80.6296 121.313 81.5696 122.543 81.9973C124.17 82.538 125.011 80.9403 124.591 79.218C124.208 77.6709 122.903 75.5324 121.261 75.7405C120.529 75.8566 119.901 76.3666 119.594 77.0952C119.28 77.8308 119.32 78.6868 119.701 79.3843Z" fill="#EB996E"/>
<path d="M131.596 73.5681C131.701 74.1516 132.068 74.5668 132.403 74.4919C132.739 74.4171 132.942 73.8764 132.846 73.2939C132.75 72.7114 132.374 72.2952 132.028 72.37C131.683 72.4449 131.491 72.9739 131.596 73.5681Z" fill="#263238"/>
<path d="M137.554 72.2621C137.659 72.8524 138.019 73.2608 138.361 73.1859C138.704 73.111 138.9 72.5781 138.797 71.9966C138.693 71.4151 138.332 70.9979 137.989 71.0728C137.646 71.1477 137.453 71.6796 137.554 72.2621Z" fill="#263238"/>
<path d="M137.85 71.1389L139.043 70.4582C139.043 70.4582 138.585 71.6961 137.85 71.1389Z" fill="#263238"/>
<path d="M135.51 73.7267C136.214 74.9566 137.069 76.0762 138.053 77.0544C137.595 77.615 136.928 77.9211 136.238 77.8868L135.51 73.7267Z" fill="#ED847E"/>
<path d="M133.8 80.6409C132.686 80.6545 131.61 80.198 130.8 79.3679C130.75 79.3093 130.75 79.2184 130.8 79.1598C130.852 79.1038 130.936 79.1038 130.988 79.1598C132.003 80.1571 133.402 80.5563 134.738 80.2295C134.772 80.2233 134.807 80.2322 134.835 80.2541C134.864 80.276 134.883 80.3091 134.888 80.3462C134.901 80.4235 134.854 80.4978 134.783 80.5125C134.461 80.5929 134.131 80.6346 133.8 80.637V80.6409Z" fill="#263238"/>
<path d="M128.017 71.2975C127.97 71.2952 127.924 71.2809 127.883 71.2557C127.756 71.1719 127.716 70.9933 127.793 70.856C128.287 69.9139 129.175 69.2927 130.17 69.1921C130.316 69.1921 130.435 69.3174 130.44 69.4751C130.444 69.6334 130.331 69.7663 130.185 69.7746C129.362 69.8788 128.638 70.4094 128.242 71.1973C128.187 71.2692 128.103 71.3068 128.017 71.2975Z" fill="#263238"/>
<path d="M139.215 68.951C139.174 68.9633 139.13 68.9633 139.088 68.951C138.382 68.4866 137.511 68.4246 136.754 68.7847C136.687 68.8222 136.609 68.8288 136.538 68.8029C136.467 68.7771 136.408 68.721 136.375 68.6476C136.305 68.4943 136.36 68.308 136.499 68.2275C137.409 67.7693 138.471 67.835 139.327 68.4025C139.387 68.44 139.432 68.5023 139.45 68.5756C139.468 68.6494 139.458 68.728 139.424 68.7944C139.386 68.8854 139.305 68.9464 139.214 68.9529L139.215 68.951Z" fill="#263238"/>
<path d="M124.208 151.064L130.208 151.53L127.501 158.643C127.501 158.643 122.491 156.888 122.289 152.819L124.208 151.064Z" fill="#EB996E"/>
<path d="M132.51 155.557L129.607 160.419L127.507 158.647L130.229 151.534L132.51 155.557Z" fill="#EB996E"/>
<path d="M131.888 72.4371L133.08 71.7564C133.08 71.7564 132.622 72.9943 131.888 72.4371Z" fill="#263238"/>
<defs>
<linearGradient id="paint0_linear_0_6891" x1="136.455" y1="98.8738" x2="136.455" y2="121.027" gradientUnits="userSpaceOnUse">
<stop stop-color="#AA6FFE"/>
<stop offset="1" stop-color="#7F47FA"/>
</linearGradient>
<linearGradient id="paint1_linear_0_6891" x1="110.939" y1="95.9031" x2="110.939" y2="144.2" gradientUnits="userSpaceOnUse">
<stop stop-color="#AA6FFE"/>
<stop offset="1" stop-color="#7F47FA"/>
</linearGradient>
<linearGradient id="paint2_linear_0_6891" x1="110.122" y1="164.293" x2="153.674" y2="257.332" gradientUnits="userSpaceOnUse">
<stop stop-color="#FE6587"/>
<stop offset="1" stop-color="#F52D6A"/>
</linearGradient>
<linearGradient id="paint3_linear_0_6891" x1="103.815" y1="96.29" x2="103.815" y2="118.606" gradientUnits="userSpaceOnUse">
<stop stop-color="#AA6FFE"/>
<stop offset="1" stop-color="#7F47FA"/>
</linearGradient>
</defs>
</svg>
