<svg width="336" height="251" viewBox="0 0 336 251" fill="none" xmlns="http://www.w3.org/2000/svg">
<rect y="220.013" width="336" height="0.168099" fill="#E6E6E6"/>
<rect x="61.6223" y="230.181" width="22.2571" height="0.168099" fill="#E6E6E6"/>
<rect x="41.6846" y="230.181" width="12.8956" height="0.168099" fill="#E6E6E6"/>
<rect x="128.594" y="232.653" width="12.8956" height="0.168099" fill="#E6E6E6"/>
<rect x="179.706" y="236.403" width="29.0241" height="0.168099" fill="#E6E6E6"/>
<rect x="169.472" y="236.403" width="4.2535" height="0.168099" fill="#E6E6E6"/>
<rect x="241.698" y="232.653" width="62.9531" height="0.168099" fill="#E6E6E6"/>
<path fill-rule="evenodd" clip-rule="evenodd" d="M29.5074 190.042H159.264C161.383 190.042 163.101 188.324 163.101 186.205V3.83726C163.101 1.718 161.383 0 159.264 0H29.5074C27.4044 0.00375092 25.6963 1.6994 25.6771 3.80224V186.205C25.6771 188.321 27.3908 190.038 29.5074 190.042ZM25.8452 3.80324C25.8452 1.77955 27.4837 0.137942 29.5074 0.134079L159.264 0.133078C161.289 0.136933 162.929 1.77742 162.933 3.80224V186.205C162.929 188.229 161.289 189.87 159.264 189.874H29.5074C27.4837 189.87 25.8452 188.228 25.8452 186.205V3.80324Z" fill="#E6E6E6"/>
<path fill-rule="evenodd" clip-rule="evenodd" d="M174.861 190.042H304.624C306.738 190.034 308.448 188.318 308.448 186.205V3.80224C308.428 1.70212 306.725 0.00757966 304.624 0H174.861C172.757 0.00370791 171.047 1.69827 171.024 3.80224V186.205C171.028 188.322 172.743 190.038 174.861 190.042ZM171.192 3.80324C171.196 1.77842 172.836 0.137933 174.861 0.134079L304.624 0.133078C306.649 0.136933 308.29 1.77742 308.294 3.80224V186.205C308.29 188.229 306.649 189.87 304.624 189.874H174.861C172.836 189.87 171.196 188.229 171.192 186.205V3.80324Z" fill="#E6E6E6"/>
<rect x="164.915" y="162.611" width="14.7777" height="58.6185" fill="#E0E0E0"/>
<path d="M176.884 221.229H179.693V213.246H173.94L176.884 221.229Z" fill="#FAFAFA"/>
<rect x="100.162" y="162.611" width="14.7777" height="58.6185" fill="#E0E0E0"/>
<rect x="112.493" y="162.611" width="67.1996" height="53.7196" fill="#FAFAFA"/>
<path fill-rule="evenodd" clip-rule="evenodd" d="M114.671 164.989H177.502H177.516V179.72H114.671V164.989ZM177.254 179.46V165.251H177.239H114.918V179.46H177.254Z" fill="#E0E0E0"/>
<path d="M115.295 221.229H112.493V213.246H118.239L115.295 221.229Z" fill="#FAFAFA"/>
<path d="M144.608 172.354C144.608 173.175 145.273 173.839 146.093 173.839C146.913 173.839 147.578 173.175 147.578 172.354C147.578 171.534 146.913 170.87 146.093 170.87C145.273 170.87 144.608 171.534 144.608 172.354Z" fill="#E6E6E6"/>
<path fill-rule="evenodd" clip-rule="evenodd" d="M114.671 182.105H177.502L177.516 182.115V196.836H114.671V182.105ZM177.254 196.569V182.36H177.239H114.918V196.569H177.254Z" fill="#E0E0E0"/>
<path d="M144.608 189.504C144.608 190.324 145.273 190.988 146.093 190.988C146.913 190.988 147.578 190.324 147.578 189.504C147.578 188.684 146.913 188.019 146.093 188.019C145.273 188.019 144.608 188.684 144.608 189.504Z" fill="#E6E6E6"/>
<path fill-rule="evenodd" clip-rule="evenodd" d="M114.671 199.214H177.502H177.516V213.951H114.671V199.214ZM177.254 213.696V199.476H177.239H114.918V213.696H177.254Z" fill="#E0E0E0"/>
<path d="M144.608 206.587C144.612 207.295 145.115 207.902 145.81 208.037C146.505 208.172 147.198 207.798 147.467 207.143C147.735 206.487 147.504 205.734 146.914 205.342C146.324 204.951 145.54 205.03 145.04 205.532C144.762 205.812 144.606 206.192 144.608 206.587Z" fill="#E6E6E6"/>
<rect x="91.1367" y="128.567" width="14.7777" height="92.6686" fill="#E0E0E0"/>
<path d="M103.105 221.229H105.911V213.246H100.168L103.105 221.229Z" fill="#FAFAFA"/>
<rect x="35.9121" y="128.567" width="14.7777" height="92.6686" fill="#E0E0E0"/>
<rect x="48.2364" y="128.567" width="57.678" height="87.7697" fill="#FAFAFA"/>
<path fill-rule="evenodd" clip-rule="evenodd" d="M50.3997 130.74H103.74L103.723 130.745V151.2H50.3997V130.74ZM103.431 150.911V131.04H50.7219V150.911H103.431Z" fill="#E0E0E0"/>
<path fill-rule="evenodd" clip-rule="evenodd" d="M78.019 153.028H103.734V206.352H78.019V153.028ZM103.427 206.039V153.337H103.425H78.3191V206.039H103.427Z" fill="#E0E0E0"/>
<path fill-rule="evenodd" clip-rule="evenodd" d="M50.3997 153.028H76.1148V206.352H50.3997V153.028ZM75.8287 206.039V153.337H75.8277H50.7219V206.039H75.8287Z" fill="#E0E0E0"/>
<path d="M51.0451 221.229H48.2364V213.246H53.9888L51.0451 221.229Z" fill="#FAFAFA"/>
<path d="M75.5865 140.985C75.5837 141.589 75.9454 142.135 76.5026 142.368C77.0599 142.601 77.7027 142.476 78.1308 142.049C78.5589 141.623 78.6879 140.981 78.4574 140.423C78.2269 139.864 77.6824 139.5 77.0784 139.5C76.2572 139.5 75.5904 140.164 75.5865 140.985Z" fill="#E6E6E6"/>
<path d="M80.9086 178.435C80.9121 179.143 81.415 179.75 82.1101 179.885C82.8051 180.021 83.4989 179.646 83.7674 178.991C84.036 178.336 83.8045 177.582 83.2146 177.191C82.6246 176.799 81.8403 176.879 81.3409 177.38C81.0629 177.661 80.9074 178.04 80.9086 178.435Z" fill="#E6E6E6"/>
<path d="M70.2714 178.435C70.2749 179.143 70.7778 179.75 71.4728 179.885C72.1679 180.021 72.8617 179.646 73.1302 178.991C73.3987 178.336 73.1673 177.582 72.5773 177.191C71.9874 176.799 71.2031 176.879 70.7036 177.38C70.425 177.661 70.2694 178.04 70.2714 178.435Z" fill="#E6E6E6"/>
<path d="M68.5914 102.728H62.3617C62.9357 105.75 63.2971 108.809 63.4433 111.881C63.4433 115.241 58.6985 128.567 65.4595 128.567C72.2205 128.567 67.4757 115.275 67.4757 111.881C67.6332 108.808 68.006 105.749 68.5914 102.728V102.728Z" fill="#E0E0E0"/>
<path d="M44.8895 116.357V120.389C44.9043 124.888 48.548 128.532 53.0473 128.547H57.0797C61.5789 128.532 65.2226 124.888 65.2375 120.389V116.357L44.8895 116.357Z" fill="#F5F5F5"/>
<path d="M131.49 154.063C131.49 158.765 136.752 162.611 143.183 162.611H148.987C155.417 162.611 160.68 158.766 160.68 154.063H131.49Z" fill="#E0E0E0"/>
<path d="M285.335 147.168C280.231 151.608 275.895 156.862 272.503 162.716C269.407 167.868 267.512 173.652 266.958 179.637C266.958 171.909 267.005 163.609 267.032 155.774C267.926 153.758 269.969 149.108 271.435 145.439C276.321 133.188 278.155 130.171 282.541 119.606C288.408 105.498 294.415 88.7883 292.695 90.1261C289.187 92.8477 275.747 118.015 274.296 121.616C270.339 131.228 267.893 141.394 267.044 151.754C267.044 144.362 267.098 137.646 267.125 132.428C267.219 115.418 267.509 109.93 267.65 108.236C268.194 107.375 268.832 106.375 269.209 105.834C272.367 101.265 273.583 97.3803 276.554 90.5663C280.774 80.9227 284.403 63.7936 283.341 64.6511C278.919 68.2532 275.436 75.9807 270.856 85.8395C266.275 95.6984 267.583 101.363 266.676 109.777C266.488 111.43 266.34 117.666 266.233 126.301C265.05 117.096 262.819 111.033 258.753 105.523C253.751 98.7431 248.916 94.1665 245.368 91.774C241.82 89.3816 251.496 106.033 256.12 113.278C260.239 119.756 264.037 125.461 266.2 131.088C266.086 142.801 266.032 157.626 266.032 171.412C265.052 165.14 263.339 159.005 260.929 153.133C258.147 146.843 253.873 137.194 250.466 133.922C249.652 133.135 254.027 151.904 256.836 156.89C259.646 161.876 261.708 166.587 263.475 169.417C263.885 170.089 265.256 172.619 266.036 174.088C266.036 190.934 266.13 205.799 266.278 210.859H267.003C266.956 209.558 266.943 200.98 266.963 189.638C268.717 183.482 272.723 176.453 276.029 170.042C279.626 163.094 288.859 144.312 285.335 147.168Z" fill="#E0E0E0"/>
<path d="M277.16 221.229H256.1L254.507 200.585H278.752L277.16 221.229Z" fill="#F0F0F0"/>
<path d="M280.318 202.992H252.934L252.154 196.022H281.105L280.318 202.992Z" fill="#F5F5F5"/>
<rect x="45.8371" y="13.7761" width="37.6652" height="41.3614" fill="#E0E0E0"/>
<rect x="48.6727" y="13.7761" width="38.9089" height="41.3614" fill="#F5F5F5"/>
<rect x="84.3226" y="17.035" width="34.8435" height="32.3901" transform="rotate(90 84.3226 17.035)" fill="white"/>
<rect x="76.467" y="25.476" width="17.9496" height="16.6858" transform="rotate(90 76.467 25.476)" fill="#F5F5F5"/>
<rect x="240.563" y="18.594" width="34.9906" height="38.4246" fill="#E0E0E0"/>
<rect x="243.203" y="18.594" width="36.1403" height="38.4246" fill="#F5F5F5"/>
<rect x="276.32" y="21.6247" width="32.3631" height="30.0857" transform="rotate(90 276.32 21.6247)" fill="white"/>
<circle cx="261.274" cy="37.8063" r="9.38753" fill="#F5F5F5"/>
<rect x="94.6918" y="38.4386" width="27.9415" height="30.6831" fill="#E0E0E0"/>
<rect x="96.795" y="38.4386" width="28.862" height="30.6831" fill="#F5F5F5"/>
<rect x="123.239" y="40.8581" width="25.8452" height="24.0241" transform="rotate(90 123.239 40.8581)" fill="white"/>
<path d="M111.229 47.2418L104.658 58.6255H117.802L111.229 47.2418Z" fill="#F5F5F5"/>
<ellipse cx="168" cy="242.754" rx="130.294" ry="7.60748" fill="#F5F5F5"/>
<rect x="160.265" y="10.4632" width="4.29453" height="0.692408" fill="#7F47FA"/>
<rect x="219.626" y="49.3901" width="11.5448" height="0.692408" transform="rotate(-87.42 219.626 49.3901)" fill="#7F47FA"/>
<path d="M218.811 13.568H139.51L132.136 178.692H211.431L218.811 13.568Z" fill="#7F47FA"/>
<path opacity="0.56" d="M216.445 15.8393H137.149L129.77 180.967H209.066L216.445 15.8393Z" fill="#FAFAFA"/>
<path opacity="0.07" d="M214.079 18.1037H134.783L127.398 183.228H206.694L214.079 18.1037Z" fill="#FAAD44"/>
<path d="M205.054 90.1221H137.37L136.806 102.756H204.489L205.054 90.1221Z" fill="white"/>
<path d="M174.594 80.9027H137.782L137.533 86.554H174.345L174.594 80.9027Z" fill="#7F47FA"/>
<path d="M203.529 124.219H135.845L135.281 136.853H202.965L203.529 124.219Z" fill="white"/>
<path opacity="0.47" d="M191.117 153.915H145.602L144.923 169.055H190.438L191.117 153.915Z" fill="#7F47FA"/>
<path fill-rule="evenodd" clip-rule="evenodd" d="M142.558 171.408H188.077C188.112 171.411 188.145 171.393 188.162 171.362L188.82 156.181C188.83 156.164 188.83 156.144 188.82 156.127C188.803 156.118 188.783 156.118 188.766 156.127H143.251C143.231 156.125 143.21 156.132 143.194 156.146C143.179 156.16 143.17 156.18 143.17 156.201L142.498 171.348C142.491 171.367 142.491 171.388 142.498 171.408C142.518 171.413 142.538 171.413 142.558 171.408ZM187.997 171.247H142.643L143.31 156.261H188.669L187.997 171.247Z" fill="white"/>
<path d="M166.642 115H136.254L136.005 120.658H166.386L166.642 115Z" fill="#7F47FA"/>
<path d="M190.25 49.3111C190.076 52.988 188.769 56.521 186.507 59.425C183.114 63.8708 177.853 66.4942 172.26 66.5292C167.753 66.5634 163.433 64.7339 160.32 61.4739C157.208 58.2138 155.581 53.8127 155.824 49.3121C156.314 39.7198 164.195 32.1714 173.799 32.0949C178.31 32.0527 182.637 33.8792 185.754 37.1407C188.87 40.4022 190.497 44.8079 190.25 49.3121V49.3111Z" fill="white"/>
<path d="M191.87 35.697C191.826 36.6746 191.479 37.614 190.875 38.3846C189.971 39.5652 188.572 40.2621 187.085 40.2727C185.642 40.2815 184.288 39.5743 183.47 38.3846C182.937 37.5929 182.673 36.6505 182.718 35.697C182.852 33.1506 184.946 31.1486 187.495 31.1273C188.693 31.1166 189.842 31.6012 190.671 32.4665C191.499 33.3318 191.933 34.5008 191.87 35.697Z" fill="#7F47FA"/>
<path d="M144.662 96.4388C144.595 97.5626 143.671 98.4433 142.545 98.455C142.016 98.4613 141.507 98.2481 141.141 97.8662C140.774 97.4842 140.582 96.9675 140.61 96.4388C140.67 95.3121 141.599 94.4279 142.727 94.4226C143.256 94.4184 143.763 94.6322 144.129 95.0137C144.495 95.3952 144.688 95.9107 144.662 96.4388Z" fill="#263238"/>
<path d="M153.721 96.4388C153.657 97.564 152.73 98.4463 151.603 98.455C151.075 98.4596 150.568 98.2457 150.203 97.8639C149.838 97.4822 149.646 96.9664 149.674 96.4388C149.734 95.3148 150.659 94.4316 151.784 94.4226C152.314 94.4164 152.822 94.6295 153.189 95.0115C153.555 95.3934 153.748 95.9101 153.72 96.4388H153.721Z" fill="#263238"/>
<path d="M162.786 96.4388C162.722 97.564 161.796 98.4463 160.669 98.455C160.14 98.4592 159.633 98.2454 159.267 97.8639C158.9 97.4824 158.708 96.967 158.733 96.4388C158.797 95.3136 159.724 94.4314 160.851 94.4226C161.38 94.4164 161.888 94.6295 162.255 95.0115C162.622 95.3934 162.814 95.9101 162.786 96.4388Z" fill="#263238"/>
<path d="M143.136 130.537C143.07 131.661 142.145 132.541 141.019 132.553C140.49 132.557 139.983 132.343 139.617 131.962C139.251 131.581 139.058 131.065 139.084 130.537C139.148 129.412 140.074 128.529 141.201 128.521C141.73 128.516 142.237 128.73 142.603 129.112C142.969 129.493 143.162 130.009 143.136 130.537Z" fill="#263238"/>
<path d="M152.193 130.537C152.129 131.659 151.207 132.541 150.082 132.553C149.553 132.559 149.045 132.346 148.678 131.964C148.311 131.582 148.119 131.066 148.147 130.537C148.211 129.412 149.138 128.529 150.265 128.521C150.793 128.516 151.3 128.73 151.665 129.112C152.03 129.494 152.222 130.009 152.194 130.537H152.193Z" fill="#263238"/>
<path d="M161.28 130.537C161.216 131.662 160.29 132.544 159.163 132.553C158.634 132.556 158.128 132.341 157.763 131.96C157.397 131.579 157.203 131.065 157.228 130.537C157.294 129.413 158.219 128.532 159.345 128.521C159.874 128.514 160.383 128.728 160.749 129.11C161.116 129.492 161.308 130.008 161.28 130.537Z" fill="#263238"/>
<path d="M170.325 130.537C170.259 131.661 169.334 132.541 168.208 132.553C167.68 132.555 167.174 132.341 166.808 131.96C166.443 131.579 166.249 131.064 166.273 130.537C166.34 129.413 167.264 128.532 168.39 128.521C168.919 128.516 169.426 128.73 169.792 129.112C170.158 129.493 170.351 130.009 170.325 130.537Z" fill="#263238"/>
<path d="M179.424 130.537C179.357 131.661 178.432 132.541 177.306 132.553C176.777 132.559 176.269 132.346 175.902 131.964C175.535 131.582 175.343 131.066 175.371 130.537C175.435 129.412 176.362 128.529 177.488 128.521C178.017 128.516 178.524 128.73 178.891 129.112C179.257 129.493 179.449 130.009 179.424 130.537Z" fill="#263238"/>
<ellipse cx="173.289" cy="43.5482" rx="7.1232" ry="6.80701" transform="rotate(-44.36 173.289 43.5482)" fill="#7F47FA"/>
<path d="M186.507 59.422C183.114 63.8678 177.853 66.4912 172.26 66.5262C166.826 66.5719 161.726 63.9081 158.659 59.422C162.504 55.8625 167.581 53.935 172.819 54.0458C178.544 54.0489 183.53 56.1721 186.507 59.422Z" fill="#7F47FA"/>
<ellipse opacity="0.1" cx="173.289" cy="43.5482" rx="7.1232" ry="6.80701" transform="rotate(-44.36 173.289 43.5482)" fill="white"/>
<path opacity="0.1" d="M186.507 59.422C183.114 63.8678 177.853 66.4912 172.26 66.5262C166.826 66.5719 161.726 63.9081 158.659 59.422C162.504 55.8625 167.581 53.935 172.819 54.0458C178.544 54.0489 183.53 56.1721 186.507 59.422Z" fill="white"/>
</svg>
