<svg width="294" height="18" viewBox="0 0 294 18" fill="none" xmlns="http://www.w3.org/2000/svg">
<path d="M3.57876 13.5218C2.59313 13.3896 1.8178 12.6143 1.6856 11.6287V4.73288H1.2845C0.576233 4.73563 0.00274846 5.30911 0 6.01738V17.5779L2.46773 15.1272H11.5525C12.265 15.1168 12.8371 14.5362 12.837 13.8237V13.5228L3.57876 13.5218Z" fill="#1C2340"/>
<path d="M16.0992 0H4.30207C3.48835 0.00220372 2.82925 0.661305 2.82705 1.47502V11.0291C2.82869 11.8437 3.48747 12.5043 4.30207 12.5081H14.3665L17.5753 14.7472V1.47502C17.5731 0.660914 16.9133 0.00165283 16.0992 0Z" fill="#1C2340"/>
<path d="M291.824 8.31969L287.044 3.54266C286.692 3.19032 286.692 2.61952 287.044 2.26718C287.399 1.91766 287.968 1.91766 288.323 2.26718L293.737 7.68195C294.077 8.02357 294.089 8.57181 293.763 8.92734L288.327 14.3752C287.974 14.7282 287.403 14.7289 287.05 14.3767C286.697 14.0245 286.696 13.4528 287.048 13.0997L291.824 8.31969Z" fill="#1C2340"/>
</svg>
