<svg width="374" height="316" viewBox="0 0 374 316" fill="none" xmlns="http://www.w3.org/2000/svg">
<rect y="277.548" width="374" height="0.21204" fill="#E0E0E0"/>
<rect x="300.195" y="288.619" width="21.2361" height="0.21204" fill="#E0E0E0"/>
<rect x="275.736" y="288.721" width="18.9769" height="0.21204" fill="#E0E0E0"/>
<rect x="181.368" y="283.813" width="25.5446" height="0.21204" fill="#E0E0E0"/>
<rect x="219.583" y="290.382" width="35.5003" height="0.21204" fill="#E0E0E0"/>
<rect x="72.4738" y="283.567" width="34.3707" height="0.21204" fill="#E0E0E0"/>
<rect x="110.996" y="283.567" width="11.6766" height="0.21204" fill="#E0E0E0"/>
<rect x="46.7198" y="287.382" width="30.0772" height="0.21204" fill="#E0E0E0"/>
<path fill-rule="evenodd" clip-rule="evenodd" d="M32.8448 239.739H177.277C179.636 239.739 181.548 237.572 181.549 234.899V4.84092C181.549 2.16736 179.636 0 177.277 0H32.8448C30.5026 0.00484546 28.6007 2.14649 28.5814 4.80092V234.898C28.5814 237.568 30.4889 239.734 32.8448 239.739ZM28.7685 4.80096C28.7675 2.24723 30.5915 0.175042 32.8448 0.170076H177.277C179.532 0.174484 181.359 2.24554 181.362 4.80096V234.899C181.358 237.453 179.531 239.523 177.277 239.528H32.8448C30.5922 239.523 28.7684 237.452 28.7685 234.899V4.80096Z" fill="#E0E0E0"/>
<path fill-rule="evenodd" clip-rule="evenodd" d="M194.638 239.739H339.076C341.429 239.729 343.332 237.565 343.333 234.899V4.80092C343.313 2.1496 341.416 0.00922237 339.076 0H194.638C192.294 0.00425306 190.389 2.14481 190.366 4.80092V234.898C190.37 237.57 192.28 239.734 194.638 239.739ZM190.553 4.79896C190.557 2.24432 192.383 0.174481 194.637 0.170076L339.076 0.172077C341.33 0.176481 343.157 2.24632 343.16 4.80096V234.899C343.157 237.453 341.33 239.523 339.076 239.528H194.637C192.383 239.523 190.557 237.453 190.553 234.899V4.79896Z" fill="#E0E0E0"/>
<rect x="53.3776" y="20.575" width="192.236" height="109.832" fill="#E0E0E0"/>
<rect x="55.8832" y="20.575" width="192.236" height="109.832" fill="#F0F0F0"/>
<rect x="243.624" y="25.7199" width="99.524" height="183.238" transform="rotate(90 243.624 25.7199)" fill="#F5F5F5"/>
<path d="M73.9545 125.253L123.652 25.7339H146.937L97.2513 125.253H73.9545Z" fill="white"/>
<path d="M105.064 125.253L154.762 25.7339H178.047L128.361 125.253H105.064Z" fill="white"/>
<path d="M169.796 125.253L219.482 25.7339H229.075L179.389 125.253H169.796Z" fill="white"/>
<rect x="183.97" y="25.7199" width="99.524" height="6.77688" transform="rotate(90 183.97 25.7199)" fill="#E0E0E0"/>
<rect x="121.812" y="25.7199" width="99.524" height="6.77688" transform="rotate(90 121.812 25.7199)" fill="#E0E0E0"/>
<rect x="186.35" y="21.8971" width="106.628" height="6.77688" transform="rotate(90 186.35 21.8971)" fill="#F5F5F5"/>
<rect x="124.19" y="21.8971" width="106.628" height="6.77688" transform="rotate(90 124.19 21.8971)" fill="#F5F5F5"/>
<rect x="243.624" y="25.7199" width="99.524" height="1.89213" transform="rotate(90 243.624 25.7199)" fill="#E0E0E0"/>
<path d="M293.096 162.833C293.096 162.833 279.378 136.036 298.407 114.707C298.407 114.707 303.374 118.37 303.299 123.303C303.224 128.236 297.981 129.483 299.102 133.605C300.224 137.726 305.184 141.76 301.937 145.159C298.69 148.557 302.453 151.593 302.236 155.756C302.019 159.919 293.096 162.833 293.096 162.833Z" fill="#E0E0E0"/>
<path d="M295.251 167.216C295.251 167.216 300.811 136.884 276.813 123.439C276.813 123.439 273.125 128.695 274.568 133.348C276.012 138.002 281.338 137.316 281.412 141.622C281.486 145.928 277.911 151.532 281.942 153.6C285.972 155.669 283.236 159.891 284.604 163.773C285.973 167.656 295.251 167.216 295.251 167.216Z" fill="#EBEBEB"/>
<path d="M283.036 159.509C283.036 159.509 283.275 172.158 292.506 172.158C301.736 172.158 301.983 159.509 301.983 159.509L283.036 159.509Z" fill="#F5F5F5"/>
<path d="M218.985 162.307C218.985 162.307 219.299 172.158 231.439 172.158C243.579 172.158 243.901 162.307 243.901 162.307L218.985 162.307Z" fill="#EBEBEB"/>
<path d="M247.162 164.748C247.162 164.748 247.401 172.158 256.527 172.158C265.653 172.158 265.882 164.748 265.882 164.748H247.162Z" fill="#EBEBEB"/>
<rect x="207.099" y="178.304" width="20.4357" height="92.8857" fill="#EBEBEB"/>
<rect x="211.019" y="271.182" width="100.771" height="6.36621" fill="#EBEBEB"/>
<rect x="315.716" y="271.182" width="88.1815" height="92.8857" transform="rotate(180 315.716 271.182)" fill="#F5F5F5"/>
<rect x="307.682" y="220.224" width="72.1143" height="32.9433" transform="rotate(180 307.682 220.224)" fill="#EBEBEB"/>
<rect x="307.682" y="259.169" width="72.1143" height="32.9433" transform="rotate(180 307.682 259.169)" fill="#EBEBEB"/>
<path d="M279.752 190.893H263.526C262.426 190.893 261.533 189.885 261.528 188.639C261.533 187.391 262.424 186.38 263.526 186.375H279.75C280.851 186.38 281.743 187.391 281.747 188.639C281.743 189.886 280.85 190.894 279.75 190.894L279.752 190.893Z" fill="#F5F5F5"/>
<path d="M279.752 229.838H263.526C262.426 229.838 261.533 228.83 261.528 227.583C261.533 226.335 262.424 225.325 263.526 225.32H279.75C280.851 225.325 281.743 226.335 281.747 227.583C281.743 228.83 280.85 229.839 279.75 229.839L279.752 229.838Z" fill="#F5F5F5"/>
<rect x="227.527" y="172.158" width="90.9041" height="6.14617" fill="#EBEBEB"/>
<rect x="227.527" y="178.295" width="23.2924" height="6.14617" transform="rotate(180 227.527 178.295)" fill="#E0E0E0"/>
<rect x="269.609" y="36.0369" width="44.2664" height="57.798" fill="#EBEBEB"/>
<rect x="270.933" y="36.0369" width="47.9694" height="57.798" fill="#F5F5F5"/>
<rect x="314.885" y="40.5898" width="48.6853" height="39.9358" transform="rotate(90 314.885 40.5898)" fill="white"/>
<rect x="305.207" y="52.39" width="25.0848" height="20.5777" rx="4.71" transform="rotate(90 305.207 52.39)" fill="#F5F5F5"/>
<rect x="196.14" y="223.734" width="5.13892" height="53.8143" fill="#E0E0E0"/>
<rect opacity="0.5" x="198.707" y="223.734" width="2.57343" height="53.8143" fill="#F5F5F5"/>
<path d="M178.772 238.807H175.242C176.025 238.055 176.477 236.952 176.478 235.789H134.646C134.65 236.953 135.104 238.056 135.888 238.807H132.402C129.799 238.807 127.689 241.198 127.689 244.148V259.721C127.689 262.67 129.799 265.062 132.402 265.062H178.778C181.38 265.062 183.49 262.67 183.49 259.721V244.151C183.49 241.201 181.38 238.81 178.778 238.81L178.772 238.807Z" fill="#F5F5F5"/>
<rect x="108.774" y="250.311" width="34.4757" height="14.7508" rx="4.24" fill="#EBEBEB"/>
<rect x="108.774" y="247.055" width="34.4757" height="3.78072" rx="1.42" fill="#E0E0E0"/>
<path d="M146.429 199.701C146.429 199.701 146.915 217.504 165.315 217.504C183.714 217.504 184.201 199.701 184.201 199.701H146.429Z" fill="#EBEBEB"/>
<rect x="80.6274" y="223.734" width="22.9491" height="6.22219" transform="rotate(180 80.6274 223.734)" fill="#E0E0E0"/>
<rect x="80.6343" y="217.511" width="138.455" height="6.22219" fill="#F5F5F5"/>
<rect x="80.6274" y="271.284" width="22.9491" height="6.22219" transform="rotate(180 80.6274 271.284)" fill="#E0E0E0"/>
<rect x="57.686" y="223.734" width="5.13892" height="53.8143" fill="#E0E0E0"/>
<rect opacity="0.5" x="60.2515" y="223.734" width="2.57343" height="53.8143" fill="#F5F5F5"/>
<rect x="78.0618" y="223.734" width="5.13892" height="53.8143" fill="#F5F5F5"/>
<rect x="78.0618" y="223.734" width="2.57343" height="53.8143" fill="#E0E0E0"/>
<rect x="213.944" y="223.734" width="5.13892" height="53.8143" fill="#F5F5F5"/>
<rect x="213.944" y="223.734" width="2.57343" height="53.8143" fill="#E0E0E0"/>
<rect x="80.6343" y="265.061" width="138.455" height="6.22219" fill="#F5F5F5"/>
<rect x="89.6404" y="213.841" width="27.915" height="3.6707" fill="#E0E0E0"/>
<rect x="127.556" y="217.503" width="10.0007" height="3.6707" transform="rotate(180 127.556 217.503)" fill="#EBEBEB"/>
<ellipse cx="187" cy="306.235" rx="145.03" ry="9.59683" fill="#F5F5F5"/>
<path d="M162.967 81.1284C163.019 91.1744 156.669 91.0723 156.797 87.9527C156.925 84.8331 155.353 77.3647 156.797 78.0849C158.241 78.805 162.945 76.6836 162.967 81.1284Z" fill="#263238"/>
<path d="M158.973 99.3208C159.849 99.2448 161.606 100.169 161.763 102.788C161.847 104.333 162.566 105.742 163.704 106.595C163.704 106.595 160.792 106.995 158.888 105.281C157.332 103.899 156.643 100.873 157.459 100.195C157.906 99.7869 158.423 99.4894 158.978 99.3218L158.973 99.3208Z" fill="#263238"/>
<path d="M157.828 92.1825C159.329 93.6828 160.693 97.6505 157.32 99.5319C153.947 101.413 148.643 97.0314 148.643 97.0314L154.468 93.9708L157.828 92.1825Z" fill="#263238"/>
<path d="M159.489 99.685C159.407 99.1363 159.271 98.5997 159.085 98.0847C159.053 97.9851 158.982 97.9077 158.893 97.8745C158.804 97.8414 158.707 97.8562 158.629 97.9146L156.557 99.4829C156.472 99.5477 156.422 99.6556 156.422 99.771C156.422 99.8864 156.472 99.9943 156.557 100.059C156.855 100.307 157.176 100.517 157.514 100.686C158 100.906 159.014 100.279 159.354 100.008C159.451 99.9397 159.503 99.814 159.489 99.686V99.685Z" fill="#7F47FA"/>
<path opacity="0.3" d="M159.489 99.685C159.407 99.1363 159.271 98.5997 159.085 98.0847C159.053 97.9851 158.982 97.9077 158.893 97.8745C158.804 97.8414 158.707 97.8562 158.629 97.9146L156.557 99.4829C156.472 99.5477 156.422 99.6556 156.422 99.771C156.422 99.8864 156.472 99.9943 156.557 100.059C156.855 100.307 157.176 100.517 157.514 100.686C158 100.906 159.014 100.279 159.354 100.008C159.451 99.9397 159.503 99.814 159.489 99.686V99.685Z" fill="black"/>
<path d="M137.191 95.5231C136.361 95.2091 134.461 95.6331 133.758 98.1426C133.354 99.6183 132.363 100.794 131.081 101.321C131.081 101.321 133.826 102.491 136.04 101.321C137.835 100.397 139.107 97.6335 138.486 96.7523C138.138 96.2414 137.696 95.822 137.191 95.5231Z" fill="#263238"/>
<path d="M145.434 78.2719C142.404 79.2041 138.328 83.2728 140.139 88.2668C138.351 89.649 136.063 93.6248 138.74 96.1683C141.62 98.9068 148.704 95.0681 148.704 95.0681L148.756 93.7628L149.601 84.048L145.434 78.2719Z" fill="#263238"/>
<path d="M136.615 95.7432C136.816 95.2301 137.067 94.744 137.364 94.2939C137.423 94.2113 137.513 94.1633 137.607 94.1633C137.701 94.1633 137.79 94.2113 137.85 94.2939L139.527 96.3713C139.595 96.457 139.623 96.5753 139.601 96.6883C139.578 96.8013 139.509 96.895 139.415 96.9394C139.073 97.097 138.718 97.2136 138.356 97.2875C137.832 97.3725 137.024 96.4993 136.71 96.1432C136.605 96.0472 136.566 95.8863 136.613 95.7432H136.615Z" fill="#7F47FA"/>
<path opacity="0.3" d="M136.615 95.7432C136.816 95.2301 137.067 94.744 137.364 94.2939C137.423 94.2113 137.513 94.1633 137.607 94.1633C137.701 94.1633 137.79 94.2113 137.85 94.2939L139.527 96.3713C139.595 96.457 139.623 96.5753 139.601 96.6883C139.578 96.8013 139.509 96.895 139.415 96.9394C139.073 97.097 138.718 97.2136 138.356 97.2875C137.832 97.3725 137.024 96.4993 136.71 96.1432C136.605 96.0472 136.566 95.8863 136.613 95.7432H136.615Z" fill="black"/>
<path d="M163.873 113.657C165.302 114.911 166.865 116.251 168.435 117.471C170.006 118.692 171.584 119.921 173.208 121.049C174.832 122.177 176.473 123.227 178.137 124.228L179.386 124.948L180.658 125.618C181.077 125.847 181.503 126.05 181.936 126.237L182.572 126.537C182.789 126.63 183.021 126.749 183.155 126.791C183.937 127.063 184.737 127.258 185.548 127.376C186.431 127.52 187.358 127.622 188.301 127.698C190.178 127.834 192.108 127.893 194.045 127.898C195.982 127.903 197.943 127.898 199.895 127.83C201.847 127.762 203.822 127.711 205.766 127.644L206.132 130.976C202.204 131.874 198.236 132.539 194.247 132.968C192.234 133.168 190.215 133.324 188.15 133.341C187.118 133.341 186.071 133.341 184.993 133.231C183.835 133.154 182.687 132.941 181.567 132.595C181.223 132.495 181.006 132.395 180.752 132.295L180.004 131.995C179.502 131.809 179.009 131.605 178.503 131.376L177.052 130.715L175.632 130.003C173.754 129.043 171.923 127.967 170.148 126.781C168.383 125.603 166.647 124.381 164.972 123.08C163.263 121.765 161.615 120.351 160.036 118.842L163.873 113.657Z" fill="#E4897B"/>
<path d="M156.108 109.85C157.971 108.206 165.64 113.589 167.972 115.835L166.274 127.474C166.274 127.474 155.243 122.235 154.576 118.658C153.887 114.919 154.702 111.104 156.108 109.85Z" fill="url(#paint0_linear_0_7119)"/>
<path d="M204.952 127.932L209.575 123.872L209.941 130.154C209.941 130.154 206.754 132.392 204.653 131.002L204.952 127.932Z" fill="#E4897B"/>
<path d="M213.696 123.252L216.06 126.236L209.911 130.153L209.545 123.871L213.696 123.252Z" fill="#E4897B"/>
<path d="M125.874 297.954L131.699 298.446L133.823 283.243L128.004 282.751L125.874 297.954Z" fill="#E4897B"/>
<path d="M84.6516 276.71L89.5938 280.236L98.3978 268.402L93.4557 264.867L84.6516 276.71Z" fill="#E4897B"/>
<path d="M91.1593 278.971L86.5296 273.69C86.3658 273.5 86.1027 273.478 85.9162 273.639L81.7048 277.208C81.4971 277.398 81.3703 277.679 81.356 277.981C81.3417 278.284 81.4412 278.579 81.6298 278.793C83.2678 280.598 84.1433 281.379 86.1775 283.701C87.4262 285.133 89.1242 287.364 90.8548 289.338C92.5855 291.312 94.3929 289.474 93.8466 288.49C91.3182 284.022 91.7744 282.353 91.6023 280.08C91.5769 279.662 91.4204 279.269 91.1611 278.97L91.1593 278.971Z" fill="#263238"/>
<path d="M132.09 297.496H125.525C125.287 297.495 125.082 297.688 125.039 297.954L123.999 303.837C123.951 304.139 124.027 304.45 124.207 304.68C124.386 304.91 124.649 305.033 124.92 305.015C127.209 304.973 128.323 304.82 131.211 304.82C132.984 304.82 137.942 305.02 140.419 305.02C142.895 305.02 143.141 302.274 142.132 302.027C137.606 300.908 134.554 299.374 133.081 297.899C132.807 297.628 132.453 297.484 132.09 297.496Z" fill="#263238"/>
<path d="M133.826 283.245L132.645 291.688L126.9 290.595L128 282.762L133.826 283.245Z" fill="#CE6F64"/>
<path d="M93.4555 264.874L98.3977 268.401L94.7546 273.302L89.6978 269.919L93.4555 264.874Z" fill="#CE6F64"/>
<path d="M130.301 145.074L153.594 150.22C165.629 113.284 163.011 112.071 163.011 112.071C161.319 111.016 159.57 110.081 157.775 109.271L157.461 109.135C155.961 108.516 155.666 108.423 153.676 107.762C150.25 106.837 147.057 106.061 143.099 105.43L142.351 105.311C141.602 105.211 140.922 105.125 140.232 105.048C139.769 104.989 139.305 104.955 138.864 104.921L137.363 104.828C134.804 104.684 132.973 104.728 132.973 104.728C133.689 127.795 132.538 134.418 130.301 145.074Z" fill="url(#paint1_linear_0_7119)"/>
<path d="M146.467 92.1825C146.467 96.1833 145.921 103.398 143.093 105.449C143.093 105.449 143.358 109.569 149.676 110.959C156.632 112.493 153.67 107.78 153.67 107.78C150.057 105.915 150.678 102.745 151.875 99.897L146.467 92.1825Z" fill="#E4897B"/>
<path d="M148.672 95.3281L151.874 99.897C151.593 100.557 151.363 101.244 151.186 101.948C149.774 101.389 148.089 99.1478 148.194 97.3965C148.241 96.6799 148.404 95.9791 148.672 95.3281Z" fill="#CE6F64"/>
<path d="M146.13 82.9938C145.381 89.513 144.925 92.2505 147.229 96.1963C150.692 102.13 157.918 101.749 160.379 95.6202C162.623 90.1011 163.461 80.3613 158.337 76.5886C156.049 74.8768 153.143 74.6296 150.656 75.9354C148.169 77.2412 146.456 79.9136 146.13 82.9978V82.9938Z" fill="#E4897B"/>
<path d="M164.852 72.6678C164.957 73.7016 164.888 74.7484 164.65 75.7534C164.596 75.4124 164.523 75.0754 164.433 74.7442C162.384 67.0637 153.154 68.8951 150.371 72.2007C145.883 70.7424 141.612 71.9006 142.18 78.1348C142.251 79.7413 142.76 81.2832 143.638 82.5467C142.943 84.7341 143.638 88.2178 145.933 88.3198C149.165 88.4638 152.231 83.6189 153.465 80.9534C155.709 81.3855 158.937 81.8015 161.394 81.1234C161.805 81.4035 162.142 81.5985 162.142 81.5985C164.754 80.0092 166.741 78.4749 164.852 72.6678Z" fill="#263238"/>
<path d="M144.142 87.4436C144.051 88.7086 144.403 89.9635 145.122 90.9363C146.093 92.2166 147.366 91.4624 147.822 89.9441C148.204 88.5709 148.152 86.2564 146.852 85.5363C146.269 85.2261 145.587 85.2713 145.041 85.6565C144.494 86.0416 144.157 86.7142 144.144 87.4436H144.142Z" fill="#E4897B"/>
<path d="M153.244 150.219C153.244 150.219 153.332 202.629 149.548 222.36C145.614 242.892 134.043 289.602 134.043 289.602L125.665 288.374C125.665 288.374 132.225 241.189 135.015 220.784C138.06 198.548 136.197 146.455 136.197 146.455L153.244 150.219Z" fill="#7F47FA"/>
<path opacity="0.3" d="M153.244 150.219C153.244 150.219 153.332 202.629 149.548 222.36C145.614 242.892 134.043 289.602 134.043 289.602L125.665 288.374C125.665 288.374 132.225 241.189 135.015 220.784C138.06 198.548 136.197 146.455 136.197 146.455L153.244 150.219Z" fill="black"/>
<path d="M135.471 290.425L124.228 288.781L124.707 284.271L137.468 285.971L135.471 290.425Z" fill="#263238"/>
<path d="M147.446 148.863C147.446 148.863 134.902 192.172 128.672 217.123C122.104 243.445 96.9264 272.557 96.9264 272.557L89.7083 267.827C89.7083 267.827 106.912 240.191 113.233 215.632C126.106 165.777 120.817 155.215 130.302 145.076L147.446 148.863Z" fill="#7F47FA"/>
<path opacity="0.3" d="M147.446 148.863C147.446 148.863 134.902 192.172 128.672 217.123C122.104 243.445 96.9264 272.557 96.9264 272.557L89.7083 267.827C89.7083 267.827 106.912 240.191 113.233 215.632C126.106 165.777 120.817 155.215 130.302 145.076L147.446 148.863Z" fill="#FFA247"/>
<path d="M98.1012 273.87L88.0705 267.309L90.5689 263.257L101.706 270.217L98.1012 273.87Z" fill="#263238"/>
<path d="M154.433 86.6985C154.344 87.2236 154.515 87.6987 154.822 87.7667C155.129 87.8347 155.44 87.4617 155.57 86.9186C155.701 86.3755 155.488 85.9094 155.181 85.8424C154.874 85.7753 154.523 86.1724 154.433 86.6985Z" fill="#263238"/>
<path d="M159.661 87.8507C159.573 88.3758 159.743 88.8599 160.051 88.9269C160.358 88.9939 160.668 88.6218 160.761 88.0787C160.854 87.5356 160.679 87.0695 160.372 87.0105C160.065 86.9515 159.751 87.3166 159.661 87.8507Z" fill="#263238"/>
<path d="M160.237 87.0205L161.411 86.9105C161.411 86.9105 160.671 87.7667 160.237 87.0205Z" fill="#263238"/>
<path d="M158.127 88.4528C158.334 89.7367 158.696 90.9821 159.204 92.1535C158.661 92.4416 158.034 92.4416 157.491 92.1535L158.127 88.4528Z" fill="#DE5753"/>
<path d="M155.532 93.8528C154.262 93.6182 153.174 92.6934 152.62 91.3774C152.606 91.3396 152.606 91.2972 152.62 91.2596C152.634 91.2221 152.661 91.1924 152.695 91.1773C152.764 91.1496 152.841 91.1865 152.871 91.2623C153.401 92.4699 154.406 93.3196 155.579 93.5508C155.615 93.5571 155.647 93.5796 155.668 93.6131C155.689 93.6466 155.697 93.6883 155.691 93.7288C155.676 93.8147 155.603 93.8711 155.527 93.8558L155.532 93.8528Z" fill="#263238"/>
<path d="M153.243 84.443C153.13 84.4414 153.029 84.3624 152.988 84.2433C152.947 84.1242 152.974 83.9888 153.056 83.9009C153.707 83.2093 154.612 82.9159 155.487 83.1127C155.634 83.1621 155.72 83.3347 155.681 83.5028C155.641 83.6677 155.491 83.7656 155.345 83.7228C154.651 83.5833 153.939 83.8219 153.423 84.367C153.373 84.417 153.309 84.4441 153.243 84.443Z" fill="#263238"/>
<path d="M162.564 85.6213C162.452 85.6228 162.35 85.545 162.31 85.4263C162.049 84.6807 161.493 84.1183 160.81 83.909C160.659 83.8785 160.559 83.7156 160.585 83.5449C160.619 83.3793 160.758 83.2696 160.907 83.2908C161.772 83.5358 162.48 84.24 162.807 85.1812C162.836 85.2587 162.837 85.3464 162.809 85.4245C162.78 85.5025 162.726 85.5645 162.657 85.5963L162.564 85.6213Z" fill="#263238"/>
<path fill-rule="evenodd" clip-rule="evenodd" d="M153.861 90.6732C154.146 91.0965 154.589 91.3444 155.058 91.3433C156.46 91.3433 157.948 89.1729 158.372 86.4934C158.699 85.0475 158.482 83.5128 157.774 82.2546C157.484 81.8323 157.041 81.5826 156.569 81.5765C155.17 81.5765 153.689 83.7559 153.263 86.4344C152.933 87.8801 153.15 89.4162 153.861 90.6732ZM153.431 86.4944C153.843 83.9149 155.249 81.8145 156.558 81.8145L156.578 81.8165C156.986 81.8284 157.368 82.049 157.617 82.4167C158.296 83.616 158.499 85.0829 158.179 86.4604C157.767 89.0369 156.369 91.1313 155.052 91.1313C154.637 91.129 154.246 90.9102 153.993 90.5382C153.32 89.3365 153.116 87.8723 153.431 86.4944Z" fill="#FAFAFA"/>
<path fill-rule="evenodd" clip-rule="evenodd" d="M159.624 91.4794C159.924 91.9182 160.383 92.1799 160.873 92.1915C162.265 92.1915 163.701 90.1861 164.075 87.6816C164.363 86.3373 164.143 84.9179 163.469 83.7649C163.17 83.3231 162.711 83.0583 162.22 83.0448C160.836 83.0448 159.399 85.0621 159.018 87.5546C158.725 88.9013 158.945 90.3255 159.624 91.4794ZM159.205 87.5977C159.549 85.1982 160.895 83.2568 162.197 83.2568L162.204 83.2578C162.64 83.2733 163.046 83.5098 163.311 83.902C163.94 85.0123 164.143 86.3652 163.872 87.6487C163.536 90.0481 162.182 91.9805 160.88 91.9805C160.446 91.967 160.04 91.7335 159.774 91.3444C159.139 90.2367 158.933 88.8821 159.205 87.5977Z" fill="#FAFAFA"/>
<path fill-rule="evenodd" clip-rule="evenodd" d="M90.9385 279.992C91.3462 280.747 92.1316 282.053 92.88 282.053L92.8774 282.054C93.1509 282.06 93.408 281.906 93.5578 281.647C93.6692 281.502 93.7008 281.3 93.6399 281.121C93.3751 280.323 91.3197 279.814 91.0806 279.755C91.026 279.748 90.9721 279.774 90.9385 279.823C90.9085 279.875 90.9085 279.941 90.9385 279.992ZM92.8578 281.736C92.4536 281.711 91.8932 281.126 91.3169 280.142C92.1385 280.379 93.209 280.804 93.344 281.227C93.3731 281.304 93.3585 281.394 93.307 281.456C93.2106 281.631 93.0404 281.738 92.8578 281.736Z" fill="#7F47FA"/>
<path fill-rule="evenodd" clip-rule="evenodd" d="M90.9791 280.057C91.1996 280.118 91.4258 280.146 91.6525 280.142C92.385 280.142 93.3434 279.93 93.5826 279.472C93.7047 279.255 93.6799 278.971 93.5226 278.785C93.3915 278.596 93.1958 278.479 92.9842 278.463H92.9242C92.1339 278.463 91.0821 279.582 90.9058 279.769C90.8935 279.782 90.8855 279.791 90.8821 279.794C90.8642 279.843 90.8642 279.898 90.8821 279.947C90.8978 279.999 90.9336 280.039 90.9791 280.057ZM91.3185 279.812C91.3177 279.812 91.317 279.811 91.3162 279.811V279.814C91.317 279.813 91.3177 279.813 91.3185 279.812ZM91.3185 279.812C92.041 279.932 92.7774 279.748 93.3884 279.294C93.4255 279.235 93.4555 279.141 93.3434 278.98C93.2635 278.855 93.1356 278.781 92.9992 278.78C92.3585 278.919 91.7715 279.28 91.3185 279.812Z" fill="#7F47FA"/>
<path fill-rule="evenodd" clip-rule="evenodd" d="M132.397 298.408C133.002 298.558 133.618 298.643 134.237 298.662L134.239 298.659C134.738 298.7 135.235 298.551 135.651 298.235C135.851 298.053 135.96 297.771 135.943 297.481C135.941 297.308 135.862 297.149 135.733 297.057C135.057 296.611 132.771 297.88 132.388 298.092C132.377 298.098 132.367 298.103 132.36 298.108C132.305 298.138 132.273 298.205 132.281 298.273C132.29 298.342 132.337 298.396 132.397 298.408ZM135.486 298.018C135.112 298.382 134.147 298.441 132.868 298.204C133.893 297.679 135.224 297.102 135.598 297.348C135.647 297.382 135.676 297.443 135.673 297.509C135.685 297.702 135.616 297.891 135.486 298.018Z" fill="#7F47FA"/>
<path fill-rule="evenodd" clip-rule="evenodd" d="M132.352 298.402C132.379 298.411 132.407 298.411 132.434 298.402L132.487 298.41C133.219 298.054 134.671 296.612 134.566 295.866C134.543 295.688 134.439 295.476 134.065 295.434H133.953C132.651 295.434 132.292 298.13 132.292 298.249C132.283 298.309 132.306 298.369 132.352 298.402ZM132.587 297.962C132.715 297.284 133.089 295.723 133.934 295.723H134.006C134.27 295.748 134.27 295.884 134.27 295.884C134.33 296.334 133.336 297.462 132.587 297.962Z" fill="#7F47FA"/>
<path d="M155.009 85.8673L156.183 85.7483C156.183 85.7483 155.443 86.6135 155.009 85.8673Z" fill="#263238"/>
<path d="M149.866 116.597C140.143 112.417 137.105 106.161 137.335 104.848L138.835 104.948H139.089C139.462 104.96 139.834 104.996 140.204 105.058C140.892 105.126 141.602 105.211 142.322 105.321L143.07 105.44C146.64 105.93 150.175 106.709 153.647 107.771C155.236 108.297 155.756 108.472 156.639 108.823L157.424 109.145L157.738 109.281C158.515 111.18 158.345 115.063 149.866 116.597Z" fill="#E4897B"/>
<path d="M149.866 116.597C140.143 112.417 137.105 106.161 137.335 104.848L138.835 104.948H139.089C141.064 108.126 145.388 112.518 149.793 113.12C153.339 112.272 156.682 111.306 156.652 108.82L157.437 109.142L157.752 109.278C158.515 111.18 158.345 115.063 149.866 116.597Z" fill="#7F47FA"/>
<path opacity="0.3" d="M149.866 116.597C140.143 112.417 137.105 106.161 137.335 104.848L138.835 104.948H139.089C141.064 108.126 145.388 112.518 149.793 113.12C153.339 112.272 156.682 111.306 156.652 108.82L157.437 109.142L157.752 109.278C158.515 111.18 158.345 115.063 149.866 116.597Z" fill="url(#paint2_linear_0_7119)"/>
<path d="M130.22 143.445L128.719 145.582C128.607 145.743 128.771 145.972 129.041 146.031L153.471 151.423C153.68 151.474 153.875 151.423 153.912 151.245L154.53 148.93C154.575 148.769 154.418 148.591 154.185 148.54L130.594 143.339C130.461 143.306 130.323 143.346 130.22 143.445Z" fill="#263238"/>
<path d="M132.875 147.133L132.247 146.997C132.12 146.997 132.037 146.878 132.06 146.785L132.882 143.784C132.882 143.691 133.032 143.648 133.151 143.674L133.787 143.81C133.914 143.81 133.996 143.937 133.974 144.022L133.151 147.032C133.09 147.132 132.977 147.174 132.875 147.133Z" fill="#7F47FA"/>
<path opacity="0.3" d="M132.875 147.133L132.247 146.997C132.12 146.997 132.037 146.878 132.06 146.785L132.882 143.784C132.882 143.691 133.032 143.648 133.151 143.674L133.787 143.81C133.914 143.81 133.996 143.937 133.974 144.022L133.151 147.032C133.09 147.132 132.977 147.174 132.875 147.133Z" fill="black"/>
<path d="M134.535 114.961C134.251 116.97 133.982 119.2 133.787 121.285C133.592 123.37 133.42 125.524 133.33 127.694C133.28 128.761 133.251 129.828 133.242 130.895V134.08C133.279 136.155 133.422 138.226 133.668 140.282C133.81 140.986 134.063 141.656 134.417 142.257C134.866 143.083 135.367 143.87 135.917 144.613C137.113 146.221 138.392 147.746 139.747 149.182C141.116 150.675 142.552 152.116 144.026 153.523C145.5 154.93 147.017 156.329 148.513 157.677L146.905 160.492C143.385 158.305 140.019 155.814 136.838 153.04C135.195 151.614 133.645 150.056 132.2 148.377C131.429 147.477 130.721 146.511 130.082 145.487C129.292 144.275 128.729 142.893 128.429 141.426L128.152 139.626C128.055 139.04 127.988 138.455 127.928 137.879C127.778 136.709 127.696 135.548 127.613 134.387C127.458 132.077 127.41 129.759 127.471 127.443C127.531 125.143 127.643 122.857 127.846 120.577C128.048 118.296 128.302 116.058 128.706 113.702L134.535 114.961Z" fill="#E4897B"/>
<path d="M129.569 106.501C126.367 109.435 127.131 118.15 127.131 118.15L137.902 122.168C137.902 122.168 137.408 112.122 136.884 108.512C136.241 104.212 132.711 103.611 129.569 106.501Z" fill="url(#paint3_linear_0_7119)"/>
<path d="M147.192 157.136L152.062 155.084L151.314 160.331C151.314 160.331 147.784 161.773 145.973 159.924L147.192 157.136Z" fill="#E4897B"/>
<path d="M157.858 155.865V159.916L151.314 160.331L152.062 155.084L157.858 155.865Z" fill="#E4897B"/>
<path d="M151.687 151.287L151.059 151.151C150.931 151.151 150.849 151.032 150.871 150.939L151.694 147.938C151.694 147.845 151.844 147.802 151.971 147.828L152.599 147.964C152.727 147.964 152.809 148.091 152.787 148.176L151.964 151.186C151.941 151.27 151.843 151.321 151.687 151.287Z" fill="#7F47FA"/>
<path opacity="0.3" d="M151.687 151.287L151.059 151.151C150.931 151.151 150.849 151.032 150.871 150.939L151.694 147.938C151.694 147.845 151.844 147.802 151.971 147.828L152.599 147.964C152.727 147.964 152.809 148.091 152.787 148.176L151.964 151.186C151.941 151.27 151.843 151.321 151.687 151.287Z" fill="black"/>
<path d="M142.285 149.201L141.65 149.065C141.523 149.065 141.441 148.946 141.473 148.853L142.296 145.853C142.296 145.76 142.438 145.717 142.565 145.743L143.2 145.879C143.32 145.879 143.41 146.006 143.377 146.091L142.554 149.1C142.532 149.201 142.415 149.243 142.285 149.201Z" fill="#7F47FA"/>
<path opacity="0.3" d="M142.285 149.201L141.65 149.065C141.523 149.065 141.441 148.946 141.473 148.853L142.296 145.853C142.296 145.76 142.438 145.717 142.565 145.743L143.2 145.879C143.32 145.879 143.41 146.006 143.377 146.091L142.554 149.1C142.532 149.201 142.415 149.243 142.285 149.201Z" fill="black"/>
<path d="M94.6453 198.633L133.421 294.613C135.272 299.155 140.01 301.151 144.029 299.081L150.185 295.893L292.732 221.928C296.74 219.838 298.505 214.47 296.681 209.916L262.415 125.143L257.928 113.941C256.075 109.402 251.339 107.407 247.321 109.473L98.6096 186.621C94.6007 188.71 92.8305 194.074 94.6453 198.633Z" fill="url(#paint4_linear_0_7119)"/>
<rect width="183.823" height="50.9831" transform="matrix(-0.887871 0.460508 -0.374502 -0.927432 292.743 200.171)" fill="#7F47FA"/>
<rect opacity="0.98" width="183.823" height="50.9831" transform="matrix(-0.887871 0.460508 -0.374502 -0.927432 292.743 200.171)" fill="url(#paint5_linear_0_7119)"/>
<rect width="116.164" height="18.2466" transform="matrix(-0.887871 0.460508 -0.374502 -0.927432 273.713 191.679)" fill="#7F47FA"/>
<rect opacity="0.8" width="116.164" height="18.2466" transform="matrix(-0.887871 0.460508 -0.374502 -0.927432 273.713 191.679)" fill="white"/>
<rect width="183.823" height="27.2037" transform="matrix(-0.887871 0.460508 -0.374502 -0.927432 277.281 161.917)" fill="#7F47FA"/>
<rect opacity="0.83" width="183.823" height="27.2037" transform="matrix(-0.887871 0.460508 -0.374502 -0.927432 277.281 161.917)" fill="url(#paint6_linear_0_7119)"/>
<path d="M116.816 199.836L150.184 295.854L292.73 221.894C296.739 219.804 298.504 214.436 296.68 209.882L262.414 125.109L121.333 188.079C117.231 189.924 115.213 195.177 116.816 199.837V199.836Z" fill="#FFC107"/>
<rect width="0.75984" height="3.94313" transform="matrix(0.929223 -0.370036 0.296184 0.95533 304.784 169.766)" fill="#7F47FA"/>
<rect opacity="0.1" width="0.75984" height="3.94313" transform="matrix(0.929223 -0.370036 0.296184 0.95533 304.784 169.766)" fill="white"/>
<rect width="0.759828" height="15.5386" transform="matrix(0.929294 -0.369857 0.296033 0.955377 298.89 150.823)" fill="#7F47FA"/>
<rect opacity="0.1" width="0.759828" height="15.5386" transform="matrix(0.929294 -0.369857 0.296033 0.955377 298.89 150.823)" fill="white"/>
<path d="M126.741 188.409L281.05 126.991C285.218 125.348 289.774 127.829 291.245 132.544L322.108 232.144C323.557 236.867 321.372 242.03 317.216 243.707L162.907 305.125C158.738 306.766 154.181 304.286 152.704 299.572L121.843 199.972C120.392 195.247 122.581 190.081 126.741 188.409Z" fill="#7F47FA"/>
<path opacity="0.1" d="M126.741 188.409L281.05 126.991C285.218 125.348 289.774 127.829 291.245 132.544L322.108 232.144C323.557 236.867 321.372 242.03 317.216 243.707L162.907 305.125C158.738 306.766 154.181 304.286 152.704 299.572L121.843 199.972C120.392 195.247 122.581 190.081 126.741 188.409Z" fill="white"/>
<rect width="182.297" height="45.3514" transform="matrix(-0.929294 0.369857 -0.296033 -0.955377 316.488 213.987)" fill="#7F47FA"/>
<rect opacity="0.3" width="182.297" height="45.3514" transform="matrix(-0.929294 0.369857 -0.296033 -0.955377 316.488 213.987)" fill="white"/>
<rect width="37.6841" height="6.47186" transform="matrix(-0.929294 0.369857 -0.296033 -0.955377 284.701 155.76)" fill="#7F47FA"/>
<rect opacity="0.8" width="37.6841" height="6.47186" transform="matrix(-0.929294 0.369857 -0.296033 -0.955377 284.701 155.76)" fill="white"/>
<rect width="30.2336" height="3.38212" transform="matrix(-0.929294 0.369857 -0.296033 -0.955377 307.249 228.52)" fill="#7F47FA"/>
<rect opacity="0.8" width="30.2336" height="3.38212" transform="matrix(-0.929294 0.369857 -0.296033 -0.955377 307.249 228.52)" fill="white"/>
<rect width="38.9591" height="3.38212" transform="matrix(-0.929294 0.369857 -0.296033 -0.955377 309.162 234.706)" fill="#7F47FA"/>
<rect opacity="0.8" width="38.9591" height="3.38212" transform="matrix(-0.929294 0.369857 -0.296033 -0.955377 309.162 234.706)" fill="white"/>
<rect width="19.4796" height="7.27492" transform="matrix(-0.929294 0.369857 -0.296033 -0.955377 181.22 285.627)" fill="#7F47FA"/>
<rect opacity="0.8" width="19.4796" height="7.27492" transform="matrix(-0.929294 0.369857 -0.296033 -0.955377 181.22 285.627)" fill="white"/>
<path d="M275.855 219.14L296.993 210.73C299.312 209.794 300.532 206.916 299.729 204.279C298.902 201.651 296.363 200.268 294.037 201.178L272.89 209.596C270.572 210.532 269.351 213.41 270.155 216.047C270.984 218.677 273.528 220.057 275.855 219.14Z" fill="#7F47FA"/>
<path d="M239.645 233.551L260.791 225.134C263.092 224.195 264.306 221.342 263.522 218.717C262.693 216.091 260.154 214.711 257.829 215.622L236.691 224.04C234.372 224.976 233.152 227.854 233.955 230.491C234.796 233.101 237.329 234.464 239.645 233.551Z" fill="#7F47FA"/>
<path d="M203.457 247.963L224.604 239.546C226.898 238.6 228.105 235.748 227.319 233.128C226.491 230.503 223.952 229.123 221.627 230.034L200.466 238.417C198.149 239.356 196.931 242.233 197.735 244.869C198.563 247.512 201.123 248.897 203.457 247.963Z" fill="#7F47FA"/>
<path d="M167.231 262.374L188.377 253.956C190.68 253.02 191.897 250.166 191.113 247.539C190.284 244.914 187.746 243.533 185.42 244.445L164.274 252.862C161.956 253.798 160.735 256.677 161.538 259.313C162.379 261.925 164.914 263.289 167.231 262.374Z" fill="#7F47FA"/>
<g opacity="0.8">
<path d="M275.856 219.14L296.994 210.73C299.313 209.794 300.534 206.916 299.73 204.279C298.904 201.651 296.364 200.268 294.038 201.178L272.892 209.596C270.573 210.532 269.352 213.41 270.156 216.047C270.985 218.677 273.529 220.057 275.856 219.14Z" fill="white"/>
<path d="M239.645 233.551L260.791 225.134C263.092 224.195 264.306 221.342 263.522 218.717C262.694 216.091 260.155 214.711 257.83 215.622L236.691 224.04C234.373 224.976 233.152 227.854 233.956 230.491C234.796 233.101 237.329 234.464 239.645 233.551Z" fill="white"/>
<path d="M203.457 247.962L224.604 239.545C226.898 238.599 228.105 235.747 227.319 233.127C226.491 230.502 223.952 229.122 221.627 230.033L200.466 238.416C198.149 239.355 196.931 242.232 197.735 244.868C198.563 247.511 201.123 248.896 203.457 247.962Z" fill="white"/>
<path d="M167.232 262.374L188.378 253.956C190.681 253.02 191.898 250.166 191.114 247.539C190.285 244.914 187.746 243.533 185.421 244.445L164.275 252.862C161.957 253.798 160.736 256.677 161.539 259.313C162.38 261.925 164.915 263.289 167.232 262.374Z" fill="white"/>
</g>
<rect width="26.4739" height="20.11" rx="4.1" transform="matrix(-0.929294 0.369857 -0.296033 -0.955377 295.683 191.219)" fill="#7F47FA"/>
<rect opacity="0.3" width="26.4739" height="20.11" rx="4.1" transform="matrix(-0.929294 0.369857 -0.296033 -0.955377 295.683 191.219)" fill="black"/>
<path fill-rule="evenodd" clip-rule="evenodd" d="M152.258 201.743C152.741 208.097 157.437 212.974 163.065 212.965C164.287 212.963 165.501 212.726 166.655 212.264C171.961 210.141 174.949 203.766 173.53 197.594C172.111 191.422 166.758 187.51 161.212 188.592C155.666 189.673 151.775 195.388 152.258 201.743ZM159.691 189.881C160.775 189.451 161.916 189.231 163.065 189.228V189.229C168.225 189.239 172.556 193.636 173.132 199.448C173.708 205.259 170.344 210.636 165.315 211.943C160.285 213.25 155.191 210.071 153.475 204.556C151.617 198.558 154.399 191.989 159.691 189.881Z" fill="#7F47FA"/>
<path opacity="0.8" fill-rule="evenodd" clip-rule="evenodd" d="M152.258 201.743C152.741 208.097 157.437 212.974 163.065 212.965C164.287 212.963 165.501 212.726 166.655 212.264C171.961 210.141 174.949 203.766 173.53 197.594C172.111 191.422 166.758 187.51 161.212 188.592C155.666 189.673 151.775 195.388 152.258 201.743ZM159.691 189.881C160.775 189.451 161.916 189.231 163.065 189.228V189.229C168.225 189.239 172.556 193.636 173.132 199.448C173.708 205.259 170.344 210.636 165.315 211.943C160.285 213.25 155.191 210.071 153.475 204.556C151.617 198.558 154.399 191.989 159.691 189.881Z" fill="white"/>
<path d="M137.692 210.806C139.356 216.143 144.113 219.405 149.057 218.599C154 217.793 157.753 213.143 158.022 207.491C158.291 201.839 155.001 196.758 150.163 195.354C145.325 193.951 140.285 196.614 138.124 201.717C136.92 204.561 136.764 207.832 137.692 210.806Z" fill="#7F47FA"/>
<path opacity="0.8" d="M137.692 210.806C139.356 216.143 144.113 219.405 149.057 218.599C154 217.793 157.753 213.143 158.022 207.491C158.291 201.839 155.001 196.758 150.163 195.354C145.325 193.951 140.285 196.614 138.124 201.717C136.92 204.561 136.764 207.832 137.692 210.806Z" fill="white"/>
<defs>
<linearGradient id="paint0_linear_0_7119" x1="154.327" y1="109.542" x2="154.327" y2="127.474" gradientUnits="userSpaceOnUse">
<stop stop-color="#FE6587"/>
<stop offset="1" stop-color="#F52D6A"/>
</linearGradient>
<linearGradient id="paint1_linear_0_7119" x1="130.301" y1="104.722" x2="130.301" y2="150.22" gradientUnits="userSpaceOnUse">
<stop stop-color="#FE6587"/>
<stop offset="1" stop-color="#F52D6A"/>
</linearGradient>
<linearGradient id="paint2_linear_0_7119" x1="137.323" y1="104.848" x2="137.323" y2="116.597" gradientUnits="userSpaceOnUse">
<stop stop-color="#FE6587"/>
<stop offset="1" stop-color="#F52D6A"/>
</linearGradient>
<linearGradient id="paint3_linear_0_7119" x1="127.051" y1="104.721" x2="127.051" y2="122.168" gradientUnits="userSpaceOnUse">
<stop stop-color="#FE6587"/>
<stop offset="1" stop-color="#F52D6A"/>
</linearGradient>
<linearGradient id="paint4_linear_0_7119" x1="93.9327" y1="108.658" x2="93.9327" y2="299.898" gradientUnits="userSpaceOnUse">
<stop stop-color="#FE6587"/>
<stop offset="1" stop-color="#F52D6A"/>
</linearGradient>
<linearGradient id="paint5_linear_0_7119" x1="0" y1="0" x2="0" y2="50.9831" gradientUnits="userSpaceOnUse">
<stop stop-color="#FE6587"/>
<stop offset="1" stop-color="#F52D6A"/>
</linearGradient>
<linearGradient id="paint6_linear_0_7119" x1="0" y1="0" x2="0" y2="27.2037" gradientUnits="userSpaceOnUse">
<stop stop-color="#FE6587"/>
<stop offset="1" stop-color="#F52D6A"/>
</linearGradient>
</defs>
</svg>
