<svg width="14" height="205" viewBox="0 0 14 205" fill="none" xmlns="http://www.w3.org/2000/svg">
<path fill-rule="evenodd" clip-rule="evenodd" d="M12.3528 5.14385L13.6128 3.88384C13.8597 3.63785 13.9984 3.30363 13.9982 2.95512C13.998 2.60661 13.859 2.27254 13.6118 2.02683L11.9688 0.383814C11.4556 -0.127938 10.6251 -0.127938 10.1118 0.383814L8.85182 1.64382C8.78995 1.70538 8.75518 1.78905 8.75518 1.87632C8.75518 1.96359 8.78995 2.04727 8.85182 2.10883L11.8878 5.14385C11.9494 5.20571 12.0331 5.24049 12.1203 5.24049C12.2076 5.24049 12.2913 5.20571 12.3528 5.14385ZM0.589759 9.90688L7.76981 2.72683H7.76881C7.89829 2.59818 8.10733 2.59818 8.23681 2.72683L11.2718 5.76185C11.3337 5.82341 11.3685 5.90708 11.3685 5.99435C11.3685 6.08162 11.3337 6.1653 11.2718 6.22685L4.09178 13.4069L0.76976 13.9889C0.559057 14.0256 0.343675 13.9575 0.192441 13.8062C0.0412074 13.655 -0.0269477 13.4396 0.00975525 13.2289L0.589759 9.90688ZM3.39178 9.29487C3.31966 9.22334 3.27909 9.12596 3.27909 9.02437C3.27909 8.92279 3.31966 8.82541 3.39178 8.75387L7.59781 4.53984C7.74912 4.40261 7.98149 4.40828 8.12593 4.55272C8.27037 4.69716 8.27604 4.92954 8.13881 5.08085L3.93378 9.29487C3.86224 9.367 3.76486 9.40756 3.66328 9.40756C3.5617 9.40756 3.46432 9.367 3.39278 9.29487H3.39178ZM3.71778 11.5949H2.40477L2.40577 10.2809H1.41276L1.10376 12.0449L1.95377 12.8949L3.71778 12.5879V11.5949Z" fill="#B4C2CD"/>
<path fill-rule="evenodd" clip-rule="evenodd" d="M12.3528 70.1443L13.6128 68.8843C13.8597 68.6383 13.9984 68.3041 13.9982 67.9556C13.998 67.6071 13.859 67.273 13.6118 67.0273L11.9688 65.3843C11.4556 64.8725 10.6251 64.8725 10.1118 65.3843L8.85182 66.6443C8.78995 66.7058 8.75518 66.7895 8.75518 66.8768C8.75518 66.964 8.78995 67.0477 8.85182 67.1093L11.8878 70.1443C11.9494 70.2062 12.0331 70.2409 12.1203 70.2409C12.2076 70.2409 12.2913 70.2062 12.3528 70.1443ZM0.589759 74.9073L7.76981 67.7273H7.76881C7.89829 67.5986 8.10733 67.5986 8.23681 67.7273L11.2718 70.7623C11.3337 70.8239 11.3685 70.9075 11.3685 70.9948C11.3685 71.0821 11.3337 71.1657 11.2718 71.2273L4.09178 78.4073L0.76976 78.9894C0.559057 79.0261 0.343675 78.9579 0.192441 78.8067C0.0412074 78.6554 -0.0269477 78.4401 0.00975525 78.2293L0.589759 74.9073ZM3.39178 74.2953C3.31966 74.2238 3.27909 74.1264 3.27909 74.0248C3.27909 73.9232 3.31966 73.8259 3.39178 73.7543L7.59781 69.5403C7.74912 69.4031 7.98149 69.4087 8.12593 69.5532C8.27037 69.6976 8.27604 69.93 8.13881 70.0813L3.93378 74.2953C3.86224 74.3674 3.76486 74.408 3.66328 74.408C3.5617 74.408 3.46432 74.3674 3.39278 74.2953H3.39178ZM3.71778 76.5953H2.40477L2.40577 75.2813H1.41276L1.10376 77.0453L1.95377 77.8953L3.71778 77.5883V76.5953Z" fill="#B4C2CD"/>
<path fill-rule="evenodd" clip-rule="evenodd" d="M12.3528 135.145L13.6128 133.885C13.8597 133.639 13.9984 133.305 13.9982 132.956C13.998 132.608 13.859 132.273 13.6118 132.028L11.9688 130.385C11.4556 129.873 10.6251 129.873 10.1118 130.385L8.85182 131.645C8.78995 131.706 8.75518 131.79 8.75518 131.877C8.75518 131.964 8.78995 132.048 8.85182 132.11L11.8878 135.145C11.9494 135.207 12.0331 135.241 12.1203 135.241C12.2076 135.241 12.2913 135.207 12.3528 135.145ZM0.589759 139.908L7.76981 132.728H7.76881C7.89829 132.599 8.10733 132.599 8.23681 132.728L11.2718 135.763C11.3337 135.824 11.3685 135.908 11.3685 135.995C11.3685 136.083 11.3337 136.166 11.2718 136.228L4.09178 143.408L0.76976 143.99C0.559057 144.026 0.343675 143.958 0.192441 143.807C0.0412074 143.656 -0.0269477 143.44 0.00975525 143.23L0.589759 139.908ZM3.39178 139.296C3.31966 139.224 3.27909 139.127 3.27909 139.025C3.27909 138.924 3.31966 138.826 3.39178 138.755L7.59781 134.541C7.74912 134.404 7.98149 134.409 8.12593 134.554C8.27037 134.698 8.27604 134.93 8.13881 135.082L3.93378 139.296C3.86224 139.368 3.76486 139.408 3.66328 139.408C3.5617 139.408 3.46432 139.368 3.39278 139.296H3.39178ZM3.71778 141.596H2.40477L2.40577 140.282H1.41276L1.10376 142.046L1.95377 142.896L3.71778 142.589V141.596Z" fill="#B4C2CD"/>
<path fill-rule="evenodd" clip-rule="evenodd" d="M12.3528 196.145L13.6128 194.885C13.8597 194.639 13.9984 194.305 13.9982 193.956C13.998 193.608 13.859 193.274 13.6118 193.028L11.9688 191.385C11.4556 190.873 10.6251 190.873 10.1118 191.385L8.85182 192.645C8.78995 192.707 8.75518 192.79 8.75518 192.878C8.75518 192.965 8.78995 193.049 8.85182 193.11L11.8878 196.145C11.9494 196.207 12.0331 196.242 12.1203 196.242C12.2076 196.242 12.2913 196.207 12.3528 196.145ZM0.589759 200.908L7.76981 193.728H7.76881C7.89829 193.599 8.10733 193.599 8.23681 193.728L11.2718 196.763C11.3337 196.825 11.3685 196.908 11.3685 196.996C11.3685 197.083 11.3337 197.167 11.2718 197.228L4.09178 204.408L0.76976 204.99C0.559057 205.027 0.343675 204.959 0.192441 204.808C0.0412074 204.656 -0.0269477 204.441 0.00975525 204.23L0.589759 200.908ZM3.39178 200.296C3.31966 200.225 3.27909 200.127 3.27909 200.026C3.27909 199.924 3.31966 199.827 3.39178 199.755L7.59781 195.541C7.74912 195.404 7.98149 195.41 8.12593 195.554C8.27037 195.698 8.27604 195.931 8.13881 196.082L3.93378 200.296C3.86224 200.368 3.76486 200.409 3.66328 200.409C3.5617 200.409 3.46432 200.368 3.39278 200.296H3.39178ZM3.71778 202.596H2.40477L2.40577 201.282H1.41276L1.10376 203.046L1.95377 203.896L3.71778 203.589V202.596Z" fill="#B4C2CD"/>
</svg>
