<svg width="20" height="23" viewBox="0 0 20 23" fill="none" xmlns="http://www.w3.org/2000/svg">
<path fill-rule="evenodd" clip-rule="evenodd" d="M2.26887 8.9006e-07H11.7552C12.3571 -0.000573538 12.9344 0.276917 13.36 0.771309C13.7857 1.2657 14.0245 1.9364 14.024 2.63558V7.28417C13.9616 7.2931 13.9006 7.31246 13.8429 7.34165L11.4919 8.27115C11.3659 7.90692 11.0623 7.66792 10.7244 7.66703H3.29967C2.99833 7.65525 2.71545 7.83527 2.56178 8.1366C2.40811 8.43793 2.40811 8.81262 2.56178 9.11395C2.71545 9.41528 2.99833 9.5953 3.29967 9.58352H8.72814C8.19649 10.0905 7.87565 10.8362 7.84581 11.6345C7.71879 11.5454 7.57306 11.4989 7.42471 11.5H3.29967C2.99833 11.4882 2.71545 11.6682 2.56178 11.9696C2.40811 12.2709 2.40811 12.6456 2.56178 12.9469C2.71545 13.2482 2.99833 13.4283 3.29967 13.4165H7.42471C7.57026 13.4163 7.71298 13.3697 7.8374 13.282V15.6182C7.84204 17.2179 8.24265 18.7822 8.99144 20.1247H2.26887C1.66698 20.1253 1.08959 19.8478 0.663991 19.3534C0.238388 18.859 -0.000493621 18.1883 7.65857e-07 17.4892V2.63558C-0.000493621 1.9364 0.238388 1.2657 0.663991 0.771309C1.08959 0.276917 1.66698 -0.000573538 2.26887 8.9006e-07ZM3.29953 5.74832H6.59919C6.90053 5.7601 7.18341 5.58008 7.33708 5.27875C7.49075 4.97742 7.49075 4.60273 7.33708 4.3014C7.18341 4.00007 6.90053 3.82005 6.59919 3.83183H3.29953C2.85474 3.84922 2.50191 4.2731 2.50191 4.79008C2.50191 5.30705 2.85474 5.73093 3.29953 5.74832Z" fill="#B4C2CD"/>
<path fill-rule="evenodd" clip-rule="evenodd" d="M14.908 9.15509L19.2394 10.8666C19.5744 10.9983 19.7998 11.3635 19.7996 11.7744V15.6247C19.7996 20.4805 15.1638 22.8254 14.9668 22.923C14.8648 22.9739 14.7548 23.0001 14.6438 23C14.5325 22.9998 14.4224 22.974 14.3198 22.9241C14.1228 22.8265 9.487 20.4805 9.487 15.6247V11.7744C9.48734 11.3637 9.71253 10.9988 10.0472 10.8666L14.3758 9.15509C14.5484 9.08699 14.7355 9.08699 14.908 9.15509ZM15.0958 18.3037L17.571 14.4707L17.5701 14.4674C17.8268 14.0436 17.7471 13.4594 17.3901 13.1485C17.0331 12.8376 16.5281 12.9126 16.2498 13.3178L14.346 16.2679L13.3684 15.1323C13.0464 14.7582 12.5243 14.7582 12.2023 15.1323C11.8802 15.5064 11.8802 16.1129 12.2023 16.487L13.8521 18.4034C14.0066 18.5838 14.2167 18.6849 14.4357 18.6843H14.4945C14.7331 18.6651 14.9526 18.5262 15.0958 18.3037Z" fill="#B4C2CD"/>
</svg>
