<svg width="18" height="14" viewBox="0 0 18 14" fill="none" xmlns="http://www.w3.org/2000/svg">
<path d="M16.5021 8.23549H1.33812C0.983056 8.23549 0.642552 8.10529 0.391578 7.87356C0.140605 7.64183 -0.000260139 7.32758 3.60661e-07 6.99998C3.60661e-07 6.31813 0.599096 5.76538 1.33812 5.76538H16.5021C17.2412 5.76538 17.8402 6.31813 17.8402 6.99998C17.8405 7.32758 17.6996 7.64183 17.4487 7.87356C17.1977 8.10529 16.8572 8.23549 16.5021 8.23549Z" fill="white"/>
<path d="M7.7921 14H1.33812C0.983226 14 0.642871 13.87 0.391925 13.6384C0.14098 13.4069 0 13.0929 0 12.7654C-9.56313e-08 12.4381 0.141011 12.1241 0.391985 11.8928C0.642959 11.6614 0.983317 11.5315 1.33812 11.5317H7.7921C8.1469 11.5315 8.48726 11.6614 8.73823 11.8928C8.98921 12.1241 9.13022 12.4381 9.13022 12.7654C9.13022 13.0929 8.98924 13.4069 8.73829 13.6384C8.48735 13.87 8.14699 14 7.7921 14Z" fill="white"/>
<path d="M13.8897 2.4683H1.33812C0.983316 2.46854 0.642959 2.33867 0.391985 2.10728C0.141011 1.87589 -9.56313e-08 1.56196 0 1.2346C0 0.907165 0.14098 0.593139 0.391925 0.361607C0.642871 0.130074 0.983226 3.32761e-07 1.33812 3.32761e-07H13.8887C14.2438 -0.000240015 14.5844 0.129728 14.8356 0.361286C15.0867 0.592845 15.2278 0.907008 15.2278 1.2346C15.2278 1.56196 15.0868 1.87589 14.8358 2.10728C14.5849 2.33867 14.2445 2.46854 13.8897 2.4683Z" fill="white"/>
</svg>
