<svg width="295" height="19" viewBox="0 0 295 19" fill="none" xmlns="http://www.w3.org/2000/svg">
<path d="M9.83988 18.0561L8.41303 16.7526C3.34533 12.1622 0.000287113 9.13197 0.000287113 5.41492C-0.0146142 3.97436 0.551068 2.58845 1.56976 1.56976C2.58845 0.551068 3.97436 -0.0146142 5.41492 0.000287113C7.11883 0.0133882 8.73365 0.763388 9.84289 2.05685C10.9514 0.764176 12.565 0.0142554 14.2679 0.000287113C15.7084 -0.0146142 17.0943 0.551068 18.113 1.56976C19.1317 2.58845 19.6974 3.97436 19.6825 5.41492C19.6825 9.13397 16.3374 12.1652 11.2697 16.7696L9.83988 18.0561Z" fill="#1C2340"/>
<path d="M292.824 9.3225L288.044 4.54559C287.692 4.19326 287.692 3.62248 288.044 3.27014C288.399 2.92063 288.968 2.92063 289.323 3.27014L294.737 8.68478C295.077 9.02639 295.089 9.57462 294.763 9.93014L289.327 15.3779C288.974 15.7309 288.403 15.7316 288.05 15.3794C287.697 15.0272 287.696 14.4555 288.048 14.1024L292.824 9.3225Z" fill="#1C2340"/>
</svg>
