<svg width="28" height="27" viewBox="0 0 28 27" fill="none" xmlns="http://www.w3.org/2000/svg">
<g filter="url(#filter0_d_261_2576)">
<path fill-rule="evenodd" clip-rule="evenodd" d="M19.1308 9.39917C20.9397 10.4305 22.5665 10.9191 23.9785 10.8046C24.2225 15.2653 22.393 17.9 19.1497 18.9993C16.0163 17.9696 14.1679 15.4431 14.3001 10.7366C16.0399 10.8533 17.7646 10.3757 19.1308 9.39917ZM14.8052 1.87551L18.3646 4.87508H14.8052V1.87551ZM7.65374 8.65855H14.8464C15.3171 8.65855 15.379 9.23837 15.0732 9.43164C14.9306 9.45483 14.7897 9.47493 14.6471 9.49194H7.6589C7.10575 9.49194 7.10575 8.66783 7.6589 8.6601L7.65374 8.65855ZM7.65374 11.2468H12.6682C12.6819 11.5313 12.7042 11.8081 12.7317 12.0787H7.6589C7.10231 12.0787 7.10918 11.2468 7.6589 11.2468H7.65374ZM7.65374 13.8351H13.0152C13.0805 14.1212 13.1543 14.3995 13.2368 14.667H7.6589C7.10231 14.667 7.10918 13.8351 7.6589 13.8351H7.65374ZM7.65374 6.07026H11.7921C12.3487 6.07026 12.3418 6.90056 11.7921 6.90056H7.6589C7.10231 6.90056 7.10747 6.07026 7.6589 6.07026H7.65374ZM7.65374 3.66288H9.92991C10.4779 3.66288 10.4848 4.49317 9.92991 4.49317H7.6589C7.10231 4.49317 7.10918 3.66288 7.6589 3.66288H7.65374ZM20.3453 5.30646C20.3456 5.19025 20.3036 5.07714 20.2257 4.98444C20.1479 4.89174 20.0384 4.82455 19.9141 4.79313L14.6712 0.196364C14.6159 0.134919 14.5459 0.0853938 14.4666 0.0514172C14.3872 0.0174406 14.3004 -0.000127186 14.2125 6.9316e-07H5.06493C4.78246 6.9316e-07 4.51155 0.100998 4.31181 0.280776C4.11207 0.460553 3.99986 0.704383 3.99986 0.958626L3.99986 17.3712C4.00031 17.6253 4.11267 17.8689 4.31231 18.0486C4.51196 18.2283 4.7826 18.3294 5.06493 18.3298H15.3377C15.0144 17.995 14.7226 17.6366 14.4651 17.2584H5.18862V1.06531H13.6199V5.4116C13.6196 5.48218 13.6349 5.55212 13.6647 5.61739C13.6946 5.68266 13.7385 5.74199 13.7938 5.79197C13.8492 5.84196 13.915 5.88162 13.9874 5.90868C14.0599 5.93574 14.1375 5.94966 14.216 5.94966H19.1548V7.78188C19.5579 8.01071 19.9548 8.21944 20.3453 8.40807V5.30646ZM19.1685 10.9252C20.4037 11.6287 21.5186 11.9627 22.4754 11.8839C22.6472 14.9267 21.3932 16.7234 19.1823 17.4717C19.1683 17.4678 19.1545 17.4631 19.1411 17.4578V10.9453L19.1685 10.9252ZM19.1325 9.94961C20.7335 10.8634 22.1817 11.2963 23.4271 11.1943C23.6436 15.1432 22.0236 17.4748 19.1514 18.4474C16.3684 17.5367 14.7348 15.3071 14.8567 11.1324C16.3967 11.2357 17.9234 10.8128 19.1325 9.94806V9.94961Z" fill="black"/>
<path fill-rule="evenodd" clip-rule="evenodd" d="M19.1308 9.39917C20.9397 10.4305 22.5665 10.9191 23.9785 10.8046C24.2225 15.2653 22.393 17.9 19.1497 18.9993C16.0163 17.9696 14.1679 15.4431 14.3001 10.7366C16.0399 10.8533 17.7646 10.3757 19.1308 9.39917ZM14.8052 1.87551L18.3646 4.87508H14.8052V1.87551ZM7.65374 8.65855H14.8464C15.3171 8.65855 15.379 9.23837 15.0732 9.43164C14.9306 9.45483 14.7897 9.47493 14.6471 9.49194H7.6589C7.10575 9.49194 7.10575 8.66783 7.6589 8.6601L7.65374 8.65855ZM7.65374 11.2468H12.6682C12.6819 11.5313 12.7042 11.8081 12.7317 12.0787H7.6589C7.10231 12.0787 7.10918 11.2468 7.6589 11.2468H7.65374ZM7.65374 13.8351H13.0152C13.0805 14.1212 13.1543 14.3995 13.2368 14.667H7.6589C7.10231 14.667 7.10918 13.8351 7.6589 13.8351H7.65374ZM7.65374 6.07026H11.7921C12.3487 6.07026 12.3418 6.90056 11.7921 6.90056H7.6589C7.10231 6.90056 7.10747 6.07026 7.6589 6.07026H7.65374ZM7.65374 3.66288H9.92991C10.4779 3.66288 10.4848 4.49317 9.92991 4.49317H7.6589C7.10231 4.49317 7.10918 3.66288 7.6589 3.66288H7.65374ZM20.3453 5.30646C20.3456 5.19025 20.3036 5.07714 20.2257 4.98444C20.1479 4.89174 20.0384 4.82455 19.9141 4.79313L14.6712 0.196364C14.6159 0.134919 14.5459 0.0853938 14.4666 0.0514172C14.3872 0.0174406 14.3004 -0.000127186 14.2125 6.9316e-07H5.06493C4.78246 6.9316e-07 4.51155 0.100998 4.31181 0.280776C4.11207 0.460553 3.99986 0.704383 3.99986 0.958626L3.99986 17.3712C4.00031 17.6253 4.11267 17.8689 4.31231 18.0486C4.51196 18.2283 4.7826 18.3294 5.06493 18.3298H15.3377C15.0144 17.995 14.7226 17.6366 14.4651 17.2584H5.18862V1.06531H13.6199V5.4116C13.6196 5.48218 13.6349 5.55212 13.6647 5.61739C13.6946 5.68266 13.7385 5.74199 13.7938 5.79197C13.8492 5.84196 13.915 5.88162 13.9874 5.90868C14.0599 5.93574 14.1375 5.94966 14.216 5.94966H19.1548V7.78188C19.5579 8.01071 19.9548 8.21944 20.3453 8.40807V5.30646ZM19.1685 10.9252C20.4037 11.6287 21.5186 11.9627 22.4754 11.8839C22.6472 14.9267 21.3932 16.7234 19.1823 17.4717C19.1683 17.4678 19.1545 17.4631 19.1411 17.4578V10.9453L19.1685 10.9252ZM19.1325 9.94961C20.7335 10.8634 22.1817 11.2963 23.4271 11.1943C23.6436 15.1432 22.0236 17.4748 19.1514 18.4474C16.3684 17.5367 14.7348 15.3071 14.8567 11.1324C16.3967 11.2357 17.9234 10.8128 19.1325 9.94806V9.94961Z" fill="black" fill-opacity="0.02"/>
<path d="M15.1274 1.49318L14.3052 0.800316V1.87551V4.87508V5.37506H14.8052H18.3646H19.7338L18.6868 4.49275L15.1274 1.49318ZM7.66593 9.1597L7.66609 9.15854H7.67054C7.66862 9.1591 7.66707 9.15947 7.66593 9.1597ZM19.8429 5.30602C19.844 5.30738 19.8448 5.30847 19.8453 5.30926V7.592C19.782 7.55805 19.7185 7.52356 19.6548 7.48853V5.94966V5.44968H19.1548H14.216C14.1964 5.44968 14.1781 5.44616 14.1624 5.44031L13.9874 5.90868L14.1624 5.44031C14.1468 5.43447 14.1358 5.42707 14.1289 5.42083C14.1233 5.41582 14.1208 5.41196 14.1198 5.41025V1.06531V0.565329H13.6199H5.18862H4.7764C4.86086 0.524061 4.95967 0.499983 5.06493 0.499983L14.2125 0.499984L14.2133 0.499983C14.2345 0.499952 14.254 0.504282 14.2698 0.511049C14.2855 0.517791 14.295 0.525747 14.2997 0.530977L14.3194 0.552879L14.3416 0.572312L19.5845 5.16908L19.6749 5.24839L19.7916 5.27787C19.8205 5.28518 19.8366 5.29858 19.8429 5.30602L19.8429 5.30602ZM4.68864 0.618077V1.06531V17.2584V17.711C4.67396 17.7002 4.66 17.6889 4.6468 17.677C4.54562 17.5859 4.50013 17.4744 4.49984 17.3707V0.958626C4.49984 0.854993 4.54512 0.743464 4.6463 0.652399C4.65964 0.640387 4.67378 0.628926 4.68864 0.618077ZM5.06566 17.8299C4.95546 17.8297 4.85236 17.8032 4.76536 17.7583H5.18862H14.2057C14.2231 17.7823 14.2407 17.8061 14.2583 17.8299H5.06566ZM19.641 16.7451V11.7358C20.4603 12.1235 21.2493 12.354 21.991 12.3902C21.9961 13.6066 21.741 14.5544 21.2966 15.2761C20.9059 15.9107 20.3515 16.3987 19.641 16.7451Z" stroke="black"/>
</g>
<defs>
<filter id="filter0_d_261_2576" x="0" y="0" width="28" height="26.9991" filterUnits="userSpaceOnUse" color-interpolation-filters="sRGB">
<feFlood flood-opacity="0" result="BackgroundImageFix"/>
<feColorMatrix in="SourceAlpha" type="matrix" values="0 0 0 0 0 0 0 0 0 0 0 0 0 0 0 0 0 0 127 0" result="hardAlpha"/>
<feOffset dy="4"/>
<feGaussianBlur stdDeviation="2"/>
<feComposite in2="hardAlpha" operator="out"/>
<feColorMatrix type="matrix" values="0 0 0 0 0 0 0 0 0 0 0 0 0 0 0 0 0 0 0.25 0"/>
<feBlend mode="normal" in2="BackgroundImageFix" result="effect1_dropShadow_261_2576"/>
<feBlend mode="normal" in="SourceGraphic" in2="effect1_dropShadow_261_2576" result="shape"/>
</filter>
</defs>
</svg>
