<svg width="294" height="17" viewBox="0 0 294 17" fill="none" xmlns="http://www.w3.org/2000/svg">
<path fill-rule="evenodd" clip-rule="evenodd" d="M1.74574 0H15.0147C15.4777 0 15.9218 0.183925 16.2492 0.511315C16.5766 0.838704 16.7605 1.28274 16.7605 1.74574V15.0147C16.7605 15.9789 15.9789 16.7605 15.0147 16.7605H1.74574C0.781593 16.7605 0 15.9789 0 15.0147V1.74574C0 0.781593 0.781593 0 1.74574 0ZM3.49148 13.269H10.4754L10.4744 11.1733H3.49148V13.269ZM13.269 9.42859H3.49148V7.3329H13.268L13.269 9.42859ZM3.49148 5.58817H13.269L13.268 3.49148H3.49148V5.58817Z" fill="#1C2340"/>
<path d="M291.824 8.31958L287.044 3.54261C286.692 3.19028 286.692 2.61949 287.044 2.26715C287.399 1.91763 287.968 1.91763 288.323 2.26715L293.737 7.68185C294.077 8.02346 294.089 8.57169 293.763 8.92723L288.327 14.375C287.974 14.728 287.403 14.7287 287.05 14.3765C286.697 14.0243 286.696 13.4526 287.048 13.0995L291.824 8.31958Z" fill="#1C2340"/>
</svg>
