<svg width="18" height="17" viewBox="0 0 18 17" fill="none" xmlns="http://www.w3.org/2000/svg">
<path d="M17.4098 2.40546H15.0823C15.0512 2.39572 15.0189 2.3894 14.9861 2.38649H12.5079V0.532434C12.5081 0.3931 12.4475 0.259331 12.3396 0.159816C12.2316 0.0603109 12.0847 0.00290663 11.9304 0H6.06967C5.91311 0 5.763 0.0560124 5.65241 0.155896C5.54169 0.25578 5.47946 0.391194 5.47946 0.532431V2.38649H3.01394C2.98114 2.3894 2.94877 2.39572 2.91765 2.40546H0.590201C0.379264 2.40546 0.18443 2.50686 0.0790489 2.67161C-0.0263496 2.83635 -0.0263496 3.03927 0.0790489 3.20402C0.184448 3.36877 0.379267 3.4703 0.590201 3.4703H2.48641L4.01861 16.3284C4.035 16.4593 4.10424 16.58 4.21315 16.6679C4.32191 16.7556 4.46276 16.804 4.6088 16.8042H13.3995C13.544 16.8023 13.6827 16.7528 13.79 16.6653C13.8971 16.5777 13.965 16.458 13.9813 16.3284L15.5133 3.48907H17.4097C17.6206 3.48907 17.8155 3.38767 17.9208 3.22292C18.0262 3.05817 18.0262 2.85512 17.9208 2.6905C17.8154 2.52575 17.6206 2.42422 17.4097 2.42422L17.4098 2.40546ZM6.6726 1.06485H11.3274V2.38649H6.6726V1.06485ZM12.8638 15.7317H5.1362L3.67114 3.4892H14.3287L12.8638 15.7317Z" fill="#E41D1D"/>
<path d="M8.99999 14.4855C9.15655 14.4855 9.30665 14.4294 9.41739 14.3296C9.52811 14.2297 9.5902 14.0943 9.5902 13.9531V5.26785C9.5902 5.07757 9.47779 4.90181 9.29517 4.80674C9.11254 4.71153 8.88746 4.71153 8.70483 4.80674C8.5222 4.90182 8.40979 5.07757 8.40979 5.26785V13.9531C8.40979 14.0943 8.47188 14.2297 8.58261 14.3296C8.69333 14.4294 8.84344 14.4855 9 14.4855H8.99999Z" fill="#E41D1D"/>
<path d="M6.6768 14.4819H6.70189C6.85775 14.4761 7.00463 14.4147 7.1106 14.3114C7.21642 14.2081 7.27276 14.0712 7.26702 13.9306L6.91116 5.24534L6.9113 5.24522C6.90807 5.10298 6.84066 4.96794 6.72447 4.87159C6.60814 4.77537 6.4534 4.72619 6.29588 4.73542C6.14002 4.74137 5.99314 4.80269 5.88731 4.90598C5.78135 5.00928 5.72515 5.14622 5.73075 5.28682L6.08661 13.9721C6.09404 14.109 6.15935 14.2382 6.26924 14.333C6.37898 14.4277 6.52488 14.4811 6.6768 14.4819L6.6768 14.4819Z" fill="#E41D1D"/>
<path d="M11.3017 14.4816H11.3226C11.4782 14.4847 11.6288 14.4326 11.7424 14.3367C11.8557 14.2406 11.923 14.1082 11.9296 13.968L12.2855 5.28273H12.2853C12.2911 5.14213 12.2347 5.0052 12.1289 4.90189C12.023 4.79859 11.8761 4.73727 11.7202 4.73133C11.5608 4.71653 11.4019 4.76294 11.2823 4.85928C11.1628 4.9555 11.0938 5.09281 11.0923 5.23747L10.7322 13.9227H10.7324C10.7244 14.0652 10.7802 14.2047 10.8872 14.3097C10.9942 14.4148 11.1436 14.4768 11.3017 14.4816L11.3017 14.4816Z" fill="#E41D1D"/>
</svg>
