<svg width="59" height="63" viewBox="0 0 59 63" fill="none" xmlns="http://www.w3.org/2000/svg">
<ellipse cx="29.5" cy="31.3534" rx="29.5" ry="31.3534" fill="white"/>
<path fill-rule="evenodd" clip-rule="evenodd" d="M28.7964 27.7728C27.0825 27.7728 25.3943 28.2154 23.877 29.0624V28.4688C23.877 28.4591 23.8795 28.4505 23.8819 28.4419C23.884 28.4345 23.8861 28.4271 23.8866 28.4191C23.8915 28.3005 23.9137 28.1834 23.9525 28.0721C23.9563 28.0616 23.9592 28.0508 23.9621 28.0399C23.9656 28.0266 23.9692 28.0134 23.9744 28.0011C23.98 27.9881 23.9807 27.9834 23.9812 27.9797C23.9816 27.977 23.982 27.9749 23.984 27.9706L29.9076 14.8584C30.0879 14.4592 30.4676 14.2051 30.8843 14.205H38.555C38.9277 14.2046 39.2746 14.4079 39.4731 14.7432C39.6717 15.0785 39.6941 15.4988 39.5325 15.8558L33.7158 28.7296V29.0624C32.1985 28.2142 30.5098 27.7712 28.7955 27.7718L28.7964 27.7728ZM19.7729 39.091C19.7724 33.795 23.8115 29.5012 28.7945 29.5006C33.7775 29.5001 37.8174 33.7929 37.818 39.089C37.8185 44.3851 33.7794 48.6788 28.7964 48.6794C26.4035 48.6796 24.1085 47.6696 22.4162 45.8714C20.724 44.0733 19.7732 41.6343 19.7729 39.091ZM18.1474 14.7432C17.9488 15.0785 17.9264 15.4988 18.088 15.8558L22.8708 26.4385L24.0718 23.7771L26.7057 17.9501L27.9095 15.2887L27.7186 14.8585C27.5378 14.4574 27.1557 14.2029 26.7372 14.205H19.0656C18.6928 14.2046 18.346 14.4079 18.1474 14.7432Z" fill="#7F47FA"/>
<path fill-rule="evenodd" clip-rule="evenodd" d="M30.658 36.3252L33.7368 36.8011L33.7397 36.8051C33.9922 36.8449 34.2018 37.0331 34.2809 37.2911C34.36 37.5491 34.2949 37.8324 34.1129 38.0227L31.8819 40.3249L32.4079 43.5779C32.451 43.8463 32.3469 44.1175 32.1394 44.2773C31.9318 44.4371 31.657 44.4578 31.4303 44.3307L28.6714 42.7946L25.92 44.3277C25.8237 44.3825 25.7162 44.4115 25.6069 44.4119C25.4077 44.4128 25.2183 44.3201 25.0895 44.1587C24.9606 43.9972 24.9054 43.7836 24.9386 43.5748L25.4656 40.3219L23.2384 38.0186C23.0564 37.8284 22.9913 37.545 23.0704 37.2871C23.1495 37.0291 23.3591 36.8409 23.6117 36.8011L26.6952 36.3252L28.0718 33.3645C28.1862 33.1208 28.4204 32.9669 28.6766 32.9669C28.9328 32.9669 29.167 33.1208 29.2814 33.3645L30.658 36.3252ZM30.7936 39.9494L31.1754 39.5557L32.9139 37.7598L30.511 37.3885L29.985 37.3073L29.7501 36.8L28.6714 34.4886V41.582L29.1487 41.8448L31.2938 43.0421L30.8833 40.5055L30.7936 39.9494Z" fill="white"/>
</svg>
