<svg width="234" height="259" viewBox="0 0 234 259" fill="none" xmlns="http://www.w3.org/2000/svg">
<path d="M6.50036 138.851C6.50036 138.851 0.71622 140.381 5.58255 152.864C7.98852 159.309 10.8189 165.587 14.0551 171.658C14.0551 171.658 14.8558 174.524 12.4877 174.715C10.1196 174.907 5.09111 173.581 3.77294 176.317C2.45477 179.052 4.26337 182.146 8.36002 185.02C12.4567 187.893 21.1904 194.528 21.9801 195.123C22.7698 195.719 23.4514 197.085 21.859 197.475C20.2666 197.864 8.65228 197.908 9.00259 203.419C9.3529 208.93 22.0752 215.064 23.4514 215.765C24.8277 216.465 25.1079 217.103 24.9167 217.874C24.7256 218.644 20.8131 218.3 17.5102 218.447C14.2072 218.594 10.4038 219.348 10.8723 222.506C11.3407 225.664 18.5171 232.941 37.3108 236.706L46.1406 237.886L51.7146 230.879C62.7244 215.175 62.9015 204.969 61.0609 202.354C59.2203 199.739 55.9644 201.818 53.4481 203.991C50.9319 206.164 48.3516 209.088 47.714 208.696C47.0764 208.303 46.7962 207.607 47.3137 206.147C47.8311 204.688 52.8115 191.494 49.2634 187.245C45.7152 182.997 37.2737 190.998 35.8515 191.807C34.4292 192.615 33.9908 191.17 34.1439 190.188C34.2971 189.206 36.0556 178.384 37.0365 173.473C38.0174 168.563 37.2978 165.121 34.3481 164.007C31.5066 162.937 28.7802 167.371 26.9325 168.861C25.0849 170.351 23.6897 167.727 23.6897 167.727C21.8457 161.1 19.5644 154.603 16.8606 148.278C11.7701 135.881 6.40628 138.861 6.40628 138.861" fill="#EBEBEB"/>
<path d="M46.3868 240.019C42.6835 230.903 36.3659 214.581 30.88 200.597C25.3941 186.614 20.4167 173.968 16.7564 164.832C14.9218 160.277 13.4435 156.549 12.4115 154.001L11.2325 151.057L10.9322 150.293C10.8939 150.205 10.8605 150.116 10.8321 150.025C10.8321 150.025 10.8772 150.108 10.9533 150.281C11.0293 150.453 11.1384 150.714 11.2785 151.038L12.5096 153.96C13.5676 156.508 15.0579 160.184 16.9306 164.745C20.6339 173.862 25.6453 186.502 31.1372 200.485C36.6291 214.469 42.9037 230.797 46.5669 239.932" fill="#E0E0E0"/>
<path d="M10.7361 178.465C10.9444 178.521 11.1458 178.6 11.3366 178.7C11.719 178.866 12.2605 179.12 12.9231 179.439C14.2542 180.075 16.0699 181.025 18.0576 182.102L23.1542 184.866L24.6955 185.688C24.8919 185.778 25.0778 185.889 25.25 186.019C25.0439 185.96 24.843 185.883 24.6495 185.79C24.2731 185.624 23.7317 185.364 23.0691 185.039C21.7439 184.402 19.9413 183.414 17.9725 182.344L12.876 179.618L11.3346 178.796C11.1208 178.714 10.9193 178.602 10.7361 178.465H10.7361Z" fill="#E0E0E0"/>
<path d="M25.8856 185.511C25.8156 185.479 27.5871 181.651 29.8421 176.961C32.0971 172.272 33.9768 168.495 34.0459 168.527C34.1149 168.559 32.3444 172.394 30.0894 177.083C27.8344 181.771 25.9557 185.549 25.8856 185.511Z" fill="#E0E0E0"/>
<path d="M33.3463 207.362C33.4665 207.179 33.6054 207.008 33.7607 206.853L34.9617 205.522C35.9686 204.401 37.3509 202.839 38.7841 201.062C40.2174 199.284 41.5236 197.641 42.4344 196.437C42.8678 195.876 43.2241 195.399 43.5174 195.016C43.6377 194.834 43.7788 194.666 43.9377 194.516C43.8507 194.718 43.7395 194.908 43.6064 195.083C43.3712 195.433 43.0329 195.942 42.5935 196.561C41.7208 197.79 40.4716 199.463 39.0003 201.243C37.529 203.023 36.1208 204.569 35.0758 205.658C34.5534 206.199 34.127 206.639 33.8017 206.932C33.6667 207.092 33.5151 207.237 33.3493 207.365L33.3463 207.362Z" fill="#E0E0E0"/>
<path d="M18.2409 204.005C18.4556 204.001 18.6698 204.025 18.8785 204.075L20.5029 204.369C21.8721 204.63 23.7648 205.006 25.8477 205.446C27.9305 205.885 29.8102 206.293 31.1734 206.599L32.7748 206.981C32.9768 207.017 33.1737 207.076 33.3613 207.159C33.1467 207.164 32.9324 207.14 32.7238 207.089L31.0993 206.789C29.7231 206.528 27.8374 206.151 25.7546 205.719C23.6717 205.287 21.7861 204.871 20.4288 204.56L18.8174 204.184C18.6175 204.149 18.4228 204.089 18.2379 204.005H18.2409Z" fill="#E0E0E0"/>
<path d="M22.3504 224.136C22.6122 224.146 22.8725 224.179 23.1281 224.236L25.211 224.606C26.9696 224.931 29.3967 225.395 32.0661 225.925C34.7355 226.454 37.1626 226.957 38.9142 227.333L40.978 227.786C41.2343 227.828 41.486 227.895 41.7297 227.986C41.47 227.979 41.2118 227.945 40.959 227.886L38.8761 227.516C37.1176 227.191 34.6904 226.727 32.015 226.191C29.3397 225.656 26.9185 225.159 25.173 224.79L23.1021 224.332C22.8465 224.288 22.595 224.223 22.3504 224.136Z" fill="#E0E0E0"/>
<path d="M41.3223 227.763C41.4695 227.535 41.637 227.322 41.8227 227.125L43.275 225.385C44.5041 223.914 46.1866 221.875 47.9792 219.569C49.7718 217.263 51.3492 215.148 52.4772 213.6L53.8154 211.765C53.9705 211.539 54.1432 211.326 54.3318 211.128C54.2137 211.379 54.0709 211.618 53.9055 211.841C53.6122 212.294 53.1858 212.937 52.6313 213.752C51.5424 215.325 49.994 217.472 48.1714 219.778C46.3487 222.084 44.6612 224.104 43.4001 225.551C42.7625 226.264 42.2471 226.825 41.8778 227.232C41.7051 227.423 41.5177 227.599 41.3173 227.761L41.3223 227.763Z" fill="#E0E0E0"/>
<rect x="133.97" y="180.377" width="61.872" height="95.1466" rx="7.54" transform="rotate(-31.14 133.97 180.377)" fill="#EBEBEB"/>
<path d="M216.561 225.264C213.882 226.882 210.432 226.382 208.323 224.07C206.213 221.757 206.03 218.277 207.886 215.756C209.742 213.236 213.12 212.377 215.954 213.705C218.789 215.033 220.29 218.179 219.541 221.218C219.123 222.908 218.052 224.364 216.561 225.264Z" fill="white"/>
<path fill-rule="evenodd" clip-rule="evenodd" d="M215.634 233.107C216.176 233.243 216.732 233.31 217.291 233.308C220.9 233.3 223.88 230.484 224.093 226.881C224.306 223.278 221.678 220.132 218.095 219.699C214.512 219.266 211.21 221.696 210.559 225.246C209.907 228.796 212.131 232.24 215.634 233.107ZM211.411 224.301C212.303 221.821 214.656 220.169 217.291 220.171L217.247 220.165C217.75 220.169 218.251 220.236 218.737 220.365C221.192 220.969 223.04 222.993 223.421 225.492C223.802 227.991 222.64 230.473 220.477 231.781C218.212 233.128 215.345 232.907 213.312 231.23C211.28 229.553 210.519 226.781 211.411 224.301Z" fill="white"/>
<path d="M157.409 176.115L152.886 178.841L152.605 178.383L156.714 175.898L156.077 174.835L156.491 174.586L157.409 176.115Z" fill="white"/>
<path d="M156.134 183.243L155.72 183.491L153.809 180.305L154.135 180.105L157.11 180.876C157.591 181.076 158.135 181.05 158.595 180.806C159.117 180.488 159.231 179.927 158.805 179.238C158.544 178.751 158.075 178.408 157.531 178.309L157.614 177.808C158.304 177.952 158.894 178.396 159.225 179.018C159.78 179.936 159.665 180.802 158.913 181.254C158.34 181.571 157.654 181.614 157.046 181.369L154.606 180.732L156.134 183.243Z" fill="white"/>
<path d="M159.786 187.539L159.238 186.638L158.047 187.352L157.767 186.886L158.952 186.173L157.41 183.619L157.747 183.419L162.207 184.006L162.519 184.522L158.206 183.975L159.391 185.936L160.436 185.3L160.71 185.752L159.666 186.39L160.213 187.291L159.786 187.539Z" fill="white"/>
<path d="M163.971 194.462L163.424 193.561L162.239 194.281L161.959 193.815L163.144 193.096L161.602 190.547L161.94 190.347L166.399 190.934L166.712 191.45L162.399 190.903L163.584 192.865L164.635 192.228L164.902 192.68L163.857 193.318L164.418 194.204L163.971 194.462Z" fill="white"/>
<path d="M166.5 198.329C165.735 198.795 164.805 198.616 164.143 197.514C163.765 196.932 163.622 196.228 163.742 195.545H164.243C164.122 196.134 164.236 196.747 164.561 197.252C165.026 198.017 165.644 198.201 166.191 197.89C166.739 197.579 166.918 196.96 166.191 195.807L165.612 194.845L168.02 193.711L169.51 196.184L169.096 196.432L167.829 194.371L166.3 195.085L166.65 195.664C167.529 197.004 167.302 197.845 166.5 198.329Z" fill="white"/>
<path fill-rule="evenodd" clip-rule="evenodd" d="M167.907 202.942C168.347 203.075 168.824 203.017 169.22 202.782H169.216C169.611 202.547 169.885 202.154 169.968 201.702C170.051 201.251 169.935 200.785 169.65 200.425C169.348 199.826 168.718 199.465 168.048 199.507C168.162 199.42 168.281 199.339 168.404 199.265C169.628 198.527 170.633 198.775 171.22 199.75C171.422 200.047 171.532 200.397 171.538 200.756L172.029 200.718C172.005 200.282 171.864 199.859 171.621 199.495C170.883 198.291 169.576 197.934 168.041 198.858C166.615 199.725 166.174 200.881 166.901 202.082C167.101 202.497 167.466 202.809 167.907 202.942ZM169.448 200.979C169.617 201.498 169.4 202.064 168.927 202.336C168.647 202.496 168.312 202.533 168.004 202.436C167.484 202.272 167.15 201.765 167.204 201.223C167.258 200.68 167.685 200.249 168.227 200.19C168.77 200.131 169.279 200.461 169.448 200.979Z" fill="white"/>
<path d="M172.902 209.001C172.151 209.459 171.24 209.262 170.577 208.166C170.196 207.583 170.053 206.877 170.177 206.191H170.677C170.556 206.785 170.673 207.403 171.003 207.912C171.455 208.664 172.054 208.861 172.614 208.548C173.175 208.236 173.283 207.625 172.773 206.784L172.582 206.466L172.919 206.255L175.244 206.562L173.849 204.249L174.264 204L176.022 206.903L175.691 207.103L173.308 206.797C173.573 207.134 173.68 207.569 173.603 207.99C173.525 208.412 173.27 208.78 172.902 209.001Z" fill="white"/>
<path fill-rule="evenodd" clip-rule="evenodd" d="M174.378 213.661C174.819 213.795 175.296 213.738 175.693 213.504H175.691C176.086 213.268 176.36 212.874 176.445 212.422C176.529 211.969 176.414 211.503 176.13 211.141C175.821 210.544 175.19 210.185 174.519 210.223C174.646 210.133 174.775 210.044 174.875 209.987C176.105 209.241 177.105 209.489 177.698 210.464C177.896 210.763 178.007 211.112 178.016 211.471L178.5 211.433C178.477 210.999 178.339 210.579 178.1 210.216C177.361 209.006 176.049 208.65 174.514 209.579C173.088 210.439 172.647 211.595 173.374 212.796C173.572 213.212 173.937 213.526 174.378 213.661ZM175.933 211.688C176.102 212.209 175.883 212.779 175.407 213.051C175.126 213.212 174.791 213.248 174.483 213.152C173.959 212.987 173.623 212.478 173.677 211.932C173.731 211.386 174.16 210.953 174.706 210.894C175.251 210.834 175.763 211.166 175.933 211.688Z" fill="white"/>
<path d="M181.376 215.746L181.051 215.946L175.712 216.584L175.412 216.083L180.642 215.447L179.234 213.121L178.393 213.631L178.113 213.173L179.387 212.415L181.376 215.746Z" fill="white"/>
<path d="M185.281 222.231L184.956 222.431L179.617 223.068L179.317 222.568L184.548 221.93L183.14 219.605L182.292 220.122L182.018 219.663L183.292 218.899L185.281 222.231Z" fill="white"/>
<path fill-rule="evenodd" clip-rule="evenodd" d="M184.707 228.63C183.906 229.115 182.999 228.73 182.35 227.655C181.7 226.58 181.795 225.611 182.592 225.107C183.119 224.781 183.802 224.865 184.235 225.307C184.108 224.794 184.337 224.258 184.796 223.995C185.535 223.549 186.369 223.895 186.949 224.855C187.528 225.815 187.449 226.728 186.72 227.174C186.267 227.453 185.686 227.404 185.286 227.053C185.489 227.65 185.247 228.306 184.707 228.63ZM184.427 228.146C184.981 227.809 185.064 227.12 184.561 226.324C184.057 225.529 183.44 225.26 182.885 225.598C182.331 225.935 182.249 226.617 182.745 227.419C183.241 228.222 183.866 228.482 184.427 228.144V228.146ZM186.417 226.739C185.928 227.031 185.353 226.802 184.927 226.101L184.924 226.099C184.504 225.411 184.565 224.763 185.067 224.477C185.57 224.19 186.15 224.433 186.557 225.114C186.965 225.796 186.907 226.446 186.417 226.739Z" fill="white"/>
<path fill-rule="evenodd" clip-rule="evenodd" d="M184.817 231.782C185.556 232.992 186.868 233.349 188.403 232.419C189.83 231.527 190.269 230.378 189.545 229.215C189.347 228.799 188.982 228.485 188.541 228.352C188.099 228.218 187.622 228.277 187.226 228.514C186.837 228.749 186.566 229.138 186.482 229.585C186.398 230.031 186.509 230.493 186.787 230.852C187.095 231.45 187.727 231.81 188.398 231.77C188.276 231.863 188.151 231.943 188.053 232.006C188.049 232.008 188.045 232.01 188.042 232.012C186.812 232.751 185.812 232.503 185.219 231.528C185.021 231.229 184.911 230.88 184.901 230.521L184.417 230.559C184.441 230.995 184.579 231.416 184.817 231.782ZM189.425 230.403C189.378 230.741 189.192 231.045 188.913 231.241L188.912 231.21C188.621 231.364 188.28 231.394 187.967 231.294C187.654 231.193 187.395 230.969 187.249 230.674C186.932 230.336 186.849 229.841 187.037 229.417C187.225 228.994 187.649 228.724 188.112 228.733C188.575 228.742 188.989 229.027 189.161 229.457C189.376 229.722 189.472 230.065 189.425 230.403Z" fill="white"/>
<path d="M193.391 235.605L188.874 238.338L188.593 237.873L192.697 235.388L192.059 234.324L192.474 234.076L193.391 235.605Z" fill="white"/>
<path d="M192.097 242.758L191.683 243.013L189.772 239.828L190.104 239.628L193.079 240.393C193.56 240.592 194.104 240.566 194.564 240.323C195.086 240.01 195.201 239.444 194.764 238.755C194.506 238.265 194.035 237.922 193.49 237.826L193.573 237.325C194.266 237.466 194.86 237.91 195.191 238.535C195.746 239.453 195.631 240.313 194.873 240.771C194.301 241.086 193.617 241.126 193.012 240.879L190.572 240.242L192.097 242.758Z" fill="white"/>
<path d="M195.43 246.282C194.673 246.741 193.761 246.543 193.105 245.447C192.724 244.865 192.581 244.158 192.705 243.473H193.205C193.084 244.067 193.201 244.684 193.531 245.193C193.983 245.939 194.582 246.142 195.142 245.83C195.703 245.517 195.779 244.906 195.301 244.065L195.101 243.74L195.445 243.54L197.77 243.846L196.375 241.533L196.79 241.285L198.541 244.187L198.216 244.387L195.834 244.081C196.098 244.418 196.205 244.852 196.128 245.272C196.05 245.693 195.797 246.061 195.43 246.282Z" fill="white"/>
<rect x="169.51" y="215.864" width="2.30508" height="42.5193" transform="rotate(-31.1308 169.51 215.864)" fill="white"/>
<rect x="174.548" y="235.532" width="2.29304" height="21.6983" transform="rotate(-31.14 174.548 235.532)" fill="white"/>
<rect x="170.992" y="164.105" width="17.7488" height="13.2638" rx="4.96" transform="rotate(58.86 170.992 164.105)" fill="#E0E0E0"/>
<path d="M162.779 169.056L163.506 168.617L168.239 176.44C168.592 177.025 169.23 177.377 169.913 177.364C170.596 177.351 171.22 176.975 171.55 176.377C171.881 175.779 171.867 175.05 171.514 174.465L166.787 166.642L167.514 166.203L172.241 174.026C172.751 174.87 172.771 175.922 172.295 176.786C171.819 177.65 170.918 178.194 169.931 178.214C168.945 178.233 168.023 177.725 167.514 176.88L162.779 169.056Z" fill="#EBEBEB"/>
<rect x="172.341" y="177.594" width="0.857774" height="6.30669" transform="rotate(-31.1308 172.341 177.594)" fill="#EBEBEB"/>
<rect x="181.425" y="160.258" width="45.6526" height="3.91848" transform="rotate(58.86 181.425 160.258)" fill="white"/>
<path d="M69.2333 0C68.7489 6.88012 69.2333 17.6967 66.7311 24.1215C64.2288 30.5462 60.8779 37.1651 54.6203 40.0446C46.8994 43.5868 37.8274 42.0834 29.59 44.1603C16.6785 47.4092 7.34325 59.2527 3.36671 71.956C-0.609828 84.6593 -0.175442 98.2674 0.301983 111.569L66.1756 120.704C66.1756 120.704 66.5199 93.9476 72.266 86.627C78.0121 79.3065 105.31 72.7387 114.312 52.7289C122.429 34.7189 124.875 6.15948 124.875 6.15948L69.2333 0Z" fill="#F5F5F5"/>
<path fill-rule="evenodd" clip-rule="evenodd" d="M87.4715 10.5073L88.3252 12.0807L88.8417 12.1578L87.9409 10.4823C88.5887 10.3883 89.0864 9.86038 89.142 9.20814C89.2561 8.24628 88.6385 7.57769 87.4915 7.43756L85.81 7.22738L85.2555 11.7314L85.7269 11.7884L85.9051 10.3612L87.1152 10.5073C87.2338 10.5163 87.3529 10.5163 87.4715 10.5073ZM87.4264 7.85093C88.3252 7.934 88.7516 8.40542 88.6625 9.12506L88.6585 9.13107C88.6015 9.8387 88.043 10.17 87.1422 10.1059L85.9511 9.95981L86.2254 7.7048L87.4264 7.85093Z" fill="#E0E0E0"/>
<path d="M93.1283 12.2659L93.0773 12.6733L89.8915 12.285L90.446 7.78695L93.5297 8.16329L93.4787 8.57766L90.8763 8.25937L90.6762 9.8608L93.0012 10.1471L92.9502 10.5474L90.6251 10.2612L90.4149 11.9306L93.1283 12.2659Z" fill="#E0E0E0"/>
<path d="M94.0463 10.5144C94.1145 9.89076 94.4366 9.32276 94.9367 8.94402C95.4368 8.56528 96.0709 8.40924 96.6896 8.51261C97.3076 8.56659 97.8742 8.87877 98.25 9.37237L97.9127 9.63961C97.6073 9.2351 97.1438 8.9802 96.6386 8.93899C95.9582 8.82589 95.2705 9.09449 94.8469 9.63879C94.4233 10.1831 94.3319 10.9157 94.6086 11.5474C94.8854 12.1792 95.4859 12.6086 96.1732 12.6663C96.6726 12.7466 97.1825 12.6097 97.5744 12.29L97.8356 12.6343C97.3474 13.022 96.7185 13.1862 96.1031 13.0867C95.4835 13.0313 94.9134 12.7252 94.5249 12.2393C94.1363 11.7535 93.9631 11.13 94.0453 10.5134L94.0463 10.5144Z" fill="#E0E0E0"/>
<path d="M102.022 13.3559L101.971 13.7702L98.7986 13.3559L99.3531 8.85785L102.437 9.24019L102.386 9.64756L99.7734 9.32927L99.5733 10.9307L101.898 11.217L101.853 11.6243L99.5282 11.3381L99.318 13.0075L102.022 13.3559Z" fill="#E0E0E0"/>
<path d="M103.647 9.41132L104.118 9.47538L103.564 13.9924L103.086 13.9283L103.647 9.41132Z" fill="#E0E0E0"/>
<path fill-rule="evenodd" clip-rule="evenodd" d="M106.89 12.9406C108.03 13.0807 108.794 12.5902 108.915 11.6284C109.036 10.6645 108.412 10.0039 107.266 9.86281L105.584 9.65263L105.03 14.1506L105.507 14.2077L105.68 12.7874L106.89 12.9406ZM107.202 10.2972C108.107 10.3863 108.527 10.8517 108.438 11.5713H108.437C108.352 12.278 107.825 12.6353 106.932 12.5462L105.731 12.4001L106.011 10.1511L107.202 10.2972Z" fill="#E0E0E0"/>
<path d="M110.808 10.7186L109.228 10.5184L109.279 10.111L112.916 10.5574L112.865 10.9718L111.285 10.8067L110.784 14.8963L110.307 14.8322L110.808 10.7186Z" fill="#E0E0E0"/>
<path d="M103.696 14.0625C103.696 14.1626 97.6754 13.4249 90.2838 12.406C82.8922 11.3871 76.9019 10.4913 76.9019 10.4182C76.9019 10.3452 82.9162 11.0558 90.2808 12.0747C97.6453 13.0936 103.696 13.9724 103.696 14.0625Z" fill="#E0E0E0"/>
<path d="M102.965 19.4273C102.965 19.5273 96.9509 18.7897 89.5863 17.7708C82.2218 16.7519 76.2074 15.8591 76.2074 15.783C76.2074 15.7069 82.2218 16.4206 89.5863 17.4395C96.9509 18.4584 102.978 19.3392 102.965 19.4273Z" fill="#E0E0E0"/>
<path d="M100.512 24.8991C100.512 24.9882 94.4978 24.2616 87.1332 23.2427C79.7687 22.2238 73.7543 21.331 73.7543 21.2489C73.7543 21.1668 79.7597 21.8865 87.1332 22.9114C94.5068 23.9363 100.525 24.8101 100.512 24.8991Z" fill="#E0E0E0"/>
<path d="M96.051 30.417C96.051 30.5171 90.0366 29.7795 82.6391 28.7606C75.2415 27.7417 69.2572 26.8489 69.2572 26.7758C69.2572 26.7027 75.2715 27.4134 82.6691 28.4323C90.0667 29.4512 96.059 30.327 96.051 30.417Z" fill="#E0E0E0"/>
<path d="M88.9298 35.9269C88.9298 36.016 82.9154 35.2894 75.5509 34.2645C68.1863 33.2395 62.172 32.3528 62.172 32.2767C62.172 32.2006 68.1863 32.9142 75.5509 33.9392C82.9154 34.9641 88.9428 35.8318 88.9298 35.9269Z" fill="#E0E0E0"/>
<path d="M115.688 15.8531C113.479 15.7158 111.289 15.3594 109.151 14.7892C110.261 14.8037 111.368 14.9275 112.454 15.1585C113.552 15.2818 114.635 15.5145 115.688 15.8531Z" fill="#E0E0E0"/>
<path d="M115.457 20.6374C114.354 20.6233 113.255 20.5016 112.176 20.274C111.077 20.1509 109.993 19.9182 108.94 19.5794C110.048 19.5869 111.152 19.7107 112.234 19.9488C113.329 20.0723 114.409 20.3026 115.458 20.6364L115.457 20.6374Z" fill="#E0E0E0"/>
<path d="M113.834 27.2823C112.723 27.2627 111.617 27.1346 110.531 26.8999C109.436 26.7614 108.353 26.5335 107.295 26.2183C108.403 26.2057 109.509 26.3233 110.589 26.5686C111.692 26.6972 112.779 26.9362 113.834 27.2823Z" fill="#E0E0E0"/>
<path d="M111.49 32.8562C110.379 32.8366 109.273 32.7085 108.187 32.4739C107.092 32.3344 106.009 32.1065 104.951 31.7923C106.059 31.7796 107.164 31.8972 108.245 32.1426C109.348 32.2702 110.435 32.5093 111.49 32.8562Z" fill="#E0E0E0"/>
<path d="M106.444 38.1759C105.333 38.1566 104.227 38.0286 103.141 37.7936C102.045 37.6588 100.963 37.4308 99.9055 37.112C101.011 37.0996 102.115 37.2192 103.192 37.4683C104.296 37.5966 105.384 37.8336 106.441 38.1759H106.444Z" fill="#E0E0E0"/>
<path d="M82.8712 42.654C82.8712 42.7431 73.8502 41.545 62.7533 39.9716C51.6565 38.3982 42.6605 37.054 42.6725 36.9689C42.6845 36.8838 51.6935 38.0779 62.7974 39.6513C73.9013 41.2247 82.8712 42.5729 82.8712 42.654Z" fill="#E0E0E0"/>
<path d="M78.1962 48.305C78.0468 48.3009 77.8977 48.2882 77.7498 48.2669L76.4756 48.1018L71.8255 47.4202L56.4979 45.0631C50.5155 44.1203 45.1067 43.2415 41.2083 42.5849L36.5772 41.7842C36.0297 41.6841 35.6093 41.606 35.303 41.542C35.1546 41.5202 35.0092 41.4816 34.8696 41.4269C35.0195 41.4321 35.1688 41.4491 35.316 41.4779L36.5902 41.6561L41.2403 42.3507L56.5679 44.7268L71.8575 47.186L76.4887 47.9697L77.7628 48.1989C77.9109 48.214 78.0564 48.2477 78.1962 48.299V48.305Z" fill="#E0E0E0"/>
<path d="M69.7858 53.4395C69.2299 53.4525 68.6743 53.4035 68.1293 53.2934C67.0523 53.1533 65.4919 52.9371 63.5612 52.6558C59.7068 52.1013 54.3871 51.2926 48.5198 50.3748C42.6526 49.457 37.3329 48.5972 33.4915 47.9606L28.9424 47.196L27.7133 46.9667C27.5679 46.9496 27.4249 46.916 27.287 46.8667C27.4324 46.8622 27.5779 46.8749 27.7203 46.9047L28.9625 47.0638L33.5305 47.7014L48.5719 50.0145L63.6003 52.3976L69.7858 53.4395Z" fill="#E0E0E0"/>
<path d="M98.0279 45.7567C96.9171 45.7371 95.8109 45.6091 94.725 45.3744C93.6297 45.235 92.5475 45.007 91.4891 44.6928C92.597 44.6801 93.7025 44.7977 94.783 45.0431C95.8855 45.1699 96.9721 45.409 98.0259 45.7567H98.0279Z" fill="#E0E0E0"/>
<path d="M91.536 49.3629C90.4252 49.3433 89.319 49.2153 88.2331 48.9806C87.1378 48.8412 86.0557 48.6132 84.9972 48.299C86.1051 48.2864 87.2107 48.4039 88.2912 48.6493C89.3936 48.7761 90.4802 49.0152 91.534 49.3629H91.536Z" fill="#E0E0E0"/>
<path d="M82.7963 55.4473C81.6855 55.4277 80.5793 55.2996 79.4934 55.0649C78.3975 54.9292 77.315 54.7012 76.2575 54.3833C77.3657 54.371 78.4715 54.4906 79.5514 54.7397C80.6541 54.8662 81.7411 55.1033 82.7963 55.4473Z" fill="#E0E0E0"/>
<path d="M66.0913 65.0539C66.0913 65.154 54.9364 63.5055 41.2452 61.3967C27.554 59.2878 16.3991 57.4932 16.3991 57.4081C16.3991 57.323 27.548 58.9565 41.2452 61.0714C54.9424 63.1863 66.1043 64.9648 66.0913 65.0539Z" fill="#E0E0E0"/>
<path d="M59.4214 77.1136C59.4214 77.2027 55.7522 76.6872 51.2672 75.9606C46.7822 75.2339 43.151 74.5713 43.16 74.4822C43.169 74.3932 46.8292 74.9086 51.3142 75.6353C55.7992 76.3619 59.4335 77.0185 59.4214 77.1136Z" fill="#E0E0E0"/>
</svg>
