<svg width="51" height="61" viewBox="0 0 51 61" fill="none" xmlns="http://www.w3.org/2000/svg">
<path d="M26.7624 15.063L26.7704 15.0503C26.9271 15.0757 27.0802 15.0308 27.2061 14.9367C27.3627 14.8197 27.4758 14.6296 27.5244 14.4039C28.3976 10.3666 31.1331 7.6033 34.1262 7.6033C34.3364 7.6033 34.5134 7.48567 34.6322 7.32229C34.751 7.15873 34.8199 6.9403 34.8199 6.7059C34.8199 6.47149 34.751 6.25306 34.6322 6.08951C34.5134 5.92612 34.3364 5.80851 34.1262 5.80851C30.3332 5.80851 27.1925 9.27478 26.189 13.9149C26.1399 14.1414 26.1618 14.3743 26.2388 14.5699C26.3152 14.7641 26.4521 14.9357 26.6444 15.0146L26.7624 15.063Z" fill="#483EA8" stroke="#F9FFF9" stroke-width="0.3"/>
<path d="M41.7092 43.2282H38.4592C38.1602 43.2282 37.9176 42.8944 37.9176 42.4828C37.9176 42.0713 38.1602 41.7375 38.4592 41.7375H41.7092C46.1892 41.7375 49.8343 36.7218 49.8343 30.5573C49.8343 24.3928 46.1892 19.3771 41.7092 19.3771H41.6311C41.474 19.3771 41.3246 19.2834 41.2217 19.1199C41.1188 18.9565 41.0724 18.7398 41.0948 18.5258C41.1432 18.0615 41.1676 17.5951 41.1676 17.141C41.1676 11.7985 38.0084 7.45145 34.1258 7.45145C32.6153 7.45145 31.1748 8.10097 29.9599 9.33024C29.6929 9.60017 29.3137 9.48038 29.1594 9.07629C25.7186 0.0608103 16.7317 -1.14988 12.0724 6.6928C10.1096 9.99681 9.33843 14.2948 9.9564 18.4837C10.0245 18.9464 9.76719 19.3776 9.42556 19.3776H9.2085C4.72851 19.3776 1.0834 24.3933 1.0834 30.5578C1.0834 36.7224 4.72851 41.7381 9.2085 41.7381H12.4585C12.7576 41.7381 13.0002 42.0719 13.0002 42.4834C13.0002 42.8949 12.7576 43.2288 12.4585 43.2288H9.2085C4.13104 43.2288 0 37.5444 0 30.5578C0 23.7671 3.90234 18.2068 8.78328 17.9002C8.32479 13.5542 9.20154 9.17049 11.2336 5.74941C16.222 -2.64798 25.7819 -1.70674 29.8231 7.65696C31.1123 6.54479 32.5876 5.96135 34.1256 5.96135C38.8296 5.96135 42.5572 11.4706 42.231 17.9071C47.067 18.2803 50.9175 23.8113 50.9175 30.5572C50.9175 37.5444 46.7865 43.2282 41.709 43.2282L41.7092 43.2282Z" fill="#483EA8"/>
<path d="M11.6922 42.062C11.6922 47.2281 13.2192 51.9186 15.6921 55.3214C18.1649 58.7239 21.5919 60.8479 25.3863 60.8479C29.1806 60.8479 32.6077 58.7238 35.0804 55.3213C37.5533 51.9186 39.0803 47.228 39.0803 42.062C39.0803 36.8958 37.5533 32.2053 35.0804 28.8026C32.6077 25.4001 29.1806 23.276 25.3863 23.276C21.5919 23.276 18.1648 25.4001 15.6921 28.8026C13.2192 32.2054 11.6922 36.8959 11.6922 42.062ZM13.0799 42.062C13.0799 37.3645 14.4688 33.1108 16.704 30.0353C18.9393 26.9595 22.0123 25.0711 25.3863 25.0711C28.7602 25.0711 31.8332 26.9594 34.0685 30.0352C36.3036 33.1108 37.6926 37.3644 37.6926 42.062C37.6926 46.7595 36.3036 51.0131 34.0685 54.0887C31.8332 57.1645 28.7602 59.0528 25.3863 59.0528C22.0124 59.0528 18.9393 57.1645 16.704 54.0887C14.4689 51.0132 13.0799 46.7595 13.0799 42.062Z" fill="#483EA8" stroke="#F9FFF9" stroke-width="0.3"/>
<path d="M25.0852 49.5632C25.0852 49.7425 25.1378 49.911 25.2304 50.0384C25.3229 50.1657 25.4636 50.2609 25.6338 50.2609C25.8039 50.2609 25.9446 50.1658 26.0372 50.0386C26.1298 49.9112 26.1824 49.7426 26.1824 49.5632V35.3754C26.1824 35.1961 26.1298 35.0276 26.0372 34.9002C25.9447 34.7729 25.804 34.6777 25.6338 34.6777C25.4636 34.6777 25.3229 34.773 25.2304 34.9002C25.1378 35.0276 25.0852 35.1961 25.0852 35.3754V49.5632Z" fill="#483EA8" stroke="#483EA8" stroke-width="0.3"/>
<path d="M25.6337 36.4071L28.4028 40.2174C28.5035 40.3559 28.6479 40.4398 28.8062 40.4399L25.6337 36.4071ZM25.6337 36.4071L22.8647 40.2173L22.8646 40.2174L22.7416 40.128L25.6337 36.4071ZM25.6336 34.6789C25.4752 34.6789 25.331 34.7627 25.2303 34.9015L28.8062 40.4399C28.9643 40.4398 29.1088 40.3566 29.2097 40.2173C29.3093 40.0802 29.3549 39.9077 29.3549 39.7421C29.3549 39.5765 29.3093 39.404 29.2096 39.2669L26.0371 34.9015C25.9363 34.7627 25.792 34.6789 25.6336 34.6789Z" fill="#483EA8" stroke="#483EA8" stroke-width="0.3"/>
</svg>
