<svg width="52" height="51" viewBox="0 0 52 51" fill="none" xmlns="http://www.w3.org/2000/svg">
<path d="M11.9642 31.9093C12.1173 31.8093 12.2854 31.7092 12.4725 31.6151C11.6766 29.2617 11.2686 26.7944 11.2647 24.31V10.5744C11.265 10.1394 11.5878 9.77206 12.0192 9.7158C16.7753 9.09153 21.3749 7.5926 25.5857 5.2947C25.844 5.15411 26.156 5.15411 26.4143 5.2947C30.6255 7.59216 35.2254 9.09074 39.9818 9.7148C40.4127 9.77151 40.735 10.1387 40.7353 10.5734V24.317C40.7293 28.4795 39.5946 32.5625 37.452 36.1313L38.1295 36.5015L41.9061 37.0839C43.9851 33.1497 45.071 28.7668 45.0693 24.317V5.713C38.4581 5.70822 31.9855 3.81651 26.4123 0.260182L26 0L25.5877 0.260182C20.0146 3.81682 13.5419 5.70855 6.93063 5.713V24.317C6.92963 27.5594 7.50568 30.7761 8.63182 33.8167L11.9642 31.9093Z" fill="white"/>
<path fill-rule="evenodd" clip-rule="evenodd" d="M12.9979 11.3209C17.5431 10.6391 21.9396 9.19055 26 7.03694L25.998 7.03294C30.0581 9.18769 34.4546 10.6376 39.0001 11.3209V24.313C38.9932 28.1869 37.9296 31.9855 35.9239 35.2997L30.2459 32.1975C27.2808 30.8905 24.0638 30.2539 20.8243 30.3332C18.5608 30.2586 16.2973 30.481 14.0916 30.9947C13.3712 28.8395 13.0019 26.5825 12.9979 24.31V11.3209ZM23.7584 27.2291L26 24.9875L35.5376 15.4538L32.9358 12.852L26.002 19.7859L22.5345 23.2533L19.0671 19.7859L16.4653 22.3877L21.3067 27.2291C21.6317 27.5543 22.0727 27.737 22.5325 27.737C22.9924 27.737 23.4333 27.5543 23.7584 27.2291Z" fill="white"/>
<circle cx="10.4939" cy="46.6517" r="3.50245" fill="white"/>
<path fill-rule="evenodd" clip-rule="evenodd" d="M51.7949 43.5725L51.1104 41.3449C51.0937 41.2999 51.0733 41.2564 51.0494 41.2148C50.524 40.4076 49.6373 39.908 48.6747 39.8769L37.649 38.1757C37.594 38.1689 37.5409 38.1513 37.4929 38.1236L29.4232 33.7206C26.7106 32.5545 23.7769 31.9918 20.8252 32.0714C14.9661 32.0714 13.4661 33.0071 12.8246 33.4154L8.00126 36.1743C7.73263 36.3291 7.42771 36.4099 7.11764 36.4084H4.36472C2.58747 36.4084 1.33059 37.6093 0.923309 39.6677L0.0476967 43.1702C-0.108093 43.9885 0.122312 44.833 0.672134 45.4588C1.37351 46.2972 2.4051 46.7889 3.49811 46.8057H5.1993C5.29457 44.0022 7.59484 41.7788 10.3999 41.7788C13.205 41.7788 15.5053 44.0022 15.6006 46.8057H35.5345C35.6298 44.0022 37.9301 41.7788 40.7352 41.7788C43.5403 41.7788 45.8405 44.0022 45.9358 46.8057H49.7154C50.4924 46.8043 51.2155 46.4089 51.636 45.7555C52.0564 45.1021 52.1166 44.2801 51.7959 43.5725H51.7949ZM19.9586 37.6093C16.6393 37.4272 13.293 37.176 10.3369 36.8287L13.7393 34.8784C14.1816 34.6012 15.3254 33.8907 19.9536 33.8126L19.9586 37.6093ZM21.6918 33.8266V37.7044C26.3031 37.9385 30.7171 38.0426 33.8013 38.0996L28.5917 35.2566C26.4098 34.3255 24.064 33.8393 21.6918 33.8266Z" fill="white"/>
<circle cx="40.5149" cy="46.6517" r="3.50245" fill="white"/>
</svg>
