<svg width="20" height="23" viewBox="0 0 20 23" fill="none" xmlns="http://www.w3.org/2000/svg">
<path fill-rule="evenodd" clip-rule="evenodd" d="M16.0155 9.90524C16.0155 6.32901 14.3704 3.33049 11.5024 2.5426V1.74716C11.5024 0.78223 10.829 0 9.99833 0C9.16766 0 8.49427 0.78223 8.49427 1.74716V2.53936C5.6179 3.33157 3.98115 6.31176 3.98115 9.90201V15.7223L1.97511 18.0536V19.2188H18.0206V18.0536L16.0146 15.7234L16.0155 9.90524ZM4.13363 0.174594L5.56624 1.84092C3.45992 3.57444 2.14916 6.32919 2.00604 9.3232H0C0.136813 5.71093 1.65208 2.35731 4.13363 0.174594ZM20 9.32323H17.9912C17.8433 6.3337 16.5381 3.58273 14.4412 1.84095L15.8683 0.178936C18.3413 2.36786 19.8539 5.71558 20 9.32323ZM10.3995 22.6699C10.2679 22.7032 10.1334 22.7187 9.99866 22.7163C8.89029 22.7139 7.99056 21.6746 7.98242 20.3871H11.9936C11.996 20.6986 11.9449 21.0075 11.8432 21.2957C11.5819 21.9983 11.0439 22.5104 10.3995 22.6699Z" fill="#B4C2CD"/>
</svg>
