<svg width="2" height="4" viewBox="0 0 2 4" fill="none" xmlns="http://www.w3.org/2000/svg">
<path d="M1.64125 3.29241C1.54875 3.29013 1.46082 3.25173 1.39628 3.18544L0.0954885 1.82367C0.0311337 1.7614 -0.00351579 1.67458 0.000282487 1.58512C0.0020174 1.49436 0.0406423 1.40823 0.107256 1.34657L1.41447 0.100332C1.47725 0.036166 1.56324 0 1.65302 0C1.74279 0 1.82878 0.036166 1.89157 0.100332C1.95611 0.164223 1.99243 0.251272 1.99243 0.342091C1.99243 0.43291 1.95611 0.519958 1.89157 0.58385L0.829324 1.59154L1.89905 2.70834C1.9636 2.77223 1.99992 2.85928 1.99992 2.95009C1.99992 3.04091 1.9636 3.12796 1.89905 3.19185C1.83268 3.25997 1.7417 3.29852 1.6466 3.29883L1.64125 3.29241Z" fill="#263238"/>
</svg>
