<svg width="7" height="7" viewBox="0 0 7 7" fill="none" xmlns="http://www.w3.org/2000/svg">
<path fill-rule="evenodd" clip-rule="evenodd" d="M2.07452 0.302628C0.7713 0.883048 -0.0487596 2.19685 0.00225018 3.62257C-0.0177657 4.54332 0.347247 5.43067 1.00934 6.07084C1.67144 6.71101 2.57058 7.04594 3.49014 6.99493C4.91677 6.99791 6.20221 6.13408 6.73842 4.81205C7.27464 3.49003 6.95413 1.97483 5.9285 0.983173C4.90288 -0.00848058 3.37775 -0.277792 2.07452 0.302628ZM3.45178 1.74939C4.51694 1.72357 5.40543 2.55789 5.44658 3.62257C5.47687 4.1563 5.28283 4.67842 4.91131 5.06281C4.53979 5.44721 4.02459 5.65893 3.49014 5.64683C2.42467 5.64198 1.56057 4.78244 1.55008 3.71701C1.5396 2.65159 2.38662 1.7752 3.45178 1.74939Z" fill="#7F47FA"/>
</svg>
