<svg width="295" height="19" viewBox="0 0 295 19" fill="none" xmlns="http://www.w3.org/2000/svg">
<path fill-rule="evenodd" clip-rule="evenodd" d="M13.2899 17.6428C16.5133 16.0971 18.5616 12.8366 18.555 9.26173C18.5492 5.55119 16.3327 2.2011 12.92 0.74466C9.50721 -0.71178 5.55486 0.00568252 2.87174 2.5687L1.02175 0.716705C0.849526 0.548638 0.593715 0.499368 0.371384 0.591443C0.149052 0.683517 0.0029755 0.899221 0 1.13985V6.5795C0 6.91177 0.269355 7.18112 0.601621 7.18112H6.03526C6.27589 7.17815 6.49159 7.03207 6.58367 6.80974C6.67574 6.58741 6.62647 6.3316 6.4584 6.15937L4.5643 4.26025C7.23971 1.74837 11.4154 1.77743 14.0556 4.32632C16.6957 6.8752 16.8717 11.0473 14.4555 13.8094C12.0393 16.5715 7.88088 16.952 5.00348 14.6743C4.64405 14.3943 4.13224 14.4261 3.81027 14.7485L3.38913 15.1697C3.21082 15.3501 3.11672 15.5973 3.12989 15.8507C3.14305 16.1041 3.26226 16.3402 3.45832 16.5012C6.24175 18.7445 10.0665 19.1886 13.2899 17.6428ZM12.1558 11.7364L11.7888 12.2087L11.7757 12.2067C11.47 12.5953 10.9084 12.6656 10.5163 12.3641L8.06975 10.459V5.38529C8.06975 4.88689 8.47378 4.48285 8.97218 4.48285H9.5738C10.0722 4.48285 10.4762 4.88689 10.4762 5.38529V9.2878L11.9983 10.477C12.387 10.7828 12.4572 11.3444 12.1558 11.7364Z" fill="#1C2340"/>
<path d="M292.824 9.32089L288.044 4.54402C287.692 4.19169 287.692 3.62092 288.044 3.26859C288.399 2.91908 288.968 2.91908 289.323 3.26859L294.737 8.68318C295.077 9.02478 295.089 9.57301 294.763 9.92853L289.327 15.3762C288.975 15.7292 288.403 15.7299 288.05 15.3777C287.697 15.0255 287.696 14.4538 288.048 14.1008L292.824 9.32089Z" fill="#1C2340"/>
</svg>
