<svg width="294" height="179" viewBox="0 0 294 179" fill="none" xmlns="http://www.w3.org/2000/svg">
<rect y="156.754" width="294" height="0.119863" fill="#EBEBEB"/>
<rect x="30.8468" y="161.312" width="12.4713" height="0.119863" fill="#EBEBEB"/>
<rect x="100.631" y="160.015" width="49.9622" height="0.119863" fill="#EBEBEB"/>
<rect x="39.7899" y="165.76" width="22.409" height="0.119863" fill="#EBEBEB"/>
<rect x="239.145" y="164.955" width="25.3955" height="0.119863" fill="#EBEBEB"/>
<rect x="230.184" y="164.955" width="7.03866" height="0.119863" fill="#EBEBEB"/>
<rect x="204.56" y="162.935" width="13.5243" height="0.119863" fill="#EBEBEB"/>
<rect x="169.279" y="162.935" width="28.4829" height="0.119863" fill="#EBEBEB"/>
<path fill-rule="evenodd" clip-rule="evenodd" d="M25.8194 135.4H139.356C141.21 135.4 142.714 134.176 142.714 132.666V2.73363C142.714 1.22389 141.21 0 139.356 0H25.8194C23.9786 0.00231171 22.4835 1.2111 22.4675 2.70988V132.666C22.4675 134.174 23.9673 135.398 25.8194 135.4ZM22.6145 2.70991C22.6145 1.26796 24.0483 0.0982802 25.8192 0.0956H139.356C141.128 0.0982742 142.564 1.26718 142.567 2.70991V132.666C142.564 134.109 141.128 135.278 139.356 135.281H25.8192C24.0483 135.278 22.6145 134.108 22.6145 132.666V2.70991Z" fill="#EBEBEB"/>
<path fill-rule="evenodd" clip-rule="evenodd" d="M153.003 135.4H266.548C268.398 135.395 269.894 134.173 269.894 132.666V2.70988C269.878 1.21299 268.387 0.00496982 266.548 0H153.003C151.162 0.00257882 149.665 1.21053 149.646 2.70988V132.666C149.65 134.175 151.151 135.397 153.003 135.4ZM149.792 2.70991C149.796 1.26718 151.231 0.0982742 153.003 0.0956H266.548C268.32 0.0982742 269.755 1.26718 269.759 2.70991V132.666C269.755 134.109 268.32 135.278 266.548 135.281H153.003C151.231 135.278 149.796 134.109 149.792 132.666V2.70991Z" fill="#EBEBEB"/>
<rect x="53.1731" y="156.754" width="9.05511" height="56.7455" transform="rotate(180 53.1731 156.754)" fill="#F0F0F0"/>
<rect x="53.1731" y="100.008" width="79.2567" height="56.7455" fill="#F5F5F5"/>
<rect x="63.563" y="121.425" width="69.5836" height="30.3502" fill="#FAFAFA"/>
<rect x="63.563" y="108.21" width="69.5836" height="9.99237" fill="#FAFAFA"/>
<rect opacity="0.7" x="63.563" y="151.775" width="0.623301" height="30.3502" transform="rotate(180 63.563 151.775)" fill="#E6E6E6"/>
<rect opacity="0.7" x="63.563" y="118.202" width="0.623301" height="9.99237" transform="rotate(180 63.563 118.202)" fill="#E6E6E6"/>
<rect opacity="0.7" x="132.623" y="103.685" width="88.5114" height="1.2834" transform="rotate(180 132.623 103.685)" fill="#E6E6E6"/>
<rect x="53.1731" y="102.943" width="10.1134" height="3.71036" transform="rotate(180 53.1731 102.943)" fill="#F0F0F0"/>
<rect x="53.1731" y="99.2327" width="80.315" height="3.71036" fill="#F5F5F5"/>
<path d="M76.94 88.3354C76.4344 87.7487 76.1391 87.0591 76.0873 86.3436C76.0103 85.6201 76.0879 84.8912 76.3167 84.1893C76.7785 82.8011 77.6006 81.5097 78.7277 80.4023C79.2787 79.8626 79.8677 79.3494 80.4915 78.8651C80.823 78.64 81.138 78.4105 81.4735 78.1902C81.7964 77.9648 82.1339 77.7537 82.4847 77.558C83.1789 77.1659 83.8973 76.8032 84.6371 76.4711C85.4017 76.1644 86.1543 75.8631 86.9539 75.6191C86.3658 76.1552 85.7776 76.6244 85.1901 77.0985C84.6026 77.5725 84.0437 78.0563 83.4555 78.5347C82.8673 79.0131 82.3501 79.4925 81.7859 79.9709C81.5093 80.2057 81.2627 80.4498 81.0041 80.7036C80.7317 80.9353 80.4764 81.18 80.2395 81.4362C79.2429 82.4061 78.4067 83.4782 77.7523 84.625C77.4306 85.1834 77.1879 85.7697 77.0289 86.3728C76.8515 87.0172 76.8216 87.6827 76.9407 88.3359L76.94 88.3354Z" fill="#E6E6E6"/>
<path d="M63.1983 86.3295C63.4501 85.7597 63.5793 85.1587 63.5802 84.5532C63.5787 84.2727 63.5532 83.9927 63.504 83.7152C63.4341 83.4486 63.3417 83.1863 63.2275 82.9301C62.6976 81.9109 61.8939 81.0014 60.8755 80.2683C60.6288 80.0675 60.3344 79.8947 60.0699 79.7036C59.8067 79.5033 59.5257 79.3193 59.2291 79.1528C58.6409 78.8175 58.0826 78.4202 57.4653 78.1092C57.1596 77.9418 56.8771 77.7739 56.5422 77.5968C56.2074 77.4197 55.9541 77.2377 55.6013 77.0795C54.946 76.7421 54.3121 76.3777 53.7022 75.9878C54.4764 76.0817 55.2438 76.2095 56.0012 76.3706C56.3823 76.4424 56.7559 76.5384 57.1185 76.6578C57.4832 76.7728 57.8479 76.8879 58.2119 77.012L58.7589 77.1988C58.9353 77.2658 59.1057 77.3522 59.2821 77.4289C59.6289 77.5822 59.9704 77.7496 60.3172 77.9078C60.6638 78.0752 60.9941 78.264 61.3052 78.4725C61.6168 78.6831 61.9464 78.8699 62.2401 79.1048C63.5162 80.0298 64.3908 81.266 64.7334 82.6289C64.7789 82.8004 64.8011 82.9755 64.7997 83.151C64.7997 83.3281 64.7997 83.5052 64.7997 83.6774C64.7618 84.0211 64.675 84.3601 64.5411 84.6876C64.2896 85.3256 63.8254 85.8942 63.2003 86.33L63.1983 86.3295Z" fill="#E6E6E6"/>
<path d="M63.8275 86.3295C64.1419 85.0601 64.1796 83.7556 63.9389 82.4755C63.6977 81.2651 63.1936 80.0994 62.4502 79.033L61.8621 78.2431C61.6446 77.9893 61.3979 77.7641 61.1798 77.4963L60.8389 77.1135L60.4451 76.7642C60.1865 76.5293 59.9279 76.2853 59.6746 76.0412C59.1215 75.5866 58.54 75.1412 57.9751 74.6623C57.4101 74.1834 56.7576 73.7811 56.1761 73.2736C56.9756 73.4887 57.7607 73.738 58.5281 74.0203C59.2733 74.3499 59.9956 74.7127 60.6917 75.1072C61.0233 75.3275 61.3548 75.5526 61.6797 75.7821L62.1678 76.1266L62.6027 76.5239C62.8852 76.7939 63.1909 77.0601 63.4435 77.3425L64.1491 78.2522C65.0357 79.5152 65.4904 80.9486 65.466 82.4032C65.4621 83.8228 64.8857 85.202 63.8255 86.329L63.8275 86.3295Z" fill="#E6E6E6"/>
<path d="M76.1875 87.0389C75.0178 85.8464 74.0305 84.5424 73.2474 83.1558C72.4453 81.7695 71.798 80.3273 71.3132 78.8467C70.8397 77.3559 70.5676 75.8275 70.5015 74.2886C70.4495 72.7432 70.7383 71.2027 71.3543 69.7403C71.5187 71.2726 71.7249 72.7234 72.0306 74.1644C72.3363 75.6055 72.7653 77.0374 73.2069 78.4736C73.6485 79.9098 74.1651 81.3033 74.677 82.7249C75.1889 84.1466 75.7054 85.559 76.1875 87.0389Z" fill="#E6E6E6"/>
<path d="M75.5787 86.7993C74.1811 85.7039 72.9332 84.4887 71.8568 83.1748C70.7673 81.8674 69.8095 80.4905 68.9929 79.0573C68.1751 77.6144 67.5311 76.1103 67.07 74.5662C66.6099 73.0142 66.467 71.4112 66.6469 69.8214C67.2351 71.3391 67.8232 72.7753 68.54 74.1974C69.2568 75.6196 69.9988 76.9986 70.7687 78.3916C71.5385 79.7846 72.368 81.1587 73.1856 82.5522C74.0032 83.9458 74.8175 85.3388 75.5787 86.7993Z" fill="#E6E6E6"/>
<path d="M77.969 88.6231C76.3026 87.8055 74.7508 86.8422 73.3413 85.7502C71.9244 84.673 70.6149 83.5058 69.4251 82.2595C68.2326 81.0013 67.191 79.6529 66.3146 78.2328C65.4447 76.8024 64.8669 75.2662 64.6038 73.6845C65.5985 75.0537 66.5851 76.342 67.6494 77.6011C68.7136 78.8602 69.8376 80.0718 70.9714 81.2877C72.1053 82.5036 73.3234 83.6817 74.4639 84.9052C75.6044 86.1286 76.8285 87.3397 77.969 88.6231Z" fill="#E6E6E6"/>
<path d="M74.3706 86.5341C72.7636 85.8799 71.2698 85.0557 69.9279 84.0829C68.5752 83.1193 67.3423 82.0496 66.2471 80.8892C65.149 79.7191 64.2196 78.45 63.4774 77.107C62.7383 75.7596 62.2926 74.3178 62.1605 72.846C63.0603 74.1245 63.8845 75.3453 64.8361 76.5137C65.7876 77.6821 66.759 78.8164 67.7762 79.9227C68.7934 81.029 69.8928 82.1251 70.9981 83.212C72.1035 84.2988 73.2533 85.3911 74.3706 86.5341Z" fill="#E6E6E6"/>
<path d="M77.2456 87.871C75.9106 87.0973 75.0326 85.9051 74.8233 84.5818C74.6047 83.2467 74.8704 81.8886 75.5879 80.6749L75.8345 80.2246L76.1342 79.8035L76.7635 78.9752C77.0066 78.72 77.2535 78.4711 77.5042 78.2285C77.746 77.9791 78.0071 77.7425 78.286 77.5201C78.8432 77.0817 79.4322 76.6708 80.0498 76.2896C80.6802 75.927 81.336 75.5946 82.0138 75.294C81.6207 75.825 81.1949 76.3395 80.738 76.8355C80.3031 77.3144 79.9152 77.8408 79.4782 78.3149C79.0412 78.789 78.7196 79.3154 78.3019 79.7992L77.8138 80.555L77.5552 80.9287L77.361 81.3163C76.7615 82.3131 76.4117 83.3971 76.3318 84.5051C76.2825 85.6717 76.5959 86.8295 77.2429 87.871H77.2456Z" fill="#E6E6E6"/>
<path d="M76.1582 86.3435C74.975 85.4045 74.1152 84.2289 73.665 82.9344C73.1711 81.5924 73.1468 80.1648 73.5947 78.8121C73.8176 78.1353 74.1645 77.4896 74.6238 76.897C75.069 76.3096 75.6111 75.7747 76.2351 75.3075C77.4315 74.3903 78.8755 73.7146 80.451 73.3346C79.3474 74.2043 78.3217 75.1371 77.3816 76.126C76.9482 76.5975 76.5666 77.099 76.2411 77.6248C75.9155 78.1348 75.6611 78.6729 75.4825 79.2289C75.112 80.3545 75.0062 81.5269 75.1709 82.6845C75.3404 83.9291 75.6714 85.1556 76.1582 86.3435Z" fill="#E6E6E6"/>
<path d="M73.2824 85.2091L64.0801 78.0179L64.4508 85.0704L73.2824 85.2091Z" fill="#E6E6E6"/>
<path d="M83.3373 84.443H58.894L62.0927 99.2326H80.1393L83.3373 84.443Z" fill="#F5F5F5"/>
<path d="M68.0665 84.443H58.894L62.0927 99.2326H66.914L68.0665 84.443Z" fill="#EBEBEB"/>
<rect x="59.3529" y="10.4518" width="49.3389" height="50.5023" fill="#F0F0F0"/>
<rect x="61.2461" y="10.4518" width="58.3417" height="50.5023" fill="#F5F5F5"/>
<path d="M66.1322 56.9706V14.4257H114.701V56.9706H66.1322Z" fill="white"/>
<path d="M256.038 156.753H180.976L174.319 55.7067H249.38L256.038 156.753Z" fill="#EBEBEB"/>
<path d="M258.331 156.753H183.269L176.612 55.7067H251.673L258.331 156.753Z" fill="#F5F5F5"/>
<path d="M220.689 146.331H213.986L214.256 66.1299H220.959L220.689 146.331Z" fill="white"/>
<path d="M238.417 146.331H231.714L231.99 66.1299H238.687L238.417 146.331Z" fill="white"/>
<path d="M202.954 146.331H196.251L196.528 66.1299H203.231L202.954 146.331Z" fill="white"/>
<ellipse cx="147" cy="172.956" rx="114.007" ry="5.41976" fill="#F5F5F5"/>
<path d="M226.665 125.748L227.424 114.475L228.012 114.502L227.252 125.775L226.665 125.748Z" fill="#FAAD44"/>
<path d="M227.681 110.722L228.073 104.913L228.66 104.939L228.269 110.748L227.681 110.722Z" fill="#FAAD44"/>
<path d="M215.678 147.236H146.75C144.643 147.256 142.621 146.56 141.171 145.315C139.721 144.07 138.973 142.389 139.109 140.677L147.047 22.8388C147.353 19.1762 151.065 16.3202 155.573 16.2788H224.505C226.607 16.2658 228.621 16.9651 230.065 18.2091C231.509 19.4531 232.254 21.1299 232.12 22.8383L224.175 140.677C223.872 144.332 220.176 147.185 215.678 147.237V147.236Z" fill="#FAAD44"/>
<path opacity="0.8" d="M211.509 147.236H146.75C144.643 147.256 142.621 146.56 141.171 145.315C139.721 144.07 138.973 142.389 139.109 140.677L147.047 22.8388C147.353 19.1762 151.065 16.3201 155.573 16.2787H220.335C222.438 16.2645 224.453 16.9633 225.898 18.2077C227.342 19.452 228.086 21.1296 227.95 22.8383L220.012 140.677C219.704 144.331 216.007 147.183 211.509 147.237V147.236Z" fill="white"/>
<path d="M179.417 37.6425H160.818C159.93 37.6481 159.079 37.3525 158.47 36.8265C157.861 36.3006 157.548 35.5918 157.607 34.8705C157.736 33.3287 159.296 32.1254 161.194 32.1034H179.795C180.683 32.0964 181.533 32.3909 182.143 32.9161C182.752 33.4413 183.065 34.1496 183.006 34.8705C182.878 36.4141 181.317 37.6196 179.417 37.6425Z" fill="white"/>
<path d="M183.003 34.87C182.784 37.6547 179.962 39.8294 176.535 39.854C174.936 39.8691 173.402 39.3394 172.303 38.3929C171.204 37.4465 170.641 36.1694 170.749 34.87C170.968 32.0853 173.79 29.9105 177.217 29.8859C178.816 29.8709 180.351 30.4006 181.45 31.347C182.548 32.2934 183.112 33.5706 183.003 34.87Z" fill="url(#paint0_linear_170_2236)"/>
<path d="M178.224 55.3622H159.624C158.736 55.3678 157.886 55.0722 157.277 54.5463C156.667 54.0203 156.355 53.3116 156.413 52.5902C156.543 51.0485 158.102 49.8451 160 49.8231H178.598C179.486 49.8161 180.337 50.1107 180.946 50.636C181.555 51.1613 181.868 51.8698 181.809 52.5908C181.681 54.1336 180.121 55.3388 178.222 55.3627L178.224 55.3622Z" fill="white"/>
<ellipse rx="5.71661" ry="5.38273" transform="matrix(0.761723 -0.65018 0.743663 0.670762 167.478 52.6016)" fill="#FAAD44"/>
<ellipse rx="5.71661" ry="5.38273" transform="matrix(0.761723 -0.65018 0.743663 0.670762 167.478 52.6016)" fill="#0CCAD0"/>
<path d="M157.236 90.8017H175.81C177.709 90.7777 179.268 89.5726 179.397 88.0297C179.456 87.308 179.142 86.5989 178.531 86.0736C177.921 85.5482 177.068 85.2543 176.18 85.2626H157.614C155.715 85.2839 154.153 86.487 154.021 88.0297C153.964 88.7516 154.278 89.4603 154.888 89.986C155.498 90.5118 156.349 90.8073 157.238 90.8017H157.236Z" fill="white"/>
<ellipse rx="5.71661" ry="5.38273" transform="matrix(0.761723 -0.65018 0.743663 0.670762 160.147 88.0341)" fill="#FAAD44"/>
<ellipse opacity="0.7" rx="5.71661" ry="5.38273" transform="matrix(0.761723 -0.65018 0.743663 0.670762 160.147 88.0341)" fill="url(#paint1_linear_170_2236)"/>
<path d="M174.636 108.521H156.043C155.154 108.527 154.303 108.232 153.693 107.706C153.083 107.18 152.769 106.471 152.826 105.749C152.958 104.207 154.52 103.004 156.419 102.982H175.011C175.899 102.974 176.751 103.268 177.362 103.793C177.973 104.319 178.287 105.028 178.228 105.749C178.099 107.294 176.536 108.5 174.635 108.521H174.636Z" fill="white"/>
<path d="M178.229 105.749C178.01 108.534 175.188 110.709 171.761 110.734C170.161 110.748 168.627 110.219 167.527 109.273C166.427 108.326 165.863 107.049 165.969 105.749C166.194 102.967 169.012 100.795 172.437 100.765C174.037 100.749 175.573 101.278 176.673 102.225C177.773 103.171 178.337 104.449 178.229 105.749Z" fill="url(#paint2_linear_170_2236)"/>
<path d="M158.43 73.082H177.028C178.927 73.058 180.486 71.8529 180.615 70.31C180.674 69.5882 180.36 68.8792 179.749 68.3538C179.139 67.8285 178.286 67.5345 177.398 67.5429H158.806C156.909 67.5649 155.349 68.7683 155.22 70.31C155.161 71.0314 155.474 71.7401 156.083 72.266C156.692 72.792 157.543 73.0876 158.43 73.082H158.43Z" fill="white"/>
<path d="M155.233 70.3095C155.125 71.6088 155.688 72.886 156.787 73.8324C157.885 74.7789 159.42 75.3085 161.019 75.2935C164.446 75.2689 167.268 73.0942 167.487 70.3095C167.595 69.0101 167.032 67.7329 165.933 66.7865C164.835 65.84 163.3 65.3104 161.701 65.3254C158.274 65.35 155.452 67.5247 155.233 70.3095Z" fill="#FAAD44"/>
<path opacity="0.7" d="M155.233 70.3095C155.125 71.6088 155.688 72.886 156.787 73.8324C157.885 74.7789 159.42 75.3085 161.019 75.2935C164.446 75.2689 167.268 73.0942 167.487 70.3095C167.595 69.0101 167.032 67.7329 165.933 66.7865C164.835 65.84 163.3 65.3104 161.701 65.3254C158.274 65.35 155.452 67.5247 155.233 70.3095Z" fill="url(#paint3_linear_170_2236)"/>
<path d="M220.152 34.0423H192.587C192.233 34.0429 191.893 33.9238 191.651 33.7133C191.408 33.5029 191.283 33.2199 191.306 32.9317C191.358 32.3153 191.982 31.8345 192.74 31.8259H220.306C220.66 31.8239 220.999 31.9419 221.242 32.1516C221.485 32.3614 221.61 32.6439 221.587 32.9317C221.538 33.5499 220.913 34.0334 220.152 34.0423Z" fill="white"/>
<path d="M210.968 37.9199H192.329C191.973 37.9219 191.633 37.8034 191.388 37.5928C191.144 37.3821 191.018 37.0984 191.041 36.8093C191.094 36.193 191.717 35.7122 192.476 35.7036H211.121C211.476 35.7017 211.816 35.8196 212.06 36.0291C212.304 36.2386 212.43 36.5211 212.409 36.8093C212.357 37.4285 211.73 37.9116 210.968 37.9199Z" fill="white"/>
<path d="M211.897 104.921H187.789C187.435 104.922 187.096 104.803 186.853 104.592C186.61 104.382 186.485 104.099 186.508 103.811C186.557 103.193 187.183 102.711 187.943 102.705H212.021C212.376 102.703 212.716 102.821 212.96 103.03C213.204 103.24 213.33 103.522 213.309 103.811C213.258 104.421 212.648 104.901 211.898 104.921H211.897Z" fill="white"/>
<path d="M199.455 108.795H187.572C187.217 108.796 186.878 108.679 186.634 108.469C186.39 108.26 186.263 107.977 186.284 107.689C186.337 107.073 186.961 106.592 187.719 106.583H199.62C199.975 106.581 200.315 106.699 200.559 106.909C200.803 107.118 200.929 107.401 200.908 107.689C200.855 108.311 200.221 108.793 199.456 108.795H199.455Z" fill="white"/>
<path d="M218.844 53.4228H191.282C190.523 53.4314 189.899 53.9122 189.847 54.5286C189.826 54.8168 189.952 55.0993 190.196 55.3088C190.44 55.5183 190.78 55.6362 191.135 55.6343H218.7C219.459 55.6257 220.082 55.1449 220.135 54.5286C220.156 54.2403 220.029 53.9579 219.785 53.7483C219.541 53.5388 219.202 53.4209 218.847 53.4228H218.844Z" fill="white"/>
<path d="M210.186 49.5451H191.547C190.788 49.5537 190.164 50.0345 190.112 50.6508C190.089 50.939 190.214 51.222 190.457 51.4325C190.7 51.6429 191.039 51.762 191.394 51.7614H210.039C210.799 51.7506 211.422 51.2682 211.474 50.6508C211.497 50.3622 211.371 50.0789 211.127 49.869C210.882 49.6592 210.542 49.5418 210.186 49.5451Z" fill="white"/>
<path d="M204.341 69.4839H190.23C189.875 69.4845 189.536 69.3654 189.293 69.1549C189.05 68.9445 188.925 68.6615 188.948 68.3733C188.997 67.7557 189.623 67.2736 190.383 67.2675H204.495C204.852 67.2616 205.197 67.3776 205.445 67.5876C205.693 67.7976 205.822 68.0825 205.8 68.3733C205.748 68.998 205.11 69.4831 204.341 69.4839Z" fill="white"/>
<path d="M217.767 69.484H209.439C209.083 69.4858 208.742 69.3669 208.498 69.1557C208.254 68.9445 208.128 68.66 208.152 68.3706C208.204 67.7543 208.828 67.2735 209.587 67.2649H217.919C218.273 67.2629 218.612 67.3809 218.855 67.5906C219.098 67.8003 219.223 68.0829 219.2 68.3706C219.15 68.9886 218.527 69.4724 217.767 69.484Z" fill="white"/>
<path d="M208.581 73.3552H189.924C189.569 73.357 189.23 73.2392 188.986 73.0296C188.742 72.8201 188.615 72.5376 188.636 72.2494C188.689 71.633 189.312 71.1523 190.071 71.1436H208.74C209.095 71.1418 209.435 71.2596 209.679 71.4692C209.923 71.6787 210.049 71.9612 210.028 72.2494C209.975 72.8692 209.345 73.3513 208.582 73.3552H208.581Z" fill="white"/>
<path d="M185.22 124.341H153.468C152.968 124.35 152.487 124.187 152.144 123.891C151.801 123.595 151.628 123.195 151.669 122.79C151.742 121.925 152.616 121.251 153.68 121.238H185.432C185.931 121.229 186.412 121.392 186.755 121.688C187.098 121.984 187.271 122.384 187.231 122.79C187.16 123.655 186.284 124.33 185.219 124.341H185.22Z" fill="white"/>
<path d="M213.526 124.341H194.04C193.54 124.35 193.059 124.187 192.716 123.891C192.373 123.595 192.2 123.195 192.241 122.789C192.314 121.925 193.188 121.251 194.252 121.238H213.738C214.237 121.229 214.718 121.392 215.062 121.688C215.405 121.984 215.578 122.384 215.538 122.789C215.464 123.654 214.59 124.328 213.526 124.341Z" fill="white"/>
<path d="M177.283 129.751H153.114C152.615 129.76 152.134 129.597 151.791 129.301C151.448 129.005 151.275 128.605 151.316 128.2C151.386 127.334 152.262 126.659 153.327 126.648H177.488C177.987 126.639 178.468 126.802 178.811 127.098C179.154 127.394 179.327 127.794 179.287 128.2C179.217 129.063 178.345 129.737 177.283 129.751Z" fill="white"/>
<path d="M203.521 135.19H152.75C152.25 135.2 151.769 135.036 151.426 134.74C151.083 134.445 150.91 134.044 150.95 133.639C151.021 132.775 151.893 132.101 152.955 132.088H203.729C204.229 132.078 204.71 132.241 205.053 132.537C205.396 132.833 205.569 133.233 205.529 133.639C205.458 134.503 204.585 135.178 203.521 135.19Z" fill="white"/>
<path d="M197.057 88.8629H188.895C188.136 88.8715 187.512 89.3523 187.46 89.9687C187.439 90.2569 187.565 90.5394 187.809 90.7489C188.053 90.9584 188.393 91.0763 188.748 91.0744H196.91C197.668 91.0658 198.292 90.585 198.344 89.9687C198.366 89.6804 198.239 89.3979 197.995 89.1884C197.751 88.9789 197.411 88.861 197.057 88.8629Z" fill="white"/>
<path d="M211.615 88.8629H202.154C201.395 88.8715 200.771 89.3523 200.719 89.9686C200.697 90.2571 200.823 90.5401 201.067 90.7501C201.311 90.9601 201.651 91.0783 202.006 91.0766H211.468C212.227 91.0679 212.851 90.5871 212.903 89.9708C212.926 89.6822 212.8 89.3989 212.556 89.189C212.312 88.9791 211.971 88.8617 211.616 88.865L211.615 88.8629Z" fill="white"/>
<path d="M207.799 84.9846H189.16C188.4 84.9907 187.774 85.4728 187.725 86.0904C187.702 86.3786 187.827 86.6616 188.07 86.872C188.313 87.0825 188.652 87.2016 189.007 87.201H207.652C208.412 87.1901 209.035 86.7077 209.087 86.0904C209.108 85.8021 208.982 85.5197 208.738 85.3101C208.494 85.1006 208.154 84.9828 207.799 84.9846Z" fill="white"/>
<path d="M104.664 56.5586C102.741 57.8544 100.752 59.2685 98.9252 60.6858C98.0081 61.399 97.1143 62.122 96.2848 62.8692C95.4811 63.5712 94.744 64.3219 94.08 65.1148L93.968 65.2487L93.9149 65.3254C93.8666 65.386 93.8253 65.4501 93.7916 65.517C93.7093 65.6655 93.6331 65.8523 93.5502 66.0483C93.3935 66.4834 93.2717 66.9264 93.1855 67.3744C93.0021 68.3741 92.8843 69.381 92.8327 70.3909C92.7094 72.4594 92.7094 74.6185 92.7565 76.7302L90.0047 77.0655C89.3155 74.8995 88.8436 72.6915 88.5936 70.4633C88.4623 69.3062 88.4288 68.1432 88.4935 66.9824C88.5403 66.3554 88.6384 65.7317 88.7873 65.1153C88.8694 64.7674 88.9813 64.4246 89.1221 64.0895C89.2103 63.9027 89.2753 63.7304 89.3927 63.5339L89.5571 63.2466C89.6161 63.1603 89.6572 63.1079 89.7043 63.0307C90.4241 61.9714 91.2646 60.9696 92.2147 60.0384C93.0955 59.1447 94.0316 58.2882 95.0196 57.4722C96.9549 55.8589 99.0215 54.3538 101.206 52.967L104.664 56.5586Z" fill="#B55B52"/>
<path d="M103.635 50.8176C100.625 52.2538 96.076 55.9885 96.076 55.9885L101.656 61.4417C101.656 61.4417 109.576 57.5732 110.541 55.4426C112.149 51.857 106.481 49.4425 103.635 50.8176Z" fill="url(#paint4_linear_170_2236)"/>
<path d="M92.6337 75.9208L93.316 79.1603L89.6173 78.7246C89.6173 78.7246 88.8588 76.5222 90.7937 75.7658L92.6337 75.9208Z" fill="#B55B52"/>
<path d="M91.9517 81.1343L88.6236 80.2915L89.6183 78.7257L93.3169 79.1614L91.9517 81.1343Z" fill="#B55B52"/>
<path d="M126.02 39.3658C126.02 39.6962 126.244 39.964 126.514 39.9689C126.785 39.9737 126.99 39.7054 126.984 39.3798C126.978 39.0543 126.761 38.7816 126.49 38.7767C126.22 38.7719 126.014 39.0402 126.02 39.3658Z" fill="#263238"/>
<path d="M126.373 38.7817L127.355 38.5657C127.355 38.5657 126.861 39.1871 126.373 38.7817Z" fill="#263238"/>
<path d="M126.367 39.6913C126.745 40.4498 127.248 41.1632 127.86 41.8122C127.435 42.0484 126.905 42.1217 126.408 42.013L126.367 39.6913Z" fill="#A02724"/>
<path d="M126.532 37.1775C126.494 37.1868 126.453 37.1868 126.415 37.1775C125.828 37.0029 125.173 37.065 124.651 37.3449C124.601 37.3767 124.537 37.3907 124.474 37.3834C124.411 37.3762 124.354 37.3485 124.316 37.3065C124.238 37.2204 124.259 37.0991 124.363 37.0339C125.009 36.6837 125.819 36.6004 126.551 36.8087C126.675 36.8429 126.743 36.9511 126.705 37.0528C126.675 37.1145 126.611 37.1609 126.532 37.1775Z" fill="#263238"/>
<path d="M114.037 42.8796C114.308 45.3552 113.291 49.4127 110.997 50.789C110.997 50.789 112.726 53.3936 118.264 54.0015C124.365 54.6673 121.498 51.8759 121.498 51.8759C118.258 50.8705 118.599 48.8836 119.423 47.0878L114.037 42.8796Z" fill="#B55B52"/>
<path d="M124.862 53.8006C127.761 54.4421 130.806 55.0597 133.794 55.6105C135.299 55.874 136.804 56.0894 138.309 56.3523C139.814 56.6153 141.326 56.7843 142.825 56.9414L143.413 57.0035L143.801 57.0369H144.683C145.366 56.9981 146.046 56.9229 146.717 56.8118C148.173 56.5671 149.612 56.2588 151.027 55.888C153.926 55.1505 156.866 54.2601 159.742 53.3406L161.047 55.3383C158.337 56.7826 155.492 58.0521 152.539 59.1351C151.011 59.6972 149.44 60.177 147.835 60.5713C146.977 60.7787 146.103 60.9387 145.219 61.0502C144.731 61.1043 144.24 61.1378 143.749 61.1506H142.949L142.361 61.1123C139.123 60.9297 135.902 60.5811 132.717 60.0686C129.543 59.587 126.402 58.9668 123.31 58.2107L124.862 53.8006Z" fill="#B55B52"/>
<path d="M158.978 54.1506L159.83 51.7998L162.964 52.7576C162.964 52.7576 162.247 56.2909 159.56 55.3141L158.978 54.1506Z" fill="#B55B52"/>
<path d="M161.647 50.2388L164.846 50.5309L162.964 52.757L159.83 51.7991L161.647 50.2388Z" fill="#B55B52"/>
<path d="M105.04 168.47L110.08 168.772L111.579 159.349L106.539 159.047L105.04 168.47Z" fill="#B55B52"/>
<path d="M67.8789 150.204L71.3011 153.297L80.8622 147.915L77.44 144.827L67.8789 150.204Z" fill="#B55B52"/>
<path fill-rule="evenodd" clip-rule="evenodd" d="M73.6535 155.049C73.714 155.056 73.7753 155.056 73.8359 155.049L73.8345 155.052C73.9972 155.056 74.1568 155.016 74.2874 154.937C74.4048 154.869 74.4696 154.756 74.4578 154.64C74.4061 154.113 72.7835 153.395 72.6012 153.318C72.5601 153.3 72.5093 153.303 72.4722 153.327C72.4351 153.35 72.4188 153.389 72.4308 153.426C72.6244 153.963 73.0654 154.887 73.6535 155.049ZM73.7298 154.839C73.4003 154.753 73.0416 154.288 72.7478 153.58L72.7472 153.577C73.3884 153.881 74.1933 154.351 74.2238 154.628C74.2259 154.68 74.1948 154.729 74.1416 154.757C74.0316 154.842 73.8752 154.873 73.7298 154.839Z" fill="#7F47FA"/>
<path fill-rule="evenodd" clip-rule="evenodd" d="M72.4832 153.46C72.9638 153.656 73.4921 153.762 74.0295 153.771H74.0289C74.2912 153.791 74.5541 153.739 74.7755 153.622C74.9272 153.519 74.9667 153.342 74.8697 153.201C74.7986 153.057 74.6529 152.947 74.4718 152.899C73.7842 152.708 72.5376 153.268 72.4905 153.292C72.4498 153.305 72.4235 153.338 72.4242 153.373C72.4256 153.408 72.4476 153.44 72.4832 153.46ZM72.8102 153.374C72.8091 153.374 72.8079 153.374 72.8068 153.373V153.376C72.8079 153.376 72.8091 153.375 72.8102 153.374ZM74.6237 153.481C74.3596 153.66 73.3986 153.57 72.8102 153.374C73.282 153.15 73.8265 153.049 74.3711 153.084C74.4869 153.116 74.5795 153.188 74.6237 153.28C74.7119 153.4 74.6648 153.448 74.6237 153.481Z" fill="#7F47FA"/>
<path d="M72.8362 152.842L70.0141 148.763C69.9181 148.617 69.7044 148.552 69.5141 148.61L65.3453 149.912C65.1295 149.99 64.9656 150.14 64.8958 150.323C64.8259 150.507 64.8568 150.706 64.9806 150.87C65.9978 152.277 66.568 152.914 67.8087 154.7C68.5732 155.801 69.7489 158.21 70.6546 159.794C71.5604 161.379 73.4767 160.752 73.2712 160.033C72.5796 157.927 72.483 155.72 72.9887 153.579C73.0454 153.327 72.9915 153.066 72.8362 152.842Z" fill="#263238"/>
<path fill-rule="evenodd" clip-rule="evenodd" d="M110.686 168.762C111.208 168.849 111.74 168.897 112.273 168.905C112.703 168.938 113.135 168.852 113.498 168.661C113.668 168.543 113.756 168.364 113.733 168.183C113.729 168.074 113.655 167.976 113.539 167.924C112.943 167.627 110.95 168.458 110.67 168.575C110.665 168.577 110.661 168.578 110.658 168.58C110.611 168.598 110.584 168.639 110.592 168.68C110.6 168.721 110.637 168.753 110.686 168.762ZM113.355 168.508C113.037 168.731 112.208 168.772 111.097 168.623L111.086 168.62C111.926 168.295 113.085 167.941 113.432 168.089C113.477 168.112 113.504 168.153 113.502 168.197C113.517 168.314 113.463 168.43 113.355 168.508Z" fill="#7F47FA"/>
<path fill-rule="evenodd" clip-rule="evenodd" d="M110.639 168.762C110.661 168.768 110.686 168.768 110.709 168.762L110.71 168.763C110.719 168.766 110.729 168.767 110.739 168.768C111.375 168.548 112.597 167.672 112.502 167.193C112.479 167.081 112.385 166.947 112.062 166.923H111.961C110.833 166.923 110.591 168.599 110.591 168.675C110.585 168.709 110.603 168.743 110.639 168.762ZM110.863 168.489C110.952 168.053 111.239 167.096 111.969 167.096L112.039 167.098C112.268 167.119 112.268 167.206 112.268 167.206C112.322 167.489 111.493 168.182 110.863 168.489Z" fill="#7F47FA"/>
<path d="M110.397 168.187H104.729C104.526 168.187 104.352 168.307 104.318 168.47L103.559 172.118C103.529 172.303 103.598 172.489 103.749 172.63C103.9 172.77 104.118 172.85 104.347 172.851C106.323 172.822 107.287 172.726 109.768 172.726C111.297 172.726 114.472 172.855 116.583 172.855C118.695 172.855 118.865 171.155 117.988 170.997C114.06 170.308 112.532 169.35 111.232 168.441C110.999 168.279 110.704 168.189 110.397 168.187Z" fill="#263238"/>
<path opacity="0.2" d="M111.579 159.354L110.744 164.591L105.764 163.912L106.534 159.048L111.579 159.354Z" fill="black"/>
<path opacity="0.2" d="M77.4338 144.827L80.856 147.92L76.9047 150.142L73.3592 147.118L77.4338 144.827Z" fill="black"/>
<path d="M102.5 75.5185L122.892 77.7495C130.8 54.4377 128.466 53.8103 128.466 53.8103C126.937 53.228 125.367 52.7231 123.762 52.2985L123.485 52.2267C122.168 51.9028 121.894 51.858 120.133 51.5324C117.117 51.0967 114.318 50.7614 110.861 50.5222C110.643 50.5222 110.42 50.4887 110.202 50.479C109.579 50.4455 108.962 50.4218 108.362 50.4023H105.198C104.403 50.4169 103.652 50.7035 103.129 51.1918C102.607 51.6802 102.361 52.3252 102.452 52.9686C104.199 65.2114 103.647 69.2462 102.5 75.5185Z" fill="url(#paint5_linear_170_2236)"/>
<path opacity="0.2" d="M123.48 59.0805C123.621 60.1604 126.691 62.1397 127.755 61.6085C128.061 60.3126 128.285 59.2144 128.443 58.3338C126.902 58.2388 123.886 56.8555 123.48 59.0805Z" fill="black"/>
<path d="M120.17 53.6236C120.023 49.7934 131.424 54.0113 134.041 54.9643L131.124 61.3845C131.124 61.3845 127.308 61.2765 124.88 60.1351C122.074 58.7401 120.308 56.2979 120.17 53.6236Z" fill="url(#paint6_linear_170_2236)"/>
<path d="M112.311 38.3027C112.688 42.3521 112.74 44.0718 115.316 46.1786C119.179 49.3436 125.262 48.2227 126.394 44.1965C127.411 40.572 126.623 34.5583 121.69 32.8927C119.535 32.1069 117.031 32.3067 115.104 33.4181C113.178 34.5294 112.116 36.3868 112.311 38.3027Z" fill="#B55B52"/>
<path d="M112.743 34.027C107.745 33.0071 107.586 36.4211 107.692 38.2212C107.799 40.0213 104.123 40.883 104.123 43.1383C104.123 46.0781 106.846 47.8302 100.225 48.7211C94.621 49.4727 92.8923 55.1753 101.183 58.5121C110.361 62.1987 124.209 57.0089 122.527 52.0724C119.952 44.4551 124.579 44.4789 124.067 40.2178C123.685 37.1246 127.284 36.9718 125.99 34.391C124.285 31.0154 112.308 28.0517 112.743 34.027Z" fill="#263238"/>
<path d="M106.958 39.7389C106.27 36.7898 106.646 34.8363 108.075 33.9217C109.916 32.7393 112.744 33.7635 112.861 33.8067L112.62 34.2424C112.62 34.2424 109.991 33.2846 108.433 34.2964C107.193 35.096 106.893 36.8962 107.533 39.6492L106.958 39.7389Z" fill="#263238"/>
<path d="M101.306 47.8782C100.016 47.8451 98.7417 47.6346 97.5374 47.2557L97.7549 46.8103C97.796 46.8103 101.759 48.0937 103.594 46.8535C104.488 46.2504 104.741 45.1203 104.353 43.5021L104.941 43.4114C105.376 45.2261 105.052 46.5138 103.983 47.2417C103.209 47.7008 102.263 47.9259 101.307 47.8782H101.306Z" fill="#263238"/>
<path d="M122.71 39.9338C122.663 40.6895 122.903 41.4387 123.398 42.0789C124.081 42.9838 125.004 42.8164 125.303 42.0503C125.603 41.2841 125.55 40.0526 124.627 39.3976C123.704 38.7427 122.804 39.0974 122.71 39.9338Z" fill="#B55B52"/>
<path d="M117.524 77.161C117.524 77.161 109.597 104.451 105.893 120.103C101.989 136.636 78.8451 150.123 78.8451 150.123L73.7646 145.867C73.7646 145.867 88.6648 135.248 92.4921 119.811C100.259 88.4794 95.0025 82.1693 102.488 75.5191L117.524 77.161Z" fill="#263238"/>
<path d="M79.2799 150.733L72.9354 145.419L74.7172 143.858L82.0847 149.139L79.2799 150.733Z" fill="#7F47FA"/>
<path opacity="0.2" d="M113.315 83.0883C107.153 87.4455 107.817 102.904 108.464 109.872C111.045 99.9658 114.156 88.9346 115.978 82.5517C115.325 82.1591 114.442 82.2887 113.315 83.0883Z" fill="black"/>
<path d="M122.61 77.7636C122.61 77.7636 126.174 110.144 124.227 122.496C122.205 135.342 111.879 163.293 111.879 163.293L104.664 162.533C104.664 162.533 110.545 134.83 111.62 122.113C112.761 108.229 107.687 76.1503 107.687 76.1503L122.61 77.7636Z" fill="#263238"/>
<path d="M113.455 163.634L103.094 162.542L103.253 160.052L114.495 160.938L113.455 163.634Z" fill="#7F47FA"/>
<path d="M102.312 74.5181L101.198 75.8922C101.115 76.0002 101.268 76.1363 101.503 76.1622L122.894 78.5227C123.077 78.5227 123.241 78.4844 123.265 78.3937L123.642 76.9575C123.671 76.8571 123.518 76.7518 123.318 76.7275L102.65 74.4722C102.535 74.4405 102.409 74.4586 102.315 74.5203L102.312 74.5181Z" fill="#7F47FA"/>
<path opacity="0.3" d="M102.312 74.5181L101.198 75.8922C101.115 76.0002 101.268 76.1363 101.503 76.1622L122.894 78.5227C123.077 78.5227 123.241 78.4844 123.265 78.3937L123.642 76.9575C123.671 76.8571 123.518 76.7518 123.318 76.7275L102.65 74.4722C102.535 74.4405 102.409 74.4586 102.315 74.5203L102.312 74.5181Z" fill="url(#paint7_linear_170_2236)"/>
<path d="M104.852 76.6864L104.299 76.6292C104.187 76.6292 104.11 76.5622 104.128 76.5044L104.634 74.6147C104.634 74.5607 104.752 74.5283 104.864 74.538L105.417 74.6001C105.528 74.6001 105.605 74.6671 105.593 74.72L105.082 76.6097C105.069 76.6675 104.964 76.701 104.852 76.6864Z" fill="#263238"/>
<path d="M118.834 78.2431L118.281 78.181C118.17 78.181 118.093 78.114 118.105 78.0611L118.616 76.1714C118.616 76.1174 118.733 76.0807 118.846 76.0947L119.399 76.152C119.51 76.152 119.587 76.2189 119.569 76.2767L119.063 78.1664C119.046 78.2193 118.946 78.2571 118.834 78.2431Z" fill="#263238"/>
<defs>
<linearGradient id="paint0_linear_170_2236" x1="170.736" y1="29.8856" x2="170.736" y2="39.8543" gradientUnits="userSpaceOnUse">
<stop stop-color="#FFA247"/>
<stop offset="1" stop-color="#FC6E27"/>
</linearGradient>
<linearGradient id="paint1_linear_170_2236" x1="0" y1="0" x2="0" y2="10.7655" gradientUnits="userSpaceOnUse">
<stop stop-color="#208DFE"/>
<stop offset="1" stop-color="#3A56FF"/>
</linearGradient>
<linearGradient id="paint2_linear_170_2236" x1="165.956" y1="100.765" x2="165.956" y2="110.734" gradientUnits="userSpaceOnUse">
<stop stop-color="#FE6587"/>
<stop offset="1" stop-color="#F52D6A"/>
</linearGradient>
<linearGradient id="paint3_linear_170_2236" x1="155.22" y1="65.3251" x2="155.22" y2="75.2938" gradientUnits="userSpaceOnUse">
<stop stop-color="#AA6FFE"/>
<stop offset="1" stop-color="#7F47FA"/>
</linearGradient>
<linearGradient id="paint4_linear_170_2236" x1="96.076" y1="50.4261" x2="96.076" y2="61.4417" gradientUnits="userSpaceOnUse">
<stop stop-color="#FE6587"/>
<stop offset="1" stop-color="#F52D6A"/>
</linearGradient>
<linearGradient id="paint5_linear_170_2236" x1="102.434" y1="50.4023" x2="102.434" y2="77.7495" gradientUnits="userSpaceOnUse">
<stop stop-color="#FE6587"/>
<stop offset="1" stop-color="#F52D6A"/>
</linearGradient>
<linearGradient id="paint6_linear_170_2236" x1="120.168" y1="52.0439" x2="120.168" y2="61.3845" gradientUnits="userSpaceOnUse">
<stop stop-color="#FE6587"/>
<stop offset="1" stop-color="#F52D6A"/>
</linearGradient>
<linearGradient id="paint7_linear_170_2236" x1="101.175" y1="74.4569" x2="101.175" y2="78.5227" gradientUnits="userSpaceOnUse">
<stop stop-color="#FE6587"/>
<stop offset="1" stop-color="#F52D6A"/>
</linearGradient>
</defs>
</svg>
