<svg width="106" height="221" viewBox="0 0 106 221" fill="none" xmlns="http://www.w3.org/2000/svg">
<path d="M93.137 0.344512L77.5894 0.268431C75.4585 0.310613 73.7632 2.06857 73.7984 4.19961V7.0156C73.8172 8.03967 73.4283 9.02924 72.7173 9.76652C72.0063 10.5038 71.0315 10.9284 70.0074 10.9468L39.7092 10.8066C37.5782 10.7472 35.897 8.97463 35.9502 6.84342V4.02042C36.0035 1.8892 34.3223 0.116681 32.1912 0.057207H26.7244L13.121 0.00014639C6.36506 -0.0325536 0.861548 5.41718 0.827905 12.1731L2.56715e-05 208.371C-0.00661801 211.617 1.2765 214.732 3.56699 217.031C5.85748 219.33 8.96764 220.625 12.213 220.63L92.23 221C95.4741 221.015 98.5913 219.74 100.895 217.457C103.199 215.173 104.502 212.067 104.515 208.823L105.337 12.6536C105.36 9.40023 104.085 6.27189 101.795 3.96096C99.505 1.65003 96.3884 0.347086 93.135 0.340508L93.137 0.344512Z" fill="#FAFAFA"/>
</svg>
