<svg width="294" height="203" viewBox="0 0 294 203" fill="none" xmlns="http://www.w3.org/2000/svg">
<rect y="178.393" width="293.667" height="0.136584" fill="#EBEBEB"/>
<rect x="30.812" y="183.581" width="12.4572" height="0.136584" fill="#EBEBEB"/>
<rect x="100.517" y="182.104" width="49.9057" height="0.136584" fill="#EBEBEB"/>
<rect x="39.7447" y="188.643" width="22.3837" height="0.136584" fill="#EBEBEB"/>
<rect x="238.875" y="187.727" width="25.3668" height="0.136584" fill="#EBEBEB"/>
<rect x="229.924" y="187.727" width="7.0307" height="0.136584" fill="#EBEBEB"/>
<rect x="204.328" y="185.428" width="13.509" height="0.136584" fill="#EBEBEB"/>
<rect x="169.088" y="185.428" width="28.4507" height="0.136584" fill="#EBEBEB"/>
<path fill-rule="evenodd" clip-rule="evenodd" d="M25.7902 154.092H139.199C141.051 154.092 142.552 152.699 142.552 150.981V3.11101C142.552 1.39284 141.051 0 139.199 0H25.7902C23.9515 0.00263083 22.458 1.37829 22.442 3.08397V150.981C22.442 152.697 23.9402 154.089 25.7902 154.092ZM22.5892 3.0841C22.5892 1.4431 24.0214 0.111944 25.7902 0.108894H139.199C140.969 0.111937 142.403 1.4422 142.406 3.0841V150.981C142.403 152.623 140.969 153.953 139.199 153.956H25.7902C24.0214 153.953 22.5892 152.622 22.5892 150.981V3.0841Z" fill="#EBEBEB"/>
<path fill-rule="evenodd" clip-rule="evenodd" d="M152.83 154.092H266.247C268.094 154.086 269.589 152.695 269.589 150.981V3.08397C269.573 1.38044 268.083 0.00565589 266.247 0H152.83C150.991 0.00293482 149.496 1.37764 149.477 3.08397V150.981C149.48 152.697 150.979 154.088 152.83 154.092ZM149.623 3.0841C149.626 1.4422 151.06 0.111937 152.83 0.108894H266.247C268.016 0.111937 269.45 1.4422 269.454 3.0841V150.981C269.45 152.623 268.016 153.953 266.247 153.956H152.83C151.06 153.953 149.626 152.623 149.623 150.981V3.0841Z" fill="#EBEBEB"/>
<rect x="53.1128" y="178.393" width="9.04486" height="64.579" transform="rotate(180 53.1128 178.393)" fill="#F0F0F0"/>
<rect x="53.1128" y="113.814" width="79.1671" height="64.579" fill="#F5F5F5"/>
<rect x="63.4908" y="138.187" width="69.5049" height="34.54" fill="#FAFAFA"/>
<rect x="63.4908" y="123.148" width="69.5049" height="11.3718" fill="#FAFAFA"/>
<rect opacity="0.7" x="63.4908" y="172.727" width="0.622596" height="34.54" transform="rotate(180 63.4908 172.727)" fill="#E6E6E6"/>
<rect opacity="0.7" x="63.4908" y="134.52" width="0.622596" height="11.3718" transform="rotate(180 63.4908 134.52)" fill="#E6E6E6"/>
<rect opacity="0.7" x="132.473" y="117.999" width="88.4113" height="1.46057" transform="rotate(180 132.473 117.999)" fill="#E6E6E6"/>
<rect x="53.1128" y="117.155" width="10.102" height="4.22256" transform="rotate(180 53.1128 117.155)" fill="#F0F0F0"/>
<rect x="53.1128" y="112.931" width="80.2242" height="4.22256" fill="#F5F5F5"/>
<path d="M76.8529 100.53C76.3478 99.8621 76.0529 99.0773 76.0011 98.263C75.9242 97.4396 76.0017 96.6101 76.2303 95.8113C76.6915 94.2315 77.5127 92.7618 78.6385 91.5015C79.1889 90.8874 79.7772 90.3033 80.4003 89.7522C80.7315 89.4959 81.0461 89.2348 81.3812 88.9841C81.7037 88.7275 82.0409 88.4874 82.3913 88.2645C83.0847 87.8184 83.8023 87.4056 84.5413 87.0276C85.3049 86.6786 86.0567 86.3358 86.8555 86.058C86.268 86.6682 85.6805 87.2022 85.0936 87.7416C84.5068 88.2811 83.9485 88.8317 83.361 89.3761C82.7735 89.9205 82.2569 90.4662 81.6932 91.0106C81.417 91.2779 81.1706 91.5556 80.9123 91.8444C80.6403 92.1081 80.3853 92.3866 80.1486 92.6782C79.1531 93.782 78.3179 95.002 77.6642 96.3072C77.3429 96.9427 77.1005 97.6099 76.9416 98.2962C76.7645 99.0296 76.7346 99.787 76.8535 100.53L76.8529 100.53Z" fill="#E6E6E6"/>
<path d="M63.1267 98.247C63.3782 97.5985 63.5073 96.9147 63.5082 96.2255C63.5066 95.9063 63.4812 95.5877 63.432 95.2718C63.3622 94.9685 63.2699 94.67 63.1558 94.3784C62.6265 93.2185 61.8238 92.1833 60.8065 91.3491C60.5601 91.1205 60.2661 90.9239 60.0018 90.7064C59.7389 90.4785 59.4582 90.269 59.1619 90.0796C58.5745 89.6981 58.0168 89.2458 57.4001 88.8919C57.0948 88.7014 56.8126 88.5103 56.4782 88.3088C56.1437 88.1072 55.8907 87.9002 55.5383 87.7201C54.8837 87.3361 54.2506 86.9214 53.6414 86.4777C54.4147 86.5846 55.1812 86.73 55.9377 86.9133C56.3184 86.995 56.6915 87.1043 57.0537 87.2402C57.418 87.3711 57.7823 87.502 58.1459 87.6433L58.6924 87.8559C58.8685 87.9321 59.0388 88.0304 59.2149 88.1177C59.5613 88.2922 59.9024 88.4827 60.2488 88.6627C60.595 88.8532 60.9249 89.0681 61.2357 89.3054C61.547 89.5451 61.8762 89.7577 62.1696 90.025C63.4443 91.0776 64.3178 92.4845 64.66 94.0355C64.7055 94.2307 64.7277 94.43 64.7262 94.6297C64.7262 94.8312 64.7262 95.0328 64.7262 95.2288C64.6884 95.62 64.6017 96.0058 64.4679 96.3785C64.2167 97.1046 63.7531 97.7517 63.1287 98.2476L63.1267 98.247Z" fill="#E6E6E6"/>
<path d="M63.7551 98.247C64.0692 96.8024 64.1069 95.3178 63.8664 93.861C63.6255 92.4835 63.122 91.1569 62.3795 89.9433L61.792 89.0443C61.5747 88.7555 61.3283 88.4993 61.1104 88.1945L60.77 87.7589L60.3766 87.3613C60.1183 87.094 59.8599 86.8163 59.6069 86.5385C59.0545 86.0212 58.4737 85.5142 57.9094 84.9692C57.345 84.4242 56.6933 83.9664 56.1124 83.3888C56.9111 83.6337 57.6953 83.9173 58.4617 84.2386C59.2061 84.6137 59.9276 85.0266 60.623 85.4755C60.9541 85.7262 61.2853 85.9825 61.6098 86.2436L62.0973 86.6356L62.5318 87.0879C62.814 87.3951 63.1193 87.698 63.3716 88.0194L64.0764 89.0547C64.962 90.4921 65.4162 92.1233 65.3918 93.7787C65.3879 95.3943 64.8122 96.9639 63.7532 98.2464L63.7551 98.247Z" fill="#E6E6E6"/>
<path d="M76.1011 99.0544C74.9327 97.6973 73.9465 96.2133 73.1643 94.6353C72.3631 93.0576 71.7165 91.4163 71.2322 89.7313C70.7593 88.0347 70.4875 86.2953 70.4215 84.544C70.3695 82.7852 70.658 81.0321 71.2733 79.3678C71.4376 81.1116 71.6435 82.7627 71.9489 84.4027C72.2542 86.0427 72.6828 87.6722 73.1239 89.3067C73.565 90.9411 74.0809 92.5271 74.5923 94.1449C75.1036 95.7628 75.6196 97.3702 76.1011 99.0544Z" fill="#E6E6E6"/>
<path d="M75.4932 98.7816C74.0972 97.5351 72.8507 96.1521 71.7755 94.6568C70.6872 93.169 69.7306 91.6019 68.9149 89.9709C68.098 88.3288 67.4547 86.6171 66.9941 84.8598C66.5345 83.0936 66.3918 81.2692 66.5715 79.46C67.159 81.1872 67.7465 82.8217 68.4625 84.4402C69.1785 86.0587 69.9196 87.628 70.6886 89.2133C71.4576 90.7986 72.2862 92.3624 73.1028 93.9483C73.9195 95.5342 74.7328 97.1195 75.4932 98.7816Z" fill="#E6E6E6"/>
<path d="M77.8808 100.857C76.2162 99.9269 74.6662 98.8305 73.2583 97.5878C71.843 96.3619 70.535 95.0335 69.3466 93.6153C68.1554 92.1834 67.115 90.6488 66.2396 89.0326C65.3707 87.4048 64.7935 85.6565 64.5307 83.8564C65.5242 85.4147 66.5098 86.8808 67.5729 88.3137C68.6359 89.7467 69.7586 91.1255 70.8912 92.5093C72.0238 93.893 73.2405 95.2338 74.3797 96.6261C75.5189 98.0185 76.7416 99.3967 77.8808 100.857Z" fill="#E6E6E6"/>
<path d="M74.2863 98.4799C72.6812 97.7354 71.1891 96.7974 69.8487 95.6903C68.4975 94.5937 67.266 93.3763 66.1721 92.0558C65.0751 90.7241 64.1469 89.2798 63.4055 87.7515C62.6672 86.2181 62.2221 84.5772 62.0901 82.9022C62.9889 84.3572 63.8122 85.7465 64.7626 87.0762C65.7131 88.4059 66.6834 89.6969 67.6994 90.9559C68.7154 92.2149 69.8136 93.4623 70.9177 94.6992C72.0218 95.9361 73.1703 97.1791 74.2863 98.4799Z" fill="#E6E6E6"/>
<path d="M77.1581 100.001C75.8246 99.1208 74.9476 97.7641 74.7386 96.2581C74.5201 94.7386 74.7856 93.1931 75.5022 91.8118L75.7486 91.2994L76.048 90.8201L76.6765 89.8775C76.9194 89.5871 77.166 89.3038 77.4164 89.0277C77.6579 88.7438 77.9187 88.4746 78.1973 88.2215C78.7539 87.7226 79.3422 87.2549 79.9591 86.8212C80.5888 86.4085 81.2438 86.0302 81.9209 85.6881C81.5283 86.2924 81.1029 86.8779 80.6466 87.4424C80.2121 87.9874 79.8246 88.5865 79.3882 89.126C78.9517 89.6655 78.6304 90.2646 78.2132 90.8152L77.7257 91.6754L77.4674 92.1006L77.2733 92.5418C76.6745 93.6762 76.3251 94.9098 76.2454 96.1708C76.1961 97.4984 76.5091 98.816 77.1554 100.001H77.1581Z" fill="#E6E6E6"/>
<path d="M76.072 98.263C74.8901 97.1943 74.0314 95.8565 73.5817 94.3833C73.0884 92.856 73.064 91.2313 73.5114 89.6919C73.7341 88.9216 74.0806 88.1869 74.5394 87.5124C74.9841 86.8439 75.5256 86.2352 76.1489 85.7035C77.3439 84.6597 78.7863 83.8907 80.36 83.4582C79.2577 84.448 78.2331 85.5096 77.294 86.635C76.8612 87.1715 76.48 87.7423 76.1548 88.3407C75.8296 88.9211 75.5755 89.5335 75.3971 90.1663C75.027 91.4472 74.9214 92.7815 75.0858 94.0988C75.2552 95.5153 75.5858 96.9111 76.072 98.263Z" fill="#E6E6E6"/>
<path d="M73.1995 96.972L64.0076 88.788L64.3779 96.8141L73.1995 96.972Z" fill="#E6E6E6"/>
<path d="M83.2431 96.1001H58.8274L62.0225 112.931H80.0486L83.2431 96.1001Z" fill="#F5F5F5"/>
<path d="M67.9895 96.1001H58.8274L62.0225 112.931H66.8383L67.9895 96.1001Z" fill="#EBEBEB"/>
<rect x="59.2857" y="11.8947" width="49.2831" height="57.474" fill="#F0F0F0"/>
<rect x="61.1766" y="11.8947" width="58.2757" height="57.474" fill="#F5F5F5"/>
<path d="M66.0575 64.8353V16.4171H114.572V64.8353H66.0575Z" fill="white"/>
<path d="M255.748 178.393H180.772L174.122 63.3968H249.098L255.748 178.393Z" fill="#EBEBEB"/>
<path d="M258.038 178.393H183.062L176.412 63.3968H251.388L258.038 178.393Z" fill="#F5F5F5"/>
<path d="M220.439 166.532H213.743L214.013 75.2589H220.709L220.439 166.532Z" fill="white"/>
<path d="M238.147 166.532H231.452L231.728 75.2589H238.417L238.147 166.532Z" fill="white"/>
<path d="M202.725 166.532H196.029L196.305 75.2589H203.001L202.725 166.532Z" fill="white"/>
<ellipse cx="146.833" cy="196.832" rx="113.878" ry="6.16794" fill="#F5F5F5"/>
<path d="M226.409 143.107L227.167 130.278L227.754 130.308L226.995 143.137L226.409 143.107Z" fill="#FAAD44"/>
<path d="M227.424 126.006L227.815 119.396L228.401 119.426L228.01 126.036L227.424 126.006Z" fill="#FAAD44"/>
<path d="M215.434 167.561H146.584C144.479 167.584 142.46 166.792 141.011 165.375C139.562 163.959 138.816 162.046 138.952 160.097L146.881 25.9916C147.186 21.8234 150.894 18.5731 155.397 18.526H224.251C226.351 18.5112 228.363 19.307 229.805 20.7227C231.248 22.1385 231.991 24.0468 231.857 25.991L223.921 160.097C223.619 164.256 219.927 167.504 215.434 167.562V167.561Z" fill="#FAAD44"/>
<path opacity="0.8" d="M211.27 167.561H146.584C144.479 167.584 142.46 166.792 141.011 165.375C139.562 163.959 138.816 162.046 138.952 160.097L146.881 25.9916C147.186 21.8233 150.894 18.573 155.397 18.5259H220.086C222.186 18.5097 224.199 19.305 225.642 20.7211C227.085 22.1372 227.828 24.0464 227.692 25.991L219.763 160.097C219.456 164.256 215.763 167.501 211.27 167.562V167.561Z" fill="white"/>
<path d="M179.214 42.8388H160.636C159.749 42.8453 158.899 42.5088 158.291 41.9103C157.682 41.3117 157.37 40.5051 157.429 39.6842C157.558 37.9296 159.116 36.5601 161.011 36.5351H179.592C180.478 36.5271 181.328 36.8623 181.937 37.46C182.545 38.0577 182.858 38.8638 182.799 39.6842C182.671 41.441 181.112 42.8128 179.214 42.8388Z" fill="white"/>
<path d="M182.796 39.6836C182.578 42.8527 179.759 45.3277 176.336 45.3557C174.738 45.3728 173.206 44.77 172.108 43.6929C171.011 42.6158 170.448 41.1623 170.556 39.6836C170.775 36.5144 173.594 34.0395 177.017 34.0115C178.614 33.9944 180.147 34.5972 181.245 35.6743C182.342 36.7514 182.905 38.2048 182.796 39.6836Z" fill="url(#paint0_linear_130_28)"/>
<path d="M178.022 63.0048H159.444C158.557 63.0112 157.707 62.6747 157.099 62.0762C156.49 61.4777 156.178 60.6711 156.237 59.8501C156.366 58.0956 157.924 56.7261 159.819 56.701H178.396C179.283 56.6931 180.133 57.0283 180.741 57.6262C181.35 58.224 181.663 59.0302 181.603 59.8508C181.475 61.6066 179.918 62.9781 178.021 63.0054L178.022 63.0048Z" fill="white"/>
<ellipse rx="6.06511" ry="5.73134" transform="matrix(0.717143 -0.69742 0.697641 0.716928 167.289 59.8631)" fill="#FAAD44"/>
<ellipse rx="6.06511" ry="5.73134" transform="matrix(0.717143 -0.69742 0.697641 0.716928 167.289 59.8631)" fill="#0CCAD0"/>
<path d="M157.059 103.337H175.611C177.508 103.309 179.066 101.938 179.194 100.182C179.253 99.3606 178.939 98.5536 178.329 97.9557C177.719 97.3579 176.868 97.0234 175.981 97.0329H157.435C155.539 97.0571 153.978 98.4263 153.847 100.182C153.79 101.003 154.104 101.81 154.713 102.408C155.322 103.007 156.173 103.343 157.06 103.337H157.059Z" fill="white"/>
<ellipse rx="6.06511" ry="5.73134" transform="matrix(0.717143 -0.69742 0.697641 0.716928 159.966 100.187)" fill="#FAAD44"/>
<ellipse opacity="0.7" rx="6.06511" ry="5.73134" transform="matrix(0.717143 -0.69742 0.697641 0.716928 159.966 100.187)" fill="url(#paint1_linear_130_28)"/>
<path d="M174.439 123.503H155.866C154.979 123.509 154.129 123.173 153.519 122.574C152.91 121.976 152.596 121.169 152.653 120.348C152.785 118.592 154.345 117.223 156.242 117.199H174.813C175.7 117.189 176.552 117.524 177.162 118.122C177.772 118.72 178.085 119.526 178.026 120.348C177.898 122.106 176.337 123.478 174.437 123.503H174.439Z" fill="white"/>
<path d="M178.027 120.348C177.809 123.517 174.99 125.992 171.567 126.02C169.969 126.037 168.436 125.434 167.337 124.357C166.239 123.281 165.675 121.827 165.781 120.348C166.006 117.181 168.821 114.709 172.242 114.676C173.84 114.657 175.375 115.259 176.473 116.337C177.572 117.414 178.136 118.868 178.027 120.348Z" fill="url(#paint2_linear_130_28)"/>
<path d="M158.251 83.1707H176.828C178.725 83.1434 180.282 81.7719 180.41 80.0161C180.469 79.1947 180.156 78.3877 179.546 77.7898C178.936 77.192 178.085 76.8574 177.197 76.867H158.627C156.731 76.892 155.173 78.2615 155.044 80.0161C154.985 80.837 155.298 81.6436 155.906 82.2421C156.515 82.8407 157.364 83.1771 158.251 83.1707H158.251Z" fill="white"/>
<path d="M155.058 80.0155C154.949 81.4942 155.512 82.9477 156.61 84.0248C157.707 85.1019 159.24 85.7046 160.837 85.6875C164.26 85.6595 167.079 83.1846 167.298 80.0155C167.406 78.5367 166.843 77.0832 165.746 76.0061C164.648 74.9291 163.116 74.3263 161.518 74.3434C158.095 74.3714 155.276 76.8463 155.058 80.0155Z" fill="#FAAD44"/>
<path opacity="0.7" d="M155.058 80.0155C154.949 81.4942 155.512 82.9477 156.61 84.0248C157.707 85.1019 159.24 85.7046 160.837 85.6875C164.26 85.6595 167.079 83.1846 167.298 80.0155C167.406 78.5367 166.843 77.0832 165.746 76.0061C164.648 74.9291 163.116 74.3263 161.518 74.3434C158.095 74.3714 155.276 76.8463 155.058 80.0155Z" fill="url(#paint3_linear_130_28)"/>
<path d="M219.904 38.7416H192.37C192.015 38.7423 191.677 38.6068 191.434 38.3673C191.191 38.1278 191.067 37.8057 191.089 37.4777C191.142 36.7763 191.765 36.2291 192.523 36.2193H220.057C220.41 36.2171 220.749 36.3514 220.992 36.59C221.235 36.8287 221.36 37.1502 221.337 37.4777C221.288 38.1813 220.664 38.7316 219.904 38.7416Z" fill="white"/>
<path d="M210.73 43.1547H192.111C191.756 43.1569 191.416 43.022 191.172 42.7823C190.928 42.5426 190.802 42.2197 190.825 41.8907C190.878 41.1893 191.501 40.6421 192.259 40.6323H210.883C211.237 40.6302 211.576 40.7643 211.82 41.0028C212.064 41.2412 212.19 41.5627 212.169 41.8907C212.117 42.5954 211.491 43.1451 210.73 43.1547Z" fill="white"/>
<path d="M211.657 119.405H187.577C187.223 119.406 186.884 119.27 186.641 119.031C186.399 118.791 186.274 118.469 186.297 118.141C186.346 117.439 186.971 116.89 187.73 116.883H211.781C212.136 116.881 212.475 117.015 212.719 117.253C212.962 117.492 213.089 117.813 213.068 118.141C213.017 118.836 212.408 119.382 211.658 119.405H211.657Z" fill="white"/>
<path d="M199.229 123.813H187.36C187.006 123.816 186.666 123.681 186.422 123.443C186.179 123.205 186.052 122.883 186.073 122.555C186.126 121.854 186.749 121.306 187.507 121.297H199.394C199.749 121.295 200.088 121.429 200.332 121.667C200.575 121.906 200.702 122.227 200.681 122.555C200.628 123.263 199.995 123.812 199.23 123.813H199.229Z" fill="white"/>
<path d="M218.597 60.7976H191.066C190.308 60.8075 189.685 61.3546 189.632 62.0561C189.611 62.3841 189.738 62.7056 189.981 62.944C190.225 63.1825 190.564 63.3166 190.919 63.3145H218.453C219.21 63.3046 219.834 62.7575 219.886 62.0561C219.907 61.728 219.781 61.4066 219.537 61.1681C219.293 60.9296 218.954 60.7955 218.6 60.7976H218.597Z" fill="white"/>
<path d="M209.949 56.3846H191.33C190.573 56.3944 189.949 56.9416 189.897 57.643C189.874 57.971 189.999 58.2931 190.242 58.5326C190.484 58.7721 190.823 58.9076 191.177 58.9069H209.802C210.561 58.8945 211.183 58.3455 211.235 57.643C211.258 57.3145 211.132 56.9921 210.888 56.7533C210.644 56.5144 210.304 56.3808 209.949 56.3846Z" fill="white"/>
<path d="M204.11 79.0759H190.014C189.66 79.0766 189.321 78.9411 189.079 78.7016C188.836 78.462 188.711 78.14 188.734 77.812C188.783 77.1092 189.408 76.5605 190.167 76.5536H204.263C204.62 76.5468 204.965 76.6789 205.212 76.9179C205.46 77.1569 205.589 77.481 205.567 77.812C205.515 78.5229 204.878 79.075 204.11 79.0759Z" fill="white"/>
<path d="M217.521 79.076H209.202C208.846 79.0781 208.506 78.9427 208.262 78.7023C208.018 78.462 207.893 78.1383 207.917 77.8089C207.969 77.1075 208.592 76.5604 209.35 76.5505H217.672C218.026 76.5483 218.365 76.6826 218.608 76.9213C218.85 77.1599 218.975 77.4815 218.953 77.8089C218.902 78.5122 218.28 79.0628 217.521 79.076Z" fill="white"/>
<path d="M208.345 83.4816H189.709C189.355 83.4837 189.016 83.3496 188.772 83.1112C188.528 82.8727 188.402 82.5512 188.423 82.2232C188.475 81.5218 189.098 80.9746 189.856 80.9648H208.504C208.859 80.9627 209.198 81.0968 209.442 81.3353C209.685 81.5737 209.812 81.8952 209.791 82.2232C209.738 82.9286 209.108 83.4772 208.346 83.4816H208.345Z" fill="white"/>
<path d="M185.01 141.506H153.294C152.795 141.516 152.315 141.33 151.972 140.994C151.629 140.657 151.457 140.202 151.497 139.74C151.57 138.757 152.443 137.989 153.506 137.975H185.222C185.72 137.964 186.201 138.15 186.543 138.487C186.886 138.823 187.059 139.279 187.019 139.74C186.948 140.725 186.073 141.494 185.01 141.506H185.01Z" fill="white"/>
<path d="M213.285 141.506H193.82C193.321 141.516 192.841 141.33 192.498 140.994C192.156 140.657 191.983 140.202 192.023 139.74C192.096 138.757 192.97 137.989 194.032 137.975H213.496C213.995 137.964 214.476 138.15 214.818 138.486C215.161 138.823 215.334 139.279 215.294 139.74C215.22 140.724 214.347 141.491 213.285 141.506Z" fill="white"/>
<path d="M177.082 147.662H152.941C152.443 147.673 151.962 147.487 151.62 147.151C151.277 146.814 151.104 146.358 151.144 145.897C151.215 144.912 152.09 144.144 153.153 144.132H177.287C177.786 144.121 178.266 144.307 178.609 144.643C178.952 144.98 179.125 145.436 179.084 145.897C179.014 146.879 178.143 147.647 177.082 147.662Z" fill="white"/>
<path d="M203.291 153.853H152.577C152.078 153.863 151.598 153.677 151.255 153.341C150.912 153.004 150.74 152.549 150.78 152.087C150.85 151.105 151.721 150.337 152.783 150.322H203.499C203.998 150.311 204.478 150.497 204.821 150.833C205.164 151.17 205.337 151.626 205.297 152.087C205.226 153.071 204.353 153.839 203.291 153.853Z" fill="white"/>
<path d="M196.834 101.13H188.681C187.923 101.14 187.3 101.687 187.248 102.389C187.227 102.717 187.353 103.038 187.597 103.276C187.84 103.515 188.18 103.649 188.534 103.647H196.687C197.444 103.637 198.068 103.09 198.12 102.389C198.141 102.06 198.015 101.739 197.771 101.501C197.527 101.262 197.188 101.128 196.834 101.13Z" fill="white"/>
<path d="M211.375 101.13H201.925C201.167 101.14 200.544 101.687 200.492 102.389C200.47 102.717 200.596 103.039 200.84 103.278C201.083 103.517 201.423 103.651 201.777 103.649H211.229C211.987 103.64 212.61 103.092 212.662 102.391C212.685 102.063 212.559 101.74 212.315 101.501C212.071 101.262 211.731 101.129 211.376 101.133L211.375 101.13Z" fill="white"/>
<path d="M207.564 96.7164H188.946C188.187 96.7233 187.562 97.272 187.513 97.9748C187.49 98.3028 187.615 98.6249 187.857 98.8644C188.1 99.1039 188.439 99.2395 188.793 99.2388H207.417C208.176 99.2264 208.799 98.6774 208.851 97.9748C208.872 97.6468 208.745 97.3253 208.502 97.0869C208.258 96.8484 207.919 96.7143 207.564 96.7164Z" fill="white"/>
<path d="M104.546 64.3664C102.625 65.8411 100.638 67.4504 98.8133 69.0633C97.8973 69.875 97.0044 70.6978 96.1759 71.5482C95.3731 72.3471 94.6368 73.2014 93.9736 74.1037L93.8617 74.2561L93.8087 74.3434C93.7604 74.4124 93.7191 74.4854 93.6855 74.5615C93.6033 74.7305 93.5272 74.9431 93.4444 75.1661C93.2879 75.6613 93.1662 76.1654 93.0801 76.6752C92.8969 77.8129 92.7792 78.9589 92.7277 80.1082C92.6045 82.4622 92.6045 84.9194 92.6516 87.3226L89.9029 87.7042C89.2145 85.2392 88.7431 82.7264 88.4934 80.1906C88.3622 78.8738 88.3288 77.5502 88.3934 76.2291C88.4401 75.5156 88.5381 74.8058 88.6868 74.1043C88.7688 73.7084 88.8806 73.3183 89.0213 72.9369C89.1094 72.7243 89.1743 72.5283 89.2915 72.3046L89.4558 71.9777C89.5147 71.8794 89.5558 71.8198 89.6028 71.7319C90.3218 70.5264 91.1614 69.3863 92.1104 68.3266C92.9901 67.3095 93.9253 66.3347 94.9121 65.4061C96.8452 63.5701 98.9095 61.8572 101.091 60.279L104.546 64.3664Z" fill="#B55B52"/>
<path d="M103.518 57.8329C100.511 59.4673 95.9672 63.7176 95.9672 63.7176L101.541 69.9236C101.541 69.9236 109.452 65.521 110.416 63.0963C112.022 59.0157 106.361 56.2679 103.518 57.8329Z" fill="url(#paint4_linear_130_28)"/>
<path d="M92.5291 86.4015L93.2106 90.0882L89.5161 89.5924C89.5161 89.5924 88.7584 87.086 90.6911 86.2251L92.5291 86.4015Z" fill="#B55B52"/>
<path d="M91.8475 92.3347L88.5232 91.3756L89.5168 89.5936L93.2113 90.0895L91.8475 92.3347Z" fill="#B55B52"/>
<path d="M125.878 44.8002C125.878 45.1763 126.101 45.481 126.371 45.4866C126.641 45.4921 126.847 45.1867 126.841 44.8162C126.835 44.4457 126.617 44.1354 126.347 44.1298C126.077 44.1243 125.872 44.4297 125.878 44.8002Z" fill="#263238"/>
<path d="M126.23 44.1358L127.211 43.8897C127.211 43.8897 126.718 44.5979 126.23 44.1358Z" fill="#263238"/>
<path d="M126.224 45.1707C126.602 46.0338 127.104 46.8457 127.716 47.5843C127.291 47.8531 126.761 47.9366 126.265 47.8129L126.224 45.1707Z" fill="#A02724"/>
<path d="M126.389 42.3098C126.351 42.3204 126.31 42.3204 126.272 42.3098C125.685 42.1111 125.032 42.1818 124.51 42.5003C124.46 42.5366 124.396 42.5524 124.333 42.5442C124.27 42.536 124.213 42.5044 124.175 42.4567C124.097 42.3586 124.118 42.2206 124.223 42.1464C124.868 41.7479 125.677 41.6531 126.408 41.8901C126.532 41.929 126.6 42.0521 126.561 42.1679C126.532 42.2381 126.468 42.291 126.389 42.3098Z" fill="#263238"/>
<path d="M113.908 48.7991C114.178 51.6164 113.162 56.234 110.871 57.8003C110.871 57.8003 112.598 60.7644 118.13 61.4563C124.224 62.214 121.361 59.0372 121.361 59.0372C118.124 57.8931 118.465 55.6319 119.287 53.5882L113.908 48.7991Z" fill="#B55B52"/>
<path d="M124.721 61.2278C127.616 61.9577 130.658 62.6607 133.642 63.2874C135.146 63.5873 136.649 63.8325 138.153 64.1317C139.656 64.4309 141.166 64.6233 142.663 64.8021L143.251 64.8727L143.638 64.9108H144.519C145.202 64.8667 145.881 64.7811 146.551 64.6546C148.006 64.3762 149.443 64.0252 150.856 63.6033C153.752 62.7639 156.689 61.7507 159.561 60.7042L160.865 62.9777C158.158 64.6214 155.316 66.0661 152.367 67.2986C150.841 67.9383 149.271 68.4843 147.668 68.9331C146.811 69.1692 145.938 69.3512 145.054 69.4781C144.567 69.5396 144.077 69.5778 143.586 69.5924H142.787L142.2 69.5488C138.965 69.341 135.748 68.9443 132.567 68.361C129.396 67.8129 126.259 67.1071 123.17 66.2467L124.721 61.2278Z" fill="#B55B52"/>
<path d="M158.798 61.6259L159.65 58.9506L162.78 60.0406C162.78 60.0406 162.063 64.0616 159.379 62.9501L158.798 61.6259Z" fill="#B55B52"/>
<path d="M161.464 57.1742L164.659 57.5066L162.78 60.04L159.65 58.95L161.464 57.1742Z" fill="#B55B52"/>
<path d="M104.921 191.727L109.955 192.07L111.453 181.346L106.419 181.003L104.921 191.727Z" fill="#B55B52"/>
<path d="M67.802 170.939L71.2203 174.459L80.7706 168.335L77.3522 164.82L67.802 170.939Z" fill="#B55B52"/>
<path fill-rule="evenodd" clip-rule="evenodd" d="M73.5704 176.453C73.6309 176.461 73.6921 176.461 73.7526 176.453L73.7513 176.456C73.9137 176.461 74.0732 176.415 74.2036 176.325C74.3208 176.248 74.3856 176.12 74.3739 175.987C74.3222 175.388 72.7015 174.571 72.5193 174.484C72.4782 174.462 72.4275 174.466 72.3904 174.493C72.3534 174.52 72.3371 174.564 72.3491 174.606C72.5425 175.217 72.9829 176.269 73.5704 176.453ZM73.6465 176.214C73.3174 176.116 72.959 175.587 72.6656 174.781L72.665 174.778C73.3054 175.124 74.1095 175.658 74.14 175.974C74.1421 176.033 74.111 176.089 74.0579 176.121C73.9479 176.217 73.7917 176.252 73.6465 176.214Z" fill="#7F47FA"/>
<path fill-rule="evenodd" clip-rule="evenodd" d="M72.4012 174.645C72.8813 174.868 73.409 174.989 73.9458 174.998H73.9451C74.2071 175.021 74.4698 174.962 74.6909 174.83C74.8424 174.712 74.8819 174.51 74.785 174.35C74.714 174.187 74.5684 174.061 74.3876 174.007C73.7007 173.789 72.4555 174.426 72.4085 174.453C72.3679 174.469 72.3415 174.506 72.3423 174.546C72.3437 174.586 72.3656 174.623 72.4012 174.645ZM72.7278 174.548C72.7266 174.548 72.7255 174.547 72.7244 174.547V174.55C72.7255 174.549 72.7266 174.549 72.7278 174.548ZM74.5392 174.67C74.2754 174.874 73.3155 174.771 72.7278 174.548C73.199 174.293 73.743 174.177 74.2869 174.217C74.4026 174.253 74.4951 174.335 74.5392 174.441C74.6273 174.577 74.5803 174.632 74.5392 174.67Z" fill="#7F47FA"/>
<path d="M72.7536 173.942L69.9347 169.299C69.8388 169.133 69.6253 169.059 69.4353 169.125L65.2711 170.607C65.0556 170.696 64.8919 170.866 64.8221 171.075C64.7523 171.284 64.7832 171.511 64.9069 171.697C65.9229 173.299 66.4925 174.023 67.7317 176.056C68.4954 177.309 69.6697 180.05 70.5745 181.853C71.4792 183.657 73.3934 182.943 73.188 182.126C72.4972 179.728 72.4008 177.217 72.9059 174.78C72.9625 174.493 72.9086 174.196 72.7536 173.942Z" fill="#263238"/>
<path fill-rule="evenodd" clip-rule="evenodd" d="M110.561 192.059C111.083 192.158 111.613 192.213 112.146 192.222C112.576 192.26 113.007 192.162 113.37 191.945C113.54 191.81 113.627 191.606 113.605 191.4C113.6 191.277 113.527 191.165 113.411 191.105C112.815 190.767 110.825 191.713 110.545 191.846C110.54 191.848 110.536 191.85 110.533 191.852C110.486 191.872 110.459 191.919 110.466 191.966C110.475 192.012 110.512 192.049 110.561 192.059ZM113.227 191.771C112.909 192.025 112.081 192.071 110.971 191.902L110.96 191.899C111.8 191.528 112.957 191.124 113.303 191.293C113.349 191.319 113.376 191.367 113.374 191.416C113.389 191.55 113.334 191.682 113.227 191.771Z" fill="#7F47FA"/>
<path fill-rule="evenodd" clip-rule="evenodd" d="M110.514 192.059C110.536 192.066 110.561 192.066 110.584 192.059L110.584 192.06C110.594 192.064 110.604 192.065 110.614 192.066C111.249 191.816 112.469 190.818 112.375 190.273C112.352 190.146 112.258 189.993 111.935 189.966H111.835C110.708 189.966 110.466 191.873 110.466 191.961C110.46 191.999 110.478 192.038 110.514 192.059ZM110.738 191.749C110.826 191.252 111.114 190.163 111.842 190.163L111.912 190.165C112.141 190.19 112.141 190.288 112.141 190.288C112.195 190.61 111.367 191.4 110.738 191.749Z" fill="#7F47FA"/>
<path d="M110.272 191.405H104.611C104.408 191.405 104.234 191.541 104.199 191.726L103.442 195.878C103.412 196.089 103.481 196.301 103.632 196.461C103.782 196.62 104 196.712 104.229 196.712C106.202 196.68 107.165 196.57 109.644 196.57C111.171 196.57 114.342 196.717 116.451 196.717C118.56 196.717 118.73 194.783 117.855 194.603C113.931 193.818 112.404 192.729 111.106 191.693C110.874 191.509 110.578 191.407 110.272 191.405Z" fill="#263238"/>
<path opacity="0.2" d="M111.453 181.353L110.619 187.313L105.644 186.54L106.414 181.004L111.453 181.353Z" fill="black"/>
<path opacity="0.2" d="M77.3464 164.821L80.7647 168.34L76.8178 170.869L73.2763 167.428L77.3464 164.821Z" fill="black"/>
<path d="M102.384 85.9437L122.753 88.4827C130.652 61.9528 128.32 61.2388 128.32 61.2388C126.794 60.5761 125.225 60.0015 123.622 59.5183L123.346 59.4366C122.03 59.0679 121.756 59.0169 119.997 58.6464C116.984 58.1505 114.189 57.769 110.735 57.4968C110.518 57.4968 110.295 57.4587 110.078 57.4476C109.455 57.4095 108.838 57.3825 108.239 57.3604H105.079C104.285 57.3769 103.534 57.7031 103.013 58.2588C102.491 58.8146 102.245 59.5486 102.336 60.2809C104.081 74.2137 103.53 78.8056 102.384 85.9437Z" fill="url(#paint5_linear_130_28)"/>
<path opacity="0.2" d="M123.34 67.2366C123.481 68.4655 126.547 70.7181 127.61 70.1134C127.916 68.6387 128.14 67.3889 128.298 66.3868C126.759 66.2786 123.746 64.7044 123.34 67.2366Z" fill="black"/>
<path d="M120.034 61.0262C119.887 56.6672 131.276 61.4674 133.889 62.5519L130.976 69.8584C130.976 69.8584 127.164 69.7355 124.738 68.4366C121.936 66.849 120.172 64.0697 120.034 61.0262Z" fill="url(#paint6_linear_130_28)"/>
<path d="M112.184 43.5903C112.56 48.1988 112.612 50.1558 115.185 52.5534C119.044 56.1554 125.12 54.8798 126.251 50.2977C127.267 46.1729 126.48 39.329 121.552 37.4334C119.4 36.5392 116.898 36.7666 114.974 38.0313C113.049 39.2961 111.988 41.41 112.184 43.5903Z" fill="#B55B52"/>
<path d="M112.616 38.7244C107.624 37.5637 107.465 41.4489 107.571 43.4975C107.677 45.5462 104.005 46.5268 104.005 49.0934C104.005 52.4392 106.725 54.4331 100.111 55.4469C94.5141 56.3023 92.7874 62.7922 101.069 66.5895C110.237 70.785 124.069 64.8789 122.389 59.2609C119.816 50.5921 124.438 50.6191 123.927 45.7698C123.546 42.2496 127.14 42.0757 125.848 39.1386C124.145 35.297 112.181 31.9242 112.616 38.7244Z" fill="#263238"/>
<path d="M106.837 45.2248C106.149 41.8686 106.526 39.6455 107.953 38.6046C109.792 37.2589 112.616 38.4246 112.734 38.4737L112.493 38.9696C112.493 38.9696 109.867 37.8795 108.311 39.031C107.071 39.9411 106.772 41.9897 107.412 45.1228L106.837 45.2248Z" fill="#263238"/>
<path d="M101.192 54.4877C99.9028 54.45 98.63 54.2105 97.4271 53.7793L97.6443 53.2723C97.6854 53.2723 101.644 54.7329 103.477 53.3215C104.37 52.6351 104.622 51.3491 104.235 49.5076L104.822 49.4043C105.257 51.4695 104.933 52.935 103.865 53.7633C103.092 54.2858 102.147 54.542 101.192 54.4877H101.192Z" fill="#263238"/>
<path d="M122.571 45.4466C122.524 46.3067 122.764 47.1593 123.259 47.8879C123.94 48.9177 124.862 48.7272 125.162 47.8553C125.461 46.9834 125.408 45.5818 124.486 44.8365C123.564 44.0911 122.665 44.4948 122.571 45.4466Z" fill="#B55B52"/>
<path d="M117.39 87.8129C117.39 87.8129 109.473 118.871 105.773 136.683C101.873 155.498 78.7557 170.847 78.7557 170.847L73.6809 166.003C73.6809 166.003 88.5642 153.918 92.3872 136.351C100.146 100.694 94.8948 93.5126 102.372 85.9443L117.39 87.8129Z" fill="#263238"/>
<path d="M79.1902 171.542L72.8529 165.493L74.6326 163.717L81.9919 169.727L79.1902 171.542Z" fill="#7F47FA"/>
<path opacity="0.2" d="M113.187 94.5585C107.032 99.5171 107.695 117.109 108.341 125.039C110.92 113.766 114.027 101.212 115.847 93.9477C115.194 93.501 114.313 93.6484 113.187 94.5585Z" fill="black"/>
<path d="M122.471 88.4987C122.471 88.4987 126.031 125.349 124.087 139.407C122.067 154.026 111.753 185.836 111.753 185.836L104.546 184.97C104.546 184.97 110.419 153.443 111.494 138.971C112.633 123.17 107.565 86.6627 107.565 86.6627L122.471 88.4987Z" fill="#263238"/>
<path d="M113.326 186.223L102.977 184.98L103.136 182.147L114.366 183.155L113.326 186.223Z" fill="#7F47FA"/>
<path d="M102.196 84.8051L101.083 86.3689C101.001 86.4918 101.153 86.6467 101.388 86.6762L122.755 89.3626C122.938 89.3626 123.102 89.319 123.126 89.2157L123.502 87.5813C123.531 87.467 123.379 87.3472 123.179 87.3195L102.534 84.7529C102.419 84.7168 102.293 84.7374 102.199 84.8076L102.196 84.8051Z" fill="#7F47FA"/>
<path opacity="0.3" d="M102.196 84.8051L101.083 86.3689C101.001 86.4918 101.153 86.6467 101.388 86.6762L122.755 89.3626C122.938 89.3626 123.102 89.319 123.126 89.2157L123.502 87.5813C123.531 87.467 123.379 87.3472 123.179 87.3195L102.534 84.7529C102.419 84.7168 102.293 84.7374 102.199 84.8076L102.196 84.8051Z" fill="url(#paint7_linear_130_28)"/>
<path d="M104.733 87.2728L104.181 87.2077C104.07 87.2077 103.993 87.1315 104.011 87.0658L104.516 84.9151C104.516 84.8537 104.633 84.8168 104.745 84.8279L105.298 84.8986C105.409 84.8986 105.486 84.9748 105.474 85.035L104.963 87.1856C104.951 87.2513 104.845 87.2894 104.733 87.2728Z" fill="#263238"/>
<path d="M118.7 89.0443L118.148 88.9736C118.036 88.9736 117.959 88.8974 117.971 88.8372L118.482 86.6866C118.482 86.6252 118.599 86.5834 118.711 86.5994L119.264 86.6645C119.375 86.6645 119.452 86.7407 119.434 86.8064L118.928 88.957C118.912 89.0173 118.812 89.0603 118.7 89.0443Z" fill="#263238"/>
<defs>
<linearGradient id="paint0_linear_130_28" x1="170.543" y1="34.0112" x2="170.543" y2="45.356" gradientUnits="userSpaceOnUse">
<stop stop-color="#FFA247"/>
<stop offset="1" stop-color="#FC6E27"/>
</linearGradient>
<linearGradient id="paint1_linear_130_28" x1="0" y1="0" x2="0" y2="11.4627" gradientUnits="userSpaceOnUse">
<stop stop-color="#208DFE"/>
<stop offset="1" stop-color="#3A56FF"/>
</linearGradient>
<linearGradient id="paint2_linear_130_28" x1="165.769" y1="114.675" x2="165.769" y2="126.02" gradientUnits="userSpaceOnUse">
<stop stop-color="#FE6587"/>
<stop offset="1" stop-color="#F52D6A"/>
</linearGradient>
<linearGradient id="paint3_linear_130_28" x1="155.045" y1="74.343" x2="155.045" y2="85.6879" gradientUnits="userSpaceOnUse">
<stop stop-color="#AA6FFE"/>
<stop offset="1" stop-color="#7F47FA"/>
</linearGradient>
<linearGradient id="paint4_linear_130_28" x1="95.9672" y1="57.3872" x2="95.9672" y2="69.9236" gradientUnits="userSpaceOnUse">
<stop stop-color="#FE6587"/>
<stop offset="1" stop-color="#F52D6A"/>
</linearGradient>
<linearGradient id="paint5_linear_130_28" x1="102.318" y1="57.3604" x2="102.318" y2="88.4827" gradientUnits="userSpaceOnUse">
<stop stop-color="#FE6587"/>
<stop offset="1" stop-color="#F52D6A"/>
</linearGradient>
<linearGradient id="paint6_linear_130_28" x1="120.032" y1="59.2284" x2="120.032" y2="69.8584" gradientUnits="userSpaceOnUse">
<stop stop-color="#FE6587"/>
<stop offset="1" stop-color="#F52D6A"/>
</linearGradient>
<linearGradient id="paint7_linear_130_28" x1="101.061" y1="84.7354" x2="101.061" y2="89.3626" gradientUnits="userSpaceOnUse">
<stop stop-color="#FE6587"/>
<stop offset="1" stop-color="#F52D6A"/>
</linearGradient>
</defs>
</svg>
