<svg width="493" height="493" viewBox="0 0 493 493" fill="none" xmlns="http://www.w3.org/2000/svg">
<g clip-path="url(#clip0_263_2578)">
<path d="M339.957 460.487H34.9921V32.511H339.956V138.596L372.467 106.084V16.2555C372.468 7.27855 365.188 0 356.212 0H18.7366C9.75866 0 2.4781 7.27855 2.4781 16.2555V476.744C2.4781 485.721 9.75766 493 18.7366 493H356.212C365.188 493 372.468 485.721 372.468 476.744V297.864L339.957 330.376V460.487Z" fill="black"/>
<path d="M292.03 71.502H82.9168C76.0601 71.502 70.4959 77.0661 70.4959 83.9248C70.4959 90.7825 76.0601 96.3467 82.9168 96.3467H292.029C298.888 96.3467 304.451 90.7825 304.451 83.9248C304.452 77.0661 298.888 71.502 292.03 71.502Z" fill="black"/>
<path d="M304.452 150.176C304.452 143.319 298.888 137.753 292.03 137.753H82.9168C76.0601 137.753 70.4959 143.319 70.4959 150.176C70.4959 157.035 76.0601 162.599 82.9168 162.599H292.029C298.888 162.599 304.452 157.036 304.452 150.176Z" fill="black"/>
<path d="M274.553 204.008H82.9168C76.0601 204.008 70.4959 209.573 70.4959 216.431C70.4959 223.289 76.0601 228.853 82.9168 228.853H249.707L274.553 204.008Z" fill="black"/>
<path d="M205.065 286.363C206.746 280.733 209.149 275.34 212.076 270.26H82.9178C76.0611 270.26 70.4969 275.825 70.4969 282.683C70.4969 289.541 76.0611 295.106 82.9178 295.106H202.461L205.065 286.363Z" fill="black"/>
<path d="M82.9168 336.515C76.0601 336.515 70.4959 342.079 70.4959 348.938C70.4959 355.794 76.0601 361.36 82.9168 361.36H192.035C188.816 353.548 187.983 344.918 190.256 336.515H82.9168Z" fill="black"/>
<path d="M480.364 94.0912C473.855 87.5791 465.029 83.9248 455.835 83.9248C446.64 83.9248 437.817 87.5791 431.315 94.0831L247.531 277.872C242.516 282.885 238.838 289.056 236.807 295.85L222.162 344.942C221.538 347.02 222.104 349.268 223.641 350.806C224.766 351.931 226.271 352.536 227.814 352.536C228.373 352.536 228.946 352.456 229.505 352.286L278.594 337.639C285.39 335.609 291.561 331.929 296.573 326.916L480.363 143.134C486.865 136.631 490.521 127.809 490.521 118.613C490.521 109.416 486.866 100.593 480.364 94.0912Z" fill="black"/>
</g>
<defs>
<clipPath id="clip0_263_2578">
<rect width="492.014" height="492.014" fill="white" transform="scale(1.002)"/>
</clipPath>
</defs>
</svg>
