<svg width="11" height="10" viewBox="0 0 11 10" fill="none" xmlns="http://www.w3.org/2000/svg">
<path d="M10.8798 9.04358C10.8798 9.22336 10.4984 9.40424 9.79783 9.57748C8.09808 9.95281 6.35281 10.0791 4.61674 9.95231C4.2095 9.93746 3.80385 9.8934 3.40292 9.82047C2.95306 9.75648 2.50816 9.66145 2.07142 9.53608C1.78418 9.44902 1.50753 9.33024 1.24658 9.18196C0.897455 8.97919 0.599299 8.69929 0.374897 8.36366C0.1376 7.98736 0.00796347 7.55323 7.14805e-05 7.10843C-0.00184359 6.78166 0.0347285 6.45581 0.109032 6.13759C0.312571 5.14953 0.604302 4.18172 0.980719 3.24577C1.20615 2.72678 1.48747 2.23391 1.81972 1.77589C1.99031 1.5314 2.17821 1.29945 2.38195 1.08181C2.61181 0.84778 2.86772 0.640858 3.14468 0.465092C3.46085 0.264742 3.81088 0.123694 4.17763 0.0488621C4.57058 -0.0264757 4.97528 -0.0145727 5.36312 0.0837295C5.94322 0.244542 6.47759 0.53897 6.92344 0.94343C8.14526 1.97312 9.16375 3.22222 9.9264 4.62631C10.4362 5.56011 10.7767 6.57678 10.9321 7.62927C11.0225 8.37783 10.9321 8.80168 10.7654 8.83546C10.3982 8.9259 9.86429 7.44839 8.40749 5.60368C7.56047 4.54986 6.57363 3.61654 5.47426 2.82954C5.27202 2.66517 5.03505 2.54892 4.78127 2.48958C4.74018 2.47897 4.69706 2.47897 4.65597 2.48958C4.58713 2.51789 4.522 2.55448 4.46202 2.59854C4.35791 2.67544 4.26058 2.7611 4.17109 2.8546C4.06213 2.97228 3.95317 3.11829 3.84421 3.2643C3.62949 3.5782 3.44697 3.91295 3.2994 4.26347C2.98446 5.06138 2.72274 5.87929 2.51598 6.71182C2.48002 6.82923 2.45665 6.95013 2.44624 7.07248H2.37651C2.2937 7.07248 2.26755 7.11388 2.32747 7.07248L2.41028 7.01037C2.42715 7.03458 2.44818 7.05561 2.47239 7.07248C2.57515 7.13945 2.68472 7.19534 2.79927 7.23919C3.13293 7.36088 3.47348 7.46275 3.81915 7.54428C4.17327 7.64125 4.51323 7.71752 4.86626 7.78726C5.56034 7.92564 6.2043 8.02261 6.80794 8.10651C8.02177 8.2656 9.03401 8.37674 9.73463 8.50858C10.4352 8.64042 10.8733 8.87033 10.8798 9.04358Z" fill="#E0E0E0"/>
</svg>
