<svg width="65" height="169" viewBox="0 0 65 169" fill="none" xmlns="http://www.w3.org/2000/svg">
<path d="M38.9382 164.218L34.6763 164.151L33.4497 153.851L37.7117 153.919L38.9382 164.218Z" fill="#563625"/>
<path d="M12.9968 164.113L9.10212 161.847L12.0085 152.293L15.9032 154.556L12.9968 164.113Z" fill="#563625"/>
<path d="M8.73499 161.315L13.25 163.988C13.402 164.073 13.4745 164.259 13.4229 164.431L12.2832 168.302C12.2267 168.493 12.089 168.645 11.9101 168.716C11.7311 168.787 11.5309 168.767 11.3676 168.663C9.92516 167.784 8.9153 167.063 7.08332 165.98C5.95849 165.319 2.49635 163.432 0.945578 162.514C-0.605193 161.597 0.0581234 159.869 0.772718 160.101C3.98178 161.135 6.62181 161.513 7.98483 161.198C8.23964 161.136 8.5073 161.177 8.73499 161.311V161.315Z" fill="#263238"/>
<path d="M34.5894 163.638L39.2409 163.713C39.416 163.714 39.5669 163.842 39.6015 164.021L40.3806 167.987C40.4133 168.176 40.3624 168.371 40.2421 168.516C40.1218 168.662 39.9448 168.744 39.7603 168.738C38.0797 168.686 35.6563 168.543 33.5506 168.506C31.0843 168.468 28.9496 168.573 26.0573 168.506C24.3122 168.506 23.8937 166.626 24.6149 166.469C27.9612 165.762 30.6798 165.717 33.5862 163.92C33.8903 163.735 34.2365 163.639 34.5886 163.642L34.5894 163.638Z" fill="#263238"/>
<path d="M32.5779 33.9837C30.135 36.0673 27.5879 38.0146 24.9473 39.8173C23.624 40.7121 22.2717 41.5992 20.8367 42.4104C19.3365 43.2964 17.7598 44.0338 16.1274 44.6129C15.6393 44.7751 15.1421 44.9055 14.6386 45.0035C14.3649 45.056 14.0473 45.0897 13.7446 45.1242C13.4014 45.1541 13.0564 45.1541 12.7132 45.1242C11.9571 45.0599 11.2212 44.8374 10.5496 44.4698C9.90734 44.113 9.33503 43.6337 8.86232 43.0569C8.13342 42.144 7.5979 41.0808 7.29087 39.9371C7.04209 39.0128 6.87596 38.0666 6.79463 37.1104C6.57674 33.6895 6.89095 30.2544 7.72509 26.938L10.8911 27.3966C10.8767 30.3831 11.1572 33.3631 11.7281 36.2897C11.8636 36.9084 12.0544 37.5124 12.298 38.094C12.4397 38.4843 12.6639 38.8364 12.9539 39.1242C13.0366 39.1845 13.0763 39.1768 13.0837 39.1242C13.0912 39.0716 13.0837 39.0862 13.0837 39.0716C13.4493 38.988 13.8067 38.8697 14.1515 38.7181C15.3806 38.1649 16.5648 37.5087 17.6922 36.7561C18.9039 36.0044 20.123 35.125 21.2983 34.238C23.7067 32.4794 26.1375 30.5845 28.4525 28.7208L32.5779 33.9837Z" fill="#563625"/>
<path d="M33.8756 31.9389C31.9353 36.5018 24.4569 41.2224 20.3116 43.2147C19.0858 43.8009 19.2438 45.5147 18.516 44.7707C18.516 44.7707 15.321 38.6595 15.321 37.4112C15.321 36.163 16.3813 36.9078 17.2464 36.0656C20.362 33.0587 26.8819 26.4509 30.9494 25.7208C36.27 24.7449 35.6935 27.6846 33.8756 31.9389Z" fill="url(#paint0_linear_0_3530)"/>
<path d="M15.7659 36.6C15.3524 35.969 13.6528 37.6225 13.1118 38.3138C12.5709 39.0052 14.0564 41.5164 14.5038 42.8242C14.9513 44.1319 14.0713 45.5224 15.4417 45.7259C16.1629 45.831 18.2182 45.5535 18.6152 44.9742C19.5449 43.7336 16.7543 38.1181 15.7659 36.6Z" fill="#263238"/>
<path opacity="0.2" d="M25.5527 40.2078C29.043 37.9147 32.6201 34.8932 33.8822 31.9388C33.9649 31.7363 34.0551 31.5483 34.1303 31.3526L34.2023 30.6009C29.4615 31.4432 26.245 36.4371 25.5527 40.2078Z" fill="black"/>
<path d="M10.2775 28.7751L13.0251 24.5277L8.53901 22.6182C8.53901 22.6182 6.00071 25.6251 7.8178 28.2484L10.2775 28.7751Z" fill="#563625"/>
<path d="M14.1796 19.9122L10.0541 19.7691L8.53975 22.5803L13.0258 24.4897L14.1796 19.9122Z" fill="#563625"/>
<path opacity="0.2" d="M33.4497 153.851L34.0841 159.158L38.346 159.233L37.7117 153.926L33.4497 153.851Z" fill="black"/>
<path opacity="0.2" d="M15.9 154.558L12.0127 152.295L10.5199 157.226L14.4071 159.489L15.9 154.558Z" fill="black"/>
<path d="M54.7544 27.3311C50.1599 44.1992 51.0904 62.0974 50.6727 65.7206C47.3404 65.4724 34.8061 64.4956 27.9554 63.962C25.7918 38.5923 30.9411 25.7078 30.9411 25.7078C30.9411 25.7078 32.3836 25.4147 34.3884 25.2044C35.0087 25.1371 35.6795 25.0768 36.3792 25.0389C36.7687 25.0389 37.1583 25.0009 37.5545 24.994C40.7871 25.051 44.0139 25.302 47.2189 25.7458C47.8243 25.8208 48.438 25.9182 49.0384 26.0165C49.6389 26.1147 50.1343 26.219 50.6471 26.3251C52.9579 26.8044 54.7544 27.3311 54.7544 27.3311Z" fill="url(#paint1_linear_0_3530)"/>
<path d="M37.5536 25.0156C35.6423 26.0828 35.0873 29.9923 38.7868 30.1423C42.4863 30.2923 46.1577 27.5794 47.2172 25.7596L37.5536 25.0156Z" fill="#263238"/>
<path opacity="0.2" d="M49.9011 34.5699C49.4975 36.2009 49.959 43.6431 51.5958 45.4845C51.8191 43.1017 52.1152 40.6061 52.5113 38.0656L49.9011 34.5699Z" fill="black"/>
<path d="M47.0659 14.3337C46.2289 17.5234 45.1984 23.407 47.2173 25.7372C45.144 27.6749 42.3878 28.6208 39.6156 28.3458C35.9161 28.1958 36.486 26.3165 37.5529 24.9932C41.087 24.3992 41.1589 21.7079 40.7619 19.1449L47.0659 14.3337Z" fill="#563625"/>
<path opacity="0.2" d="M44.4986 16.2958L40.7627 19.1406C40.8695 19.7379 40.9273 20.3435 40.9356 20.951C42.2697 20.8535 44.2025 19.4475 44.4407 18.0415C44.5602 17.4679 44.5798 16.8766 44.4986 16.2958Z" fill="black"/>
<path d="M37.4453 13.1087C37.4453 13.1087 34.8343 9.28288 35.5993 6.29065C36.5802 2.4648 42.4938 7.1553 37.4453 13.1087Z" fill="#263238"/>
<path d="M47.7879 9.48633C47.2089 13.8536 47.0667 16.4398 44.8104 18.507C41.3706 21.6492 36.3221 19.2587 35.6299 14.7484C35.0021 10.7415 36.0434 4.26997 40.2888 2.85187C42.1963 2.19917 44.2922 2.62694 45.8227 3.98135C47.3531 5.33575 48.0981 7.42201 47.7896 9.48978L47.7879 9.48633Z" fill="#563625"/>
<path d="M44.5491 5.53893C41.9239 6.35099 34.5605 7.20013 35.462 3.28376C36.7166 -2.19639 40.0341 0.660495 40.5071 1.44239C42.6203 -0.151571 51.9456 1.2398 50.0847 4.38893C52.111 4.71221 53.2871 7.0122 51.8298 8.14754C50.3725 9.28288 48.6042 13.913 47.6324 13.7777C46.4546 13.608 45.3046 13.2716 44.2141 12.7777L46.2189 9.98115C46.2189 9.98115 43.7923 7.57599 44.5491 5.53893Z" fill="#263238"/>
<path d="M49.1435 4.86998C50.586 4.50188 51.9349 4.33636 53.1027 5.46394C53.0167 3.56998 50.5281 3.30705 49.1435 4.86998Z" fill="#263238"/>
<path d="M49.3379 14.4915C48.708 15.3828 47.7632 15.9754 46.7127 16.138C45.3133 16.3484 44.8013 15.0027 45.3422 13.7329C45.8253 12.5829 47.1378 11.0941 48.4653 11.4777C49.0486 11.6591 49.5055 12.1339 49.6811 12.7414C49.8568 13.3489 49.7278 14.0077 49.3379 14.4949V14.4915Z" fill="#563625"/>
<path d="M32.4977 158.113L39.7098 158.226C39.7098 158.226 35.5488 128.526 36.1972 114.709C36.3916 110.508 35.7432 104.629 36.8101 98.33C38.1591 90.3843 38.8075 87.2197 40.546 77.1844C41.7866 70.0292 42.89 65.1568 42.89 65.1568L27.9538 63.9991C27.9538 63.9991 23.074 99.7878 23.2154 113.341C23.3676 127.39 32.4977 158.113 32.4977 158.113Z" fill="#7F47FA"/>
<path opacity="0.6" d="M32.4977 158.113L39.7098 158.226C39.7098 158.226 35.5488 128.526 36.1972 114.709C36.3916 110.508 35.7432 104.629 36.8101 98.33C38.1591 90.3843 38.8075 87.2197 40.546 77.1844C41.7866 70.0292 42.89 65.1568 42.89 65.1568L27.9538 63.9991C27.9538 63.9991 23.074 99.7878 23.2154 113.341C23.3676 127.39 32.4977 158.113 32.4977 158.113Z" fill="black"/>
<path opacity="0.2" d="M36.811 98.33C36.3044 101.625 36.0943 104.962 36.1832 108.298C34.9426 111.952 33.8608 115.417 33.104 118.499C31.7807 123.889 29.6931 132.067 27.6594 139.923C25.4453 130.722 23.2891 120.085 23.2237 113.305L36.811 98.33Z" fill="black"/>
<path d="M36.0104 64.5862C36.0104 64.5862 25.279 92.8507 21.2115 105.178C16.7544 118.649 9.56374 155.006 9.56374 155.006L16.3499 159.013C16.3499 159.013 26.9224 129.042 31.3002 115.925C36.2907 100.981 50.0517 77.3697 50.6711 65.7525L36.0104 64.5862Z" fill="#7F47FA"/>
<path opacity="0.6" d="M36.0104 64.5862C36.0104 64.5862 25.279 92.8507 21.2115 105.178C16.7544 118.649 9.56374 155.006 9.56374 155.006L16.3499 159.013C16.3499 159.013 26.9224 129.042 31.3002 115.925C36.2907 100.981 50.0517 77.3697 50.6711 65.7525L36.0104 64.5862Z" fill="black"/>
<path d="M8.66963 154.644L16.6609 159.372L18.0164 156.884L9.16671 151.442L8.66963 154.644Z" fill="#7F47FA"/>
<path d="M31.5888 158.271L40.1855 158.414L40.2285 155.52L30.622 155.205L31.5888 158.271Z" fill="#7F47FA"/>
<path d="M42.1762 10.2148C42.1762 10.576 41.9455 10.8458 41.7221 10.8312C41.4988 10.8165 41.34 10.5079 41.369 10.1544C41.3979 9.801 41.5923 9.52341 41.8164 9.53807C42.0406 9.55272 42.2052 9.86134 42.1762 10.2148Z" fill="#263238"/>
<path d="M37.6183 9.91393C37.6183 10.2751 37.3949 10.545 37.1708 10.5303C36.9467 10.5157 36.7813 10.207 36.8102 9.85358C36.8392 9.50014 37.0335 9.22255 37.2577 9.23721C37.4818 9.25186 37.6472 9.56048 37.6183 9.91393Z" fill="#263238"/>
<path d="M38.6504 10.1924C38.162 11.2516 37.5358 12.2356 36.7894 13.1165C37.2379 13.5074 37.8289 13.6723 38.4047 13.5674L38.6504 10.1924Z" fill="#1B242D"/>
<path d="M38.2749 15.8682C39.0553 15.8353 39.7873 15.4648 40.2946 14.8458C40.3344 14.8063 40.3358 14.7407 40.2979 14.6993C40.26 14.6578 40.1971 14.6563 40.1573 14.6958C39.5783 15.3685 38.727 15.7144 37.8638 15.6277C37.8094 15.6272 37.763 15.6689 37.7555 15.7251C37.7511 15.7535 37.759 15.7825 37.777 15.8043C37.795 15.826 37.8214 15.8384 37.849 15.838C37.9901 15.8582 38.1324 15.8683 38.2749 15.8682Z" fill="#263238"/>
<path d="M42.8957 9.00443C42.9266 9.01087 42.9583 9.01087 42.9892 9.00443C43.0344 8.97379 43.066 8.92556 43.0769 8.87049C43.0878 8.81542 43.077 8.7581 43.0471 8.71133C42.709 8.1342 42.123 7.7642 41.4756 7.71909C41.4215 7.71689 41.3689 7.73834 41.3306 7.77828C41.2923 7.81821 41.2717 7.873 41.2738 7.92944C41.2738 8.04561 41.3642 8.13978 41.4756 8.13978C41.9851 8.18484 42.4434 8.48082 42.7088 8.93633C42.7554 8.99152 42.8263 9.01734 42.8957 9.00443Z" fill="#263238"/>
<path d="M35.9334 8.32771C36.0015 8.33373 36.0683 8.30594 36.1137 8.25271C36.4383 7.83756 36.935 7.61096 37.4478 7.64409C37.5574 7.65505 37.6555 7.57316 37.6691 7.45929C37.6828 7.34543 37.6071 7.24089 37.4983 7.2234C36.8524 7.17527 36.224 7.45525 35.811 7.97512C35.7722 8.0147 35.7503 8.06893 35.7503 8.12555C35.7503 8.18217 35.7722 8.23641 35.811 8.27598C35.8466 8.30443 35.8889 8.32231 35.9334 8.32771Z" fill="#263238"/>
<path fill-rule="evenodd" clip-rule="evenodd" d="M8.18581 161.702C7.82174 161.604 7.47064 161.459 7.14038 161.271C6.87534 161.151 6.65583 160.943 6.51594 160.679C6.44568 160.482 6.47687 160.261 6.59864 160.093C6.65708 159.984 6.76797 159.918 6.88729 159.92C7.42159 159.944 8.204 161.416 8.28671 161.582C8.30739 161.619 8.30739 161.665 8.28671 161.702C8.25697 161.726 8.21554 161.726 8.18581 161.702ZM6.7227 160.579C6.83022 160.872 7.27766 161.181 7.99888 161.421H7.9997C7.67549 160.842 7.17014 160.113 6.89638 160.098C6.84729 160.098 6.80248 160.127 6.78059 160.173C6.69673 160.289 6.67495 160.442 6.7227 160.579Z" fill="#7F47FA"/>
<path fill-rule="evenodd" clip-rule="evenodd" d="M8.21473 161.692H8.16428H8.15849C8.14025 161.68 8.1272 161.661 8.1221 161.639C7.8839 161.196 7.57374 159.918 7.8839 159.527C7.98989 159.408 8.15909 159.377 8.29744 159.452C8.44267 159.517 8.55522 159.642 8.60759 159.797C8.7987 160.308 8.46053 161.195 8.33869 161.514C8.31341 161.581 8.29744 161.623 8.29744 161.632C8.28356 161.667 8.25125 161.69 8.21473 161.692ZM8.424 159.888C8.39604 159.802 8.3397 159.731 8.2652 159.685L8.22219 159.684C8.09978 159.609 8.04933 159.684 8.04933 159.684C7.86158 159.91 7.98399 160.827 8.20068 161.353C8.41378 160.899 8.49155 160.388 8.424 159.888Z" fill="#7F47FA"/>
<path fill-rule="evenodd" clip-rule="evenodd" d="M34.2295 164.15C34.2265 164.191 34.201 164.225 34.1643 164.239L34.1503 164.245C33.4646 164.374 32.2389 164.532 31.7774 164.095C31.6427 163.962 31.5759 163.77 31.5971 163.578C31.6053 163.461 31.6705 163.356 31.7699 163.3C32.2885 163.007 33.9906 163.938 34.1784 164.051C34.2126 164.071 34.2326 164.11 34.2295 164.15ZM33.8178 164.104C33.2364 163.738 32.5779 163.527 31.8998 163.488L31.8643 163.503C31.8231 163.524 31.7978 163.568 31.7997 163.616C31.7835 163.742 31.8266 163.868 31.9155 163.954C32.5113 164.242 33.1872 164.296 33.8178 164.104Z" fill="#7F47FA"/>
<path fill-rule="evenodd" clip-rule="evenodd" d="M34.2073 164.142C34.2084 164.18 34.1925 164.216 34.1643 164.239L34.161 164.237C34.1352 164.249 34.1059 164.252 34.0783 164.244C33.5515 164.019 32.5532 163.019 32.6359 162.515C32.6499 162.395 32.7368 162.23 33.0105 162.23C33.2127 162.208 33.4142 162.276 33.5655 162.418C33.9479 162.908 34.1725 163.511 34.2073 164.142ZM33.061 162.451H32.9527V162.446C32.9014 162.459 32.8638 162.504 32.8592 162.559C32.8087 162.86 33.4861 163.627 34.0055 163.965C33.9683 163.458 33.7791 162.975 33.4646 162.586C33.3542 162.484 33.2078 162.435 33.061 162.451Z" fill="#7F47FA"/>
<path d="M55.8065 30.0147C56.7444 31.8337 57.5516 33.6302 58.3886 35.4569C59.2257 37.2837 59.9535 39.1474 60.6896 41.0267C61.4257 42.9061 62.089 44.7854 62.7019 46.8026L63.1419 48.306L63.5314 49.8095C63.6613 50.3207 63.7622 50.8621 63.878 51.3802L63.9607 51.7862L64.0434 52.3276C64.0906 52.6565 64.1218 52.9876 64.1368 53.3198C64.1811 54.4569 64.1352 55.5958 63.9995 56.725C63.8838 57.7922 63.7398 58.8224 63.567 59.837C63.2138 61.8663 62.7813 63.8439 62.2974 65.7982C61.3358 69.6909 60.183 73.5296 58.8435 77.299L55.7643 76.412C56.4061 72.5629 57.0265 68.662 57.5748 64.8206C57.842 62.9034 58.0868 60.987 58.253 59.0922C58.3357 58.1526 58.4044 57.2207 58.4333 56.3112C58.4719 55.4713 58.4503 54.6296 58.3688 53.7931C58.3665 53.6326 58.3423 53.4732 58.2968 53.3198L58.2538 53.1241L58.1711 52.8086C58.0413 52.3776 57.9404 51.9517 57.7965 51.5155L57.3713 50.2078L56.9024 48.8922C56.2606 47.1259 55.5394 45.3664 54.8107 43.6336C54.0821 41.9009 53.2748 40.1155 52.4742 38.375C51.6736 36.6345 50.8515 34.8569 50.0583 33.1578L55.8065 30.0147Z" fill="#563625"/>
<path d="M54.7469 27.3389C57.8071 28.3311 61.8507 41.5457 63.4519 47.1664C64.4692 48.1207 63.9564 49.8647 63.9564 49.8647L57.7327 52.7284C56.2903 51.9767 55.3962 50.406 55.9371 49.631C52.6776 43.219 50.117 38.4242 48.8838 34.5966C47.0592 28.932 50.0466 25.7682 54.7469 27.3389Z" fill="url(#paint2_linear_0_3530)"/>
<path d="M56.2108 51.1603C55.5831 51.5509 57.5093 53.6112 58.1288 54.212C58.7483 54.8129 60.8185 53.2422 62.1095 52.8517C63.4006 52.4612 64.6735 53.4681 64.9439 52.0552C65.0953 51.3034 64.9439 49.1534 64.4477 48.7026C63.2716 47.6647 57.7252 50.2284 56.2108 51.1603Z" fill="#263238"/>
<path d="M56.5714 77.1016L53.2466 79.9878L57.3861 83.0999C57.3861 83.0999 60.1047 80.093 58.8864 78.3042L56.5714 77.1016Z" fill="#563625"/>
<path d="M51.3502 81.4396L55.4467 83.5146L57.387 80.5154L53.2475 77.4034L51.3502 81.4396Z" fill="#563625"/>
<defs>
<linearGradient id="paint0_linear_0_3530" x1="15.321" y1="25.533" x2="15.321" y2="44.9547" gradientUnits="userSpaceOnUse">
<stop stop-color="#FE6587"/>
<stop offset="1" stop-color="#F52D6A"/>
</linearGradient>
<linearGradient id="paint1_linear_0_3530" x1="27.4246" y1="24.994" x2="27.4246" y2="65.7206" gradientUnits="userSpaceOnUse">
<stop stop-color="#FE6587"/>
<stop offset="1" stop-color="#F52D6A"/>
</linearGradient>
<linearGradient id="paint2_linear_0_3530" x1="48.3416" y1="26.9372" x2="48.3416" y2="52.7284" gradientUnits="userSpaceOnUse">
<stop stop-color="#FE6587"/>
<stop offset="1" stop-color="#F52D6A"/>
</linearGradient>
</defs>
</svg>
