<svg width="99" height="99" viewBox="0 0 99 99" fill="none" xmlns="http://www.w3.org/2000/svg">
<circle opacity="0.28" cx="49.5" cy="49.5" r="49.5" fill="#D6D6D6"/>
<circle opacity="0.28" cx="49.5" cy="49.5" r="49.5" fill="#D6D6D6"/>
<path fill-rule="evenodd" clip-rule="evenodd" d="M68 62.125C67.9994 63.9887 66.4887 65.4994 64.625 65.5H35.375C33.5113 65.4994 32.0006 63.9887 32 62.125V41.875C32.0006 40.0113 33.5113 38.5006 35.375 38.5H41.563L42.428 36.187C42.9212 34.8714 44.179 33.9998 45.584 34H54.408C55.8134 33.9994 57.0716 34.871 57.565 36.187L58.437 38.5H64.625C66.4887 38.5006 67.9994 40.0113 68 41.875V62.125ZM58.438 52C58.438 47.3398 54.6602 43.562 50 43.562C45.3398 43.562 41.562 47.3398 41.562 52C41.562 56.6602 45.3398 60.438 50 60.438C54.6588 60.4347 58.4347 56.6588 58.438 52ZM52.3687 57.7177C54.681 56.7596 56.1884 54.5029 56.188 52C56.1808 48.5856 53.4144 45.8196 50 45.813C47.4971 45.813 45.2407 47.3208 44.2829 49.6332C43.3252 51.9456 43.8548 54.6073 45.6248 56.3769C47.3947 58.1466 50.0565 58.6758 52.3687 57.7177Z" fill="#4A4A4A"/>
</svg>
