<svg width="69" height="42" viewBox="0 0 69 42" fill="none" xmlns="http://www.w3.org/2000/svg">
<path d="M38.2431 3.97892H37.62L38.2431 17.9431H39.2787L38.2431 3.97892Z" fill="#100F0D"/>
<path d="M37.3234 34.8245H39.4114V17.4702H37.3234V34.8245Z" fill="#100F0D"/>
<path d="M66.9405 35.1085H38.7023V17.223H66.9405L67.1305 21.4693V27.0586L66.9405 35.1085Z" fill="#EE9312"/>
<path d="M64.6301 21.4694H38.7023V18.6101H40.9323V18.993C40.9323 19.1637 41.0345 19.3031 41.1641 19.3031C41.2906 19.3031 41.3946 19.1637 41.3946 18.993V18.6101H49.0019V18.993C49.0019 19.1637 49.1072 19.3031 49.2337 19.3031C49.362 19.3031 49.4654 19.1637 49.4654 18.993V18.6101H57.0764V18.993C57.0764 19.1637 57.1786 19.3031 57.3051 19.3031C57.4328 19.3031 57.5369 19.1637 57.5369 18.993V18.6101H65.146V18.993C65.146 19.1637 65.2482 19.3031 65.3759 19.3031C65.5061 19.3031 65.6083 19.1637 65.6083 18.993V18.6101H67.0022L67.0751 20.233H64.8425H64.8345C64.2307 20.2967 64.0568 20.4932 64.0618 20.7016H64.0687C64.0743 20.9956 64.4319 21.3138 64.4319 21.3138C64.4319 21.3138 64.5061 21.372 64.6301 21.4694Z" fill="#F3BA15"/>
<path d="M67.0208 18.8819L66.9748 18.4501H38.7023V18.8819H67.0208Z" fill="#4B5452"/>
<path d="M66.9404 35.1085L67.1292 27.1065H67.1305L66.9404 35.1085Z" fill="#F8D492"/>
<path d="M66.9405 35.1085L67.0003 32.5095H62.2468L61.271 27.4107C61.2542 27.3073 61.2355 27.2066 61.215 27.1065H67.1293L66.9405 35.1085ZM38.7023 35.1085V27.1065H48.2953C48.1557 27.6611 48.0554 28.2799 48.0099 28.9679L47.6766 32.5095H38.7023V35.1085ZM60.2417 32.5095H49.5514L49.7726 29.2436C49.8586 28.4004 50.1172 27.6804 50.4387 27.1065H59.2927C59.5451 27.6459 59.7551 28.3238 59.8884 29.1409L60.2417 32.5095Z" fill="#E87717"/>
<path d="M66.9405 35.1085H62.744L62.2468 32.5095H67.0003L66.9405 35.1085ZM60.514 35.1085H49.3757L49.5514 32.5095H60.2417L60.514 35.1085ZM47.4311 35.1085H38.7023V32.5095H47.6766L47.4311 35.1085Z" fill="#E15A1C"/>
<path d="M38.4463 17.1418L17.3935 18.7546C17.3935 18.7546 8.78377 20.3381 1.09178 24.9033C0.476799 25.5402 0.40079 26.1115 0.304835 26.8245C0.272434 27.0588 0.248116 27.2967 0.223815 27.5352C0.223815 28.6407 0.240039 29.7468 0.231938 30.8516C0.215738 32.9936 0.86996 33.0001 2.442 35.2078C2.48936 35.275 2.57536 35.275 2.6414 35.3059L38.4463 35.111V17.1418Z" fill="#EE9312"/>
<path d="M38.4463 32.5095H19.4915L18.5163 27.4107C18.5051 27.3418 18.4933 27.2746 18.4802 27.2073H38.4463V32.5095ZM17.487 32.5095H6.96436C6.96498 32.496 6.96559 32.4819 6.96621 32.4685H6.79925L7.01793 29.2437C7.09956 28.449 7.33384 27.7635 7.62918 27.2073H16.5842C16.816 27.729 17.0085 28.3741 17.1337 29.141L17.487 32.5095ZM4.925 32.4685H0.458719C0.306064 32.082 0.233185 31.6249 0.231938 30.9506C0.231938 30.9177 0.231938 30.885 0.231938 30.8515C0.233808 30.6447 0.234433 30.4374 0.234433 30.2297C0.234433 29.3319 0.223815 28.4328 0.223815 27.5351C0.240015 27.3796 0.256221 27.2267 0.275536 27.0714L0.352174 27.0672L0.272433 27.1899L0.32601 27.2923L0.385823 27.2746L0.418225 27.2385C0.412617 27.335 0.408274 27.4324 0.405782 27.5292C0.41762 27.6519 0.435043 27.7635 0.459967 27.8567C0.459967 27.8583 0.460606 27.86 0.460606 27.861C0.469329 27.8921 0.478034 27.9213 0.488626 27.9492C0.499842 27.9794 0.524151 27.9945 0.559666 27.9945C0.727899 27.9945 1.15222 27.6677 1.66315 27.2073H5.51508C5.38797 27.7359 5.29697 28.3213 5.25398 28.968L4.925 32.4685Z" fill="#E87717"/>
<path d="M6.78733 35.283C6.83344 34.6615 6.87206 34.128 6.88515 33.9121C6.91194 33.4441 6.94123 32.9773 6.96428 32.5094H17.4869L17.7686 35.1898L19.9837 35.2108L6.78733 35.283ZM20.0073 35.2108L19.4914 32.5094H38.4462V34.8243V35.1107L20.0073 35.2108Z" fill="#E15A1C"/>
<path d="M37.7826 4.01413C33.0733 3.84613 28.6856 4.26781 25.7259 5.56561C22.2273 7.09442 15.7155 21.8845 15.7155 21.8845L38.4462 21.4996V17.4702L37.7826 4.01413Z" fill="#EE9312"/>
<path d="M37.6199 16.6495C37.5277 11.034 37.4287 8.89034 37.1931 4.54163C36.6872 4.50887 28.2606 4.7298 26.8001 6.05532C26.8001 6.05532 25.7308 6.54505 23.9619 9.88155L19.7611 18.1373C19.7611 18.1373 19.0988 19.8836 20.4197 20.0364L37.4386 18.2514C37.5096 17.7195 37.628 17.1903 37.6199 16.6495Z" fill="#100F0D"/>
<path d="M19.54 16.7437C21.3806 12.2203 24.4992 6.49059 24.4992 6.49059C21.9794 9.02824 18.6833 15.5542 16.9343 19.2425C16.9343 19.2425 18.4272 19.4761 19.54 16.7437Z" fill="#173447"/>
<path d="M35.7944 17.4902C36.0935 13.3273 36.2685 9.15077 36.299 4.97006C34.355 4.97006 32.0671 5.12966 29.3834 5.55218C29.3834 5.55218 30.3181 5.41443 28.8931 5.63283C27.9117 5.78823 26.8749 6.14691 25.9272 7.29603C24.481 9.04324 20.0565 18.3604 20.0565 18.3604C20.0565 18.3604 19.5661 19.6903 20.973 19.6053C21.8074 19.5551 27.9422 18.789 35.7588 17.9538C35.7719 17.8003 35.7832 17.6448 35.7944 17.4902Z" fill="#173447"/>
<path d="M22.7813 8.62424C22.7832 8.62172 22.785 8.6192 22.7869 8.61668C22.785 8.6192 22.7832 8.62172 22.7813 8.62424ZM23.0642 8.22608C23.0661 8.22356 23.0679 8.22103 23.0698 8.21851C23.0679 8.22103 23.0661 8.22356 23.0642 8.22608ZM23.1165 8.15467C23.1203 8.14879 23.1246 8.14292 23.129 8.13704C23.1246 8.14292 23.1203 8.14879 23.1165 8.15467ZM23.1738 8.07572C23.1782 8.06984 23.1832 8.06312 23.1876 8.05724C23.1832 8.06312 23.1788 8.06984 23.1738 8.07572ZM23.2274 8.00348C23.2355 7.99256 23.2436 7.98164 23.2517 7.97072C23.2436 7.98164 23.2355 7.99256 23.2274 8.00348ZM23.286 7.92535C23.2941 7.91443 23.3022 7.90351 23.3103 7.89259C23.3022 7.90351 23.2941 7.91443 23.286 7.92535ZM23.3452 7.8464C23.3539 7.83548 23.362 7.82372 23.3707 7.8128C23.3626 7.82372 23.3539 7.83548 23.3452 7.8464ZM23.405 7.76743C23.4131 7.75735 23.4212 7.74643 23.4293 7.73551C23.4212 7.74643 23.4131 7.75735 23.405 7.76743ZM23.463 7.69267C23.4823 7.66747 23.5016 7.64311 23.5203 7.61875C23.5016 7.64311 23.4823 7.66747 23.463 7.69267ZM23.5446 7.58767C23.5558 7.57339 23.5676 7.55828 23.5788 7.544C23.5676 7.55828 23.5564 7.57255 23.5446 7.58767ZM23.6137 7.49948C23.6212 7.49024 23.6293 7.48099 23.6368 7.47091C23.6293 7.48099 23.6218 7.49024 23.6137 7.49948ZM23.6698 7.42975C23.6785 7.41883 23.6879 7.40708 23.6966 7.39616C23.6879 7.40792 23.6785 7.41883 23.6698 7.42975ZM23.7284 7.35751C23.7377 7.34575 23.7471 7.334 23.757 7.32224C23.7471 7.334 23.7377 7.34575 23.7284 7.35751ZM23.7845 7.28947C23.7951 7.27603 23.8056 7.26344 23.8162 7.25C23.8056 7.26344 23.7951 7.27603 23.7845 7.28947ZM23.8449 7.21555C23.8549 7.20379 23.8648 7.19203 23.8748 7.18027C23.8648 7.19203 23.8549 7.20379 23.8449 7.21555ZM23.9016 7.14751C23.9134 7.13407 23.924 7.12147 23.9353 7.10803C23.924 7.12147 23.9134 7.13407 23.9016 7.14751ZM23.9608 7.07863C23.9988 7.03411 24.0362 6.99043 24.0736 6.94759C24.0362 6.99043 23.9988 7.03411 23.9608 7.07863ZM24.1004 6.91735C24.1116 6.90559 24.1222 6.89299 24.1328 6.88123C24.1222 6.89299 24.1116 6.90559 24.1004 6.91735ZM24.1571 6.85435C24.1683 6.84175 24.1795 6.82915 24.1901 6.81739C24.1795 6.82915 24.1683 6.84175 24.1571 6.85435ZM24.2144 6.79051C24.2262 6.77791 24.2381 6.76447 24.2499 6.75187C24.2381 6.76447 24.2262 6.77791 24.2144 6.79051ZM24.2717 6.72835C24.2836 6.71575 24.2948 6.70315 24.3066 6.69055C24.2948 6.70315 24.2836 6.71575 24.2717 6.72835ZM24.329 6.66703C24.3409 6.65443 24.3533 6.64099 24.3652 6.62839C24.3533 6.64099 24.3409 6.65443 24.329 6.66703ZM24.3864 6.60655C24.3988 6.59395 24.4107 6.58134 24.4231 6.56874C24.4107 6.58134 24.3988 6.59395 24.3864 6.60655ZM24.4431 6.54774C24.4618 6.52842 24.4804 6.50995 24.4991 6.49063C24.4804 6.50995 24.4618 6.52842 24.4431 6.54774Z" fill="#F4BA29"/>
<path d="M17.5592 17.9431C18.9493 15.0897 20.9276 11.2844 22.7812 8.62414C22.7831 8.62162 22.785 8.6191 22.7868 8.61658C22.8797 8.48302 22.9719 8.35282 23.0641 8.22598C23.066 8.22346 23.0678 8.22094 23.0697 8.21842C23.0853 8.19742 23.1009 8.17558 23.1164 8.15457C23.1202 8.1487 23.1246 8.14282 23.1289 8.13694C23.1439 8.11678 23.1588 8.09578 23.1738 8.07562C23.1787 8.06974 23.1831 8.06302 23.1875 8.05714C23.2006 8.0395 23.2143 8.02102 23.2273 8.00338C23.2354 7.99246 23.2435 7.98154 23.2516 7.97062C23.2629 7.9555 23.2741 7.94038 23.2859 7.92526C23.294 7.91434 23.3021 7.90341 23.3102 7.89249C23.3214 7.87737 23.3333 7.86142 23.3451 7.8463C23.3538 7.83538 23.3626 7.82362 23.3707 7.8127C23.3825 7.79758 23.3937 7.78245 23.4049 7.76733C23.413 7.75725 23.4211 7.74633 23.4292 7.73541C23.4404 7.72113 23.4517 7.70685 23.4629 7.69257C23.4822 7.66737 23.5015 7.64301 23.5202 7.61865C23.5283 7.60773 23.5364 7.59765 23.5445 7.58757C23.5563 7.57245 23.5676 7.55818 23.5788 7.5439C23.5906 7.52878 23.6018 7.5145 23.6137 7.49938C23.6218 7.49014 23.6292 7.48089 23.6367 7.47081C23.6479 7.45737 23.6585 7.44393 23.6697 7.42965C23.6785 7.41873 23.6878 7.40782 23.6965 7.39606C23.7071 7.38346 23.7177 7.37085 23.7283 7.35741C23.7376 7.34565 23.747 7.3339 23.757 7.32214C23.7657 7.31122 23.7751 7.3003 23.7844 7.28938C23.795 7.27594 23.8056 7.26334 23.8162 7.2499C23.8255 7.23898 23.8355 7.22722 23.8448 7.21546C23.8548 7.2037 23.8648 7.19193 23.8747 7.18017C23.8841 7.16925 23.8928 7.15833 23.9015 7.14741C23.9134 7.13397 23.924 7.12137 23.9352 7.10793C23.9439 7.09785 23.9526 7.08777 23.9607 7.07853C23.9987 7.03401 24.0361 6.99033 24.0735 6.94749C24.0828 6.93741 24.0916 6.92733 24.1003 6.91725C24.1115 6.90549 24.1221 6.8929 24.1327 6.88114C24.1408 6.8719 24.1489 6.86265 24.157 6.85425C24.1682 6.84165 24.1794 6.82906 24.19 6.8173C24.1981 6.80806 24.2062 6.79965 24.2143 6.79041C24.2262 6.77781 24.238 6.76437 24.2498 6.75177C24.2567 6.74421 24.2642 6.73581 24.2716 6.72825C24.2835 6.71565 24.2947 6.70305 24.3065 6.69045C24.314 6.68289 24.3215 6.67449 24.329 6.66693C24.3408 6.65433 24.3533 6.64089 24.3651 6.62829C24.372 6.62157 24.3794 6.61317 24.3863 6.60645C24.3987 6.59385 24.4106 6.58125 24.4231 6.56865C24.4299 6.56109 24.4368 6.55437 24.443 6.54765C24.4617 6.52833 24.4804 6.50985 24.4991 6.49053C24.4991 6.49053 21.3805 12.2202 19.5399 16.7436L19.4963 16.8485C18.857 17.1946 18.2209 17.5533 17.5866 17.9231L17.5592 17.9431Z" fill="#245C7A"/>
<path d="M36.2535 7.92356C36.2541 7.90592 36.2541 7.88912 36.2547 7.87148C36.2541 7.88912 36.2541 7.90592 36.2535 7.92356ZM36.2616 7.57076C36.2622 7.5422 36.2629 7.51364 36.2635 7.48424C36.2629 7.51364 36.2622 7.5422 36.2616 7.57076ZM36.2691 7.20284C36.2697 7.17092 36.2703 7.13984 36.271 7.10792C36.2703 7.13984 36.2697 7.17092 36.2691 7.20284ZM36.2759 6.82904C36.2766 6.79964 36.2772 6.7694 36.2772 6.74C36.2772 6.77024 36.2766 6.79964 36.2759 6.82904ZM36.2822 6.45355C36.2828 6.42667 36.2828 6.39896 36.2834 6.37208C36.2828 6.39896 36.2828 6.42667 36.2822 6.45355ZM36.2878 6.08228C36.2878 6.05624 36.2884 6.03019 36.2884 6.00415C36.2884 6.03019 36.2878 6.05624 36.2878 6.08228ZM36.2921 5.70679C36.2921 5.69083 36.2928 5.67487 36.2928 5.65891C36.2928 5.67487 36.2921 5.69083 36.2921 5.70679ZM36.2959 5.33888C36.2971 5.21624 36.2984 5.09275 36.299 4.97011C36.2984 5.09275 36.2971 5.21624 36.2959 5.33888Z" fill="#131C21"/>
<path d="M21.2229 15.9497C22.6379 13.0642 24.9564 8.47278 25.9272 7.29594C26.8749 6.14681 27.9117 5.78813 28.8931 5.63273C29.5236 5.53613 29.6925 5.50925 29.6844 5.50925C29.6738 5.50925 29.3835 5.55209 29.3835 5.55209C32.0671 5.12956 34.355 4.96997 36.2991 4.96997C36.2984 5.09261 36.2972 5.21609 36.296 5.33873C36.2953 5.44541 36.2941 5.55209 36.2929 5.65877C36.2929 5.67473 36.2922 5.69068 36.2922 5.70664C36.291 5.80576 36.2897 5.90489 36.2885 6.00401C36.2885 6.03005 36.2879 6.05609 36.2879 6.08213C36.2866 6.17873 36.2847 6.27533 36.2835 6.37193C36.2829 6.39881 36.2829 6.42653 36.2822 6.45341C36.281 6.54917 36.2791 6.64493 36.2773 6.73985C36.2773 6.76925 36.2767 6.7995 36.276 6.8289C36.2742 6.92214 36.2729 7.01454 36.271 7.10778C36.2704 7.1397 36.2698 7.17078 36.2692 7.2027C36.2673 7.29678 36.2654 7.39086 36.2636 7.4841C36.2629 7.5135 36.2623 7.54206 36.2617 7.57062C36.2592 7.67058 36.2573 7.77138 36.2548 7.87134C36.2542 7.88898 36.2542 7.90578 36.2536 7.92342C36.2311 8.88942 36.2006 9.85627 36.1632 10.8223C31.7431 11.7169 27.384 13.1449 23.1327 15.0467C22.4903 15.3306 21.856 15.6321 21.2229 15.9497Z" fill="#245C7A"/>
<path d="M20.2041 17.7497L19.0352 18.798C19.0352 18.798 18.5031 19.303 18.8913 19.848C18.8913 19.848 19.0714 20.1322 19.563 20.1479C20.0527 20.1607 21.0702 19.848 21.0702 19.848L20.2041 17.7497Z" fill="#100F0D"/>
<path d="M22.995 16.9058C22.6866 16.0068 21.7875 16.0807 21.7862 16.0807C21.1108 16.1336 20.2024 16.709 19.8179 17.4632C19.378 18.3317 19.4316 20.2982 20.2609 20.1345C21.2099 19.9439 20.8467 20.0843 22.3851 19.6138C22.7857 19.4936 23.3732 17.9994 22.995 16.9058Z" fill="#201F1E"/>
<path d="M20.1656 20.1447C20.1046 20.1447 20.0485 20.1313 19.9968 20.1077C19.6834 19.9639 19.5438 19.4124 19.5451 18.8175C19.5463 18.3279 19.6429 17.8085 19.818 17.4633C20.2024 16.7091 21.1109 16.1337 21.7863 16.0808C21.7863 16.0808 21.8043 16.0799 21.8367 16.0799C22.0312 16.0799 22.7302 16.1345 22.9951 16.9058C23.0779 17.145 23.1141 17.4039 23.1166 17.6625C23.1253 18.5874 22.6979 19.5197 22.3851 19.6138C20.8467 20.0844 21.2099 19.944 20.261 20.1346C20.2279 20.1414 20.1962 20.1447 20.1656 20.1447ZM21.4598 16.3538C21.4355 16.3538 21.4212 16.3546 21.4212 16.3546C20.9015 16.3941 20.2024 16.8333 19.9089 17.4154C19.5831 18.0581 19.6092 19.477 20.1743 19.477C20.198 19.477 20.2223 19.4744 20.2479 19.4694C20.9781 19.3231 20.7003 19.4307 21.8816 19.0711C22.1901 18.9753 22.643 17.8288 22.3527 16.9871C22.1477 16.3949 21.6093 16.3538 21.4598 16.3538Z" fill="#39393A"/>
<path d="M15.1004 21.3685L15.9958 21.2602C15.9902 21.2716 15.9852 21.2835 15.9802 21.2946C15.6332 21.3146 15.3384 21.3389 15.1004 21.3685Z" fill="#F3BA15"/>
<path d="M38.4461 21.4694C31.6993 21.3595 25.0074 21.2088 20.4003 21.2088C18.5442 21.2088 17.0257 21.2335 15.9802 21.2949C15.9852 21.2837 15.9901 21.2718 15.9958 21.2604L38.4461 18.5461V21.4694Z" fill="#F3BA15"/>
<path d="M34.2821 19.4777L36.3208 19.3038C36.3208 19.3038 36.7233 19.2854 36.5819 19.7641C36.4429 20.2438 36.3999 20.3304 36.3999 20.3304C36.3999 20.3304 36.3638 20.5749 35.9738 20.6914C35.5831 20.8059 33.2291 21.1409 33.2291 21.1409C33.2291 21.1409 32.8982 21.2157 32.3698 20.9057C31.8415 20.5976 31.839 19.9951 32.0084 19.8379C32.0084 19.8379 32.0028 19.7743 32.3374 19.6751C32.6702 19.5777 34.2821 19.4777 34.2821 19.4777Z" fill="#313031"/>
<path d="M32.5592 19.7447L35.9869 19.4179C35.9869 19.4179 36.3682 19.3854 36.4324 19.6088C36.499 19.8323 36.3077 20.0613 35.7868 20.1496C35.2653 20.2379 33.2758 20.5178 33.2758 20.5178C33.2758 20.5178 32.5312 20.6326 32.2727 20.3747C32.0147 20.1135 32.1275 19.8093 32.5592 19.7447Z" fill="#EE9312"/>
<path d="M3.71115 24.1996C3.1753 24.1624 2.69987 24.1424 2.20327 24.4558C1.73596 24.7504 1.04498 25.1134 0.804468 25.4487C0.722221 25.5947 0.652413 25.7594 0.595089 25.9317C0.483557 26.4482 0.42003 26.9909 0.4057 27.5293C0.4219 27.6947 0.447421 27.8391 0.488544 27.9493C0.632477 28.3474 2.92233 26.039 3.98345 24.8732C4.11367 24.6717 4.25137 24.2458 3.71115 24.1996Z" fill="#D6D4C7"/>
<path d="M0.460618 27.8609C0.460618 27.8598 0.459838 27.858 0.459838 27.8563C0.459838 27.858 0.460618 27.8598 0.460618 27.8609Z" fill="#F1AD58"/>
<path d="M3.61339 24.1928C3.60712 24.1928 3.60086 24.1916 3.59459 24.1916C3.60086 24.1916 3.60712 24.1928 3.61339 24.1928Z" fill="#F3BF5A"/>
<path d="M0.460524 27.8609C0.460524 27.8599 0.459885 27.8582 0.459885 27.8566C0.435584 27.7634 0.418161 27.6518 0.4057 27.5291C0.42003 26.9906 0.483557 26.4479 0.595089 25.9315C0.652413 25.7592 0.722221 25.5945 0.804468 25.4485C1.04498 25.1131 1.73596 24.7502 2.20328 24.4556C2.55532 24.2337 2.8974 24.1793 3.25817 24.1793C3.36845 24.1793 3.47998 24.1842 3.59463 24.1917C3.60148 24.1917 3.60834 24.1928 3.6152 24.1928C2.25064 24.783 1.19888 26.2051 0.460524 27.8609Z" fill="#E8E7E0"/>
<path d="M41.3947 18.993C41.3947 19.1637 41.2906 19.3032 41.1641 19.3032C41.0345 19.3032 40.9324 19.1637 40.9324 18.993V17.8272C40.9324 17.6559 41.0345 17.5165 41.1641 17.5165C41.2906 17.5165 41.3947 17.6559 41.3947 17.8272V18.993Z" fill="#3A413E"/>
<path d="M65.6083 18.993C65.6083 19.1637 65.5061 19.3032 65.3759 19.3032C65.2482 19.3032 65.146 19.1637 65.146 18.993V17.8272C65.146 17.6559 65.2482 17.5165 65.3759 17.5165C65.5061 17.5165 65.6083 17.6559 65.6083 17.8272V18.993Z" fill="#3A413E"/>
<path d="M49.4654 18.993C49.4654 19.1637 49.362 19.3032 49.2336 19.3032C49.1071 19.3032 49.0018 19.1637 49.0018 18.993V17.8272C49.0018 17.6559 49.1071 17.5165 49.2336 17.5165C49.362 17.5165 49.4654 17.6559 49.4654 17.8272V18.993Z" fill="#3A413E"/>
<path d="M57.5369 18.993C57.5369 19.1637 57.4329 19.3032 57.3051 19.3032C57.1786 19.3032 57.0764 19.1637 57.0764 18.993V17.8272C57.0764 17.6559 57.1786 17.5165 57.3051 17.5165C57.4329 17.5165 57.5369 17.6559 57.5369 17.8272V18.993Z" fill="#3A413E"/>
<path d="M67.1529 18.5402L66.9405 17.2231H38.7023V18.5402H67.1529Z" fill="#5E6B66"/>
<path d="M66.9748 17.4346H38.7023V17.223H66.9405L66.9748 17.4346Z" fill="#A0AEA4"/>
<path d="M68.6627 30.1073C68.6191 30.0676 68.5661 30.0482 68.5094 30.0384H66.3168C66.1261 30.0729 65.9261 30.0567 65.7448 30.1414C65.5927 30.2146 65.4332 30.3567 65.4332 30.8489V35.5384L65.5204 35.6973L65.6027 35.7655H65.908C65.908 35.7655 66.3741 35.8813 67.0751 35.478C67.7748 35.0764 68.7941 32.3356 68.7941 32.3356L68.8153 30.4121C68.7836 30.2943 68.7468 30.1854 68.6627 30.1073Z" fill="#100F0D"/>
<path d="M68.796 32.1131L68.8153 30.4121C68.7836 30.2942 68.7468 30.1853 68.6627 30.1072C68.6191 30.0675 68.5661 30.0482 68.5094 30.0383H66.3168C66.1261 30.0728 65.9261 30.0566 65.7448 30.1413C65.5927 30.2145 65.4332 30.3566 65.4332 30.8488V32.1131H68.796Z" fill="#262B36"/>
<path d="M64.8426 20.233H67.0751C67.0751 20.233 67.2278 20.3078 67.2471 20.5352C67.2652 20.7622 67.2471 23.0988 67.2471 23.0988C67.2471 23.0988 67.2745 23.2764 67.1306 23.3022C66.986 23.3239 64.432 21.3138 64.432 21.3138C64.432 21.3138 63.3871 20.3839 64.8426 20.233Z" fill="#A52221"/>
<path d="M65.1329 20.233H67.0022C67.0022 20.233 67.1305 20.2966 67.1449 20.4867C67.1629 20.6746 67.1449 22.6329 67.1449 22.6329C67.1449 22.6329 67.1692 22.7815 67.0489 22.8032C66.9274 22.8235 64.789 21.1382 64.789 21.1382C64.789 21.1382 63.9142 20.3596 65.1329 20.233Z" fill="#E42823"/>
<path d="M65.8401 22.6479L67.1791 23.5585C67.1791 23.5585 67.2551 23.5995 67.2551 23.7836V25.0636C67.2551 25.0636 67.2794 25.2208 67.1579 25.2493C67.0346 25.2779 65.9703 24.0398 65.9703 24.0398C65.9703 24.0398 65.8432 23.8994 65.7903 23.6566C65.7379 23.4137 65.665 22.8602 65.665 22.8602C65.665 22.8602 65.5984 22.4839 65.8401 22.6479Z" fill="#8F391C"/>
<path d="M66.1698 22.952L67.1923 23.6434C67.1923 23.6434 67.2502 23.6762 67.2502 23.819V24.7967C67.2502 24.7967 67.2683 24.9146 67.1742 24.9362C67.082 24.9589 66.2689 24.0132 66.2689 24.0132C66.2689 24.0132 66.1729 23.9066 66.1324 23.7224C66.0938 23.5367 66.0365 23.1141 66.0365 23.1141C66.0365 23.1141 65.9866 22.828 66.1698 22.952Z" fill="#E8531C"/>
<path d="M64.0688 20.7016H64.062C64.057 20.4933 64.2308 20.2967 64.8346 20.233H64.8427C64.2383 20.296 64.0651 20.4926 64.0688 20.7016Z" fill="#F6D04B"/>
<path d="M67.244 20.7016H67.1511C67.1499 20.594 67.148 20.5179 67.1449 20.4867C67.1306 20.2967 67.0022 20.233 67.0022 20.233H67.067C67.067 20.233 67.2215 20.3079 67.239 20.5353C67.2408 20.5632 67.2421 20.6229 67.244 20.7016ZM64.4949 20.7016H64.0687C64.065 20.4926 64.2382 20.296 64.8426 20.233H65.133C64.5547 20.2934 64.4475 20.5002 64.4949 20.7016Z" fill="#C0575B"/>
<path d="M67.1511 20.7016H64.4949C64.4475 20.5002 64.5547 20.2934 65.1329 20.233H67.0022C67.0022 20.233 67.1305 20.2967 67.1449 20.4867C67.148 20.5179 67.1499 20.594 67.1511 20.7016Z" fill="#EC5458"/>
<path d="M65.657 22.7419C65.6551 22.7396 65.6526 22.7379 65.6507 22.736C65.6539 22.673 65.6707 22.61 65.7274 22.6077C65.6744 22.6152 65.6595 22.6799 65.657 22.7419Z" fill="#F1B345"/>
<path d="M67.2489 23.7784C67.2389 23.6701 67.1922 23.6432 67.1922 23.6432L66.1697 22.9518C66.1367 22.9301 66.1118 22.921 66.0918 22.921C66.0171 22.921 66.0289 23.0568 66.0345 23.1008C65.9105 22.9781 65.7853 22.857 65.6569 22.7418C65.6594 22.6798 65.6744 22.6151 65.7273 22.6077C65.7286 22.6077 65.7292 22.6077 65.7304 22.6077C65.756 22.6077 65.789 22.6194 65.832 22.648L67.171 23.5585C67.171 23.5585 67.2458 23.5989 67.2489 23.7784Z" fill="#B07141"/>
<path d="M67.249 24.2867C67.0508 24.0944 66.8515 23.9064 66.6533 23.7154C66.4446 23.5166 66.2414 23.3055 66.0346 23.1008C66.029 23.0568 66.0172 22.921 66.0919 22.921C66.1119 22.921 66.1368 22.9301 66.1698 22.9518L67.1923 23.6432C67.1923 23.6432 67.239 23.6701 67.249 23.7784C67.249 23.7804 67.249 23.782 67.249 23.7837V24.2867Z" fill="#F08441"/>
<path d="M60.5239 4.93468C60.4037 4.93468 60.2822 4.85908 60.2062 4.71628L58.4104 1.37474C58.3637 1.31678 58.1712 1.0967 57.836 1.05806H41.2251H41.2065C40.9354 1.05806 40.3647 1.1807 40.2606 1.57466C40.0151 2.50455 39.1702 4.42731 39.1341 4.50963C39.0232 4.76079 38.7827 4.8448 38.597 4.69528C38.4107 4.54576 38.349 4.22068 38.4599 3.97035C38.468 3.95187 39.301 2.05347 39.521 1.22018C39.6188 0.8447 39.878 0.348257 40.5479 0.116415C40.8825 0.000494956 41.179 -0.0020256 41.227 0.000494479H57.8522H57.8802C58.5843 0.0718944 58.9638 0.620416 59.0043 0.681736L59.0279 0.722055L60.8417 4.09467C60.9688 4.33072 60.9289 4.66168 60.7539 4.83472C60.6847 4.90192 60.6037 4.93468 60.5239 4.93468Z" fill="#201F1E"/>
<path d="M38.9322 3.33031L38.8954 3.31855L38.868 3.18415L39.7005 1.20258C39.7266 1.12529 40.0413 0.275216 40.8725 0.157615H40.8818H57.5325L57.606 0.255899L57.5325 0.355855H40.8849C40.1223 0.466735 39.8437 1.25466 39.8325 1.2891L39.8294 1.2975L38.9963 3.28076L38.9322 3.33031Z" fill="#48484D"/>
<path d="M59.6417 3.33031L59.5831 3.29083L58.5026 1.32354C58.2939 0.931259 57.6609 0.934619 57.6552 0.934619H57.6546L57.5817 0.836335L57.6534 0.736379C57.6845 0.736379 58.3693 0.733017 58.6229 1.20678L59.6996 3.17407L59.6859 3.31099L59.6417 3.33031Z" fill="#48484D"/>
<path d="M41.9841 3.38247C41.9841 3.05319 41.7865 2.78523 41.5423 2.78523H38.5147C38.2698 2.78523 38.0729 3.05319 38.0729 3.38247C38.0729 3.71259 38.2698 3.97887 38.5147 3.97887H41.5423C41.7865 3.97887 41.9841 3.71259 41.9841 3.38247Z" fill="#201F1E"/>
<path d="M38.1054 3.15818C38.0835 3.22706 38.0729 3.30435 38.0729 3.38247C38.0729 3.71259 38.2698 3.97887 38.5147 3.97887H41.5423C41.7865 3.97887 41.9841 3.71259 41.9841 3.38247C41.9841 3.30435 41.9741 3.22706 41.9523 3.15818H38.1054Z" fill="#12100E"/>
<path d="M60.6884 3.38247C60.6884 3.05319 60.4909 2.78523 60.2454 2.78523H57.2185C56.9736 2.78523 56.7761 3.05319 56.7761 3.38247C56.7761 3.71259 56.9736 3.97887 57.2185 3.97887H60.2454C60.4909 3.97887 60.6884 3.71259 60.6884 3.38247Z" fill="#201F1E"/>
<path d="M56.8091 3.15818C56.7867 3.22706 56.7761 3.30435 56.7761 3.38247C56.7761 3.71259 56.9736 3.97887 57.2185 3.97887H60.2454C60.4909 3.97887 60.6884 3.71259 60.6884 3.38247C60.6884 3.30435 60.676 3.22706 60.656 3.15818H56.8091Z" fill="#12100E"/>
<path d="M42.8122 16.0801C42.1418 16.0607 42.049 15.4181 42.049 15.4181C42.049 15.4181 39.8663 6.67285 39.6987 5.76817C39.5311 4.86264 40.2576 4.96932 40.2576 4.96932H62.2388C61.6605 4.005 61.1889 3.40859 60.9347 3.46487H38.3622L38.2195 3.53375C38.0693 3.62111 37.984 3.7656 37.9298 3.95208L38.7024 17.2232H66.94C66.94 17.2232 67.4696 16.9535 67.2447 16.0801H42.8122Z" fill="#292B21"/>
<path d="M42.8121 16.0801C42.1417 16.0607 42.0489 15.4181 42.0489 15.4181C42.0489 15.4181 42.0246 15.3249 41.9816 15.1544H38.5808L38.7023 17.2232H66.9399C66.9399 17.2232 67.4695 16.9535 67.2445 16.0801H42.8121Z" fill="#1D1C16"/>
<path d="M40.2568 4.97254C40.2568 4.97254 39.5316 4.86502 39.6986 5.77055C39.8662 6.67439 42.0482 15.4222 42.0482 15.4222C42.0482 15.4222 42.1411 16.064 42.8127 16.0808H64.4512C62.2281 10.2772 60.2548 6.60635 59.3008 4.97254H40.2568Z" fill="#1A1C19"/>
<path d="M42.5318 5.67629C42.5318 5.67629 41.8993 5.58222 42.0451 6.37434C42.1916 7.16394 44.0963 14.7987 44.0963 14.7987C44.0963 14.7987 44.1773 15.359 44.763 15.3767H63.6544C61.7122 10.3098 59.9906 7.10262 59.1582 5.67629H42.5318Z" fill="#173447"/>
<path d="M42.743 9.32529C42.6963 9.13293 42.6502 8.94393 42.6059 8.76081C42.6502 8.94393 42.6963 9.13293 42.7436 9.32529C42.743 9.32529 42.743 9.32529 42.743 9.32529ZM42.1062 6.66331C42.1062 6.66247 42.1062 6.66164 42.1062 6.6608C42.1062 6.66164 42.1062 6.66247 42.1062 6.66331ZM42.1006 6.63728C42.0775 6.53228 42.0595 6.44996 42.0489 6.39451C42.0595 6.44996 42.0775 6.53228 42.1006 6.63728ZM42.0489 6.39451C42.0483 6.39115 42.0476 6.3878 42.047 6.38528C42.0476 6.3878 42.0483 6.39115 42.0489 6.39451Z" fill="#1E3137"/>
<path d="M42.7436 9.32529C42.6963 9.13293 42.6502 8.94393 42.6059 8.76081C42.3866 7.85781 42.2022 7.08751 42.1062 6.66331C42.1062 6.66247 42.1062 6.66164 42.1062 6.6608C42.1043 6.65324 42.1025 6.64484 42.1006 6.63728C42.0775 6.53228 42.0595 6.44996 42.0489 6.39451C42.0483 6.39115 42.0476 6.3878 42.047 6.38528C42.0464 6.38108 42.0458 6.37772 42.0451 6.37436C42.0302 6.29456 42.0239 6.22315 42.0233 6.16099C42.0215 5.71999 42.3367 5.67295 42.472 5.67295C42.5087 5.67295 42.5318 5.67631 42.5318 5.67631H59.1582C59.3575 6.01987 59.6074 6.46423 59.9015 7.0136C59.7925 7.01948 59.6822 7.0262 59.5737 7.03292C57.0291 7.19504 54.4881 7.45544 51.9515 7.757C49.357 8.0678 46.7706 8.4374 44.1966 8.99516C43.7119 9.10016 43.2265 9.21189 42.7436 9.32529Z" fill="#1E4A66"/>
<path d="M62.2386 4.9693H59.3002C60.2547 6.60311 62.2287 10.2756 64.4518 16.08H67.2445C66.8432 14.5243 64.035 7.96811 62.2386 4.9693Z" fill="#BE891B"/>
<path d="M60.4355 5.19259C60.4355 5.19259 60.071 5.31692 60.4493 5.87972C60.7309 6.3014 63.7099 12.1461 64.6588 14.987C64.6588 14.987 64.8127 15.4944 65.0638 15.5708C65.3162 15.6464 66.6166 15.5708 66.6166 15.5708C66.6166 15.5708 66.938 15.533 66.8122 15.1937C66.6857 14.8543 63.9323 7.85961 62.3509 5.54204C62.3509 5.54204 62.169 5.25896 61.9877 5.20184C61.8057 5.14556 60.4355 5.19259 60.4355 5.19259Z" fill="#FAB112"/>
<path d="M40.9909 6.25694C40.9909 6.36278 40.9261 6.44847 40.8488 6.44847C40.7697 6.44847 40.7055 6.36278 40.7055 6.25694C40.7055 6.15026 40.7697 6.06542 40.8488 6.06542C40.9261 6.06542 40.9909 6.15026 40.9909 6.25694Z" fill="#100F0D"/>
<path d="M41.8209 9.33643C41.8209 9.44311 41.7561 9.52878 41.6776 9.52878C41.6004 9.52878 41.5368 9.44311 41.5368 9.33643C41.5368 9.22975 41.6004 9.1449 41.6776 9.1449C41.7561 9.1449 41.8209 9.22975 41.8209 9.33643Z" fill="#100F0D"/>
<path d="M42.5916 12.4159C42.5916 12.5209 42.5275 12.6065 42.4483 12.6065C42.3711 12.6065 42.3069 12.5209 42.3069 12.4159C42.3069 12.3109 42.3711 12.2252 42.4483 12.2252C42.5275 12.2252 42.5916 12.3109 42.5916 12.4159Z" fill="#100F0D"/>
<path d="M43.4085 15.496C43.4085 15.601 43.3455 15.6867 43.2652 15.6867C43.1885 15.6867 43.1237 15.601 43.1237 15.496C43.1237 15.3885 43.1885 15.3045 43.2652 15.3045C43.3455 15.3045 43.4085 15.3885 43.4085 15.496Z" fill="#100F0D"/>
<path d="M14.8619 25.5493H9.36068C8.7837 25.5493 7.25466 26.9327 7.01851 29.2437L6.57487 35.1909H17.768L17.1337 29.1403C16.7442 26.7555 15.7012 25.5493 14.8619 25.5493Z" fill="#100F0D"/>
<path d="M18.5163 27.4107C18.054 24.595 16.2595 23.0351 15.2626 23.0351H8.72202C8.03539 23.0351 5.53992 24.6193 5.25393 28.9679L4.64891 35.4068L6.5942 35.4829L7.01788 29.2436C7.25465 26.9319 8.78373 25.5492 9.36133 25.5492H14.8619C15.7012 25.5492 16.7442 26.7548 17.1337 29.1409L17.7686 35.1899L20.0073 35.2119L18.5163 27.4107Z" fill="#313031"/>
<path d="M20.0073 35.2121L18.2371 27.2251C17.27 24.4725 15.8289 23.6545 14.9385 23.6545L9.39676 23.6869C7.5275 23.9239 6.17914 26.3061 5.5573 28.8943L5.085 32.4686H4.94231L5.25385 28.9681C5.53985 24.6195 8.03531 23.0353 8.72195 23.0353H15.2625C16.2594 23.0353 18.0539 24.5952 18.5162 27.4109L20.0073 35.2121Z" fill="#403F42"/>
<path d="M17.452 35.0936C17.452 38.908 15.1584 42 12.3283 42C9.50017 42 7.20536 38.908 7.20536 35.0936C7.20536 31.2781 9.50017 28.1862 12.3283 28.1862C15.1584 28.1862 17.452 31.2781 17.452 35.0936Z" fill="#31302F"/>
<path d="M17.452 35.0936C17.452 38.908 15.1584 42 12.3283 42C9.50017 42 7.20536 38.908 7.20536 35.0936C7.20536 31.2781 9.50017 28.1862 12.3283 28.1862C15.1584 28.1862 17.452 31.2781 17.452 35.0936Z" fill="#201F1E"/>
<path d="M15.8058 35.0936C15.8058 37.6798 14.2487 39.7789 12.3284 39.7789C10.4087 39.7789 8.85221 37.6798 8.85221 35.0936C8.85221 32.5047 10.4087 30.4069 12.3284 30.4069C14.2487 30.4069 15.8058 32.5047 15.8058 35.0936Z" fill="#100F0D"/>
<path d="M15.5023 35.0935C15.5023 37.4554 14.0811 39.37 12.3284 39.37C10.575 39.37 9.155 37.4554 9.155 35.0935C9.155 32.7304 10.575 30.8145 12.3284 30.8145C14.0811 30.8145 15.5023 32.7304 15.5023 35.0935Z" fill="#D6D4C7"/>
<path d="M13.9196 32.5439L13.9053 32.3953C13.5688 31.9854 13.1333 31.72 12.6516 31.6704L12.5295 31.7492L12.4878 31.8525V34.2315L12.5227 34.3214L12.5538 34.3434L12.6379 34.3181L13.9047 32.6118L13.9196 32.5439Z" fill="#454543"/>
<path d="M14.8481 34.8932L14.9166 34.7768C14.8923 34.1642 14.7222 33.561 14.4101 33.0679L14.2824 33.0059L14.1982 33.0403L12.9508 34.7219L12.9278 34.8184L12.9383 34.863L13.0094 34.926H14.802L14.8481 34.8932Z" fill="#454543"/>
<path d="M14.2426 37.3639L14.3529 37.3498C14.6625 36.9012 14.8657 36.3175 14.9124 35.6704L14.8569 35.5051L14.7809 35.4453L13.0163 35.4049L12.9478 35.4505L12.9322 35.4916L12.9497 35.6051L14.1921 37.3429L14.2426 37.3639Z" fill="#454543"/>
<path d="M12.5296 38.4231L12.6187 38.5156C13.0723 38.4746 13.5159 38.2377 13.878 37.8065L13.9216 37.6352L13.8973 37.5227L12.6305 35.863L12.5589 35.8351L12.5259 35.8495L12.4798 35.9477L12.5059 38.3627L12.5296 38.4231Z" fill="#454543"/>
<path d="M10.7376 32.5439L10.7507 32.3953C11.0872 31.9854 11.5246 31.72 12.0044 31.6704L12.1271 31.7492L12.1701 31.8525V34.2315L12.1346 34.3214L12.1041 34.3434L12.02 34.3181L10.7526 32.6118L10.7376 32.5439Z" fill="#454543"/>
<path d="M9.8086 34.8932L9.74069 34.7768C9.76375 34.1642 9.93384 33.561 10.2485 33.0679L10.3756 33.0059L10.4579 33.0403L11.7072 34.7219L11.7302 34.8184L11.719 34.863L11.6461 34.926H9.85472L9.8086 34.8932Z" fill="#454543"/>
<path d="M10.4148 37.3639L10.3052 37.3498C9.99425 36.9012 9.78988 36.3175 9.74564 35.6704L9.80046 35.5051L9.8771 35.4453L11.6423 35.4049L11.709 35.4505L11.7252 35.4916L11.709 35.6051L10.464 37.3429L10.4148 37.3639Z" fill="#454543"/>
<path d="M12.127 38.4231L12.0398 38.5156C11.5843 38.4746 11.1395 38.2377 10.7787 37.8065L10.7357 37.6352L10.7606 37.5227L12.0261 35.863L12.0984 35.8351L12.1302 35.8495L12.1775 35.9477L12.1526 38.3627L12.127 38.4231Z" fill="#454543"/>
<path d="M13.2599 35.0935C13.2599 35.7872 12.8437 36.3483 12.3284 36.3483C11.8137 36.3483 11.3963 35.7872 11.3963 35.0935C11.3963 34.3986 11.8137 33.8358 12.3284 33.8358C12.8437 33.8358 13.2599 34.3986 13.2599 35.0935Z" fill="#D6D4C7"/>
<path d="M12.9322 34.4751C12.9322 34.561 12.8811 34.6322 12.8163 34.6322C12.7515 34.6322 12.7005 34.561 12.7005 34.4751C12.7005 34.3878 12.7515 34.3182 12.8163 34.3182C12.8811 34.3182 12.9322 34.3878 12.9322 34.4751Z" fill="#454543"/>
<path d="M12.4492 34.252C12.4492 34.3376 12.3968 34.4071 12.3333 34.4071C12.2697 34.4071 12.2168 34.3376 12.2168 34.252C12.2168 34.1653 12.2697 34.0954 12.3333 34.0954C12.3968 34.0954 12.4492 34.1653 12.4492 34.252Z" fill="#454543"/>
<path d="M11.957 34.4997C11.957 34.5853 11.9053 34.6549 11.8405 34.6549C11.7776 34.6549 11.7252 34.5853 11.7252 34.4997C11.7252 34.4124 11.7776 34.3435 11.8405 34.3435C11.9053 34.3435 11.957 34.4124 11.957 34.4997Z" fill="#454543"/>
<path d="M12.9322 35.842C12.9322 35.7554 12.8811 35.6865 12.8163 35.6865C12.7515 35.6865 12.7005 35.7554 12.7005 35.842C12.7005 35.93 12.7515 35.9989 12.8163 35.9989C12.8811 35.9989 12.9322 35.93 12.9322 35.842Z" fill="#454543"/>
<path d="M13.1596 35.189C13.1596 35.1027 13.1078 35.0322 13.0443 35.0322C12.9801 35.0322 12.9278 35.1027 12.9278 35.189C12.9278 35.2756 12.9801 35.3455 13.0443 35.3455C13.1078 35.3455 13.1596 35.2756 13.1596 35.189Z" fill="#454543"/>
<path d="M11.7302 35.189C11.7302 35.1027 11.6779 35.0322 11.6137 35.0322C11.5495 35.0322 11.4984 35.1027 11.4984 35.189C11.4984 35.2756 11.5495 35.3455 11.6137 35.3455C11.6779 35.3455 11.7302 35.2756 11.7302 35.189Z" fill="#454543"/>
<path d="M12.4492 36.0678C12.4492 35.9789 12.3968 35.91 12.3333 35.91C12.2697 35.91 12.2168 35.9789 12.2168 36.0678C12.2168 36.1518 12.2697 36.2207 12.3333 36.2207C12.3968 36.2207 12.4492 36.1518 12.4492 36.0678Z" fill="#454543"/>
<path d="M11.957 35.8199C11.957 35.7327 11.9053 35.6621 11.8405 35.6621C11.7776 35.6621 11.7252 35.7327 11.7252 35.8199C11.7252 35.9055 11.7776 35.9761 11.8405 35.9761C11.9053 35.9761 11.957 35.9055 11.957 35.8199Z" fill="#454543"/>
<path d="M57.616 25.5493H52.1161C51.5391 25.5493 50.0088 26.9327 49.7727 29.2437L49.329 35.1909H60.5227L59.8878 29.1403C59.4984 26.7555 58.4553 25.5493 57.616 25.5493Z" fill="#100F0D"/>
<path d="M61.2711 27.4107C60.81 24.595 59.0155 23.0351 58.0173 23.0351H51.4762C50.7902 23.0351 48.2941 24.6193 48.01 28.9679L47.4031 35.4068L49.3508 35.4829L49.7727 29.2436C50.0094 26.9319 51.5397 25.5492 52.1155 25.5492H57.6167C58.4554 25.5492 59.499 26.7548 59.8885 29.1409L60.5227 35.1899L62.764 35.2119L61.2711 27.4107Z" fill="#313031"/>
<path d="M47.4031 35.7655L47.4355 35.4076L47.4504 35.4085L47.4031 35.7655Z" fill="#747677"/>
<path d="M47.4505 35.4086L47.4355 35.4077L48.01 28.9681C48.2942 24.6195 50.7902 23.0352 51.4762 23.0352H58.0174C59.0156 23.0352 60.8101 24.5952 61.2711 27.4108L62.7641 35.212L60.9933 27.2251C60.025 24.4725 58.5838 23.6545 57.6946 23.6545L52.1517 23.6869C50.2818 23.9239 48.9353 26.3061 48.3135 28.8943L47.4505 35.4086Z" fill="#403F42"/>
<path d="M60.2062 35.0936C60.2062 38.908 57.9126 42 55.0838 42C52.2544 42 49.9602 38.908 49.9602 35.0936C49.9602 31.2781 52.2544 28.1862 55.0838 28.1862C57.9126 28.1862 60.2062 31.2781 60.2062 35.0936Z" fill="#31302F"/>
<path d="M60.2062 35.0936C60.2062 38.908 57.9126 42 55.0838 42C52.2544 42 49.9602 38.908 49.9602 35.0936C49.9602 31.2781 52.2544 28.1862 55.0838 28.1862C57.9126 28.1862 60.2062 31.2781 60.2062 35.0936Z" fill="#201F1E"/>
<path d="M58.5601 35.0936C58.5601 37.6798 57.0042 39.7789 55.0839 39.7789C53.1623 39.7789 51.6077 37.6798 51.6077 35.0936C51.6077 32.5047 53.1623 30.4069 55.0839 30.4069C57.0042 30.4069 58.5601 32.5047 58.5601 35.0936Z" fill="#100F0D"/>
<path d="M58.2578 35.0935C58.2578 37.4554 56.8353 39.37 55.0838 39.37C53.3317 39.37 51.9092 37.4554 51.9092 35.0935C51.9092 32.7304 53.3317 30.8145 55.0838 30.8145C56.8353 30.8145 58.2578 32.7304 58.2578 35.0935Z" fill="#D6D4C7"/>
<path d="M56.6759 32.5439L56.6609 32.3953C56.3232 31.9854 55.8883 31.72 55.4073 31.6704L55.2845 31.7492L55.2415 31.8525V34.2315L55.277 34.3214L55.3082 34.3434L55.393 34.3181L56.6597 32.6118L56.6759 32.5439Z" fill="#454543"/>
<path d="M57.6042 34.8932L57.6715 34.7768C57.6472 34.1642 57.477 33.561 57.1643 33.0679L57.0371 33.0059L56.9537 33.0403L55.7056 34.7219L55.6826 34.8184L55.6932 34.863L55.7667 34.926H57.5574L57.6042 34.8932Z" fill="#454543"/>
<path d="M56.9967 37.3639L57.1076 37.3498C57.4161 36.9012 57.6204 36.3175 57.6665 35.6704L57.6117 35.5051L57.5351 35.4453L55.7711 35.4049L55.7026 35.4505L55.6876 35.4916L55.7038 35.6051L56.9475 37.3429L56.9967 37.3639Z" fill="#454543"/>
<path d="M55.2844 38.4231L55.3729 38.5156C55.8265 38.4746 56.2726 38.2377 56.634 37.8065L56.6758 37.6352L56.6515 37.5227L55.3847 35.863L55.3131 35.8351L55.2813 35.8495L55.2346 35.9477L55.2601 38.3627L55.2844 38.4231Z" fill="#454543"/>
<path d="M53.4917 32.5439L53.5048 32.3953C53.8425 31.9854 54.2793 31.72 54.7597 31.6704L54.8831 31.7492L54.9248 31.8525V34.2315L54.8887 34.3214L54.8588 34.3434L54.774 34.3181L53.5067 32.6118L53.4917 32.5439Z" fill="#454543"/>
<path d="M52.5634 34.8932L52.4961 34.7768C52.5185 34.1642 52.6886 33.561 53.0026 33.0679L53.1297 33.0059L53.2145 33.0403L54.4606 34.7219L54.4849 34.8184L54.4731 34.863L54.4027 34.926H52.6088L52.5634 34.8932Z" fill="#454543"/>
<path d="M53.1703 37.3639L53.0594 37.3498C52.7498 36.9012 52.546 36.3175 52.5005 35.6704L52.5547 35.5051L52.6314 35.4453L54.3966 35.4049L54.4632 35.4505L54.4801 35.4916L54.4632 35.6051L53.2196 37.3429L53.1703 37.3639Z" fill="#454543"/>
<path d="M54.8833 38.4231L54.7942 38.5156C54.3399 38.4746 53.8957 38.2377 53.5343 37.8065L53.4901 37.6352L53.515 37.5227L54.7817 35.863L54.854 35.8351L54.887 35.8495L54.9331 35.9477L54.907 38.3627L54.8833 38.4231Z" fill="#454543"/>
<path d="M56.0153 35.0935C56.0153 35.7872 55.5978 36.3483 55.0838 36.3483C54.5691 36.3483 54.1504 35.7872 54.1504 35.0935C54.1504 34.3986 54.5691 33.8358 55.0838 33.8358C55.5978 33.8358 56.0153 34.3986 56.0153 35.0935Z" fill="#D6D4C7"/>
<path d="M55.6876 34.4751C55.6876 34.561 55.6352 34.6322 55.5704 34.6322C55.5075 34.6322 55.4552 34.561 55.4552 34.4751C55.4552 34.3878 55.5075 34.3182 55.5704 34.3182C55.6352 34.3182 55.6876 34.3878 55.6876 34.4751Z" fill="#454543"/>
<path d="M55.2035 34.252C55.2035 34.3376 55.1517 34.4071 55.0888 34.4071C55.024 34.4071 54.9723 34.3376 54.9723 34.252C54.9723 34.1653 55.024 34.0954 55.0888 34.0954C55.1517 34.0954 55.2035 34.1653 55.2035 34.252Z" fill="#454543"/>
<path d="M54.7113 34.4997C54.7113 34.5853 54.6608 34.6549 54.5967 34.6549C54.5319 34.6549 54.4801 34.5853 54.4801 34.4997C54.4801 34.4124 54.5319 34.3435 54.5967 34.3435C54.6608 34.3435 54.7113 34.4124 54.7113 34.4997Z" fill="#454543"/>
<path d="M55.6876 35.842C55.6876 35.7554 55.6352 35.6865 55.5704 35.6865C55.5075 35.6865 55.4552 35.7554 55.4552 35.842C55.4552 35.93 55.5075 35.9989 55.5704 35.9989C55.6352 35.9989 55.6876 35.93 55.6876 35.842Z" fill="#454543"/>
<path d="M55.9131 35.189C55.9131 35.1027 55.8633 35.0322 55.7985 35.0322C55.7337 35.0322 55.6826 35.1027 55.6826 35.189C55.6826 35.2756 55.7337 35.3455 55.7985 35.3455C55.8633 35.3455 55.9131 35.2756 55.9131 35.189Z" fill="#454543"/>
<path d="M54.4851 35.189C54.4851 35.1027 54.4327 35.0322 54.3679 35.0322C54.3037 35.0322 54.2526 35.1027 54.2526 35.189C54.2526 35.2756 54.3037 35.3455 54.3679 35.3455C54.4327 35.3455 54.4851 35.2756 54.4851 35.189Z" fill="#454543"/>
<path d="M55.2035 36.0678C55.2035 35.9789 55.1517 35.91 55.0888 35.91C55.024 35.91 54.9723 35.9789 54.9723 36.0678C54.9723 36.1518 55.024 36.2207 55.0888 36.2207C55.1517 36.2207 55.2035 36.1518 55.2035 36.0678Z" fill="#454543"/>
<path d="M54.7113 35.8199C54.7113 35.7327 54.6608 35.6621 54.5967 35.6621C54.5319 35.6621 54.4801 35.7327 54.4801 35.8199C54.4801 35.9055 54.5319 35.9761 54.5967 35.9761C54.6608 35.9761 54.7113 35.9055 54.7113 35.8199Z" fill="#454543"/>
<path d="M6.88509 33.9125C6.9125 33.4311 6.94302 32.9501 6.96608 32.4687H0.405644C0.330874 32.4822 0.259202 32.499 0.201255 32.541C0.0903461 32.6174 0.0405005 32.7267 0 32.8474L0.0274121 34.7719C0.0274121 34.7719 1.38262 37.5153 2.31725 37.9176C3.24814 38.3226 3.86812 38.2067 3.86812 38.2067L6.57479 38.2218C6.57791 37.9993 6.8477 34.5537 6.88509 33.9125Z" fill="#313031"/>
<path d="M0.0243088 34.5492L0 32.8472L0.0243088 34.5492Z" fill="#747677"/>
<path d="M0.0243088 34.5492L0 32.8472C0.0405005 32.7265 0.0903461 32.6172 0.201255 32.5408C0.259202 32.4988 0.330874 32.482 0.405644 32.4685H5.40837C5.38718 32.9489 0.0324089 34.5466 0.0243088 34.5492Z" fill="#403F42"/>
</svg>
