<svg width="20" height="22" viewBox="0 0 20 22" fill="none" xmlns="http://www.w3.org/2000/svg">
<path fill-rule="evenodd" clip-rule="evenodd" d="M15.4977 6.18916C15.4255 9.6862 12.9291 12.4548 9.91852 12.3767C6.90794 12.4548 4.41154 9.6862 4.33934 6.18916C4.41154 2.69212 6.90794 -0.0764866 9.91852 0.00161249C12.9291 -0.0764866 15.4255 2.69212 15.4977 6.18916ZM12.7435 13.7519H14.8778V13.7508C17.5544 13.6804 19.7739 16.1422 19.8371 19.2513V19.9383C19.8125 21.1035 18.9805 22.0257 17.9774 21.9994H1.85973C0.85625 22.0257 0.0240665 21.1029 0 19.9373V19.2502C0.0641756 16.142 2.28344 13.6815 4.95927 13.7519H7.09452C8.89486 14.6684 10.9432 14.6684 12.7435 13.7519Z" fill="#B4C2CD"/>
</svg>
